G04 #@! TF.GenerationSoftware,KiCad,Pcbnew,6.0.9-8da3e8f707~116~ubuntu20.04.1*
G04 #@! TF.CreationDate,2023-03-26T17:34:05+00:00*
G04 #@! TF.ProjectId,LEC011102,4c454330-3131-4313-9032-2e6b69636164,rev?*
G04 #@! TF.SameCoordinates,Original*
G04 #@! TF.FileFunction,Copper,L2,Bot*
G04 #@! TF.FilePolarity,Positive*
%FSLAX46Y46*%
G04 Gerber Fmt 4.6, Leading zero omitted, Abs format (unit mm)*
G04 Created by KiCad (PCBNEW 6.0.9-8da3e8f707~116~ubuntu20.04.1) date 2023-03-26 17:34:05*
%MOMM*%
%LPD*%
G01*
G04 APERTURE LIST*
G04 #@! TA.AperFunction,ComponentPad*
%ADD10R,3.000000X3.000000*%
G04 #@! TD*
G04 #@! TA.AperFunction,ComponentPad*
%ADD11C,3.000000*%
G04 #@! TD*
G04 #@! TA.AperFunction,ComponentPad*
%ADD12C,1.800000*%
G04 #@! TD*
G04 #@! TA.AperFunction,ComponentPad*
%ADD13R,1.800000X1.800000*%
G04 #@! TD*
G04 #@! TA.AperFunction,ComponentPad*
%ADD14R,1.600000X1.600000*%
G04 #@! TD*
G04 #@! TA.AperFunction,ComponentPad*
%ADD15C,1.600000*%
G04 #@! TD*
G04 #@! TA.AperFunction,ComponentPad*
%ADD16R,1.440000X1.440000*%
G04 #@! TD*
G04 #@! TA.AperFunction,ComponentPad*
%ADD17C,1.440000*%
G04 #@! TD*
G04 #@! TA.AperFunction,SMDPad,CuDef*
%ADD18C,1.500000*%
G04 #@! TD*
G04 #@! TA.AperFunction,ViaPad*
%ADD19C,0.800000*%
G04 #@! TD*
G04 #@! TA.AperFunction,Conductor*
%ADD20C,0.400000*%
G04 #@! TD*
G04 #@! TA.AperFunction,Conductor*
%ADD21C,3.000000*%
G04 #@! TD*
G04 APERTURE END LIST*
D10*
G04 #@! TO.P,J1,1,Pin_1*
G04 #@! TO.N,GND*
X91440000Y-53340000D03*
D11*
G04 #@! TO.P,J1,2,Pin_2*
G04 #@! TO.N,Net-(J1-Pad2)*
X96520000Y-53340000D03*
G04 #@! TD*
D10*
G04 #@! TO.P,J2,1,Pin_1*
G04 #@! TO.N,Net-(D1-Pad3)*
X83820000Y-40640000D03*
D11*
G04 #@! TO.P,J2,2,Pin_2*
G04 #@! TO.N,Net-(D1-Pad4)*
X83820000Y-45720000D03*
G04 #@! TD*
D10*
G04 #@! TO.P,J3,1,Pin_1*
G04 #@! TO.N,/T1*
X143510000Y-33020000D03*
D11*
G04 #@! TO.P,J3,2,Pin_2*
G04 #@! TO.N,/R1*
X138430000Y-33020000D03*
G04 #@! TO.P,J3,3,Pin_3*
G04 #@! TO.N,/C1*
X133350000Y-33020000D03*
G04 #@! TD*
D10*
G04 #@! TO.P,J4,1,Pin_1*
G04 #@! TO.N,/C2*
X133350000Y-53340000D03*
D11*
G04 #@! TO.P,J4,2,Pin_2*
G04 #@! TO.N,/R2*
X138430000Y-53340000D03*
G04 #@! TO.P,J4,3,Pin_3*
G04 #@! TO.N,/T2*
X143510000Y-53340000D03*
G04 #@! TD*
D12*
G04 #@! TO.P,K1,1*
G04 #@! TO.N,+5V*
X127000000Y-39370000D03*
G04 #@! TO.P,K1,4*
G04 #@! TO.N,/C1*
X134620000Y-39370000D03*
G04 #@! TO.P,K1,6*
G04 #@! TO.N,/R1*
X139700000Y-39370000D03*
G04 #@! TO.P,K1,8*
G04 #@! TO.N,/T1*
X144780000Y-39370000D03*
G04 #@! TO.P,K1,9*
G04 #@! TO.N,/T2*
X144780000Y-46990000D03*
G04 #@! TO.P,K1,11*
G04 #@! TO.N,/R2*
X139700000Y-46990000D03*
G04 #@! TO.P,K1,13*
G04 #@! TO.N,/C2*
X134620000Y-46990000D03*
D13*
G04 #@! TO.P,K1,16*
G04 #@! TO.N,Net-(D3-Pad2)*
X127000000Y-46990000D03*
G04 #@! TD*
D14*
G04 #@! TO.P,C3,1*
G04 #@! TO.N,Net-(C3-Pad1)*
X103752651Y-45550000D03*
D15*
G04 #@! TO.P,C3,2*
G04 #@! TO.N,GND*
X100252651Y-45550000D03*
G04 #@! TD*
D16*
G04 #@! TO.P,RV1,1,1*
G04 #@! TO.N,Net-(R2-Pad2)*
X108500000Y-53340000D03*
D17*
G04 #@! TO.P,RV1,2,2*
G04 #@! TO.N,Net-(C3-Pad1)*
X105960000Y-53340000D03*
G04 #@! TO.P,RV1,3,3*
X103420000Y-53340000D03*
G04 #@! TD*
D18*
G04 #@! TO.P,TP1,1,1*
G04 #@! TO.N,Net-(D1-Pad3)*
X87630000Y-40640000D03*
G04 #@! TD*
G04 #@! TO.P,TP2,1,1*
G04 #@! TO.N,Net-(D1-Pad4)*
X87630000Y-45720000D03*
G04 #@! TD*
G04 #@! TO.P,TP3,1,1*
G04 #@! TO.N,Net-(R3-Pad2)*
X115570000Y-44450000D03*
G04 #@! TD*
G04 #@! TO.P,TP4,1,1*
G04 #@! TO.N,+5V*
X119380000Y-33655000D03*
G04 #@! TD*
G04 #@! TO.P,TP5,1,1*
G04 #@! TO.N,GND*
X106680000Y-35560000D03*
G04 #@! TD*
G04 #@! TO.P,TP6,1,1*
G04 #@! TO.N,/R1*
X138430000Y-36195000D03*
G04 #@! TD*
G04 #@! TO.P,TP7,1,1*
G04 #@! TO.N,/C1*
X133350000Y-36195000D03*
G04 #@! TD*
G04 #@! TO.P,TP8,1,1*
G04 #@! TO.N,/T1*
X143510000Y-36195000D03*
G04 #@! TD*
G04 #@! TO.P,TP9,1,1*
G04 #@! TO.N,/R2*
X138430000Y-50165000D03*
G04 #@! TD*
G04 #@! TO.P,TP10,1,1*
G04 #@! TO.N,/C2*
X133350000Y-50165000D03*
G04 #@! TD*
G04 #@! TO.P,TP11,1,1*
G04 #@! TO.N,/T2*
X143510000Y-50165000D03*
G04 #@! TD*
D19*
G04 #@! TO.N,GND*
X93980000Y-30480000D03*
X93980000Y-53340000D03*
X99060000Y-30480000D03*
X101600000Y-30480000D03*
X101600000Y-35560000D03*
X101600000Y-33020000D03*
X96520000Y-38100000D03*
X116840000Y-38100000D03*
X104140000Y-33020000D03*
X106680000Y-30480000D03*
X99060000Y-48260000D03*
X104140000Y-30480000D03*
X88900000Y-30480000D03*
X101600000Y-43180000D03*
X96520000Y-48260000D03*
X119380000Y-30480000D03*
X93980000Y-45720000D03*
X113030000Y-40640000D03*
X119380000Y-48260000D03*
X101600000Y-48260000D03*
X114300000Y-49530000D03*
X114300000Y-30480000D03*
X104140000Y-43180000D03*
X116840000Y-48260000D03*
X114300000Y-38100000D03*
X96520000Y-50800000D03*
X109220000Y-30480000D03*
X96520000Y-40640000D03*
X91440000Y-43180000D03*
X93980000Y-43180000D03*
X104140000Y-35560000D03*
X96520000Y-43180000D03*
G04 #@! TO.N,+5V*
X119380000Y-33655000D03*
G04 #@! TO.N,Net-(J1-Pad2)*
X110236000Y-50292000D03*
X112395000Y-45339000D03*
G04 #@! TO.N,Net-(R3-Pad2)*
X112522000Y-43942000D03*
X117094000Y-46101000D03*
G04 #@! TD*
D20*
G04 #@! TO.N,Net-(D1-Pad4)*
X87630000Y-45720000D02*
X83820000Y-45720000D01*
G04 #@! TO.N,Net-(D1-Pad3)*
X87630000Y-40640000D02*
X83820000Y-40640000D01*
G04 #@! TO.N,Net-(J1-Pad2)*
X110236000Y-50292000D02*
X110236000Y-49276000D01*
X112395000Y-47117000D02*
X112395000Y-45339000D01*
X110236000Y-49276000D02*
X112395000Y-47117000D01*
D21*
G04 #@! TO.N,/C1*
X133350000Y-33020000D02*
X133350000Y-38100000D01*
X133350000Y-38100000D02*
X134620000Y-39370000D01*
G04 #@! TO.N,/R1*
X138430000Y-38100000D02*
X139700000Y-39370000D01*
X138430000Y-33020000D02*
X138430000Y-38100000D01*
G04 #@! TO.N,/T1*
X143510000Y-33020000D02*
X143510000Y-38100000D01*
G04 #@! TO.N,/T2*
X143510000Y-53340000D02*
X143510000Y-48260000D01*
G04 #@! TO.N,/R2*
X138430000Y-48260000D02*
X139700000Y-46990000D01*
X138430000Y-53340000D02*
X138430000Y-48260000D01*
G04 #@! TO.N,/C2*
X133350000Y-53340000D02*
X133350000Y-48260000D01*
X133350000Y-48260000D02*
X134620000Y-46990000D01*
D20*
G04 #@! TO.N,Net-(R3-Pad2)*
X114935000Y-43942000D02*
X117094000Y-46101000D01*
X112522000Y-43942000D02*
X114935000Y-43942000D01*
G04 #@! TD*
G04 #@! TA.AperFunction,Conductor*
G04 #@! TO.N,GND*
G36*
X144627738Y-27579002D02*
G01*
X144674231Y-27632658D01*
X144680497Y-27649447D01*
X145179471Y-29345959D01*
X145179740Y-29346887D01*
X145192436Y-29391309D01*
X145200512Y-29419565D01*
X145216540Y-29444969D01*
X145224593Y-29459867D01*
X145237066Y-29487186D01*
X145242936Y-29493977D01*
X145253511Y-29506211D01*
X145264745Y-29521369D01*
X145278160Y-29542631D01*
X145284889Y-29548574D01*
X145284890Y-29548575D01*
X145300671Y-29562512D01*
X145312578Y-29574546D01*
X145332224Y-29597274D01*
X145339764Y-29602145D01*
X145339768Y-29602148D01*
X145353347Y-29610919D01*
X145368387Y-29622316D01*
X145387228Y-29638956D01*
X145414400Y-29651713D01*
X145429220Y-29659930D01*
X145446910Y-29671357D01*
X145446914Y-29671359D01*
X145454455Y-29676230D01*
X145471402Y-29681269D01*
X145478555Y-29683396D01*
X145496191Y-29690115D01*
X145510821Y-29696984D01*
X145510825Y-29696985D01*
X145518948Y-29700799D01*
X145527818Y-29702180D01*
X145548615Y-29705418D01*
X145565141Y-29709144D01*
X145578910Y-29713238D01*
X145638505Y-29751825D01*
X145667778Y-29816506D01*
X145669000Y-29834012D01*
X145669000Y-31173124D01*
X145648998Y-31241245D01*
X145595342Y-31287738D01*
X145525068Y-31297842D01*
X145460488Y-31268348D01*
X145442174Y-31248689D01*
X145378643Y-31163920D01*
X145378642Y-31163919D01*
X145373261Y-31156739D01*
X145256705Y-31069385D01*
X145120316Y-31018255D01*
X145058134Y-31011500D01*
X143621867Y-31011500D01*
X143608697Y-31010810D01*
X143584636Y-31008281D01*
X143584633Y-31008281D01*
X143580267Y-31007822D01*
X143575879Y-31007975D01*
X143575873Y-31007975D01*
X143477146Y-31011423D01*
X143472749Y-31011500D01*
X141961866Y-31011500D01*
X141899684Y-31018255D01*
X141763295Y-31069385D01*
X141646739Y-31156739D01*
X141559385Y-31273295D01*
X141508255Y-31409684D01*
X141501500Y-31471866D01*
X141501500Y-38046692D01*
X141481498Y-38114813D01*
X141427842Y-38161306D01*
X141357568Y-38171410D01*
X141292988Y-38141916D01*
X141274872Y-38122521D01*
X141256243Y-38097800D01*
X141219536Y-38049088D01*
X140475405Y-37304957D01*
X140441379Y-37242645D01*
X140438500Y-37215862D01*
X140438500Y-33115403D01*
X140438999Y-33104202D01*
X140442531Y-33064627D01*
X140442531Y-33064625D01*
X140442751Y-33062161D01*
X140443193Y-33020000D01*
X140438577Y-32952285D01*
X140438500Y-32950796D01*
X140438500Y-32949854D01*
X140434953Y-32899129D01*
X140424567Y-32746778D01*
X140424283Y-32745405D01*
X140424262Y-32745202D01*
X140424119Y-32744181D01*
X140423811Y-32739788D01*
X140422897Y-32735489D01*
X140422895Y-32735473D01*
X140396966Y-32613490D01*
X140396830Y-32612844D01*
X140395360Y-32605743D01*
X140369032Y-32478612D01*
X140367747Y-32474983D01*
X140366576Y-32470214D01*
X140366325Y-32469337D01*
X140365409Y-32465030D01*
X140340598Y-32396860D01*
X140321776Y-32345148D01*
X140321404Y-32344114D01*
X140279046Y-32224500D01*
X140279045Y-32224499D01*
X140277617Y-32220465D01*
X140275654Y-32216662D01*
X140273945Y-32212713D01*
X140274121Y-32212637D01*
X140272481Y-32208894D01*
X140270848Y-32205225D01*
X140269337Y-32201074D01*
X140210695Y-32090785D01*
X140209980Y-32089421D01*
X140153976Y-31980915D01*
X140153975Y-31980914D01*
X140152013Y-31977112D01*
X140149283Y-31973228D01*
X140141113Y-31959921D01*
X140139531Y-31956945D01*
X140139530Y-31956943D01*
X140137464Y-31953058D01*
X140101487Y-31903539D01*
X140065892Y-31854547D01*
X140064741Y-31852937D01*
X140053224Y-31836550D01*
X139994545Y-31753057D01*
X139988757Y-31746828D01*
X139979130Y-31735128D01*
X139974949Y-31729374D01*
X139974948Y-31729373D01*
X139972358Y-31725808D01*
X139969300Y-31722641D01*
X139890106Y-31640633D01*
X139888443Y-31638877D01*
X139811046Y-31555588D01*
X139811043Y-31555585D01*
X139808125Y-31552445D01*
X139798645Y-31544685D01*
X139787825Y-31534717D01*
X139780300Y-31526925D01*
X139780293Y-31526918D01*
X139777231Y-31523748D01*
X139715199Y-31475283D01*
X139686725Y-31453037D01*
X139684492Y-31451252D01*
X139623316Y-31401180D01*
X139596205Y-31378990D01*
X139592545Y-31376747D01*
X139592542Y-31376745D01*
X139582558Y-31370626D01*
X139570832Y-31362492D01*
X139555882Y-31350812D01*
X139459473Y-31295150D01*
X139456639Y-31293464D01*
X139447295Y-31287738D01*
X139362704Y-31235901D01*
X139344630Y-31227967D01*
X139332276Y-31221713D01*
X139316439Y-31212569D01*
X139316434Y-31212566D01*
X139312619Y-31210364D01*
X139308535Y-31208714D01*
X139308529Y-31208711D01*
X139220447Y-31173124D01*
X139212722Y-31170003D01*
X139209288Y-31168556D01*
X139182369Y-31156739D01*
X139111945Y-31125825D01*
X139107824Y-31124651D01*
X139107821Y-31124650D01*
X139089359Y-31119391D01*
X139076680Y-31115038D01*
X139052176Y-31105138D01*
X139047903Y-31104073D01*
X139047898Y-31104071D01*
X138951141Y-31079947D01*
X138947104Y-31078869D01*
X138852694Y-31051976D01*
X138852696Y-31051976D01*
X138848566Y-31050800D01*
X138821611Y-31046964D01*
X138808882Y-31044478D01*
X138779624Y-31037183D01*
X138755428Y-31034640D01*
X138679692Y-31026680D01*
X138675108Y-31026113D01*
X138581694Y-31012818D01*
X138577443Y-31012213D01*
X138546465Y-31012051D01*
X138533962Y-31011363D01*
X138510581Y-31008906D01*
X138504635Y-31008281D01*
X138504634Y-31008281D01*
X138500267Y-31007822D01*
X138495880Y-31007975D01*
X138495873Y-31007975D01*
X138436458Y-31010051D01*
X138403482Y-31011202D01*
X138398450Y-31011277D01*
X138303591Y-31010780D01*
X138299333Y-31011341D01*
X138299327Y-31011341D01*
X138269165Y-31015312D01*
X138257116Y-31016313D01*
X138223940Y-31017471D01*
X138223933Y-31017472D01*
X138219542Y-31017625D01*
X138127779Y-31033805D01*
X138122351Y-31034640D01*
X138032078Y-31046525D01*
X137994965Y-31056678D01*
X137983611Y-31059226D01*
X137968435Y-31061902D01*
X137947250Y-31065637D01*
X137947246Y-31065638D01*
X137942913Y-31066402D01*
X137857766Y-31094068D01*
X137852152Y-31095747D01*
X137767928Y-31118788D01*
X137763977Y-31120473D01*
X137763975Y-31120474D01*
X137729104Y-31135348D01*
X137718611Y-31139282D01*
X137675765Y-31153203D01*
X137598610Y-31190834D01*
X137592854Y-31193463D01*
X137516030Y-31226232D01*
X137476585Y-31249839D01*
X137467129Y-31254962D01*
X137439684Y-31268348D01*
X137423298Y-31276340D01*
X137419649Y-31278801D01*
X137419646Y-31278803D01*
X137355218Y-31322259D01*
X137349468Y-31325916D01*
X137281043Y-31366868D01*
X137277698Y-31369548D01*
X137277695Y-31369550D01*
X137265912Y-31378990D01*
X137250202Y-31391577D01*
X137242252Y-31397946D01*
X137233939Y-31404064D01*
X137190424Y-31433415D01*
X137187155Y-31436358D01*
X137187153Y-31436360D01*
X137132131Y-31485902D01*
X137126605Y-31490596D01*
X137067318Y-31538094D01*
X137064361Y-31541211D01*
X137064360Y-31541211D01*
X137030522Y-31576869D01*
X137023435Y-31583772D01*
X136984947Y-31618427D01*
X136984943Y-31618431D01*
X136981678Y-31621371D01*
X136978857Y-31624733D01*
X136978854Y-31624736D01*
X136933643Y-31678616D01*
X136928520Y-31684356D01*
X136878808Y-31736742D01*
X136845414Y-31783215D01*
X136839646Y-31790639D01*
X136801121Y-31836550D01*
X136798792Y-31840278D01*
X136798790Y-31840280D01*
X136763483Y-31896783D01*
X136758952Y-31903539D01*
X136719002Y-31959136D01*
X136716999Y-31962918D01*
X136716994Y-31962927D01*
X136690477Y-32013009D01*
X136685978Y-32020818D01*
X136652269Y-32074764D01*
X136645450Y-32090080D01*
X136624886Y-32136269D01*
X136621136Y-32143975D01*
X136590857Y-32201161D01*
X136589383Y-32205188D01*
X136589382Y-32205191D01*
X136568622Y-32261920D01*
X136565406Y-32269861D01*
X136538018Y-32331375D01*
X136520586Y-32392172D01*
X136520484Y-32392526D01*
X136517695Y-32401083D01*
X136496743Y-32458337D01*
X136495831Y-32462521D01*
X136495829Y-32462527D01*
X136482157Y-32525235D01*
X136480169Y-32533119D01*
X136460593Y-32601390D01*
X136459982Y-32605740D01*
X136459981Y-32605743D01*
X136452256Y-32660711D01*
X136450590Y-32670016D01*
X136438404Y-32725907D01*
X136436444Y-32750818D01*
X136432738Y-32797904D01*
X136431900Y-32805554D01*
X136421500Y-32879552D01*
X136421500Y-32935731D01*
X136421112Y-32945617D01*
X136416917Y-32998918D01*
X136417164Y-33003198D01*
X136421291Y-33074773D01*
X136421500Y-33082026D01*
X136421500Y-38044105D01*
X136421328Y-38050687D01*
X136421227Y-38052607D01*
X136421200Y-38053130D01*
X136397654Y-38120108D01*
X136341634Y-38163724D01*
X136270927Y-38170130D01*
X136207982Y-38137291D01*
X136194745Y-38122353D01*
X136142188Y-38052607D01*
X136142186Y-38052605D01*
X136139536Y-38049088D01*
X135395405Y-37304957D01*
X135361379Y-37242645D01*
X135358500Y-37215862D01*
X135358500Y-33115403D01*
X135358999Y-33104202D01*
X135362531Y-33064627D01*
X135362531Y-33064625D01*
X135362751Y-33062161D01*
X135363193Y-33020000D01*
X135358577Y-32952285D01*
X135358500Y-32950796D01*
X135358500Y-32949854D01*
X135354953Y-32899129D01*
X135344567Y-32746778D01*
X135344283Y-32745405D01*
X135344262Y-32745202D01*
X135344119Y-32744181D01*
X135343811Y-32739788D01*
X135342897Y-32735489D01*
X135342895Y-32735473D01*
X135316966Y-32613490D01*
X135316830Y-32612844D01*
X135315360Y-32605743D01*
X135289032Y-32478612D01*
X135287747Y-32474983D01*
X135286576Y-32470214D01*
X135286325Y-32469337D01*
X135285409Y-32465030D01*
X135260598Y-32396860D01*
X135241776Y-32345148D01*
X135241404Y-32344114D01*
X135199046Y-32224500D01*
X135199045Y-32224499D01*
X135197617Y-32220465D01*
X135195654Y-32216662D01*
X135193945Y-32212713D01*
X135194121Y-32212637D01*
X135192481Y-32208894D01*
X135190848Y-32205225D01*
X135189337Y-32201074D01*
X135130695Y-32090785D01*
X135129980Y-32089421D01*
X135073976Y-31980915D01*
X135073975Y-31980914D01*
X135072013Y-31977112D01*
X135069283Y-31973228D01*
X135061113Y-31959921D01*
X135059531Y-31956945D01*
X135059530Y-31956943D01*
X135057464Y-31953058D01*
X135021487Y-31903539D01*
X134985892Y-31854547D01*
X134984741Y-31852937D01*
X134973224Y-31836550D01*
X134914545Y-31753057D01*
X134908757Y-31746828D01*
X134899130Y-31735128D01*
X134894949Y-31729374D01*
X134894948Y-31729373D01*
X134892358Y-31725808D01*
X134889300Y-31722641D01*
X134810106Y-31640633D01*
X134808443Y-31638877D01*
X134731046Y-31555588D01*
X134731043Y-31555585D01*
X134728125Y-31552445D01*
X134718645Y-31544685D01*
X134707825Y-31534717D01*
X134700300Y-31526925D01*
X134700293Y-31526918D01*
X134697231Y-31523748D01*
X134635199Y-31475283D01*
X134606725Y-31453037D01*
X134604492Y-31451252D01*
X134543316Y-31401180D01*
X134516205Y-31378990D01*
X134512545Y-31376747D01*
X134512542Y-31376745D01*
X134502558Y-31370626D01*
X134490832Y-31362492D01*
X134475882Y-31350812D01*
X134379473Y-31295150D01*
X134376639Y-31293464D01*
X134367295Y-31287738D01*
X134282704Y-31235901D01*
X134264630Y-31227967D01*
X134252276Y-31221713D01*
X134236439Y-31212569D01*
X134236434Y-31212566D01*
X134232619Y-31210364D01*
X134228535Y-31208714D01*
X134228529Y-31208711D01*
X134140447Y-31173124D01*
X134132722Y-31170003D01*
X134129288Y-31168556D01*
X134102369Y-31156739D01*
X134031945Y-31125825D01*
X134027824Y-31124651D01*
X134027821Y-31124650D01*
X134009359Y-31119391D01*
X133996680Y-31115038D01*
X133972176Y-31105138D01*
X133967903Y-31104073D01*
X133967898Y-31104071D01*
X133871141Y-31079947D01*
X133867104Y-31078869D01*
X133772694Y-31051976D01*
X133772696Y-31051976D01*
X133768566Y-31050800D01*
X133741611Y-31046964D01*
X133728882Y-31044478D01*
X133699624Y-31037183D01*
X133675428Y-31034640D01*
X133599692Y-31026680D01*
X133595108Y-31026113D01*
X133501694Y-31012818D01*
X133497443Y-31012213D01*
X133466465Y-31012051D01*
X133453962Y-31011363D01*
X133430581Y-31008906D01*
X133424635Y-31008281D01*
X133424634Y-31008281D01*
X133420267Y-31007822D01*
X133415880Y-31007975D01*
X133415873Y-31007975D01*
X133356458Y-31010051D01*
X133323482Y-31011202D01*
X133318450Y-31011277D01*
X133223591Y-31010780D01*
X133219333Y-31011341D01*
X133219327Y-31011341D01*
X133189165Y-31015312D01*
X133177116Y-31016313D01*
X133143940Y-31017471D01*
X133143933Y-31017472D01*
X133139542Y-31017625D01*
X133047779Y-31033805D01*
X133042351Y-31034640D01*
X132952078Y-31046525D01*
X132914965Y-31056678D01*
X132903611Y-31059226D01*
X132888435Y-31061902D01*
X132867250Y-31065637D01*
X132867246Y-31065638D01*
X132862913Y-31066402D01*
X132777766Y-31094068D01*
X132772152Y-31095747D01*
X132687928Y-31118788D01*
X132683977Y-31120473D01*
X132683975Y-31120474D01*
X132649104Y-31135348D01*
X132638611Y-31139282D01*
X132595765Y-31153203D01*
X132518610Y-31190834D01*
X132512854Y-31193463D01*
X132436030Y-31226232D01*
X132396585Y-31249839D01*
X132387129Y-31254962D01*
X132359684Y-31268348D01*
X132343298Y-31276340D01*
X132339649Y-31278801D01*
X132339646Y-31278803D01*
X132275218Y-31322259D01*
X132269468Y-31325916D01*
X132201043Y-31366868D01*
X132197698Y-31369548D01*
X132197695Y-31369550D01*
X132185912Y-31378990D01*
X132170202Y-31391577D01*
X132162252Y-31397946D01*
X132153939Y-31404064D01*
X132110424Y-31433415D01*
X132107155Y-31436358D01*
X132107153Y-31436360D01*
X132052131Y-31485902D01*
X132046605Y-31490596D01*
X131987318Y-31538094D01*
X131984361Y-31541211D01*
X131984360Y-31541211D01*
X131950522Y-31576869D01*
X131943435Y-31583772D01*
X131904947Y-31618427D01*
X131904943Y-31618431D01*
X131901678Y-31621371D01*
X131898857Y-31624733D01*
X131898854Y-31624736D01*
X131853643Y-31678616D01*
X131848520Y-31684356D01*
X131798808Y-31736742D01*
X131765414Y-31783215D01*
X131759646Y-31790639D01*
X131721121Y-31836550D01*
X131718792Y-31840278D01*
X131718790Y-31840280D01*
X131683483Y-31896783D01*
X131678952Y-31903539D01*
X131639002Y-31959136D01*
X131636999Y-31962918D01*
X131636994Y-31962927D01*
X131610477Y-32013009D01*
X131605978Y-32020818D01*
X131572269Y-32074764D01*
X131565450Y-32090080D01*
X131544886Y-32136269D01*
X131541136Y-32143975D01*
X131510857Y-32201161D01*
X131509383Y-32205188D01*
X131509382Y-32205191D01*
X131488622Y-32261920D01*
X131485406Y-32269861D01*
X131458018Y-32331375D01*
X131440586Y-32392172D01*
X131440484Y-32392526D01*
X131437695Y-32401083D01*
X131416743Y-32458337D01*
X131415831Y-32462521D01*
X131415829Y-32462527D01*
X131402157Y-32525235D01*
X131400169Y-32533119D01*
X131380593Y-32601390D01*
X131379982Y-32605740D01*
X131379981Y-32605743D01*
X131372256Y-32660711D01*
X131370590Y-32670016D01*
X131358404Y-32725907D01*
X131356444Y-32750818D01*
X131352738Y-32797904D01*
X131351900Y-32805554D01*
X131341500Y-32879552D01*
X131341500Y-32935731D01*
X131341112Y-32945617D01*
X131336917Y-32998918D01*
X131337164Y-33003198D01*
X131341291Y-33074773D01*
X131341500Y-33082026D01*
X131341500Y-38044105D01*
X131341327Y-38050699D01*
X131337690Y-38120108D01*
X131336902Y-38135138D01*
X131337285Y-38139515D01*
X131337285Y-38139519D01*
X131347521Y-38256514D01*
X131347693Y-38258707D01*
X131353123Y-38336358D01*
X131356189Y-38380212D01*
X131357102Y-38384507D01*
X131358246Y-38389887D01*
X131360519Y-38405100D01*
X131360998Y-38410575D01*
X131361000Y-38410588D01*
X131361383Y-38414966D01*
X131362371Y-38419245D01*
X131362372Y-38419252D01*
X131388793Y-38533695D01*
X131389268Y-38535840D01*
X131413006Y-38647512D01*
X131414591Y-38654970D01*
X131416095Y-38659102D01*
X131417978Y-38664275D01*
X131422345Y-38679019D01*
X131424572Y-38688663D01*
X131426150Y-38692775D01*
X131426151Y-38692777D01*
X131429742Y-38702131D01*
X131462975Y-38788706D01*
X131468220Y-38802371D01*
X131468990Y-38804431D01*
X131509154Y-38914782D01*
X131509158Y-38914791D01*
X131510663Y-38918926D01*
X131512730Y-38922813D01*
X131515308Y-38927662D01*
X131521683Y-38941652D01*
X131523654Y-38946786D01*
X131523659Y-38946798D01*
X131525235Y-38950902D01*
X131584336Y-39057521D01*
X131585348Y-39059388D01*
X131640470Y-39163058D01*
X131640476Y-39163067D01*
X131642536Y-39166942D01*
X131645121Y-39170499D01*
X131645124Y-39170505D01*
X131648355Y-39174953D01*
X131656620Y-39187926D01*
X131661417Y-39196579D01*
X131664066Y-39200094D01*
X131734701Y-39293831D01*
X131736009Y-39295598D01*
X131787629Y-39366646D01*
X131807642Y-39394192D01*
X131813398Y-39400153D01*
X131814525Y-39401320D01*
X131824510Y-39413012D01*
X131827812Y-39417393D01*
X131830464Y-39420912D01*
X131916540Y-39506988D01*
X131918082Y-39508556D01*
X132002769Y-39596252D01*
X132010530Y-39602315D01*
X132010578Y-39602353D01*
X132022100Y-39612548D01*
X133249377Y-40839825D01*
X133308000Y-40890785D01*
X133404980Y-40975090D01*
X133404987Y-40975095D01*
X133408302Y-40977977D01*
X133411993Y-40980374D01*
X133640195Y-41128570D01*
X133640199Y-41128572D01*
X133643882Y-41130964D01*
X133647863Y-41132821D01*
X133647866Y-41132822D01*
X133718322Y-41165676D01*
X133898460Y-41249676D01*
X133902660Y-41250960D01*
X133902665Y-41250962D01*
X134032771Y-41290738D01*
X134167082Y-41331801D01*
X134444520Y-41375744D01*
X134448920Y-41375821D01*
X134448922Y-41375821D01*
X134538428Y-41377383D01*
X134725374Y-41380646D01*
X134729730Y-41380111D01*
X134729733Y-41380111D01*
X134999812Y-41346949D01*
X134999816Y-41346948D01*
X135004175Y-41346413D01*
X135175299Y-41300561D01*
X135271261Y-41274848D01*
X135271263Y-41274847D01*
X135275500Y-41273712D01*
X135534067Y-41163957D01*
X135537834Y-41161694D01*
X135537841Y-41161690D01*
X135695822Y-41066765D01*
X135774842Y-41019285D01*
X135778258Y-41016519D01*
X135778262Y-41016516D01*
X135989715Y-40845283D01*
X135989716Y-40845282D01*
X135993138Y-40842511D01*
X135997091Y-40838273D01*
X136176878Y-40645475D01*
X136184709Y-40637077D01*
X136345825Y-40406980D01*
X136473349Y-40156700D01*
X136564799Y-39891108D01*
X136589024Y-39766481D01*
X136617558Y-39619691D01*
X136617559Y-39619684D01*
X136618397Y-39615372D01*
X136626913Y-39452880D01*
X136628702Y-39418746D01*
X136652242Y-39351766D01*
X136708257Y-39308145D01*
X136778964Y-39301733D01*
X136841912Y-39334566D01*
X136856461Y-39351275D01*
X136887642Y-39394192D01*
X136893398Y-39400153D01*
X136894525Y-39401320D01*
X136904510Y-39413012D01*
X136907812Y-39417393D01*
X136910464Y-39420912D01*
X136996540Y-39506988D01*
X136998082Y-39508556D01*
X137082769Y-39596252D01*
X137090530Y-39602315D01*
X137090578Y-39602353D01*
X137102100Y-39612548D01*
X138329377Y-40839825D01*
X138388000Y-40890785D01*
X138484980Y-40975090D01*
X138484987Y-40975095D01*
X138488302Y-40977977D01*
X138491993Y-40980374D01*
X138720195Y-41128570D01*
X138720199Y-41128572D01*
X138723882Y-41130964D01*
X138727863Y-41132821D01*
X138727866Y-41132822D01*
X138798322Y-41165676D01*
X138978460Y-41249676D01*
X138982660Y-41250960D01*
X138982665Y-41250962D01*
X139112771Y-41290738D01*
X139247082Y-41331801D01*
X139524520Y-41375744D01*
X139528920Y-41375821D01*
X139528922Y-41375821D01*
X139618428Y-41377383D01*
X139805374Y-41380646D01*
X139809730Y-41380111D01*
X139809733Y-41380111D01*
X140079812Y-41346949D01*
X140079816Y-41346948D01*
X140084175Y-41346413D01*
X140255299Y-41300561D01*
X140351261Y-41274848D01*
X140351263Y-41274847D01*
X140355500Y-41273712D01*
X140614067Y-41163957D01*
X140617834Y-41161694D01*
X140617841Y-41161690D01*
X140775822Y-41066765D01*
X140854842Y-41019285D01*
X140858258Y-41016519D01*
X140858262Y-41016516D01*
X141069715Y-40845283D01*
X141069716Y-40845282D01*
X141073138Y-40842511D01*
X141077091Y-40838273D01*
X141256878Y-40645475D01*
X141264709Y-40637077D01*
X141425825Y-40406980D01*
X141553349Y-40156700D01*
X141644799Y-39891108D01*
X141669024Y-39766481D01*
X141697558Y-39619691D01*
X141697559Y-39619684D01*
X141698397Y-39615372D01*
X141706913Y-39452880D01*
X141708702Y-39418746D01*
X141732242Y-39351766D01*
X141788257Y-39308145D01*
X141858964Y-39301733D01*
X141921912Y-39334566D01*
X141936463Y-39351277D01*
X141967642Y-39394192D01*
X141970694Y-39397352D01*
X141970700Y-39397359D01*
X142040369Y-39469503D01*
X142162769Y-39596252D01*
X142384118Y-39769188D01*
X142387922Y-39771384D01*
X142387929Y-39771389D01*
X142537671Y-39857842D01*
X142627381Y-39909636D01*
X142887824Y-40014862D01*
X142892097Y-40015927D01*
X142892099Y-40015928D01*
X143156107Y-40081753D01*
X143156112Y-40081754D01*
X143160376Y-40082817D01*
X143164744Y-40083276D01*
X143164749Y-40083277D01*
X143435364Y-40111719D01*
X143435367Y-40111719D01*
X143439733Y-40112178D01*
X143444120Y-40112025D01*
X143444126Y-40112025D01*
X143473998Y-40110981D01*
X143506360Y-40109851D01*
X143575135Y-40127463D01*
X143618189Y-40169941D01*
X143639501Y-40204719D01*
X143642876Y-40208615D01*
X143642881Y-40208622D01*
X143709913Y-40286005D01*
X143791147Y-40379784D01*
X143969349Y-40527730D01*
X144169322Y-40644584D01*
X144385694Y-40727209D01*
X144390760Y-40728240D01*
X144390761Y-40728240D01*
X144443846Y-40739040D01*
X144612656Y-40773385D01*
X144743324Y-40778176D01*
X144838949Y-40781683D01*
X144838953Y-40781683D01*
X144844113Y-40781872D01*
X144849233Y-40781216D01*
X144849235Y-40781216D01*
X144922270Y-40771860D01*
X145073847Y-40752442D01*
X145078795Y-40750957D01*
X145078802Y-40750956D01*
X145290747Y-40687369D01*
X145295690Y-40685886D01*
X145300323Y-40683616D01*
X145300334Y-40683612D01*
X145487568Y-40591887D01*
X145557542Y-40579880D01*
X145622899Y-40607610D01*
X145662889Y-40666273D01*
X145669000Y-40705038D01*
X145669000Y-45658329D01*
X145648998Y-45726450D01*
X145595342Y-45772943D01*
X145525068Y-45783047D01*
X145482107Y-45768638D01*
X145363884Y-45703376D01*
X145363883Y-45703375D01*
X145359355Y-45700876D01*
X145354486Y-45699152D01*
X145354482Y-45699150D01*
X145145903Y-45625288D01*
X145145899Y-45625287D01*
X145141028Y-45623562D01*
X145135935Y-45622655D01*
X145135932Y-45622654D01*
X144918095Y-45583851D01*
X144918089Y-45583850D01*
X144913006Y-45582945D01*
X144840096Y-45582054D01*
X144686581Y-45580179D01*
X144686579Y-45580179D01*
X144681411Y-45580116D01*
X144452464Y-45615150D01*
X144232314Y-45687106D01*
X144227726Y-45689494D01*
X144227722Y-45689496D01*
X144067422Y-45772943D01*
X144026872Y-45794052D01*
X144022739Y-45797155D01*
X144022736Y-45797157D01*
X143856432Y-45922022D01*
X143841655Y-45933117D01*
X143681639Y-46100564D01*
X143617152Y-46195099D01*
X143562243Y-46240099D01*
X143517463Y-46250015D01*
X143303939Y-46257471D01*
X143303933Y-46257472D01*
X143299542Y-46257625D01*
X143295219Y-46258387D01*
X143295212Y-46258388D01*
X143147891Y-46284365D01*
X143022913Y-46306402D01*
X142755765Y-46393203D01*
X142751812Y-46395131D01*
X142751807Y-46395133D01*
X142642386Y-46448502D01*
X142503298Y-46516340D01*
X142499659Y-46518795D01*
X142499653Y-46518798D01*
X142441454Y-46558054D01*
X142270424Y-46673415D01*
X142267153Y-46676360D01*
X142267152Y-46676361D01*
X142252655Y-46689414D01*
X142061678Y-46861371D01*
X142058859Y-46864731D01*
X142058848Y-46864742D01*
X141932315Y-47015538D01*
X141873206Y-47054865D01*
X141802218Y-47055991D01*
X141741891Y-47018560D01*
X141711377Y-46954455D01*
X141709813Y-46932348D01*
X141709851Y-46930193D01*
X141710646Y-46884626D01*
X141708101Y-46863895D01*
X141676949Y-46610188D01*
X141676948Y-46610184D01*
X141676413Y-46605825D01*
X141620763Y-46398134D01*
X141604848Y-46338739D01*
X141604847Y-46338737D01*
X141603712Y-46334500D01*
X141493957Y-46075933D01*
X141491694Y-46072166D01*
X141491690Y-46072159D01*
X141382011Y-45889623D01*
X141349285Y-45835158D01*
X141318513Y-45797157D01*
X141175283Y-45620285D01*
X141175282Y-45620284D01*
X141172511Y-45616862D01*
X141169292Y-45613860D01*
X141169288Y-45613856D01*
X141012675Y-45467812D01*
X140967077Y-45425291D01*
X140736980Y-45264175D01*
X140486700Y-45136651D01*
X140221108Y-45045201D01*
X140168720Y-45035018D01*
X139949691Y-44992442D01*
X139949684Y-44992441D01*
X139945372Y-44991603D01*
X139813753Y-44984705D01*
X139669259Y-44977132D01*
X139669253Y-44977132D01*
X139664862Y-44976902D01*
X139660485Y-44977285D01*
X139660481Y-44977285D01*
X139543510Y-44987519D01*
X139385034Y-45001383D01*
X139380755Y-45002371D01*
X139380748Y-45002372D01*
X139115619Y-45063583D01*
X139115614Y-45063585D01*
X139111337Y-45064572D01*
X138897870Y-45146513D01*
X138891205Y-45149072D01*
X138849098Y-45165235D01*
X138730755Y-45230834D01*
X138618182Y-45293235D01*
X138603421Y-45301417D01*
X138599914Y-45304060D01*
X138599912Y-45304061D01*
X138432551Y-45430177D01*
X138379088Y-45470464D01*
X137049317Y-46800235D01*
X137044533Y-46804776D01*
X136981678Y-46861371D01*
X136903376Y-46954687D01*
X136901965Y-46956339D01*
X136851188Y-47014753D01*
X136850926Y-47015054D01*
X136791139Y-47053343D01*
X136720143Y-47053231D01*
X136660477Y-47014753D01*
X136631086Y-46950126D01*
X136629851Y-46930193D01*
X136630515Y-46892118D01*
X136630646Y-46884626D01*
X136628101Y-46863895D01*
X136596949Y-46610188D01*
X136596948Y-46610184D01*
X136596413Y-46605825D01*
X136540763Y-46398134D01*
X136524848Y-46338739D01*
X136524847Y-46338737D01*
X136523712Y-46334500D01*
X136413957Y-46075933D01*
X136411694Y-46072166D01*
X136411690Y-46072159D01*
X136302011Y-45889623D01*
X136269285Y-45835158D01*
X136238513Y-45797157D01*
X136095283Y-45620285D01*
X136095282Y-45620284D01*
X136092511Y-45616862D01*
X136089292Y-45613860D01*
X136089288Y-45613856D01*
X135932675Y-45467812D01*
X135887077Y-45425291D01*
X135656980Y-45264175D01*
X135406700Y-45136651D01*
X135141108Y-45045201D01*
X135088720Y-45035018D01*
X134869691Y-44992442D01*
X134869684Y-44992441D01*
X134865372Y-44991603D01*
X134733753Y-44984705D01*
X134589259Y-44977132D01*
X134589253Y-44977132D01*
X134584862Y-44976902D01*
X134580485Y-44977285D01*
X134580481Y-44977285D01*
X134463510Y-44987519D01*
X134305034Y-45001383D01*
X134300755Y-45002371D01*
X134300748Y-45002372D01*
X134035619Y-45063583D01*
X134035614Y-45063585D01*
X134031337Y-45064572D01*
X133817870Y-45146513D01*
X133811205Y-45149072D01*
X133769098Y-45165235D01*
X133650755Y-45230834D01*
X133538182Y-45293235D01*
X133523421Y-45301417D01*
X133519914Y-45304060D01*
X133519912Y-45304061D01*
X133352551Y-45430177D01*
X133299088Y-45470464D01*
X131969317Y-46800235D01*
X131964533Y-46804776D01*
X131901678Y-46861371D01*
X131823376Y-46954687D01*
X131821965Y-46956339D01*
X131742023Y-47048303D01*
X131739629Y-47051989D01*
X131739624Y-47051996D01*
X131736632Y-47056603D01*
X131727488Y-47068961D01*
X131723953Y-47073174D01*
X131723948Y-47073181D01*
X131721121Y-47076550D01*
X131672580Y-47154233D01*
X131656580Y-47179838D01*
X131655399Y-47181693D01*
X131589036Y-47283882D01*
X131587173Y-47287876D01*
X131587173Y-47287877D01*
X131584850Y-47292857D01*
X131577518Y-47306363D01*
X131572269Y-47314764D01*
X131570483Y-47318776D01*
X131570479Y-47318783D01*
X131522729Y-47426032D01*
X131521817Y-47428033D01*
X131481263Y-47515002D01*
X131470324Y-47538460D01*
X131469039Y-47542662D01*
X131469039Y-47542663D01*
X131467430Y-47547927D01*
X131462042Y-47562337D01*
X131458018Y-47571375D01*
X131441770Y-47628041D01*
X131424435Y-47688495D01*
X131423817Y-47690583D01*
X131388199Y-47807083D01*
X131386650Y-47816865D01*
X131383320Y-47831879D01*
X131380593Y-47841390D01*
X131379981Y-47845743D01*
X131379980Y-47845749D01*
X131363646Y-47961978D01*
X131363321Y-47964154D01*
X131344256Y-48084520D01*
X131344179Y-48088916D01*
X131344179Y-48088920D01*
X131344083Y-48094430D01*
X131342876Y-48109760D01*
X131341500Y-48119552D01*
X131341500Y-48241312D01*
X131341481Y-48243510D01*
X131339354Y-48365374D01*
X131339889Y-48369730D01*
X131339889Y-48369733D01*
X131340561Y-48375204D01*
X131341500Y-48390560D01*
X131341500Y-54888134D01*
X131348255Y-54950316D01*
X131399385Y-55086705D01*
X131486739Y-55203261D01*
X131603295Y-55290615D01*
X131739684Y-55341745D01*
X131801866Y-55348500D01*
X133238133Y-55348500D01*
X133251303Y-55349190D01*
X133275364Y-55351719D01*
X133275367Y-55351719D01*
X133279733Y-55352178D01*
X133284121Y-55352025D01*
X133284127Y-55352025D01*
X133382854Y-55348577D01*
X133387251Y-55348500D01*
X134898134Y-55348500D01*
X134960316Y-55341745D01*
X135096705Y-55290615D01*
X135213261Y-55203261D01*
X135300615Y-55086705D01*
X135351745Y-54950316D01*
X135358500Y-54888134D01*
X135358500Y-49144138D01*
X135378502Y-49076017D01*
X135395405Y-49055043D01*
X136089825Y-48360623D01*
X136091253Y-48358981D01*
X136091271Y-48358961D01*
X136199075Y-48234946D01*
X136258861Y-48196657D01*
X136329858Y-48196769D01*
X136389523Y-48235248D01*
X136418914Y-48299875D01*
X136420149Y-48319807D01*
X136419354Y-48365374D01*
X136419889Y-48369730D01*
X136419889Y-48369733D01*
X136420561Y-48375204D01*
X136421500Y-48390560D01*
X136421500Y-53255731D01*
X136421112Y-53265617D01*
X136416917Y-53318918D01*
X136417164Y-53323198D01*
X136421291Y-53394773D01*
X136421500Y-53402026D01*
X136421500Y-53410146D01*
X136423267Y-53435403D01*
X136425310Y-53464621D01*
X136425403Y-53466088D01*
X136432682Y-53592320D01*
X136433509Y-53596533D01*
X136433509Y-53596535D01*
X136433596Y-53596979D01*
X136435646Y-53612444D01*
X136436189Y-53620212D01*
X136461518Y-53739372D01*
X136461895Y-53741220D01*
X136469387Y-53779406D01*
X136485405Y-53861053D01*
X136488161Y-53869102D01*
X136492196Y-53883705D01*
X136494591Y-53894970D01*
X136532285Y-53998530D01*
X136535077Y-54006202D01*
X136535871Y-54008449D01*
X136574112Y-54120144D01*
X136579616Y-54131088D01*
X136585447Y-54144596D01*
X136590663Y-54158926D01*
X136592727Y-54162808D01*
X136592732Y-54162819D01*
X136644591Y-54260352D01*
X136645905Y-54262891D01*
X136695233Y-54360969D01*
X136695238Y-54360977D01*
X136697160Y-54364799D01*
X136706224Y-54377986D01*
X136713627Y-54390187D01*
X136722536Y-54406942D01*
X136725122Y-54410501D01*
X136725123Y-54410503D01*
X136787978Y-54497016D01*
X136789869Y-54499691D01*
X136852274Y-54590490D01*
X136855161Y-54593663D01*
X136855162Y-54593664D01*
X136865554Y-54605084D01*
X136874300Y-54615828D01*
X136887642Y-54634192D01*
X136938098Y-54686441D01*
X136962502Y-54711712D01*
X136965059Y-54714440D01*
X137018777Y-54773475D01*
X137036582Y-54793043D01*
X137054594Y-54808103D01*
X137064406Y-54817237D01*
X137082769Y-54836252D01*
X137164846Y-54900377D01*
X137168059Y-54902974D01*
X137246675Y-54968707D01*
X137268569Y-54982441D01*
X137269742Y-54983177D01*
X137280344Y-54990614D01*
X137304118Y-55009188D01*
X137307933Y-55011390D01*
X137307938Y-55011394D01*
X137391137Y-55059428D01*
X137395094Y-55061810D01*
X137475030Y-55111955D01*
X137475037Y-55111959D01*
X137478664Y-55114234D01*
X137482574Y-55115999D01*
X137482577Y-55116001D01*
X137506896Y-55126981D01*
X137518048Y-55132700D01*
X137547381Y-55149636D01*
X137603595Y-55172348D01*
X137637152Y-55185906D01*
X137641802Y-55187894D01*
X137724345Y-55225164D01*
X137724349Y-55225166D01*
X137728257Y-55226930D01*
X137761564Y-55236796D01*
X137772963Y-55240777D01*
X137803742Y-55253213D01*
X137803745Y-55253214D01*
X137807824Y-55254862D01*
X137812097Y-55255927D01*
X137812099Y-55255928D01*
X137898223Y-55277401D01*
X137903527Y-55278847D01*
X137986723Y-55303491D01*
X137986728Y-55303492D01*
X137990836Y-55304709D01*
X137995070Y-55305357D01*
X137995075Y-55305358D01*
X138028857Y-55310527D01*
X138040280Y-55312820D01*
X138076107Y-55321753D01*
X138076112Y-55321754D01*
X138080376Y-55322817D01*
X138084743Y-55323276D01*
X138084749Y-55323277D01*
X138121262Y-55327114D01*
X138169409Y-55332174D01*
X138175257Y-55332928D01*
X138261540Y-55346132D01*
X138289307Y-55346568D01*
X138303737Y-55346795D01*
X138314928Y-55347469D01*
X138355363Y-55351719D01*
X138355368Y-55351719D01*
X138359733Y-55352178D01*
X138364120Y-55352025D01*
X138364126Y-55352025D01*
X138419755Y-55350082D01*
X138445499Y-55349183D01*
X138451863Y-55349122D01*
X138535362Y-55350434D01*
X138546640Y-55349069D01*
X138581001Y-55344912D01*
X138591737Y-55344077D01*
X138636059Y-55342529D01*
X138636064Y-55342528D01*
X138640458Y-55342375D01*
X138644788Y-55341612D01*
X138644793Y-55341611D01*
X138721337Y-55328115D01*
X138728076Y-55327114D01*
X138802972Y-55318050D01*
X138802973Y-55318050D01*
X138807235Y-55317534D01*
X138811380Y-55316446D01*
X138811383Y-55316446D01*
X138825204Y-55312820D01*
X138855332Y-55304916D01*
X138865403Y-55302712D01*
X138886572Y-55298979D01*
X138912762Y-55294361D01*
X138912767Y-55294360D01*
X138917087Y-55293598D01*
X138921258Y-55292243D01*
X138921265Y-55292241D01*
X138955743Y-55281038D01*
X138991682Y-55269361D01*
X138998620Y-55267325D01*
X139052413Y-55253213D01*
X139067977Y-55249130D01*
X139067980Y-55249129D01*
X139072127Y-55248041D01*
X139076083Y-55246402D01*
X139076087Y-55246401D01*
X139112103Y-55231482D01*
X139121523Y-55227580D01*
X139130805Y-55224157D01*
X139180040Y-55208160D01*
X139184235Y-55206797D01*
X139251406Y-55174035D01*
X139258421Y-55170875D01*
X139309506Y-55149715D01*
X139325136Y-55143241D01*
X139374539Y-55114373D01*
X139382852Y-55109925D01*
X139432753Y-55085587D01*
X139432763Y-55085581D01*
X139436702Y-55083660D01*
X139440337Y-55081208D01*
X139440346Y-55081203D01*
X139495589Y-55043940D01*
X139502468Y-55039616D01*
X139561582Y-55005073D01*
X139564960Y-55002424D01*
X139564962Y-55002423D01*
X139609546Y-54967465D01*
X139616833Y-54962161D01*
X139665926Y-54929047D01*
X139669576Y-54926585D01*
X139719609Y-54881535D01*
X139726164Y-54876026D01*
X139773707Y-54838747D01*
X139773717Y-54838738D01*
X139777089Y-54836094D01*
X139822120Y-54789627D01*
X139828288Y-54783680D01*
X139846607Y-54767186D01*
X139878322Y-54738629D01*
X139881142Y-54735268D01*
X139881150Y-54735260D01*
X139919214Y-54689896D01*
X139925243Y-54683211D01*
X139944070Y-54663783D01*
X139964688Y-54642508D01*
X139964694Y-54642501D01*
X139967669Y-54639431D01*
X140008192Y-54584265D01*
X140013218Y-54577866D01*
X140056052Y-54526820D01*
X140056057Y-54526813D01*
X140058879Y-54523450D01*
X140090632Y-54472634D01*
X140095931Y-54464824D01*
X140127251Y-54422187D01*
X140127257Y-54422178D01*
X140129795Y-54418723D01*
X140164257Y-54355252D01*
X140168131Y-54348609D01*
X140205404Y-54288960D01*
X140207731Y-54285236D01*
X140230586Y-54233903D01*
X140234962Y-54225030D01*
X140260468Y-54178054D01*
X140287323Y-54106985D01*
X140290082Y-54100276D01*
X140320193Y-54032645D01*
X140320197Y-54032635D01*
X140321982Y-54028625D01*
X140336446Y-53978183D01*
X140339699Y-53968375D01*
X140355753Y-53925889D01*
X140357269Y-53921877D01*
X140375073Y-53844142D01*
X140376773Y-53837545D01*
X140393444Y-53779406D01*
X140399407Y-53758610D01*
X140406194Y-53710319D01*
X140408143Y-53699749D01*
X140418407Y-53654933D01*
X140423321Y-53599865D01*
X140425829Y-53571769D01*
X140426556Y-53565434D01*
X140432788Y-53521090D01*
X140438500Y-53480448D01*
X140438500Y-53435403D01*
X140438999Y-53424202D01*
X140442531Y-53384627D01*
X140442531Y-53384625D01*
X140442751Y-53382161D01*
X140443193Y-53340000D01*
X140438792Y-53275442D01*
X140438500Y-53266872D01*
X140438500Y-49144138D01*
X140458502Y-49076017D01*
X140475405Y-49055043D01*
X141169825Y-48360623D01*
X141263154Y-48253261D01*
X141280407Y-48233414D01*
X141340194Y-48195126D01*
X141411191Y-48195239D01*
X141470856Y-48233717D01*
X141500246Y-48298345D01*
X141501500Y-48316078D01*
X141501500Y-53255731D01*
X141501112Y-53265617D01*
X141496917Y-53318918D01*
X141497164Y-53323198D01*
X141501291Y-53394773D01*
X141501500Y-53402026D01*
X141501500Y-53410146D01*
X141503267Y-53435403D01*
X141505310Y-53464621D01*
X141505403Y-53466088D01*
X141512682Y-53592320D01*
X141513509Y-53596533D01*
X141513509Y-53596535D01*
X141513596Y-53596979D01*
X141515646Y-53612444D01*
X141516189Y-53620212D01*
X141541518Y-53739372D01*
X141541895Y-53741220D01*
X141549387Y-53779406D01*
X141565405Y-53861053D01*
X141568161Y-53869102D01*
X141572196Y-53883705D01*
X141574591Y-53894970D01*
X141612285Y-53998530D01*
X141615077Y-54006202D01*
X141615871Y-54008449D01*
X141654112Y-54120144D01*
X141659616Y-54131088D01*
X141665447Y-54144596D01*
X141670663Y-54158926D01*
X141672727Y-54162808D01*
X141672732Y-54162819D01*
X141724591Y-54260352D01*
X141725905Y-54262891D01*
X141775233Y-54360969D01*
X141775238Y-54360977D01*
X141777160Y-54364799D01*
X141786224Y-54377986D01*
X141793627Y-54390187D01*
X141802536Y-54406942D01*
X141805122Y-54410501D01*
X141805123Y-54410503D01*
X141867978Y-54497016D01*
X141869869Y-54499691D01*
X141932274Y-54590490D01*
X141935161Y-54593663D01*
X141935162Y-54593664D01*
X141945554Y-54605084D01*
X141954300Y-54615828D01*
X141967642Y-54634192D01*
X142018098Y-54686441D01*
X142042502Y-54711712D01*
X142045059Y-54714440D01*
X142098777Y-54773475D01*
X142116582Y-54793043D01*
X142134594Y-54808103D01*
X142144406Y-54817237D01*
X142162769Y-54836252D01*
X142244846Y-54900377D01*
X142248059Y-54902974D01*
X142326675Y-54968707D01*
X142348569Y-54982441D01*
X142349742Y-54983177D01*
X142360344Y-54990614D01*
X142384118Y-55009188D01*
X142387933Y-55011390D01*
X142387938Y-55011394D01*
X142471137Y-55059428D01*
X142475094Y-55061810D01*
X142555030Y-55111955D01*
X142555037Y-55111959D01*
X142558664Y-55114234D01*
X142562574Y-55115999D01*
X142562577Y-55116001D01*
X142586896Y-55126981D01*
X142598048Y-55132700D01*
X142627381Y-55149636D01*
X142683595Y-55172348D01*
X142717152Y-55185906D01*
X142721802Y-55187894D01*
X142804345Y-55225164D01*
X142804349Y-55225166D01*
X142808257Y-55226930D01*
X142841564Y-55236796D01*
X142852963Y-55240777D01*
X142883742Y-55253213D01*
X142883745Y-55253214D01*
X142887824Y-55254862D01*
X142892097Y-55255927D01*
X142892099Y-55255928D01*
X142978223Y-55277401D01*
X142983527Y-55278847D01*
X143066723Y-55303491D01*
X143066728Y-55303492D01*
X143070836Y-55304709D01*
X143075070Y-55305357D01*
X143075075Y-55305358D01*
X143108857Y-55310527D01*
X143120280Y-55312820D01*
X143156107Y-55321753D01*
X143156112Y-55321754D01*
X143160376Y-55322817D01*
X143164743Y-55323276D01*
X143164749Y-55323277D01*
X143201262Y-55327114D01*
X143249409Y-55332174D01*
X143255257Y-55332928D01*
X143341540Y-55346132D01*
X143369307Y-55346568D01*
X143383737Y-55346795D01*
X143394928Y-55347469D01*
X143435363Y-55351719D01*
X143435368Y-55351719D01*
X143439733Y-55352178D01*
X143444120Y-55352025D01*
X143444126Y-55352025D01*
X143499755Y-55350082D01*
X143525499Y-55349183D01*
X143531863Y-55349122D01*
X143615362Y-55350434D01*
X143626640Y-55349069D01*
X143661001Y-55344912D01*
X143671737Y-55344077D01*
X143716059Y-55342529D01*
X143716064Y-55342528D01*
X143720458Y-55342375D01*
X143724788Y-55341612D01*
X143724793Y-55341611D01*
X143801337Y-55328115D01*
X143808076Y-55327114D01*
X143882972Y-55318050D01*
X143882973Y-55318050D01*
X143887235Y-55317534D01*
X143891380Y-55316446D01*
X143891383Y-55316446D01*
X143905204Y-55312820D01*
X143935332Y-55304916D01*
X143945403Y-55302712D01*
X143966572Y-55298979D01*
X143992762Y-55294361D01*
X143992767Y-55294360D01*
X143997087Y-55293598D01*
X144001258Y-55292243D01*
X144001265Y-55292241D01*
X144035743Y-55281038D01*
X144071682Y-55269361D01*
X144078620Y-55267325D01*
X144132413Y-55253213D01*
X144147977Y-55249130D01*
X144147980Y-55249129D01*
X144152127Y-55248041D01*
X144156083Y-55246402D01*
X144156087Y-55246401D01*
X144192103Y-55231482D01*
X144201523Y-55227580D01*
X144210805Y-55224157D01*
X144260040Y-55208160D01*
X144264235Y-55206797D01*
X144331406Y-55174035D01*
X144338421Y-55170875D01*
X144389506Y-55149715D01*
X144405136Y-55143241D01*
X144454539Y-55114373D01*
X144462852Y-55109925D01*
X144512753Y-55085587D01*
X144512763Y-55085581D01*
X144516702Y-55083660D01*
X144520337Y-55081208D01*
X144520346Y-55081203D01*
X144575589Y-55043940D01*
X144582468Y-55039616D01*
X144641582Y-55005073D01*
X144644960Y-55002424D01*
X144644962Y-55002423D01*
X144689546Y-54967465D01*
X144696833Y-54962161D01*
X144745926Y-54929047D01*
X144749576Y-54926585D01*
X144799609Y-54881535D01*
X144806164Y-54876026D01*
X144853707Y-54838747D01*
X144853717Y-54838738D01*
X144857089Y-54836094D01*
X144902120Y-54789627D01*
X144908288Y-54783680D01*
X144926607Y-54767186D01*
X144958322Y-54738629D01*
X144961142Y-54735268D01*
X144961150Y-54735260D01*
X144999214Y-54689896D01*
X145005243Y-54683211D01*
X145024070Y-54663783D01*
X145044688Y-54642508D01*
X145044694Y-54642501D01*
X145047669Y-54639431D01*
X145088192Y-54584265D01*
X145093218Y-54577866D01*
X145136052Y-54526820D01*
X145136057Y-54526813D01*
X145138879Y-54523450D01*
X145170632Y-54472634D01*
X145175931Y-54464824D01*
X145207251Y-54422187D01*
X145207257Y-54422178D01*
X145209795Y-54418723D01*
X145244257Y-54355252D01*
X145248131Y-54348609D01*
X145285404Y-54288960D01*
X145287731Y-54285236D01*
X145310586Y-54233903D01*
X145314962Y-54225030D01*
X145340468Y-54178054D01*
X145367323Y-54106985D01*
X145370082Y-54100276D01*
X145400193Y-54032645D01*
X145400197Y-54032635D01*
X145401982Y-54028625D01*
X145416446Y-53978183D01*
X145419699Y-53968374D01*
X145422448Y-53961101D01*
X145425134Y-53953990D01*
X145467925Y-53897339D01*
X145534551Y-53872814D01*
X145603859Y-53888203D01*
X145653846Y-53938620D01*
X145669000Y-53998530D01*
X145669000Y-56526664D01*
X145648998Y-56594785D01*
X145595342Y-56641278D01*
X145577432Y-56647868D01*
X145573852Y-56648885D01*
X145571240Y-56649627D01*
X145554679Y-56653148D01*
X145524955Y-56657405D01*
X145502070Y-56667810D01*
X145484359Y-56674311D01*
X145468800Y-56678731D01*
X145468798Y-56678732D01*
X145460167Y-56681184D01*
X145434737Y-56697174D01*
X145419826Y-56705204D01*
X145400662Y-56713917D01*
X145400660Y-56713919D01*
X145392490Y-56717633D01*
X145385692Y-56723490D01*
X145385691Y-56723491D01*
X145373442Y-56734045D01*
X145358269Y-56745253D01*
X145344586Y-56753857D01*
X145344581Y-56753861D01*
X145336981Y-56758640D01*
X145317061Y-56781124D01*
X145305002Y-56793017D01*
X145289053Y-56806759D01*
X145289051Y-56806761D01*
X145282253Y-56812619D01*
X145277372Y-56820150D01*
X145277369Y-56820153D01*
X145268576Y-56833718D01*
X145257158Y-56848737D01*
X145246437Y-56860838D01*
X145246435Y-56860841D01*
X145240484Y-56867558D01*
X145227671Y-56894738D01*
X145219444Y-56909522D01*
X145203107Y-56934727D01*
X145200537Y-56943319D01*
X145200536Y-56943322D01*
X145193292Y-56967544D01*
X145193144Y-56967982D01*
X145192810Y-56968690D01*
X145184500Y-56996945D01*
X145161413Y-57074141D01*
X145161407Y-57075208D01*
X145161183Y-57076221D01*
X145007080Y-57600172D01*
X144680497Y-58710553D01*
X144642086Y-58770262D01*
X144577492Y-58799726D01*
X144559617Y-58801000D01*
X132427383Y-58801000D01*
X132359262Y-58780998D01*
X132312769Y-58727342D01*
X132306503Y-58710553D01*
X131807539Y-57014076D01*
X131807270Y-57013148D01*
X131788954Y-56949064D01*
X131788954Y-56949063D01*
X131786488Y-56940435D01*
X131770458Y-56915029D01*
X131762409Y-56900139D01*
X131749934Y-56872814D01*
X131733489Y-56853789D01*
X131722252Y-56838627D01*
X131708840Y-56817369D01*
X131686327Y-56797486D01*
X131674422Y-56785454D01*
X131654776Y-56762726D01*
X131647237Y-56757856D01*
X131647231Y-56757851D01*
X131633652Y-56749080D01*
X131618611Y-56737682D01*
X131606502Y-56726988D01*
X131599772Y-56721044D01*
X131591648Y-56717230D01*
X131591645Y-56717228D01*
X131574931Y-56709382D01*
X131572590Y-56708283D01*
X131557769Y-56700065D01*
X131540086Y-56688642D01*
X131540085Y-56688641D01*
X131532545Y-56683771D01*
X131508443Y-56676604D01*
X131490813Y-56669887D01*
X131476182Y-56663018D01*
X131468052Y-56659201D01*
X131459182Y-56657820D01*
X131459179Y-56657819D01*
X131438372Y-56654580D01*
X131421847Y-56650854D01*
X131393066Y-56642296D01*
X131384090Y-56642255D01*
X131384088Y-56642255D01*
X131373200Y-56642206D01*
X131358823Y-56642141D01*
X131358354Y-56642121D01*
X131357577Y-56642000D01*
X131328356Y-56642000D01*
X131327783Y-56641999D01*
X131327563Y-56641998D01*
X131247553Y-56641634D01*
X131246528Y-56641929D01*
X131245493Y-56642000D01*
X121927732Y-56642000D01*
X121926766Y-56641996D01*
X121851142Y-56641416D01*
X121822243Y-56649626D01*
X121805679Y-56653148D01*
X121775955Y-56657405D01*
X121753070Y-56667810D01*
X121735359Y-56674311D01*
X121719800Y-56678731D01*
X121719798Y-56678732D01*
X121711167Y-56681184D01*
X121685737Y-56697174D01*
X121670826Y-56705204D01*
X121651662Y-56713917D01*
X121651660Y-56713919D01*
X121643490Y-56717633D01*
X121636692Y-56723490D01*
X121636691Y-56723491D01*
X121624442Y-56734045D01*
X121609269Y-56745253D01*
X121595586Y-56753857D01*
X121595581Y-56753861D01*
X121587981Y-56758640D01*
X121568061Y-56781124D01*
X121556002Y-56793017D01*
X121540053Y-56806759D01*
X121540051Y-56806761D01*
X121533253Y-56812619D01*
X121528372Y-56820150D01*
X121528369Y-56820153D01*
X121519576Y-56833718D01*
X121508158Y-56848737D01*
X121497437Y-56860838D01*
X121497435Y-56860841D01*
X121491484Y-56867558D01*
X121478671Y-56894738D01*
X121470444Y-56909522D01*
X121454107Y-56934727D01*
X121451537Y-56943319D01*
X121451536Y-56943322D01*
X121444292Y-56967544D01*
X121444144Y-56967982D01*
X121443810Y-56968690D01*
X121435500Y-56996945D01*
X121412413Y-57074141D01*
X121412407Y-57075208D01*
X121412183Y-57076221D01*
X121258080Y-57600172D01*
X120931497Y-58710553D01*
X120893086Y-58770262D01*
X120828492Y-58799726D01*
X120810617Y-58801000D01*
X110943008Y-58801000D01*
X110941001Y-58800867D01*
X110938991Y-58800299D01*
X110864905Y-58800994D01*
X110863723Y-58801000D01*
X110834523Y-58801000D01*
X110832786Y-58801249D01*
X110831278Y-58801310D01*
X110793483Y-58801664D01*
X110784893Y-58804264D01*
X110784890Y-58804264D01*
X110769936Y-58808790D01*
X110751313Y-58812917D01*
X110726955Y-58816405D01*
X110718787Y-58820119D01*
X110718786Y-58820119D01*
X110699124Y-58829059D01*
X110683469Y-58834957D01*
X110654205Y-58843813D01*
X110633603Y-58857262D01*
X110616884Y-58866451D01*
X110602666Y-58872915D01*
X110602663Y-58872917D01*
X110594490Y-58876633D01*
X110571330Y-58896589D01*
X110557959Y-58906644D01*
X110539874Y-58918450D01*
X110539871Y-58918453D01*
X110532357Y-58923358D01*
X110526519Y-58930178D01*
X110526518Y-58930179D01*
X110523482Y-58933725D01*
X110504136Y-58952003D01*
X110378201Y-59047974D01*
X110360899Y-59059053D01*
X110200121Y-59144376D01*
X110181257Y-59152491D01*
X110051951Y-59196005D01*
X110008754Y-59210542D01*
X109988809Y-59215486D01*
X109809173Y-59244724D01*
X109788687Y-59246361D01*
X109699088Y-59246188D01*
X109606675Y-59246009D01*
X109586200Y-59244293D01*
X109406676Y-59214361D01*
X109386753Y-59209342D01*
X109214475Y-59150623D01*
X109195630Y-59142429D01*
X109035198Y-59056492D01*
X109017934Y-59045344D01*
X108873597Y-58934465D01*
X108858376Y-58920659D01*
X108746347Y-58801000D01*
X108733983Y-58787793D01*
X108721209Y-58771697D01*
X108620073Y-58620384D01*
X108610085Y-58602425D01*
X108534887Y-58436680D01*
X108527951Y-58417336D01*
X108480697Y-58241574D01*
X108476998Y-58221360D01*
X108461985Y-58070770D01*
X108462298Y-58054038D01*
X108462043Y-58054039D01*
X108461994Y-58045064D01*
X108463217Y-58036172D01*
X108461896Y-58027297D01*
X108461896Y-58027293D01*
X108459373Y-58010346D01*
X108458000Y-57991796D01*
X108458000Y-57158702D01*
X108458002Y-57157932D01*
X108458421Y-57089322D01*
X108458476Y-57080348D01*
X108456010Y-57071719D01*
X108456009Y-57071714D01*
X108450361Y-57051952D01*
X108446783Y-57035191D01*
X108443870Y-57014848D01*
X108443867Y-57014838D01*
X108442595Y-57005955D01*
X108431979Y-56982605D01*
X108425536Y-56965093D01*
X108420954Y-56949063D01*
X108418488Y-56940435D01*
X108402726Y-56915452D01*
X108394596Y-56900386D01*
X108382367Y-56873490D01*
X108365626Y-56854061D01*
X108354521Y-56839053D01*
X108345630Y-56824961D01*
X108340840Y-56817369D01*
X108318703Y-56797818D01*
X108306659Y-56785626D01*
X108293239Y-56770051D01*
X108293237Y-56770050D01*
X108287381Y-56763253D01*
X108279853Y-56758374D01*
X108279850Y-56758371D01*
X108265861Y-56749304D01*
X108250987Y-56738014D01*
X108238502Y-56726988D01*
X108231772Y-56721044D01*
X108223646Y-56717229D01*
X108223645Y-56717228D01*
X108216592Y-56713917D01*
X108205034Y-56708490D01*
X108190065Y-56700176D01*
X108165273Y-56684107D01*
X108140709Y-56676761D01*
X108123264Y-56670099D01*
X108114714Y-56666085D01*
X108100052Y-56659201D01*
X108070870Y-56654657D01*
X108054151Y-56650874D01*
X108034464Y-56644986D01*
X108034461Y-56644985D01*
X108025859Y-56642413D01*
X108016884Y-56642358D01*
X108016883Y-56642358D01*
X108010190Y-56642317D01*
X107991444Y-56642203D01*
X107990672Y-56642170D01*
X107989577Y-56642000D01*
X107958702Y-56642000D01*
X107957932Y-56641998D01*
X107884284Y-56641548D01*
X107884283Y-56641548D01*
X107880348Y-56641524D01*
X107879004Y-56641908D01*
X107877659Y-56642000D01*
X98825970Y-56642000D01*
X98818300Y-56641766D01*
X98816365Y-56641648D01*
X98764304Y-56638473D01*
X98718503Y-56648887D01*
X98708438Y-56650748D01*
X98670847Y-56656131D01*
X98670843Y-56656132D01*
X98661955Y-56657405D01*
X98653782Y-56661121D01*
X98651717Y-56661725D01*
X98633172Y-56667977D01*
X98631170Y-56668744D01*
X98622412Y-56670735D01*
X98590253Y-56688642D01*
X98581392Y-56693576D01*
X98572248Y-56698191D01*
X98537662Y-56713917D01*
X98537660Y-56713918D01*
X98529490Y-56717633D01*
X98522692Y-56723491D01*
X98520919Y-56724625D01*
X98504792Y-56735888D01*
X98503117Y-56737162D01*
X98495278Y-56741527D01*
X98488977Y-56747918D01*
X98488974Y-56747921D01*
X98462307Y-56774972D01*
X98454833Y-56781961D01*
X98419253Y-56812619D01*
X98414370Y-56820153D01*
X98412987Y-56821738D01*
X98400677Y-56837065D01*
X98399424Y-56838763D01*
X98393122Y-56845155D01*
X98376696Y-56875674D01*
X98370866Y-56886506D01*
X98365649Y-56895321D01*
X98340107Y-56934727D01*
X98337535Y-56943329D01*
X98337533Y-56943332D01*
X98323446Y-56990437D01*
X98321546Y-56996270D01*
X97714253Y-58716935D01*
X97672719Y-58774515D01*
X97606649Y-58800500D01*
X97595436Y-58801000D01*
X90390383Y-58801000D01*
X90322262Y-58780998D01*
X90275769Y-58727342D01*
X90269503Y-58710553D01*
X89770539Y-57014076D01*
X89770270Y-57013148D01*
X89751954Y-56949064D01*
X89751954Y-56949063D01*
X89749488Y-56940435D01*
X89733458Y-56915029D01*
X89725409Y-56900139D01*
X89712934Y-56872814D01*
X89696489Y-56853789D01*
X89685252Y-56838627D01*
X89671840Y-56817369D01*
X89649327Y-56797486D01*
X89637422Y-56785454D01*
X89617776Y-56762726D01*
X89610237Y-56757856D01*
X89610231Y-56757851D01*
X89596652Y-56749080D01*
X89581611Y-56737682D01*
X89569502Y-56726988D01*
X89562772Y-56721044D01*
X89554648Y-56717230D01*
X89554645Y-56717228D01*
X89537931Y-56709382D01*
X89535590Y-56708283D01*
X89520769Y-56700065D01*
X89503086Y-56688642D01*
X89503085Y-56688641D01*
X89495545Y-56683771D01*
X89471443Y-56676604D01*
X89453813Y-56669887D01*
X89439182Y-56663018D01*
X89431052Y-56659201D01*
X89422182Y-56657820D01*
X89422179Y-56657819D01*
X89401372Y-56654580D01*
X89384847Y-56650854D01*
X89356066Y-56642296D01*
X89347090Y-56642255D01*
X89347088Y-56642255D01*
X89336200Y-56642206D01*
X89321823Y-56642141D01*
X89321354Y-56642121D01*
X89320577Y-56642000D01*
X89291356Y-56642000D01*
X89290783Y-56641999D01*
X89290563Y-56641998D01*
X89210553Y-56641634D01*
X89209528Y-56641929D01*
X89208493Y-56642000D01*
X81542610Y-56642000D01*
X81474489Y-56621998D01*
X81453515Y-56605095D01*
X80554905Y-55706485D01*
X80520879Y-55644173D01*
X80518000Y-55617390D01*
X80518000Y-53472703D01*
X81710743Y-53472703D01*
X81711302Y-53476947D01*
X81711302Y-53476951D01*
X81727046Y-53596535D01*
X81748268Y-53757734D01*
X81824129Y-54035036D01*
X81825813Y-54038984D01*
X81932438Y-54288960D01*
X81936923Y-54299476D01*
X81948693Y-54319142D01*
X82072986Y-54526820D01*
X82084561Y-54546161D01*
X82264313Y-54770528D01*
X82375485Y-54876026D01*
X82445492Y-54942460D01*
X82472851Y-54968423D01*
X82706317Y-55136186D01*
X82710112Y-55138195D01*
X82710113Y-55138196D01*
X82731869Y-55149715D01*
X82960392Y-55270712D01*
X82980488Y-55278066D01*
X83178243Y-55350434D01*
X83230373Y-55369511D01*
X83511264Y-55430755D01*
X83539841Y-55433004D01*
X83734282Y-55448307D01*
X83734291Y-55448307D01*
X83736739Y-55448500D01*
X83892271Y-55448500D01*
X83894407Y-55448354D01*
X83894418Y-55448354D01*
X84102548Y-55434165D01*
X84102554Y-55434164D01*
X84106825Y-55433873D01*
X84111020Y-55433004D01*
X84111022Y-55433004D01*
X84247584Y-55404723D01*
X84388342Y-55375574D01*
X84659343Y-55279607D01*
X84914812Y-55147750D01*
X84918313Y-55145289D01*
X84918317Y-55145287D01*
X85114739Y-55007239D01*
X85150023Y-54982441D01*
X85255238Y-54884669D01*
X89432001Y-54884669D01*
X89432371Y-54891490D01*
X89437895Y-54942352D01*
X89441521Y-54957604D01*
X89486676Y-55078054D01*
X89495214Y-55093649D01*
X89571715Y-55195724D01*
X89584276Y-55208285D01*
X89686351Y-55284786D01*
X89701946Y-55293324D01*
X89822394Y-55338478D01*
X89837649Y-55342105D01*
X89888514Y-55347631D01*
X89895328Y-55348000D01*
X91167885Y-55348000D01*
X91183124Y-55343525D01*
X91184329Y-55342135D01*
X91186000Y-55334452D01*
X91186000Y-55329884D01*
X91694000Y-55329884D01*
X91698475Y-55345123D01*
X91699865Y-55346328D01*
X91707548Y-55347999D01*
X92984669Y-55347999D01*
X92991490Y-55347629D01*
X93042352Y-55342105D01*
X93057604Y-55338479D01*
X93178054Y-55293324D01*
X93193649Y-55284786D01*
X93295724Y-55208285D01*
X93308285Y-55195724D01*
X93384786Y-55093649D01*
X93393324Y-55078054D01*
X93438478Y-54957606D01*
X93442105Y-54942351D01*
X93447631Y-54891486D01*
X93448000Y-54884672D01*
X93448000Y-53612115D01*
X93443525Y-53596876D01*
X93442135Y-53595671D01*
X93434452Y-53594000D01*
X91712115Y-53594000D01*
X91696876Y-53598475D01*
X91695671Y-53599865D01*
X91694000Y-53607548D01*
X91694000Y-55329884D01*
X91186000Y-55329884D01*
X91186000Y-53612115D01*
X91181525Y-53596876D01*
X91180135Y-53595671D01*
X91172452Y-53594000D01*
X89450116Y-53594000D01*
X89434877Y-53598475D01*
X89433672Y-53599865D01*
X89432001Y-53607548D01*
X89432001Y-54884669D01*
X85255238Y-54884669D01*
X85310748Y-54833086D01*
X85357479Y-54789661D01*
X85357481Y-54789658D01*
X85360622Y-54786740D01*
X85542713Y-54564268D01*
X85692927Y-54319142D01*
X85698387Y-54306705D01*
X85806757Y-54059830D01*
X85808483Y-54055898D01*
X85822314Y-54007346D01*
X85886068Y-53783534D01*
X85887244Y-53779406D01*
X85927751Y-53494784D01*
X85927804Y-53484800D01*
X85928673Y-53318918D01*
X94506917Y-53318918D01*
X94522682Y-53592320D01*
X94523507Y-53596525D01*
X94523508Y-53596533D01*
X94526630Y-53612444D01*
X94575405Y-53861053D01*
X94576792Y-53865103D01*
X94576793Y-53865108D01*
X94662723Y-54116088D01*
X94664112Y-54120144D01*
X94787160Y-54364799D01*
X94789586Y-54368328D01*
X94789589Y-54368334D01*
X94930057Y-54572714D01*
X94942274Y-54590490D01*
X94945161Y-54593663D01*
X94945162Y-54593664D01*
X94983663Y-54635976D01*
X95126582Y-54793043D01*
X95336675Y-54968707D01*
X95340316Y-54970991D01*
X95565024Y-55111951D01*
X95565028Y-55111953D01*
X95568664Y-55114234D01*
X95693460Y-55170582D01*
X95814345Y-55225164D01*
X95814349Y-55225166D01*
X95818257Y-55226930D01*
X95822377Y-55228150D01*
X95822376Y-55228150D01*
X96076723Y-55303491D01*
X96076727Y-55303492D01*
X96080836Y-55304709D01*
X96085070Y-55305357D01*
X96085075Y-55305358D01*
X96347298Y-55345483D01*
X96347300Y-55345483D01*
X96351540Y-55346132D01*
X96490912Y-55348322D01*
X96621071Y-55350367D01*
X96621077Y-55350367D01*
X96625362Y-55350434D01*
X96897235Y-55317534D01*
X97162127Y-55248041D01*
X97166087Y-55246401D01*
X97166092Y-55246399D01*
X97340790Y-55174036D01*
X97415136Y-55143241D01*
X97644540Y-55009188D01*
X97647879Y-55007237D01*
X97647880Y-55007236D01*
X97651582Y-55005073D01*
X97867089Y-54836094D01*
X97890040Y-54812411D01*
X98054686Y-54642509D01*
X98054687Y-54642508D01*
X98057669Y-54639431D01*
X98060202Y-54635983D01*
X98060206Y-54635978D01*
X98212509Y-54428642D01*
X98219795Y-54418723D01*
X98228299Y-54403061D01*
X98348418Y-54181830D01*
X98348419Y-54181828D01*
X98350468Y-54178054D01*
X98436160Y-53951276D01*
X98445751Y-53925895D01*
X98445753Y-53925889D01*
X98447269Y-53921877D01*
X98508407Y-53654933D01*
X98511899Y-53615814D01*
X98532531Y-53384627D01*
X98532531Y-53384625D01*
X98532751Y-53382161D01*
X98533193Y-53340000D01*
X102186807Y-53340000D01*
X102205542Y-53554142D01*
X102206966Y-53559455D01*
X102206966Y-53559457D01*
X102248924Y-53716043D01*
X102261178Y-53761777D01*
X102263500Y-53766757D01*
X102263501Y-53766759D01*
X102343642Y-53938620D01*
X102352024Y-53956596D01*
X102475319Y-54132681D01*
X102627319Y-54284681D01*
X102803403Y-54407976D01*
X102808381Y-54410297D01*
X102808384Y-54410299D01*
X102993241Y-54496499D01*
X102998223Y-54498822D01*
X103003531Y-54500244D01*
X103003533Y-54500245D01*
X103200543Y-54553034D01*
X103200545Y-54553034D01*
X103205858Y-54554458D01*
X103420000Y-54573193D01*
X103634142Y-54554458D01*
X103639455Y-54553034D01*
X103639457Y-54553034D01*
X103836467Y-54500245D01*
X103836469Y-54500244D01*
X103841777Y-54498822D01*
X103846759Y-54496499D01*
X104031616Y-54410299D01*
X104031619Y-54410297D01*
X104036597Y-54407976D01*
X104212681Y-54284681D01*
X104364681Y-54132681D01*
X104487976Y-53956596D01*
X104496359Y-53938620D01*
X104575805Y-53768247D01*
X104622723Y-53714962D01*
X104691000Y-53695501D01*
X104758960Y-53716043D01*
X104804195Y-53768247D01*
X104883642Y-53938620D01*
X104892024Y-53956596D01*
X105015319Y-54132681D01*
X105167319Y-54284681D01*
X105343403Y-54407976D01*
X105348381Y-54410297D01*
X105348384Y-54410299D01*
X105533241Y-54496499D01*
X105538223Y-54498822D01*
X105543531Y-54500244D01*
X105543533Y-54500245D01*
X105740543Y-54553034D01*
X105740545Y-54553034D01*
X105745858Y-54554458D01*
X105960000Y-54573193D01*
X106174142Y-54554458D01*
X106179455Y-54553034D01*
X106179457Y-54553034D01*
X106376467Y-54500245D01*
X106376469Y-54500244D01*
X106381777Y-54498822D01*
X106386759Y-54496499D01*
X106571616Y-54410299D01*
X106571619Y-54410297D01*
X106576597Y-54407976D01*
X106752681Y-54284681D01*
X106904681Y-54132681D01*
X107027976Y-53956596D01*
X107031305Y-53949457D01*
X107032001Y-53948666D01*
X107033054Y-53946843D01*
X107033420Y-53947055D01*
X107078223Y-53896172D01*
X107146500Y-53876711D01*
X107214460Y-53897253D01*
X107260525Y-53951276D01*
X107271500Y-54002707D01*
X107271500Y-54108134D01*
X107278255Y-54170316D01*
X107329385Y-54306705D01*
X107416739Y-54423261D01*
X107533295Y-54510615D01*
X107669684Y-54561745D01*
X107731866Y-54568500D01*
X109268134Y-54568500D01*
X109330316Y-54561745D01*
X109466705Y-54510615D01*
X109583261Y-54423261D01*
X109670615Y-54306705D01*
X109721745Y-54170316D01*
X109728500Y-54108134D01*
X109728500Y-53472703D01*
X123620743Y-53472703D01*
X123621302Y-53476947D01*
X123621302Y-53476951D01*
X123637046Y-53596535D01*
X123658268Y-53757734D01*
X123734129Y-54035036D01*
X123735813Y-54038984D01*
X123842438Y-54288960D01*
X123846923Y-54299476D01*
X123858693Y-54319142D01*
X123982986Y-54526820D01*
X123994561Y-54546161D01*
X124174313Y-54770528D01*
X124285485Y-54876026D01*
X124355492Y-54942460D01*
X124382851Y-54968423D01*
X124616317Y-55136186D01*
X124620112Y-55138195D01*
X124620113Y-55138196D01*
X124641869Y-55149715D01*
X124870392Y-55270712D01*
X124890488Y-55278066D01*
X125088243Y-55350434D01*
X125140373Y-55369511D01*
X125421264Y-55430755D01*
X125449841Y-55433004D01*
X125644282Y-55448307D01*
X125644291Y-55448307D01*
X125646739Y-55448500D01*
X125802271Y-55448500D01*
X125804407Y-55448354D01*
X125804418Y-55448354D01*
X126012548Y-55434165D01*
X126012554Y-55434164D01*
X126016825Y-55433873D01*
X126021020Y-55433004D01*
X126021022Y-55433004D01*
X126157584Y-55404723D01*
X126298342Y-55375574D01*
X126569343Y-55279607D01*
X126824812Y-55147750D01*
X126828313Y-55145289D01*
X126828317Y-55145287D01*
X127024739Y-55007239D01*
X127060023Y-54982441D01*
X127220748Y-54833086D01*
X127267479Y-54789661D01*
X127267481Y-54789658D01*
X127270622Y-54786740D01*
X127452713Y-54564268D01*
X127602927Y-54319142D01*
X127608387Y-54306705D01*
X127716757Y-54059830D01*
X127718483Y-54055898D01*
X127732314Y-54007346D01*
X127796068Y-53783534D01*
X127797244Y-53779406D01*
X127837751Y-53494784D01*
X127837804Y-53484800D01*
X127839235Y-53211583D01*
X127839235Y-53211576D01*
X127839257Y-53207297D01*
X127801732Y-52922266D01*
X127725871Y-52644964D01*
X127681298Y-52540465D01*
X127614763Y-52384476D01*
X127614761Y-52384472D01*
X127613077Y-52380524D01*
X127492919Y-52179755D01*
X127467643Y-52137521D01*
X127467640Y-52137517D01*
X127465439Y-52133839D01*
X127285687Y-51909472D01*
X127077149Y-51711577D01*
X126843683Y-51543814D01*
X126821843Y-51532250D01*
X126731235Y-51484276D01*
X126589608Y-51409288D01*
X126404426Y-51341521D01*
X126323658Y-51311964D01*
X126323656Y-51311963D01*
X126319627Y-51310489D01*
X126038736Y-51249245D01*
X126007685Y-51246801D01*
X125815718Y-51231693D01*
X125815709Y-51231693D01*
X125813261Y-51231500D01*
X125657729Y-51231500D01*
X125655593Y-51231646D01*
X125655582Y-51231646D01*
X125447452Y-51245835D01*
X125447446Y-51245836D01*
X125443175Y-51246127D01*
X125438980Y-51246996D01*
X125438978Y-51246996D01*
X125302417Y-51275276D01*
X125161658Y-51304426D01*
X124890657Y-51400393D01*
X124635188Y-51532250D01*
X124631687Y-51534711D01*
X124631683Y-51534713D01*
X124601536Y-51555901D01*
X124399977Y-51697559D01*
X124373249Y-51722396D01*
X124211778Y-51872445D01*
X124189378Y-51893260D01*
X124007287Y-52115732D01*
X123857073Y-52360858D01*
X123855347Y-52364791D01*
X123855346Y-52364792D01*
X123850059Y-52376837D01*
X123741517Y-52624102D01*
X123662756Y-52900594D01*
X123622249Y-53185216D01*
X123622227Y-53189505D01*
X123622226Y-53189512D01*
X123620938Y-53435403D01*
X123620743Y-53472703D01*
X109728500Y-53472703D01*
X109728500Y-52571866D01*
X109721745Y-52509684D01*
X109670615Y-52373295D01*
X109583261Y-52256739D01*
X109466705Y-52169385D01*
X109330316Y-52118255D01*
X109268134Y-52111500D01*
X107731866Y-52111500D01*
X107669684Y-52118255D01*
X107533295Y-52169385D01*
X107416739Y-52256739D01*
X107329385Y-52373295D01*
X107278255Y-52509684D01*
X107271500Y-52571866D01*
X107271500Y-52677293D01*
X107251498Y-52745414D01*
X107197842Y-52791907D01*
X107127568Y-52802011D01*
X107062988Y-52772517D01*
X107033210Y-52733067D01*
X107033054Y-52733157D01*
X107032325Y-52731894D01*
X107031305Y-52730543D01*
X107030299Y-52728385D01*
X107030297Y-52728382D01*
X107027976Y-52723404D01*
X106904681Y-52547319D01*
X106752681Y-52395319D01*
X106576597Y-52272024D01*
X106571619Y-52269703D01*
X106571616Y-52269701D01*
X106386759Y-52183501D01*
X106386758Y-52183500D01*
X106381777Y-52181178D01*
X106376469Y-52179756D01*
X106376467Y-52179755D01*
X106179457Y-52126966D01*
X106179455Y-52126966D01*
X106174142Y-52125542D01*
X105960000Y-52106807D01*
X105745858Y-52125542D01*
X105740545Y-52126966D01*
X105740543Y-52126966D01*
X105543533Y-52179755D01*
X105543531Y-52179756D01*
X105538223Y-52181178D01*
X105533243Y-52183500D01*
X105533241Y-52183501D01*
X105348385Y-52269701D01*
X105348382Y-52269703D01*
X105343404Y-52272024D01*
X105167319Y-52395319D01*
X105015319Y-52547319D01*
X104892024Y-52723404D01*
X104889703Y-52728382D01*
X104889701Y-52728385D01*
X104804195Y-52911753D01*
X104757277Y-52965038D01*
X104689000Y-52984499D01*
X104621040Y-52963957D01*
X104575805Y-52911753D01*
X104490299Y-52728385D01*
X104490297Y-52728382D01*
X104487976Y-52723404D01*
X104364681Y-52547319D01*
X104212681Y-52395319D01*
X104036597Y-52272024D01*
X104031619Y-52269703D01*
X104031616Y-52269701D01*
X103846759Y-52183501D01*
X103846758Y-52183500D01*
X103841777Y-52181178D01*
X103836469Y-52179756D01*
X103836467Y-52179755D01*
X103639457Y-52126966D01*
X103639455Y-52126966D01*
X103634142Y-52125542D01*
X103420000Y-52106807D01*
X103205858Y-52125542D01*
X103200545Y-52126966D01*
X103200543Y-52126966D01*
X103003533Y-52179755D01*
X103003531Y-52179756D01*
X102998223Y-52181178D01*
X102993243Y-52183500D01*
X102993241Y-52183501D01*
X102808385Y-52269701D01*
X102808382Y-52269703D01*
X102803404Y-52272024D01*
X102627319Y-52395319D01*
X102475319Y-52547319D01*
X102352024Y-52723404D01*
X102349703Y-52728382D01*
X102349701Y-52728385D01*
X102267418Y-52904841D01*
X102261178Y-52918223D01*
X102259756Y-52923531D01*
X102259755Y-52923533D01*
X102216670Y-53084329D01*
X102205542Y-53125858D01*
X102186807Y-53340000D01*
X98533193Y-53340000D01*
X98524439Y-53211583D01*
X98514859Y-53071055D01*
X98514858Y-53071049D01*
X98514567Y-53066778D01*
X98493498Y-52965038D01*
X98459901Y-52802809D01*
X98459032Y-52798612D01*
X98367617Y-52540465D01*
X98242013Y-52297112D01*
X98232040Y-52282921D01*
X98117105Y-52119386D01*
X98084545Y-52073057D01*
X97920552Y-51896579D01*
X97901046Y-51875588D01*
X97901043Y-51875585D01*
X97898125Y-51872445D01*
X97894810Y-51869731D01*
X97894806Y-51869728D01*
X97689523Y-51701706D01*
X97686205Y-51698990D01*
X97452704Y-51555901D01*
X97448768Y-51554173D01*
X97205873Y-51447549D01*
X97205869Y-51447548D01*
X97201945Y-51445825D01*
X96938566Y-51370800D01*
X96934324Y-51370196D01*
X96934318Y-51370195D01*
X96707366Y-51337895D01*
X96667443Y-51332213D01*
X96523589Y-51331460D01*
X96397877Y-51330802D01*
X96397871Y-51330802D01*
X96393591Y-51330780D01*
X96389347Y-51331339D01*
X96389343Y-51331339D01*
X96281416Y-51345548D01*
X96122078Y-51366525D01*
X96117938Y-51367658D01*
X96117936Y-51367658D01*
X96048418Y-51386676D01*
X95857928Y-51438788D01*
X95853980Y-51440472D01*
X95609982Y-51544546D01*
X95609978Y-51544548D01*
X95606030Y-51546232D01*
X95586125Y-51558145D01*
X95374725Y-51684664D01*
X95374721Y-51684667D01*
X95371043Y-51686868D01*
X95157318Y-51858094D01*
X94968808Y-52056742D01*
X94809002Y-52279136D01*
X94680857Y-52521161D01*
X94679385Y-52525184D01*
X94679383Y-52525188D01*
X94603277Y-52733157D01*
X94586743Y-52778337D01*
X94528404Y-53045907D01*
X94506917Y-53318918D01*
X85928673Y-53318918D01*
X85929235Y-53211583D01*
X85929235Y-53211576D01*
X85929257Y-53207297D01*
X85910903Y-53067885D01*
X89432000Y-53067885D01*
X89436475Y-53083124D01*
X89437865Y-53084329D01*
X89445548Y-53086000D01*
X91167885Y-53086000D01*
X91183124Y-53081525D01*
X91184329Y-53080135D01*
X91186000Y-53072452D01*
X91186000Y-53067885D01*
X91694000Y-53067885D01*
X91698475Y-53083124D01*
X91699865Y-53084329D01*
X91707548Y-53086000D01*
X93429884Y-53086000D01*
X93445123Y-53081525D01*
X93446328Y-53080135D01*
X93447999Y-53072452D01*
X93447999Y-51795331D01*
X93447629Y-51788510D01*
X93442105Y-51737648D01*
X93438479Y-51722396D01*
X93393324Y-51601946D01*
X93384786Y-51586351D01*
X93308285Y-51484276D01*
X93295724Y-51471715D01*
X93193649Y-51395214D01*
X93178054Y-51386676D01*
X93057606Y-51341522D01*
X93042351Y-51337895D01*
X92991486Y-51332369D01*
X92984672Y-51332000D01*
X91712115Y-51332000D01*
X91696876Y-51336475D01*
X91695671Y-51337865D01*
X91694000Y-51345548D01*
X91694000Y-53067885D01*
X91186000Y-53067885D01*
X91186000Y-51350116D01*
X91181525Y-51334877D01*
X91180135Y-51333672D01*
X91172452Y-51332001D01*
X89895331Y-51332001D01*
X89888510Y-51332371D01*
X89837648Y-51337895D01*
X89822396Y-51341521D01*
X89701946Y-51386676D01*
X89686351Y-51395214D01*
X89584276Y-51471715D01*
X89571715Y-51484276D01*
X89495214Y-51586351D01*
X89486676Y-51601946D01*
X89441522Y-51722394D01*
X89437895Y-51737649D01*
X89432369Y-51788514D01*
X89432000Y-51795328D01*
X89432000Y-53067885D01*
X85910903Y-53067885D01*
X85891732Y-52922266D01*
X85815871Y-52644964D01*
X85771298Y-52540465D01*
X85704763Y-52384476D01*
X85704761Y-52384472D01*
X85703077Y-52380524D01*
X85582919Y-52179755D01*
X85557643Y-52137521D01*
X85557640Y-52137517D01*
X85555439Y-52133839D01*
X85375687Y-51909472D01*
X85167149Y-51711577D01*
X84933683Y-51543814D01*
X84911843Y-51532250D01*
X84821235Y-51484276D01*
X84679608Y-51409288D01*
X84494426Y-51341521D01*
X84413658Y-51311964D01*
X84413656Y-51311963D01*
X84409627Y-51310489D01*
X84128736Y-51249245D01*
X84097685Y-51246801D01*
X83905718Y-51231693D01*
X83905709Y-51231693D01*
X83903261Y-51231500D01*
X83747729Y-51231500D01*
X83745593Y-51231646D01*
X83745582Y-51231646D01*
X83537452Y-51245835D01*
X83537446Y-51245836D01*
X83533175Y-51246127D01*
X83528980Y-51246996D01*
X83528978Y-51246996D01*
X83392417Y-51275276D01*
X83251658Y-51304426D01*
X82980657Y-51400393D01*
X82725188Y-51532250D01*
X82721687Y-51534711D01*
X82721683Y-51534713D01*
X82691536Y-51555901D01*
X82489977Y-51697559D01*
X82463249Y-51722396D01*
X82301778Y-51872445D01*
X82279378Y-51893260D01*
X82097287Y-52115732D01*
X81947073Y-52360858D01*
X81945347Y-52364791D01*
X81945346Y-52364792D01*
X81940059Y-52376837D01*
X81831517Y-52624102D01*
X81752756Y-52900594D01*
X81712249Y-53185216D01*
X81712227Y-53189505D01*
X81712226Y-53189512D01*
X81710938Y-53435403D01*
X81710743Y-53472703D01*
X80518000Y-53472703D01*
X80518000Y-50292000D01*
X109322496Y-50292000D01*
X109342458Y-50481928D01*
X109401473Y-50663556D01*
X109496960Y-50828944D01*
X109624747Y-50970866D01*
X109779248Y-51083118D01*
X109785276Y-51085802D01*
X109785278Y-51085803D01*
X109947681Y-51158109D01*
X109953712Y-51160794D01*
X110047113Y-51180647D01*
X110134056Y-51199128D01*
X110134061Y-51199128D01*
X110140513Y-51200500D01*
X110331487Y-51200500D01*
X110337939Y-51199128D01*
X110337944Y-51199128D01*
X110424888Y-51180647D01*
X110518288Y-51160794D01*
X110524319Y-51158109D01*
X110686722Y-51085803D01*
X110686724Y-51085802D01*
X110692752Y-51083118D01*
X110847253Y-50970866D01*
X110975040Y-50828944D01*
X111070527Y-50663556D01*
X111129542Y-50481928D01*
X111149504Y-50292000D01*
X111129542Y-50102072D01*
X111070527Y-49920444D01*
X110975040Y-49755056D01*
X110970621Y-49750148D01*
X110968564Y-49747317D01*
X110944705Y-49680449D01*
X110944500Y-49673256D01*
X110944500Y-49621660D01*
X110964502Y-49553539D01*
X110981405Y-49532565D01*
X112575836Y-47938134D01*
X125591500Y-47938134D01*
X125598255Y-48000316D01*
X125649385Y-48136705D01*
X125736739Y-48253261D01*
X125853295Y-48340615D01*
X125989684Y-48391745D01*
X126051866Y-48398500D01*
X127948134Y-48398500D01*
X128010316Y-48391745D01*
X128146705Y-48340615D01*
X128263261Y-48253261D01*
X128350615Y-48136705D01*
X128401745Y-48000316D01*
X128408500Y-47938134D01*
X128408500Y-46041866D01*
X128401745Y-45979684D01*
X128350615Y-45843295D01*
X128263261Y-45726739D01*
X128146705Y-45639385D01*
X128010316Y-45588255D01*
X127948134Y-45581500D01*
X126051866Y-45581500D01*
X125989684Y-45588255D01*
X125853295Y-45639385D01*
X125736739Y-45726739D01*
X125649385Y-45843295D01*
X125598255Y-45979684D01*
X125591500Y-46041866D01*
X125591500Y-47938134D01*
X112575836Y-47938134D01*
X112875520Y-47638450D01*
X112881785Y-47632596D01*
X112882238Y-47632201D01*
X112925385Y-47594561D01*
X112962129Y-47542280D01*
X112966061Y-47536986D01*
X113000791Y-47492693D01*
X113005476Y-47486718D01*
X113008599Y-47479802D01*
X113009983Y-47477516D01*
X113018357Y-47462835D01*
X113019622Y-47460475D01*
X113023990Y-47454261D01*
X113028413Y-47442918D01*
X113047202Y-47394725D01*
X113049759Y-47388642D01*
X113050394Y-47387237D01*
X113076045Y-47330427D01*
X113077430Y-47322954D01*
X113078234Y-47320388D01*
X113082855Y-47304165D01*
X113083520Y-47301573D01*
X113086282Y-47294491D01*
X113094622Y-47231139D01*
X113095654Y-47224623D01*
X113103610Y-47181694D01*
X113107295Y-47161814D01*
X113103709Y-47099620D01*
X113103500Y-47092367D01*
X113103500Y-45957744D01*
X113123502Y-45889623D01*
X113127564Y-45883683D01*
X113129621Y-45880852D01*
X113134040Y-45875944D01*
X113157588Y-45835158D01*
X113226223Y-45716279D01*
X113226224Y-45716278D01*
X113229527Y-45710556D01*
X113288542Y-45528928D01*
X113292075Y-45495319D01*
X113307814Y-45345565D01*
X113308504Y-45339000D01*
X113297280Y-45232206D01*
X113289232Y-45155635D01*
X113289232Y-45155633D01*
X113288542Y-45149072D01*
X113229527Y-44967444D01*
X113155658Y-44839499D01*
X113138920Y-44770505D01*
X113162140Y-44703413D01*
X113217947Y-44659526D01*
X113264777Y-44650500D01*
X114224145Y-44650500D01*
X114292266Y-44670502D01*
X114338759Y-44724158D01*
X114345852Y-44743888D01*
X114348093Y-44752251D01*
X114382880Y-44882076D01*
X114404089Y-44927558D01*
X114473618Y-45076666D01*
X114473621Y-45076671D01*
X114475944Y-45081653D01*
X114479100Y-45086160D01*
X114479101Y-45086162D01*
X114580402Y-45230834D01*
X114602251Y-45262038D01*
X114757962Y-45417749D01*
X114762471Y-45420906D01*
X114762473Y-45420908D01*
X114775711Y-45430177D01*
X114938346Y-45544056D01*
X115137924Y-45637120D01*
X115350629Y-45694115D01*
X115570000Y-45713307D01*
X115575475Y-45712828D01*
X115575485Y-45712828D01*
X115634999Y-45707621D01*
X115704604Y-45721609D01*
X115735076Y-45744046D01*
X116159335Y-46168305D01*
X116193361Y-46230617D01*
X116195550Y-46244228D01*
X116200458Y-46290928D01*
X116202498Y-46297205D01*
X116202498Y-46297207D01*
X116220189Y-46351653D01*
X116259473Y-46472556D01*
X116354960Y-46637944D01*
X116359378Y-46642851D01*
X116359379Y-46642852D01*
X116454355Y-46748334D01*
X116482747Y-46779866D01*
X116581680Y-46851745D01*
X116620937Y-46880267D01*
X116637248Y-46892118D01*
X116643276Y-46894802D01*
X116643278Y-46894803D01*
X116805331Y-46966953D01*
X116811712Y-46969794D01*
X116905112Y-46989647D01*
X116992056Y-47008128D01*
X116992061Y-47008128D01*
X116998513Y-47009500D01*
X117189487Y-47009500D01*
X117195939Y-47008128D01*
X117195944Y-47008128D01*
X117282887Y-46989647D01*
X117376288Y-46969794D01*
X117382669Y-46966953D01*
X117544722Y-46894803D01*
X117544724Y-46894802D01*
X117550752Y-46892118D01*
X117567064Y-46880267D01*
X117606320Y-46851745D01*
X117705253Y-46779866D01*
X117733645Y-46748334D01*
X117828621Y-46642852D01*
X117828622Y-46642851D01*
X117833040Y-46637944D01*
X117928527Y-46472556D01*
X117987542Y-46290928D01*
X117991059Y-46257471D01*
X118006814Y-46107565D01*
X118007504Y-46101000D01*
X117993529Y-45968032D01*
X117988232Y-45917635D01*
X117988232Y-45917633D01*
X117987542Y-45911072D01*
X117928527Y-45729444D01*
X117924004Y-45721609D01*
X117865504Y-45620285D01*
X117833040Y-45564056D01*
X117817126Y-45546381D01*
X117709675Y-45427045D01*
X117709674Y-45427044D01*
X117705253Y-45422134D01*
X117590829Y-45339000D01*
X117556094Y-45313763D01*
X117556093Y-45313762D01*
X117550752Y-45309882D01*
X117544724Y-45307198D01*
X117544722Y-45307197D01*
X117382319Y-45234891D01*
X117382318Y-45234891D01*
X117376288Y-45232206D01*
X117223431Y-45199715D01*
X117160533Y-45165563D01*
X116833904Y-44838934D01*
X116799878Y-44776622D01*
X116801292Y-44717228D01*
X116812691Y-44674685D01*
X116814115Y-44669371D01*
X116833307Y-44450000D01*
X116814115Y-44230629D01*
X116757120Y-44017924D01*
X116668347Y-43827549D01*
X116666382Y-43823334D01*
X116666379Y-43823329D01*
X116664056Y-43818347D01*
X116616759Y-43750800D01*
X116540908Y-43642473D01*
X116540906Y-43642470D01*
X116537749Y-43637962D01*
X116382038Y-43482251D01*
X116201654Y-43355944D01*
X116002076Y-43262880D01*
X115789371Y-43205885D01*
X115570000Y-43186693D01*
X115350629Y-43205885D01*
X115178788Y-43251930D01*
X115116435Y-43252256D01*
X115112491Y-43250718D01*
X115104960Y-43249727D01*
X115104958Y-43249726D01*
X115075339Y-43245827D01*
X115049139Y-43242378D01*
X115042641Y-43241348D01*
X114979814Y-43229704D01*
X114972234Y-43230141D01*
X114972233Y-43230141D01*
X114917608Y-43233291D01*
X114910354Y-43233500D01*
X113133405Y-43233500D01*
X113065284Y-43213498D01*
X113059344Y-43209436D01*
X112984094Y-43154763D01*
X112984093Y-43154762D01*
X112978752Y-43150882D01*
X112972724Y-43148198D01*
X112972722Y-43148197D01*
X112810319Y-43075891D01*
X112810318Y-43075891D01*
X112804288Y-43073206D01*
X112710887Y-43053353D01*
X112623944Y-43034872D01*
X112623939Y-43034872D01*
X112617487Y-43033500D01*
X112426513Y-43033500D01*
X112420061Y-43034872D01*
X112420056Y-43034872D01*
X112333112Y-43053353D01*
X112239712Y-43073206D01*
X112233682Y-43075891D01*
X112233681Y-43075891D01*
X112071278Y-43148197D01*
X112071276Y-43148198D01*
X112065248Y-43150882D01*
X111910747Y-43263134D01*
X111906326Y-43268044D01*
X111906325Y-43268045D01*
X111827181Y-43355944D01*
X111782960Y-43405056D01*
X111687473Y-43570444D01*
X111628458Y-43752072D01*
X111608496Y-43942000D01*
X111609186Y-43948565D01*
X111623180Y-44081706D01*
X111628458Y-44131928D01*
X111687473Y-44313556D01*
X111782960Y-44478944D01*
X111789562Y-44486277D01*
X111790382Y-44487985D01*
X111791259Y-44489192D01*
X111791038Y-44489352D01*
X111820280Y-44550281D01*
X111811518Y-44620735D01*
X111783403Y-44659824D01*
X111783747Y-44660134D01*
X111779326Y-44665044D01*
X111684369Y-44770505D01*
X111655960Y-44802056D01*
X111560473Y-44967444D01*
X111501458Y-45149072D01*
X111500768Y-45155633D01*
X111500768Y-45155635D01*
X111492720Y-45232206D01*
X111481496Y-45339000D01*
X111482186Y-45345565D01*
X111497926Y-45495319D01*
X111501458Y-45528928D01*
X111560473Y-45710556D01*
X111563776Y-45716278D01*
X111563777Y-45716279D01*
X111632412Y-45835158D01*
X111655960Y-45875944D01*
X111660379Y-45880852D01*
X111662436Y-45883683D01*
X111686295Y-45950551D01*
X111686500Y-45957744D01*
X111686500Y-46771340D01*
X111666498Y-46839461D01*
X111649595Y-46860435D01*
X109755480Y-48754550D01*
X109749215Y-48760404D01*
X109705615Y-48798439D01*
X109701248Y-48804653D01*
X109668872Y-48850719D01*
X109664939Y-48856014D01*
X109625524Y-48906282D01*
X109622401Y-48913198D01*
X109621017Y-48915484D01*
X109612643Y-48930165D01*
X109611378Y-48932525D01*
X109607010Y-48938739D01*
X109604250Y-48945818D01*
X109604249Y-48945820D01*
X109583798Y-48998275D01*
X109581247Y-49004344D01*
X109554955Y-49062573D01*
X109553571Y-49070040D01*
X109552770Y-49072595D01*
X109548141Y-49088848D01*
X109547478Y-49091428D01*
X109544718Y-49098509D01*
X109543727Y-49106040D01*
X109543726Y-49106042D01*
X109536379Y-49161852D01*
X109535348Y-49168359D01*
X109523704Y-49231186D01*
X109524141Y-49238766D01*
X109524141Y-49238767D01*
X109527291Y-49293392D01*
X109527500Y-49300646D01*
X109527500Y-49673256D01*
X109507498Y-49741377D01*
X109503436Y-49747317D01*
X109501379Y-49750148D01*
X109496960Y-49755056D01*
X109401473Y-49920444D01*
X109342458Y-50102072D01*
X109322496Y-50292000D01*
X80518000Y-50292000D01*
X80518000Y-47886732D01*
X80518004Y-47885766D01*
X80518515Y-47819118D01*
X80518584Y-47810142D01*
X80510374Y-47781243D01*
X80506852Y-47764678D01*
X80503868Y-47743843D01*
X80502595Y-47734955D01*
X80492190Y-47712070D01*
X80485689Y-47694359D01*
X80481269Y-47678800D01*
X80481268Y-47678798D01*
X80478816Y-47670167D01*
X80462826Y-47644737D01*
X80454796Y-47629826D01*
X80446083Y-47610662D01*
X80446081Y-47610660D01*
X80442367Y-47602490D01*
X80425955Y-47583442D01*
X80414747Y-47568269D01*
X80406143Y-47554586D01*
X80406139Y-47554581D01*
X80401360Y-47546981D01*
X80378876Y-47527061D01*
X80366983Y-47515002D01*
X80353241Y-47499053D01*
X80353238Y-47499051D01*
X80347381Y-47492253D01*
X80339850Y-47487372D01*
X80339847Y-47487369D01*
X80326282Y-47478576D01*
X80311263Y-47467158D01*
X80299162Y-47456437D01*
X80299159Y-47456435D01*
X80292442Y-47450484D01*
X80265262Y-47437671D01*
X80250478Y-47429444D01*
X80225273Y-47413107D01*
X80216681Y-47410537D01*
X80216678Y-47410536D01*
X80192456Y-47403292D01*
X80192018Y-47403144D01*
X80191310Y-47402810D01*
X80163140Y-47394525D01*
X80162864Y-47394443D01*
X80088779Y-47372286D01*
X80088775Y-47372285D01*
X80085859Y-47371413D01*
X80084792Y-47371407D01*
X80083778Y-47371183D01*
X79823026Y-47294491D01*
X78985987Y-47048303D01*
X78449447Y-46890497D01*
X78389738Y-46852086D01*
X78360274Y-46787492D01*
X78359000Y-46769617D01*
X78359000Y-45698918D01*
X81806917Y-45698918D01*
X81822682Y-45972320D01*
X81823507Y-45976525D01*
X81823508Y-45976533D01*
X81843010Y-46075933D01*
X81875405Y-46241053D01*
X81876792Y-46245103D01*
X81876793Y-46245108D01*
X81953009Y-46467715D01*
X81964112Y-46500144D01*
X81971289Y-46514413D01*
X82050020Y-46670953D01*
X82087160Y-46744799D01*
X82089586Y-46748328D01*
X82089589Y-46748334D01*
X82238222Y-46964594D01*
X82242274Y-46970490D01*
X82245161Y-46973663D01*
X82245162Y-46973664D01*
X82276522Y-47008128D01*
X82426582Y-47173043D01*
X82429877Y-47175798D01*
X82429878Y-47175799D01*
X82474382Y-47213010D01*
X82636675Y-47348707D01*
X82640316Y-47350991D01*
X82865024Y-47491951D01*
X82865028Y-47491953D01*
X82868664Y-47494234D01*
X82967907Y-47539044D01*
X83114345Y-47605164D01*
X83114349Y-47605166D01*
X83118257Y-47606930D01*
X83122377Y-47608150D01*
X83122376Y-47608150D01*
X83376723Y-47683491D01*
X83376727Y-47683492D01*
X83380836Y-47684709D01*
X83385070Y-47685357D01*
X83385075Y-47685358D01*
X83647298Y-47725483D01*
X83647300Y-47725483D01*
X83651540Y-47726132D01*
X83790912Y-47728322D01*
X83921071Y-47730367D01*
X83921077Y-47730367D01*
X83925362Y-47730434D01*
X84197235Y-47697534D01*
X84462127Y-47628041D01*
X84466087Y-47626401D01*
X84466092Y-47626399D01*
X84588699Y-47575613D01*
X84715136Y-47523241D01*
X84940318Y-47391655D01*
X84947879Y-47387237D01*
X84947880Y-47387236D01*
X84951582Y-47385073D01*
X85167089Y-47216094D01*
X85208809Y-47173043D01*
X85354686Y-47022509D01*
X85357669Y-47019431D01*
X85360202Y-47015983D01*
X85360206Y-47015978D01*
X85517257Y-46802178D01*
X85519795Y-46798723D01*
X85547154Y-46748334D01*
X85648418Y-46561830D01*
X85648419Y-46561828D01*
X85650468Y-46558054D01*
X85663660Y-46523142D01*
X85668640Y-46509963D01*
X85711429Y-46453310D01*
X85778055Y-46428784D01*
X85786506Y-46428500D01*
X86524161Y-46428500D01*
X86592282Y-46448502D01*
X86627374Y-46482229D01*
X86651259Y-46516340D01*
X86662251Y-46532038D01*
X86817962Y-46687749D01*
X86822471Y-46690906D01*
X86822473Y-46690908D01*
X86893966Y-46740968D01*
X86998346Y-46814056D01*
X87197924Y-46907120D01*
X87410629Y-46964115D01*
X87630000Y-46983307D01*
X87849371Y-46964115D01*
X88062076Y-46907120D01*
X88261654Y-46814056D01*
X88366034Y-46740968D01*
X88437527Y-46690908D01*
X88437529Y-46690906D01*
X88442038Y-46687749D01*
X88493725Y-46636062D01*
X99531144Y-46636062D01*
X99540440Y-46648077D01*
X99591645Y-46683931D01*
X99601140Y-46689414D01*
X99798598Y-46781490D01*
X99808890Y-46785236D01*
X100019339Y-46841625D01*
X100030132Y-46843528D01*
X100247176Y-46862517D01*
X100258126Y-46862517D01*
X100475170Y-46843528D01*
X100485963Y-46841625D01*
X100696412Y-46785236D01*
X100706704Y-46781490D01*
X100904162Y-46689414D01*
X100913657Y-46683931D01*
X100965699Y-46647491D01*
X100974075Y-46637012D01*
X100967007Y-46623566D01*
X100741575Y-46398134D01*
X102444151Y-46398134D01*
X102450906Y-46460316D01*
X102502036Y-46596705D01*
X102589390Y-46713261D01*
X102705946Y-46800615D01*
X102842335Y-46851745D01*
X102904517Y-46858500D01*
X104600785Y-46858500D01*
X104662967Y-46851745D01*
X104799356Y-46800615D01*
X104915912Y-46713261D01*
X105003266Y-46596705D01*
X105054396Y-46460316D01*
X105061151Y-46398134D01*
X105061151Y-44701866D01*
X105054396Y-44639684D01*
X105003266Y-44503295D01*
X104915912Y-44386739D01*
X104799356Y-44299385D01*
X104662967Y-44248255D01*
X104600785Y-44241500D01*
X102904517Y-44241500D01*
X102842335Y-44248255D01*
X102705946Y-44299385D01*
X102589390Y-44386739D01*
X102502036Y-44503295D01*
X102450906Y-44639684D01*
X102444151Y-44701866D01*
X102444151Y-46398134D01*
X100741575Y-46398134D01*
X100265463Y-45922022D01*
X100251519Y-45914408D01*
X100249686Y-45914539D01*
X100243071Y-45918790D01*
X99537574Y-46624287D01*
X99531144Y-46636062D01*
X88493725Y-46636062D01*
X88597749Y-46532038D01*
X88610091Y-46514413D01*
X88720899Y-46356162D01*
X88720900Y-46356160D01*
X88724056Y-46351653D01*
X88726379Y-46346671D01*
X88726382Y-46346666D01*
X88780496Y-46230617D01*
X88817120Y-46152076D01*
X88874115Y-45939371D01*
X88893307Y-45720000D01*
X88878913Y-45555475D01*
X98940134Y-45555475D01*
X98959123Y-45772519D01*
X98961026Y-45783312D01*
X99017415Y-45993761D01*
X99021161Y-46004053D01*
X99113237Y-46201511D01*
X99118720Y-46211006D01*
X99155160Y-46263048D01*
X99165639Y-46271424D01*
X99179085Y-46264356D01*
X99880629Y-45562812D01*
X99887007Y-45551132D01*
X100617059Y-45551132D01*
X100617190Y-45552965D01*
X100621441Y-45559580D01*
X101326938Y-46265077D01*
X101338713Y-46271507D01*
X101350728Y-46262211D01*
X101386582Y-46211006D01*
X101392065Y-46201511D01*
X101484141Y-46004053D01*
X101487887Y-45993761D01*
X101544276Y-45783312D01*
X101546179Y-45772519D01*
X101565168Y-45555475D01*
X101565168Y-45544525D01*
X101546179Y-45327481D01*
X101544276Y-45316688D01*
X101487887Y-45106239D01*
X101484141Y-45095947D01*
X101392065Y-44898489D01*
X101386582Y-44888994D01*
X101350142Y-44836952D01*
X101339663Y-44828576D01*
X101326217Y-44835644D01*
X100624673Y-45537188D01*
X100617059Y-45551132D01*
X99887007Y-45551132D01*
X99888243Y-45548868D01*
X99888112Y-45547035D01*
X99883861Y-45540420D01*
X99178364Y-44834923D01*
X99166589Y-44828493D01*
X99154574Y-44837789D01*
X99118720Y-44888994D01*
X99113237Y-44898489D01*
X99021161Y-45095947D01*
X99017415Y-45106239D01*
X98961026Y-45316688D01*
X98959123Y-45327481D01*
X98940134Y-45544525D01*
X98940134Y-45555475D01*
X88878913Y-45555475D01*
X88874115Y-45500629D01*
X88817120Y-45287924D01*
X88767359Y-45181210D01*
X88726382Y-45093334D01*
X88726379Y-45093329D01*
X88724056Y-45088347D01*
X88663856Y-45002372D01*
X88600908Y-44912473D01*
X88600906Y-44912470D01*
X88597749Y-44907962D01*
X88442038Y-44752251D01*
X88430095Y-44743888D01*
X88362759Y-44696739D01*
X88261654Y-44625944D01*
X88062076Y-44532880D01*
X87849371Y-44475885D01*
X87701954Y-44462988D01*
X99531227Y-44462988D01*
X99538295Y-44476434D01*
X100239839Y-45177978D01*
X100253783Y-45185592D01*
X100255616Y-45185461D01*
X100262231Y-45181210D01*
X100967728Y-44475713D01*
X100974158Y-44463938D01*
X100964862Y-44451923D01*
X100913657Y-44416069D01*
X100904162Y-44410586D01*
X100706704Y-44318510D01*
X100696412Y-44314764D01*
X100485963Y-44258375D01*
X100475170Y-44256472D01*
X100258126Y-44237483D01*
X100247176Y-44237483D01*
X100030132Y-44256472D01*
X100019339Y-44258375D01*
X99808890Y-44314764D01*
X99798598Y-44318510D01*
X99601140Y-44410586D01*
X99591645Y-44416069D01*
X99539603Y-44452509D01*
X99531227Y-44462988D01*
X87701954Y-44462988D01*
X87630000Y-44456693D01*
X87410629Y-44475885D01*
X87197924Y-44532880D01*
X87104562Y-44576415D01*
X87003334Y-44623618D01*
X87003329Y-44623621D01*
X86998347Y-44625944D01*
X86993840Y-44629100D01*
X86993838Y-44629101D01*
X86822473Y-44749092D01*
X86822470Y-44749094D01*
X86817962Y-44752251D01*
X86662251Y-44907962D01*
X86659094Y-44912470D01*
X86659092Y-44912473D01*
X86627374Y-44957771D01*
X86571916Y-45002099D01*
X86524161Y-45011500D01*
X85788902Y-45011500D01*
X85720781Y-44991498D01*
X85674288Y-44937842D01*
X85670129Y-44927558D01*
X85669050Y-44924510D01*
X85669047Y-44924502D01*
X85667617Y-44920465D01*
X85542013Y-44677112D01*
X85537368Y-44670502D01*
X85409941Y-44489192D01*
X85384545Y-44453057D01*
X85259516Y-44318510D01*
X85201046Y-44255588D01*
X85201043Y-44255585D01*
X85198125Y-44252445D01*
X85194810Y-44249731D01*
X85194806Y-44249728D01*
X84989523Y-44081706D01*
X84986205Y-44078990D01*
X84752704Y-43935901D01*
X84748768Y-43934173D01*
X84505873Y-43827549D01*
X84505869Y-43827548D01*
X84501945Y-43825825D01*
X84238566Y-43750800D01*
X84234324Y-43750196D01*
X84234318Y-43750195D01*
X84033834Y-43721662D01*
X83967443Y-43712213D01*
X83823589Y-43711460D01*
X83697877Y-43710802D01*
X83697871Y-43710802D01*
X83693591Y-43710780D01*
X83689347Y-43711339D01*
X83689343Y-43711339D01*
X83570302Y-43727011D01*
X83422078Y-43746525D01*
X83417938Y-43747658D01*
X83417936Y-43747658D01*
X83377811Y-43758635D01*
X83157928Y-43818788D01*
X83153980Y-43820472D01*
X82909982Y-43924546D01*
X82909978Y-43924548D01*
X82906030Y-43926232D01*
X82787414Y-43997222D01*
X82674725Y-44064664D01*
X82674721Y-44064667D01*
X82671043Y-44066868D01*
X82457318Y-44238094D01*
X82385707Y-44313556D01*
X82309446Y-44393919D01*
X82268808Y-44436742D01*
X82109002Y-44659136D01*
X81980857Y-44901161D01*
X81979385Y-44905184D01*
X81979383Y-44905188D01*
X81888214Y-45154317D01*
X81886743Y-45158337D01*
X81828404Y-45425907D01*
X81828068Y-45430177D01*
X81807659Y-45689496D01*
X81806917Y-45698918D01*
X78359000Y-45698918D01*
X78359000Y-42188134D01*
X81811500Y-42188134D01*
X81818255Y-42250316D01*
X81869385Y-42386705D01*
X81956739Y-42503261D01*
X82073295Y-42590615D01*
X82209684Y-42641745D01*
X82271866Y-42648500D01*
X85368134Y-42648500D01*
X85430316Y-42641745D01*
X85566705Y-42590615D01*
X85683261Y-42503261D01*
X85770615Y-42386705D01*
X85821745Y-42250316D01*
X85828500Y-42188134D01*
X85828500Y-41474500D01*
X85848502Y-41406379D01*
X85902158Y-41359886D01*
X85954500Y-41348500D01*
X86524161Y-41348500D01*
X86592282Y-41368502D01*
X86627374Y-41402229D01*
X86662251Y-41452038D01*
X86817962Y-41607749D01*
X86998346Y-41734056D01*
X87197924Y-41827120D01*
X87410629Y-41884115D01*
X87630000Y-41903307D01*
X87849371Y-41884115D01*
X88062076Y-41827120D01*
X88261654Y-41734056D01*
X88442038Y-41607749D01*
X88597749Y-41452038D01*
X88647739Y-41380646D01*
X88720899Y-41276162D01*
X88720900Y-41276160D01*
X88724056Y-41271653D01*
X88726379Y-41266671D01*
X88726382Y-41266666D01*
X88814795Y-41077061D01*
X88817120Y-41072076D01*
X88874115Y-40859371D01*
X88893307Y-40640000D01*
X88874115Y-40420629D01*
X88817120Y-40207924D01*
X88758286Y-40081753D01*
X88726382Y-40013334D01*
X88726379Y-40013329D01*
X88724056Y-40008347D01*
X88670247Y-39931500D01*
X88600908Y-39832473D01*
X88600906Y-39832470D01*
X88597749Y-39827962D01*
X88442038Y-39672251D01*
X88436926Y-39668671D01*
X88291292Y-39566697D01*
X88261654Y-39545944D01*
X88062076Y-39452880D01*
X87849371Y-39395885D01*
X87630000Y-39376693D01*
X87410629Y-39395885D01*
X87197924Y-39452880D01*
X87105227Y-39496105D01*
X87003334Y-39543618D01*
X87003329Y-39543621D01*
X86998347Y-39545944D01*
X86993840Y-39549100D01*
X86993838Y-39549101D01*
X86822473Y-39669092D01*
X86822470Y-39669094D01*
X86817962Y-39672251D01*
X86662251Y-39827962D01*
X86659094Y-39832470D01*
X86659092Y-39832473D01*
X86627374Y-39877771D01*
X86571916Y-39922099D01*
X86524161Y-39931500D01*
X85954500Y-39931500D01*
X85886379Y-39911498D01*
X85839886Y-39857842D01*
X85828500Y-39805500D01*
X85828500Y-39335469D01*
X125587095Y-39335469D01*
X125587392Y-39340622D01*
X125587392Y-39340625D01*
X125593999Y-39455205D01*
X125600427Y-39566697D01*
X125601564Y-39571743D01*
X125601565Y-39571749D01*
X125625093Y-39676148D01*
X125651346Y-39792642D01*
X125653288Y-39797424D01*
X125653289Y-39797428D01*
X125699608Y-39911498D01*
X125738484Y-40007237D01*
X125859501Y-40204719D01*
X126011147Y-40379784D01*
X126189349Y-40527730D01*
X126389322Y-40644584D01*
X126605694Y-40727209D01*
X126610760Y-40728240D01*
X126610761Y-40728240D01*
X126663846Y-40739040D01*
X126832656Y-40773385D01*
X126963324Y-40778176D01*
X127058949Y-40781683D01*
X127058953Y-40781683D01*
X127064113Y-40781872D01*
X127069233Y-40781216D01*
X127069235Y-40781216D01*
X127142270Y-40771860D01*
X127293847Y-40752442D01*
X127298795Y-40750957D01*
X127298802Y-40750956D01*
X127510747Y-40687369D01*
X127515690Y-40685886D01*
X127520332Y-40683612D01*
X127719049Y-40586262D01*
X127719052Y-40586260D01*
X127723684Y-40583991D01*
X127912243Y-40449494D01*
X128076303Y-40286005D01*
X128211458Y-40097917D01*
X128218694Y-40083277D01*
X128311784Y-39894922D01*
X128311785Y-39894920D01*
X128314078Y-39890280D01*
X128381408Y-39668671D01*
X128411640Y-39439041D01*
X128412276Y-39413012D01*
X128413245Y-39373365D01*
X128413245Y-39373361D01*
X128413327Y-39370000D01*
X128398341Y-39187720D01*
X128394773Y-39144318D01*
X128394772Y-39144312D01*
X128394349Y-39139167D01*
X128346705Y-38949488D01*
X128339184Y-38919544D01*
X128339183Y-38919540D01*
X128337925Y-38914533D01*
X128335866Y-38909797D01*
X128247630Y-38706868D01*
X128247628Y-38706865D01*
X128245570Y-38702131D01*
X128119764Y-38507665D01*
X127963887Y-38336358D01*
X127959836Y-38333159D01*
X127959832Y-38333155D01*
X127786177Y-38196011D01*
X127786172Y-38196008D01*
X127782123Y-38192810D01*
X127777607Y-38190317D01*
X127777604Y-38190315D01*
X127583879Y-38083373D01*
X127583875Y-38083371D01*
X127579355Y-38080876D01*
X127574486Y-38079152D01*
X127574482Y-38079150D01*
X127365903Y-38005288D01*
X127365899Y-38005287D01*
X127361028Y-38003562D01*
X127355935Y-38002655D01*
X127355932Y-38002654D01*
X127138095Y-37963851D01*
X127138089Y-37963850D01*
X127133006Y-37962945D01*
X127060096Y-37962054D01*
X126906581Y-37960179D01*
X126906579Y-37960179D01*
X126901411Y-37960116D01*
X126672464Y-37995150D01*
X126452314Y-38067106D01*
X126447726Y-38069494D01*
X126447722Y-38069496D01*
X126271357Y-38161306D01*
X126246872Y-38174052D01*
X126242739Y-38177155D01*
X126242736Y-38177157D01*
X126065790Y-38310012D01*
X126061655Y-38313117D01*
X125901639Y-38480564D01*
X125898725Y-38484836D01*
X125898724Y-38484837D01*
X125883152Y-38507665D01*
X125771119Y-38671899D01*
X125673602Y-38881981D01*
X125611707Y-39105169D01*
X125587095Y-39335469D01*
X85828500Y-39335469D01*
X85828500Y-39091866D01*
X85821745Y-39029684D01*
X85770615Y-38893295D01*
X85683261Y-38776739D01*
X85566705Y-38689385D01*
X85430316Y-38638255D01*
X85368134Y-38631500D01*
X82271866Y-38631500D01*
X82209684Y-38638255D01*
X82073295Y-38689385D01*
X81956739Y-38776739D01*
X81869385Y-38893295D01*
X81818255Y-39029684D01*
X81811500Y-39091866D01*
X81811500Y-42188134D01*
X78359000Y-42188134D01*
X78359000Y-39590383D01*
X78379002Y-39522262D01*
X78432658Y-39475769D01*
X78449447Y-39469503D01*
X80145959Y-38970529D01*
X80146887Y-38970260D01*
X80210933Y-38951955D01*
X80219565Y-38949488D01*
X80244969Y-38933460D01*
X80259867Y-38925407D01*
X80287186Y-38912934D01*
X80306211Y-38896489D01*
X80321369Y-38885255D01*
X80342631Y-38871840D01*
X80362514Y-38849327D01*
X80374546Y-38837422D01*
X80397274Y-38817776D01*
X80402145Y-38810236D01*
X80402148Y-38810232D01*
X80410919Y-38796653D01*
X80422317Y-38781612D01*
X80433014Y-38769500D01*
X80438956Y-38762772D01*
X80451714Y-38735599D01*
X80459930Y-38720780D01*
X80471357Y-38703090D01*
X80471359Y-38703086D01*
X80476230Y-38695545D01*
X80483397Y-38671443D01*
X80490115Y-38653809D01*
X80496984Y-38639179D01*
X80496985Y-38639175D01*
X80500799Y-38631052D01*
X80505418Y-38601384D01*
X80509144Y-38584856D01*
X80515148Y-38564667D01*
X80515149Y-38564663D01*
X80517705Y-38556066D01*
X80517860Y-38521809D01*
X80517879Y-38521350D01*
X80518000Y-38520577D01*
X80518000Y-38491575D01*
X80518001Y-38491002D01*
X80518353Y-38413605D01*
X80518367Y-38410552D01*
X80518072Y-38409525D01*
X80518000Y-38408483D01*
X80518000Y-36610161D01*
X105994393Y-36610161D01*
X106003687Y-36622175D01*
X106044088Y-36650464D01*
X106053584Y-36655947D01*
X106243113Y-36744326D01*
X106253405Y-36748072D01*
X106455401Y-36802196D01*
X106466196Y-36804099D01*
X106674525Y-36822326D01*
X106685475Y-36822326D01*
X106893804Y-36804099D01*
X106904599Y-36802196D01*
X107106595Y-36748072D01*
X107116887Y-36744326D01*
X107306416Y-36655947D01*
X107315912Y-36650464D01*
X107357148Y-36621590D01*
X107365523Y-36611112D01*
X107358457Y-36597668D01*
X106692811Y-35932021D01*
X106678868Y-35924408D01*
X106677034Y-35924539D01*
X106670420Y-35928790D01*
X106000820Y-36598391D01*
X105994393Y-36610161D01*
X80518000Y-36610161D01*
X80518000Y-35565475D01*
X105417674Y-35565475D01*
X105435901Y-35773804D01*
X105437804Y-35784599D01*
X105491928Y-35986595D01*
X105495674Y-35996887D01*
X105584054Y-36186417D01*
X105589534Y-36195907D01*
X105618411Y-36237149D01*
X105628887Y-36245523D01*
X105642334Y-36238455D01*
X106307979Y-35572811D01*
X106314356Y-35561132D01*
X107044408Y-35561132D01*
X107044539Y-35562966D01*
X107048790Y-35569580D01*
X107718391Y-36239180D01*
X107730161Y-36245607D01*
X107742176Y-36236311D01*
X107770466Y-36195907D01*
X107775946Y-36186417D01*
X107864326Y-35996887D01*
X107868072Y-35986595D01*
X107922196Y-35784599D01*
X107924099Y-35773804D01*
X107942326Y-35565475D01*
X107942326Y-35554525D01*
X107924099Y-35346196D01*
X107922196Y-35335401D01*
X107868072Y-35133405D01*
X107864326Y-35123113D01*
X107775946Y-34933583D01*
X107770466Y-34924093D01*
X107741589Y-34882851D01*
X107731113Y-34874477D01*
X107717666Y-34881545D01*
X107052021Y-35547189D01*
X107044408Y-35561132D01*
X106314356Y-35561132D01*
X106315592Y-35558868D01*
X106315461Y-35557034D01*
X106311210Y-35550420D01*
X105641609Y-34880820D01*
X105629839Y-34874393D01*
X105617824Y-34883689D01*
X105589534Y-34924093D01*
X105584054Y-34933583D01*
X105495674Y-35123113D01*
X105491928Y-35133405D01*
X105437804Y-35335401D01*
X105435901Y-35346196D01*
X105417674Y-35554525D01*
X105417674Y-35565475D01*
X80518000Y-35565475D01*
X80518000Y-33152703D01*
X81710743Y-33152703D01*
X81748268Y-33437734D01*
X81824129Y-33715036D01*
X81825813Y-33718984D01*
X81894357Y-33879681D01*
X81936923Y-33979476D01*
X82084561Y-34226161D01*
X82264313Y-34450528D01*
X82325811Y-34508887D01*
X82441690Y-34618852D01*
X82472851Y-34648423D01*
X82706317Y-34816186D01*
X82710112Y-34818195D01*
X82710113Y-34818196D01*
X82731869Y-34829715D01*
X82960392Y-34950712D01*
X83230373Y-35049511D01*
X83511264Y-35110755D01*
X83539841Y-35113004D01*
X83734282Y-35128307D01*
X83734291Y-35128307D01*
X83736739Y-35128500D01*
X83892271Y-35128500D01*
X83894407Y-35128354D01*
X83894418Y-35128354D01*
X84102548Y-35114165D01*
X84102554Y-35114164D01*
X84106825Y-35113873D01*
X84111020Y-35113004D01*
X84111022Y-35113004D01*
X84247584Y-35084723D01*
X84388342Y-35055574D01*
X84659343Y-34959607D01*
X84806432Y-34883689D01*
X84911005Y-34829715D01*
X84911006Y-34829715D01*
X84914812Y-34827750D01*
X84918313Y-34825289D01*
X84918317Y-34825287D01*
X85032417Y-34745096D01*
X85150023Y-34662441D01*
X85315267Y-34508887D01*
X105994477Y-34508887D01*
X106001545Y-34522334D01*
X106667189Y-35187979D01*
X106681132Y-35195592D01*
X106682966Y-35195461D01*
X106689580Y-35191210D01*
X107359180Y-34521609D01*
X107365607Y-34509839D01*
X107356313Y-34497825D01*
X107315912Y-34469536D01*
X107306416Y-34464053D01*
X107116887Y-34375674D01*
X107106595Y-34371928D01*
X106904599Y-34317804D01*
X106893804Y-34315901D01*
X106685475Y-34297674D01*
X106674525Y-34297674D01*
X106466196Y-34315901D01*
X106455401Y-34317804D01*
X106253405Y-34371928D01*
X106243113Y-34375674D01*
X106053583Y-34464054D01*
X106044093Y-34469534D01*
X106002851Y-34498411D01*
X105994477Y-34508887D01*
X85315267Y-34508887D01*
X85360622Y-34466740D01*
X85542713Y-34244268D01*
X85692927Y-33999142D01*
X85808483Y-33735898D01*
X85831527Y-33655000D01*
X118116693Y-33655000D01*
X118135885Y-33874371D01*
X118192880Y-34087076D01*
X118195205Y-34092061D01*
X118283618Y-34281666D01*
X118283621Y-34281671D01*
X118285944Y-34286653D01*
X118289100Y-34291160D01*
X118289101Y-34291162D01*
X118400691Y-34450528D01*
X118412251Y-34467038D01*
X118567962Y-34622749D01*
X118572471Y-34625906D01*
X118572473Y-34625908D01*
X118620479Y-34659522D01*
X118748346Y-34749056D01*
X118947924Y-34842120D01*
X119160629Y-34899115D01*
X119380000Y-34918307D01*
X119599371Y-34899115D01*
X119812076Y-34842120D01*
X120011654Y-34749056D01*
X120139521Y-34659522D01*
X120187527Y-34625908D01*
X120187529Y-34625906D01*
X120192038Y-34622749D01*
X120347749Y-34467038D01*
X120359310Y-34450528D01*
X120470899Y-34291162D01*
X120470900Y-34291160D01*
X120474056Y-34286653D01*
X120476379Y-34281671D01*
X120476382Y-34281666D01*
X120564795Y-34092061D01*
X120567120Y-34087076D01*
X120624115Y-33874371D01*
X120643307Y-33655000D01*
X120624115Y-33435629D01*
X120567120Y-33222924D01*
X120534375Y-33152703D01*
X123620743Y-33152703D01*
X123658268Y-33437734D01*
X123734129Y-33715036D01*
X123735813Y-33718984D01*
X123804357Y-33879681D01*
X123846923Y-33979476D01*
X123994561Y-34226161D01*
X124174313Y-34450528D01*
X124235811Y-34508887D01*
X124351690Y-34618852D01*
X124382851Y-34648423D01*
X124616317Y-34816186D01*
X124620112Y-34818195D01*
X124620113Y-34818196D01*
X124641869Y-34829715D01*
X124870392Y-34950712D01*
X125140373Y-35049511D01*
X125421264Y-35110755D01*
X125449841Y-35113004D01*
X125644282Y-35128307D01*
X125644291Y-35128307D01*
X125646739Y-35128500D01*
X125802271Y-35128500D01*
X125804407Y-35128354D01*
X125804418Y-35128354D01*
X126012548Y-35114165D01*
X126012554Y-35114164D01*
X126016825Y-35113873D01*
X126021020Y-35113004D01*
X126021022Y-35113004D01*
X126157583Y-35084724D01*
X126298342Y-35055574D01*
X126569343Y-34959607D01*
X126716432Y-34883689D01*
X126821005Y-34829715D01*
X126821006Y-34829715D01*
X126824812Y-34827750D01*
X126828313Y-34825289D01*
X126828317Y-34825287D01*
X126942417Y-34745096D01*
X127060023Y-34662441D01*
X127270622Y-34466740D01*
X127452713Y-34244268D01*
X127602927Y-33999142D01*
X127718483Y-33735898D01*
X127797244Y-33459406D01*
X127837751Y-33174784D01*
X127837845Y-33156951D01*
X127839235Y-32891583D01*
X127839235Y-32891576D01*
X127839257Y-32887297D01*
X127838238Y-32879552D01*
X127817458Y-32721719D01*
X127801732Y-32602266D01*
X127725871Y-32324964D01*
X127645385Y-32136269D01*
X127614763Y-32064476D01*
X127614761Y-32064472D01*
X127613077Y-32060524D01*
X127481264Y-31840280D01*
X127467643Y-31817521D01*
X127467640Y-31817517D01*
X127465439Y-31813839D01*
X127285687Y-31589472D01*
X127140033Y-31451252D01*
X127080258Y-31394527D01*
X127080255Y-31394525D01*
X127077149Y-31391577D01*
X126850114Y-31228435D01*
X126847172Y-31226321D01*
X126847171Y-31226320D01*
X126843683Y-31223814D01*
X126821843Y-31212250D01*
X126730561Y-31163919D01*
X126589608Y-31089288D01*
X126416974Y-31026113D01*
X126323658Y-30991964D01*
X126323656Y-30991963D01*
X126319627Y-30990489D01*
X126038736Y-30929245D01*
X126007685Y-30926801D01*
X125815718Y-30911693D01*
X125815709Y-30911693D01*
X125813261Y-30911500D01*
X125657729Y-30911500D01*
X125655593Y-30911646D01*
X125655582Y-30911646D01*
X125447452Y-30925835D01*
X125447446Y-30925836D01*
X125443175Y-30926127D01*
X125438980Y-30926996D01*
X125438978Y-30926996D01*
X125302416Y-30955277D01*
X125161658Y-30984426D01*
X124890657Y-31080393D01*
X124635188Y-31212250D01*
X124631687Y-31214711D01*
X124631683Y-31214713D01*
X124548330Y-31273295D01*
X124399977Y-31377559D01*
X124356952Y-31417540D01*
X124211778Y-31552445D01*
X124189378Y-31573260D01*
X124007287Y-31795732D01*
X123857073Y-32040858D01*
X123855347Y-32044791D01*
X123855346Y-32044792D01*
X123813469Y-32140190D01*
X123741517Y-32304102D01*
X123662756Y-32580594D01*
X123622249Y-32865216D01*
X123622227Y-32869505D01*
X123622226Y-32869512D01*
X123620938Y-33115403D01*
X123620743Y-33152703D01*
X120534375Y-33152703D01*
X120511759Y-33104202D01*
X120476382Y-33028334D01*
X120476379Y-33028329D01*
X120474056Y-33023347D01*
X120424315Y-32952309D01*
X120350908Y-32847473D01*
X120350906Y-32847470D01*
X120347749Y-32842962D01*
X120192038Y-32687251D01*
X120011654Y-32560944D01*
X119812076Y-32467880D01*
X119599371Y-32410885D01*
X119380000Y-32391693D01*
X119160629Y-32410885D01*
X118947924Y-32467880D01*
X118854562Y-32511415D01*
X118753334Y-32558618D01*
X118753329Y-32558621D01*
X118748347Y-32560944D01*
X118743840Y-32564100D01*
X118743838Y-32564101D01*
X118572473Y-32684092D01*
X118572470Y-32684094D01*
X118567962Y-32687251D01*
X118412251Y-32842962D01*
X118409094Y-32847470D01*
X118409092Y-32847473D01*
X118335685Y-32952309D01*
X118285944Y-33023347D01*
X118283621Y-33028329D01*
X118283618Y-33028334D01*
X118248241Y-33104202D01*
X118192880Y-33222924D01*
X118135885Y-33435629D01*
X118116693Y-33655000D01*
X85831527Y-33655000D01*
X85887244Y-33459406D01*
X85927751Y-33174784D01*
X85927845Y-33156951D01*
X85929235Y-32891583D01*
X85929235Y-32891576D01*
X85929257Y-32887297D01*
X85928238Y-32879552D01*
X85907458Y-32721719D01*
X85891732Y-32602266D01*
X85815871Y-32324964D01*
X85735385Y-32136269D01*
X85704763Y-32064476D01*
X85704761Y-32064472D01*
X85703077Y-32060524D01*
X85571264Y-31840280D01*
X85557643Y-31817521D01*
X85557640Y-31817517D01*
X85555439Y-31813839D01*
X85375687Y-31589472D01*
X85230033Y-31451252D01*
X85170258Y-31394527D01*
X85170255Y-31394525D01*
X85167149Y-31391577D01*
X84940114Y-31228435D01*
X84937172Y-31226321D01*
X84937171Y-31226320D01*
X84933683Y-31223814D01*
X84911843Y-31212250D01*
X84820561Y-31163919D01*
X84679608Y-31089288D01*
X84506974Y-31026113D01*
X84413658Y-30991964D01*
X84413656Y-30991963D01*
X84409627Y-30990489D01*
X84128736Y-30929245D01*
X84097685Y-30926801D01*
X83905718Y-30911693D01*
X83905709Y-30911693D01*
X83903261Y-30911500D01*
X83747729Y-30911500D01*
X83745593Y-30911646D01*
X83745582Y-30911646D01*
X83537452Y-30925835D01*
X83537446Y-30925836D01*
X83533175Y-30926127D01*
X83528980Y-30926996D01*
X83528978Y-30926996D01*
X83392417Y-30955276D01*
X83251658Y-30984426D01*
X82980657Y-31080393D01*
X82725188Y-31212250D01*
X82721687Y-31214711D01*
X82721683Y-31214713D01*
X82638330Y-31273295D01*
X82489977Y-31377559D01*
X82446952Y-31417540D01*
X82301778Y-31552445D01*
X82279378Y-31573260D01*
X82097287Y-31795732D01*
X81947073Y-32040858D01*
X81945347Y-32044791D01*
X81945346Y-32044792D01*
X81903469Y-32140190D01*
X81831517Y-32304102D01*
X81752756Y-32580594D01*
X81712249Y-32865216D01*
X81712227Y-32869505D01*
X81712226Y-32869512D01*
X81710938Y-33115403D01*
X81710743Y-33152703D01*
X80518000Y-33152703D01*
X80518000Y-30742610D01*
X80538002Y-30674489D01*
X80554905Y-30653515D01*
X81453515Y-29754905D01*
X81515827Y-29720879D01*
X81542610Y-29718000D01*
X131183332Y-29718000D01*
X131184297Y-29718004D01*
X131259858Y-29718583D01*
X131288744Y-29710376D01*
X131305310Y-29706853D01*
X131335045Y-29702595D01*
X131357930Y-29692190D01*
X131375645Y-29685688D01*
X131391199Y-29681269D01*
X131399833Y-29678816D01*
X131411696Y-29671357D01*
X131425265Y-29662826D01*
X131440178Y-29654795D01*
X131459337Y-29646083D01*
X131459336Y-29646083D01*
X131467510Y-29642367D01*
X131486562Y-29625951D01*
X131501732Y-29614744D01*
X131507815Y-29610919D01*
X131523019Y-29601359D01*
X131542930Y-29578885D01*
X131554994Y-29566986D01*
X131570949Y-29553239D01*
X131570951Y-29553237D01*
X131577747Y-29547381D01*
X131582630Y-29539848D01*
X131591422Y-29526284D01*
X131602844Y-29511260D01*
X131613565Y-29499160D01*
X131613567Y-29499156D01*
X131619516Y-29492442D01*
X131623341Y-29484327D01*
X131623344Y-29484323D01*
X131632322Y-29465277D01*
X131640560Y-29450473D01*
X131652011Y-29432806D01*
X131652013Y-29432802D01*
X131656893Y-29425273D01*
X131666703Y-29392471D01*
X131666859Y-29392010D01*
X131667190Y-29391309D01*
X131675435Y-29363277D01*
X131675593Y-29362746D01*
X131697712Y-29288784D01*
X131698587Y-29285859D01*
X131698593Y-29284789D01*
X131698817Y-29283776D01*
X131772255Y-29034089D01*
X132179502Y-27649447D01*
X132217913Y-27589738D01*
X132282507Y-27560274D01*
X132300382Y-27559000D01*
X144559617Y-27559000D01*
X144627738Y-27579002D01*
G37*
G04 #@! TD.AperFunction*
G04 #@! TD*
M02*
