M48
; DRILL file {KiCad 6.0.9-8da3e8f707~116~ubuntu20.04.1} date Sun Mar 26 17:34:06 2023
; FORMAT={-:-/ absolute / metric / decimal}
; #@! TF.CreationDate,2023-03-26T17:34:06+00:00
; #@! TF.GenerationSoftware,Kicad,Pcbnew,6.0.9-8da3e8f707~116~ubuntu20.04.1
; #@! TF.FileFunction,MixedPlating,1,2
FMAT,2
METRIC
; #@! TA.AperFunction,Plated,PTH,ViaDrill
T1C0.400
; #@! TA.AperFunction,Plated,PTH,ComponentDrill
T2C0.800
; #@! TA.AperFunction,Plated,PTH,ComponentDrill
T3C1.000
; #@! TA.AperFunction,Plated,PTH,ComponentDrill
T4C1.520
; #@! TA.AperFunction,NonPlated,NPTH,ComponentDrill
T5C3.200
%
G90
G05
T1
X88.9Y-30.48
X91.44Y-43.18
X93.98Y-30.48
X93.98Y-43.18
X93.98Y-45.72
X93.98Y-53.34
X96.52Y-38.1
X96.52Y-40.64
X96.52Y-43.18
X96.52Y-48.26
X96.52Y-50.8
X99.06Y-30.48
X99.06Y-48.26
X101.6Y-30.48
X101.6Y-33.02
X101.6Y-35.56
X101.6Y-43.18
X101.6Y-48.26
X104.14Y-30.48
X104.14Y-33.02
X104.14Y-35.56
X104.14Y-43.18
X106.68Y-30.48
X109.22Y-30.48
X110.236Y-50.292
X112.395Y-45.339
X112.522Y-43.942
X113.03Y-40.64
X114.3Y-30.48
X114.3Y-38.1
X114.3Y-49.53
X116.84Y-38.1
X116.84Y-48.26
X117.094Y-46.101
X119.38Y-30.48
X119.38Y-33.655
X119.38Y-48.26
T2
X100.253Y-45.55
X103.42Y-53.34
X103.753Y-45.55
X105.96Y-53.34
X108.5Y-53.34
T3
X127.0Y-39.37
X127.0Y-46.99
X134.62Y-39.37
X134.62Y-46.99
X139.7Y-39.37
X139.7Y-46.99
X144.78Y-39.37
X144.78Y-46.99
T4
X83.82Y-40.64
X83.82Y-45.72
X91.44Y-53.34
X96.52Y-53.34
X133.35Y-33.02
X133.35Y-53.34
X138.43Y-33.02
X138.43Y-53.34
X143.51Y-33.02
X143.51Y-53.34
T5
X83.82Y-33.02
X83.82Y-53.34
X125.73Y-33.02
X125.73Y-53.34
T0
M30
