G04 #@! TF.GenerationSoftware,KiCad,Pcbnew,6.0.9-8da3e8f707~116~ubuntu20.04.1*
G04 #@! TF.CreationDate,2023-03-26T17:34:06+00:00*
G04 #@! TF.ProjectId,LEC011102,4c454330-3131-4313-9032-2e6b69636164,rev?*
G04 #@! TF.SameCoordinates,Original*
G04 #@! TF.FileFunction,Legend,Bot*
G04 #@! TF.FilePolarity,Positive*
%FSLAX46Y46*%
G04 Gerber Fmt 4.6, Leading zero omitted, Abs format (unit mm)*
G04 Created by KiCad (PCBNEW 6.0.9-8da3e8f707~116~ubuntu20.04.1) date 2023-03-26 17:34:06*
%MOMM*%
%LPD*%
G01*
G04 APERTURE LIST*
%ADD10C,0.150000*%
%ADD11C,0.120000*%
%ADD12C,0.010000*%
G04 APERTURE END LIST*
D10*
G04 #@! TO.C,TP1*
X88891904Y-41740380D02*
X88320476Y-41740380D01*
X88606190Y-42740380D02*
X88606190Y-41740380D01*
X87987142Y-42740380D02*
X87987142Y-41740380D01*
X87606190Y-41740380D01*
X87510952Y-41788000D01*
X87463333Y-41835619D01*
X87415714Y-41930857D01*
X87415714Y-42073714D01*
X87463333Y-42168952D01*
X87510952Y-42216571D01*
X87606190Y-42264190D01*
X87987142Y-42264190D01*
X86463333Y-42740380D02*
X87034761Y-42740380D01*
X86749047Y-42740380D02*
X86749047Y-41740380D01*
X86844285Y-41883238D01*
X86939523Y-41978476D01*
X87034761Y-42026095D01*
G04 #@! TO.C,TP2*
X88891904Y-46820380D02*
X88320476Y-46820380D01*
X88606190Y-47820380D02*
X88606190Y-46820380D01*
X87987142Y-47820380D02*
X87987142Y-46820380D01*
X87606190Y-46820380D01*
X87510952Y-46868000D01*
X87463333Y-46915619D01*
X87415714Y-47010857D01*
X87415714Y-47153714D01*
X87463333Y-47248952D01*
X87510952Y-47296571D01*
X87606190Y-47344190D01*
X87987142Y-47344190D01*
X87034761Y-46915619D02*
X86987142Y-46868000D01*
X86891904Y-46820380D01*
X86653809Y-46820380D01*
X86558571Y-46868000D01*
X86510952Y-46915619D01*
X86463333Y-47010857D01*
X86463333Y-47106095D01*
X86510952Y-47248952D01*
X87082380Y-47820380D01*
X86463333Y-47820380D01*
G04 #@! TO.C,TP3*
X116831904Y-45550380D02*
X116260476Y-45550380D01*
X116546190Y-46550380D02*
X116546190Y-45550380D01*
X115927142Y-46550380D02*
X115927142Y-45550380D01*
X115546190Y-45550380D01*
X115450952Y-45598000D01*
X115403333Y-45645619D01*
X115355714Y-45740857D01*
X115355714Y-45883714D01*
X115403333Y-45978952D01*
X115450952Y-46026571D01*
X115546190Y-46074190D01*
X115927142Y-46074190D01*
X115022380Y-45550380D02*
X114403333Y-45550380D01*
X114736666Y-45931333D01*
X114593809Y-45931333D01*
X114498571Y-45978952D01*
X114450952Y-46026571D01*
X114403333Y-46121809D01*
X114403333Y-46359904D01*
X114450952Y-46455142D01*
X114498571Y-46502761D01*
X114593809Y-46550380D01*
X114879523Y-46550380D01*
X114974761Y-46502761D01*
X115022380Y-46455142D01*
G04 #@! TO.C,TP4*
X120641904Y-34755380D02*
X120070476Y-34755380D01*
X120356190Y-35755380D02*
X120356190Y-34755380D01*
X119737142Y-35755380D02*
X119737142Y-34755380D01*
X119356190Y-34755380D01*
X119260952Y-34803000D01*
X119213333Y-34850619D01*
X119165714Y-34945857D01*
X119165714Y-35088714D01*
X119213333Y-35183952D01*
X119260952Y-35231571D01*
X119356190Y-35279190D01*
X119737142Y-35279190D01*
X118308571Y-35088714D02*
X118308571Y-35755380D01*
X118546666Y-34707761D02*
X118784761Y-35422047D01*
X118165714Y-35422047D01*
G04 #@! TO.C,TP5*
X107941904Y-36660380D02*
X107370476Y-36660380D01*
X107656190Y-37660380D02*
X107656190Y-36660380D01*
X107037142Y-37660380D02*
X107037142Y-36660380D01*
X106656190Y-36660380D01*
X106560952Y-36708000D01*
X106513333Y-36755619D01*
X106465714Y-36850857D01*
X106465714Y-36993714D01*
X106513333Y-37088952D01*
X106560952Y-37136571D01*
X106656190Y-37184190D01*
X107037142Y-37184190D01*
X105560952Y-36660380D02*
X106037142Y-36660380D01*
X106084761Y-37136571D01*
X106037142Y-37088952D01*
X105941904Y-37041333D01*
X105703809Y-37041333D01*
X105608571Y-37088952D01*
X105560952Y-37136571D01*
X105513333Y-37231809D01*
X105513333Y-37469904D01*
X105560952Y-37565142D01*
X105608571Y-37612761D01*
X105703809Y-37660380D01*
X105941904Y-37660380D01*
X106037142Y-37612761D01*
X106084761Y-37565142D01*
G04 #@! TO.C,TP6*
X135977380Y-34933095D02*
X135977380Y-35504523D01*
X136977380Y-35218809D02*
X135977380Y-35218809D01*
X136977380Y-35837857D02*
X135977380Y-35837857D01*
X135977380Y-36218809D01*
X136025000Y-36314047D01*
X136072619Y-36361666D01*
X136167857Y-36409285D01*
X136310714Y-36409285D01*
X136405952Y-36361666D01*
X136453571Y-36314047D01*
X136501190Y-36218809D01*
X136501190Y-35837857D01*
X135977380Y-37266428D02*
X135977380Y-37075952D01*
X136025000Y-36980714D01*
X136072619Y-36933095D01*
X136215476Y-36837857D01*
X136405952Y-36790238D01*
X136786904Y-36790238D01*
X136882142Y-36837857D01*
X136929761Y-36885476D01*
X136977380Y-36980714D01*
X136977380Y-37171190D01*
X136929761Y-37266428D01*
X136882142Y-37314047D01*
X136786904Y-37361666D01*
X136548809Y-37361666D01*
X136453571Y-37314047D01*
X136405952Y-37266428D01*
X136358333Y-37171190D01*
X136358333Y-36980714D01*
X136405952Y-36885476D01*
X136453571Y-36837857D01*
X136548809Y-36790238D01*
G04 #@! TO.C,TP7*
X130897380Y-34933095D02*
X130897380Y-35504523D01*
X131897380Y-35218809D02*
X130897380Y-35218809D01*
X131897380Y-35837857D02*
X130897380Y-35837857D01*
X130897380Y-36218809D01*
X130945000Y-36314047D01*
X130992619Y-36361666D01*
X131087857Y-36409285D01*
X131230714Y-36409285D01*
X131325952Y-36361666D01*
X131373571Y-36314047D01*
X131421190Y-36218809D01*
X131421190Y-35837857D01*
X130897380Y-36742619D02*
X130897380Y-37409285D01*
X131897380Y-36980714D01*
G04 #@! TO.C,TP8*
X141057380Y-34933095D02*
X141057380Y-35504523D01*
X142057380Y-35218809D02*
X141057380Y-35218809D01*
X142057380Y-35837857D02*
X141057380Y-35837857D01*
X141057380Y-36218809D01*
X141105000Y-36314047D01*
X141152619Y-36361666D01*
X141247857Y-36409285D01*
X141390714Y-36409285D01*
X141485952Y-36361666D01*
X141533571Y-36314047D01*
X141581190Y-36218809D01*
X141581190Y-35837857D01*
X141485952Y-36980714D02*
X141438333Y-36885476D01*
X141390714Y-36837857D01*
X141295476Y-36790238D01*
X141247857Y-36790238D01*
X141152619Y-36837857D01*
X141105000Y-36885476D01*
X141057380Y-36980714D01*
X141057380Y-37171190D01*
X141105000Y-37266428D01*
X141152619Y-37314047D01*
X141247857Y-37361666D01*
X141295476Y-37361666D01*
X141390714Y-37314047D01*
X141438333Y-37266428D01*
X141485952Y-37171190D01*
X141485952Y-36980714D01*
X141533571Y-36885476D01*
X141581190Y-36837857D01*
X141676428Y-36790238D01*
X141866904Y-36790238D01*
X141962142Y-36837857D01*
X142009761Y-36885476D01*
X142057380Y-36980714D01*
X142057380Y-37171190D01*
X142009761Y-37266428D01*
X141962142Y-37314047D01*
X141866904Y-37361666D01*
X141676428Y-37361666D01*
X141581190Y-37314047D01*
X141533571Y-37266428D01*
X141485952Y-37171190D01*
G04 #@! TO.C,TP9*
X135977380Y-48903095D02*
X135977380Y-49474523D01*
X136977380Y-49188809D02*
X135977380Y-49188809D01*
X136977380Y-49807857D02*
X135977380Y-49807857D01*
X135977380Y-50188809D01*
X136025000Y-50284047D01*
X136072619Y-50331666D01*
X136167857Y-50379285D01*
X136310714Y-50379285D01*
X136405952Y-50331666D01*
X136453571Y-50284047D01*
X136501190Y-50188809D01*
X136501190Y-49807857D01*
X136977380Y-50855476D02*
X136977380Y-51045952D01*
X136929761Y-51141190D01*
X136882142Y-51188809D01*
X136739285Y-51284047D01*
X136548809Y-51331666D01*
X136167857Y-51331666D01*
X136072619Y-51284047D01*
X136025000Y-51236428D01*
X135977380Y-51141190D01*
X135977380Y-50950714D01*
X136025000Y-50855476D01*
X136072619Y-50807857D01*
X136167857Y-50760238D01*
X136405952Y-50760238D01*
X136501190Y-50807857D01*
X136548809Y-50855476D01*
X136596428Y-50950714D01*
X136596428Y-51141190D01*
X136548809Y-51236428D01*
X136501190Y-51284047D01*
X136405952Y-51331666D01*
G04 #@! TO.C,TP10*
X130897380Y-47791904D02*
X130897380Y-48363333D01*
X131897380Y-48077619D02*
X130897380Y-48077619D01*
X131897380Y-48696666D02*
X130897380Y-48696666D01*
X130897380Y-49077619D01*
X130945000Y-49172857D01*
X130992619Y-49220476D01*
X131087857Y-49268095D01*
X131230714Y-49268095D01*
X131325952Y-49220476D01*
X131373571Y-49172857D01*
X131421190Y-49077619D01*
X131421190Y-48696666D01*
X131897380Y-50220476D02*
X131897380Y-49649047D01*
X131897380Y-49934761D02*
X130897380Y-49934761D01*
X131040238Y-49839523D01*
X131135476Y-49744285D01*
X131183095Y-49649047D01*
X130897380Y-50839523D02*
X130897380Y-50934761D01*
X130945000Y-51030000D01*
X130992619Y-51077619D01*
X131087857Y-51125238D01*
X131278333Y-51172857D01*
X131516428Y-51172857D01*
X131706904Y-51125238D01*
X131802142Y-51077619D01*
X131849761Y-51030000D01*
X131897380Y-50934761D01*
X131897380Y-50839523D01*
X131849761Y-50744285D01*
X131802142Y-50696666D01*
X131706904Y-50649047D01*
X131516428Y-50601428D01*
X131278333Y-50601428D01*
X131087857Y-50649047D01*
X130992619Y-50696666D01*
X130945000Y-50744285D01*
X130897380Y-50839523D01*
G04 #@! TO.C,TP11*
X141057380Y-48426904D02*
X141057380Y-48998333D01*
X142057380Y-48712619D02*
X141057380Y-48712619D01*
X142057380Y-49331666D02*
X141057380Y-49331666D01*
X141057380Y-49712619D01*
X141105000Y-49807857D01*
X141152619Y-49855476D01*
X141247857Y-49903095D01*
X141390714Y-49903095D01*
X141485952Y-49855476D01*
X141533571Y-49807857D01*
X141581190Y-49712619D01*
X141581190Y-49331666D01*
X142057380Y-50855476D02*
X142057380Y-50284047D01*
X142057380Y-50569761D02*
X141057380Y-50569761D01*
X141200238Y-50474523D01*
X141295476Y-50379285D01*
X141343095Y-50284047D01*
X142057380Y-51807857D02*
X142057380Y-51236428D01*
X142057380Y-51522142D02*
X141057380Y-51522142D01*
X141200238Y-51426904D01*
X141295476Y-51331666D01*
X141343095Y-51236428D01*
D11*
G04 #@! TO.C,H1*
X87044903Y-53340000D02*
G75*
G03*
X87044903Y-53340000I-3224903J0D01*
G01*
G36*
X82220000Y-53440000D02*
G01*
X82320000Y-53840000D01*
X82520000Y-54240000D01*
X82920000Y-54640000D01*
X83320000Y-54840000D01*
X83720000Y-54940000D01*
X83820000Y-54940000D01*
X83820000Y-56564903D01*
X83320000Y-56540000D01*
X82320000Y-56240000D01*
X81520000Y-55640000D01*
X81020000Y-54940000D01*
X80720000Y-54240000D01*
X80620000Y-53840000D01*
X80620000Y-53340000D01*
X82220000Y-53340000D01*
X82220000Y-53440000D01*
G37*
D12*
X82220000Y-53440000D02*
X82320000Y-53840000D01*
X82520000Y-54240000D01*
X82920000Y-54640000D01*
X83320000Y-54840000D01*
X83720000Y-54940000D01*
X83820000Y-54940000D01*
X83820000Y-56564903D01*
X83320000Y-56540000D01*
X82320000Y-56240000D01*
X81520000Y-55640000D01*
X81020000Y-54940000D01*
X80720000Y-54240000D01*
X80620000Y-53840000D01*
X80620000Y-53340000D01*
X82220000Y-53340000D01*
X82220000Y-53440000D01*
G36*
X84320000Y-50140000D02*
G01*
X85320000Y-50440000D01*
X86120000Y-51040000D01*
X86620000Y-51740000D01*
X86920000Y-52440000D01*
X87020000Y-52840000D01*
X87020000Y-53340000D01*
X85420000Y-53340000D01*
X85420000Y-53240000D01*
X85320000Y-52840000D01*
X85120000Y-52440000D01*
X84720000Y-52040000D01*
X84320000Y-51840000D01*
X83920000Y-51740000D01*
X83820000Y-51740000D01*
X83820000Y-50115097D01*
X84320000Y-50140000D01*
G37*
X84320000Y-50140000D02*
X85320000Y-50440000D01*
X86120000Y-51040000D01*
X86620000Y-51740000D01*
X86920000Y-52440000D01*
X87020000Y-52840000D01*
X87020000Y-53340000D01*
X85420000Y-53340000D01*
X85420000Y-53240000D01*
X85320000Y-52840000D01*
X85120000Y-52440000D01*
X84720000Y-52040000D01*
X84320000Y-51840000D01*
X83920000Y-51740000D01*
X83820000Y-51740000D01*
X83820000Y-50115097D01*
X84320000Y-50140000D01*
D11*
G04 #@! TO.C,H2*
X128954903Y-33020000D02*
G75*
G03*
X128954903Y-33020000I-3224903J0D01*
G01*
G36*
X124130000Y-33120000D02*
G01*
X124230000Y-33520000D01*
X124430000Y-33920000D01*
X124830000Y-34320000D01*
X125230000Y-34520000D01*
X125630000Y-34620000D01*
X125730000Y-34620000D01*
X125730000Y-36244903D01*
X125230000Y-36220000D01*
X124230000Y-35920000D01*
X123430000Y-35320000D01*
X122930000Y-34620000D01*
X122630000Y-33920000D01*
X122530000Y-33520000D01*
X122530000Y-33020000D01*
X124130000Y-33020000D01*
X124130000Y-33120000D01*
G37*
D12*
X124130000Y-33120000D02*
X124230000Y-33520000D01*
X124430000Y-33920000D01*
X124830000Y-34320000D01*
X125230000Y-34520000D01*
X125630000Y-34620000D01*
X125730000Y-34620000D01*
X125730000Y-36244903D01*
X125230000Y-36220000D01*
X124230000Y-35920000D01*
X123430000Y-35320000D01*
X122930000Y-34620000D01*
X122630000Y-33920000D01*
X122530000Y-33520000D01*
X122530000Y-33020000D01*
X124130000Y-33020000D01*
X124130000Y-33120000D01*
G36*
X126230000Y-29820000D02*
G01*
X127230000Y-30120000D01*
X128030000Y-30720000D01*
X128530000Y-31420000D01*
X128830000Y-32120000D01*
X128930000Y-32520000D01*
X128930000Y-33020000D01*
X127330000Y-33020000D01*
X127330000Y-32920000D01*
X127230000Y-32520000D01*
X127030000Y-32120000D01*
X126630000Y-31720000D01*
X126230000Y-31520000D01*
X125830000Y-31420000D01*
X125730000Y-31420000D01*
X125730000Y-29795097D01*
X126230000Y-29820000D01*
G37*
X126230000Y-29820000D02*
X127230000Y-30120000D01*
X128030000Y-30720000D01*
X128530000Y-31420000D01*
X128830000Y-32120000D01*
X128930000Y-32520000D01*
X128930000Y-33020000D01*
X127330000Y-33020000D01*
X127330000Y-32920000D01*
X127230000Y-32520000D01*
X127030000Y-32120000D01*
X126630000Y-31720000D01*
X126230000Y-31520000D01*
X125830000Y-31420000D01*
X125730000Y-31420000D01*
X125730000Y-29795097D01*
X126230000Y-29820000D01*
D11*
G04 #@! TO.C,H3*
X87044903Y-33020000D02*
G75*
G03*
X87044903Y-33020000I-3224903J0D01*
G01*
G36*
X84320000Y-29820000D02*
G01*
X85320000Y-30120000D01*
X86120000Y-30720000D01*
X86620000Y-31420000D01*
X86920000Y-32120000D01*
X87020000Y-32520000D01*
X87020000Y-33020000D01*
X85420000Y-33020000D01*
X85420000Y-32920000D01*
X85320000Y-32520000D01*
X85120000Y-32120000D01*
X84720000Y-31720000D01*
X84320000Y-31520000D01*
X83920000Y-31420000D01*
X83820000Y-31420000D01*
X83820000Y-29795097D01*
X84320000Y-29820000D01*
G37*
D12*
X84320000Y-29820000D02*
X85320000Y-30120000D01*
X86120000Y-30720000D01*
X86620000Y-31420000D01*
X86920000Y-32120000D01*
X87020000Y-32520000D01*
X87020000Y-33020000D01*
X85420000Y-33020000D01*
X85420000Y-32920000D01*
X85320000Y-32520000D01*
X85120000Y-32120000D01*
X84720000Y-31720000D01*
X84320000Y-31520000D01*
X83920000Y-31420000D01*
X83820000Y-31420000D01*
X83820000Y-29795097D01*
X84320000Y-29820000D01*
G36*
X82220000Y-33120000D02*
G01*
X82320000Y-33520000D01*
X82520000Y-33920000D01*
X82920000Y-34320000D01*
X83320000Y-34520000D01*
X83720000Y-34620000D01*
X83820000Y-34620000D01*
X83820000Y-36244903D01*
X83320000Y-36220000D01*
X82320000Y-35920000D01*
X81520000Y-35320000D01*
X81020000Y-34620000D01*
X80720000Y-33920000D01*
X80620000Y-33520000D01*
X80620000Y-33020000D01*
X82220000Y-33020000D01*
X82220000Y-33120000D01*
G37*
X82220000Y-33120000D02*
X82320000Y-33520000D01*
X82520000Y-33920000D01*
X82920000Y-34320000D01*
X83320000Y-34520000D01*
X83720000Y-34620000D01*
X83820000Y-34620000D01*
X83820000Y-36244903D01*
X83320000Y-36220000D01*
X82320000Y-35920000D01*
X81520000Y-35320000D01*
X81020000Y-34620000D01*
X80720000Y-33920000D01*
X80620000Y-33520000D01*
X80620000Y-33020000D01*
X82220000Y-33020000D01*
X82220000Y-33120000D01*
D11*
G04 #@! TO.C,H4*
X128954903Y-53340000D02*
G75*
G03*
X128954903Y-53340000I-3224903J0D01*
G01*
G36*
X126230000Y-50140000D02*
G01*
X127230000Y-50440000D01*
X128030000Y-51040000D01*
X128530000Y-51740000D01*
X128830000Y-52440000D01*
X128930000Y-52840000D01*
X128930000Y-53340000D01*
X127330000Y-53340000D01*
X127330000Y-53240000D01*
X127230000Y-52840000D01*
X127030000Y-52440000D01*
X126630000Y-52040000D01*
X126230000Y-51840000D01*
X125830000Y-51740000D01*
X125730000Y-51740000D01*
X125730000Y-50115097D01*
X126230000Y-50140000D01*
G37*
D12*
X126230000Y-50140000D02*
X127230000Y-50440000D01*
X128030000Y-51040000D01*
X128530000Y-51740000D01*
X128830000Y-52440000D01*
X128930000Y-52840000D01*
X128930000Y-53340000D01*
X127330000Y-53340000D01*
X127330000Y-53240000D01*
X127230000Y-52840000D01*
X127030000Y-52440000D01*
X126630000Y-52040000D01*
X126230000Y-51840000D01*
X125830000Y-51740000D01*
X125730000Y-51740000D01*
X125730000Y-50115097D01*
X126230000Y-50140000D01*
G36*
X124130000Y-53440000D02*
G01*
X124230000Y-53840000D01*
X124430000Y-54240000D01*
X124830000Y-54640000D01*
X125230000Y-54840000D01*
X125630000Y-54940000D01*
X125730000Y-54940000D01*
X125730000Y-56564903D01*
X125230000Y-56540000D01*
X124230000Y-56240000D01*
X123430000Y-55640000D01*
X122930000Y-54940000D01*
X122630000Y-54240000D01*
X122530000Y-53840000D01*
X122530000Y-53340000D01*
X124130000Y-53340000D01*
X124130000Y-53440000D01*
G37*
X124130000Y-53440000D02*
X124230000Y-53840000D01*
X124430000Y-54240000D01*
X124830000Y-54640000D01*
X125230000Y-54840000D01*
X125630000Y-54940000D01*
X125730000Y-54940000D01*
X125730000Y-56564903D01*
X125230000Y-56540000D01*
X124230000Y-56240000D01*
X123430000Y-55640000D01*
X122930000Y-54940000D01*
X122630000Y-54240000D01*
X122530000Y-53840000D01*
X122530000Y-53340000D01*
X124130000Y-53340000D01*
X124130000Y-53440000D01*
D11*
G04 #@! TO.C,TP1*
X88580000Y-40640000D02*
G75*
G03*
X88580000Y-40640000I-950000J0D01*
G01*
G04 #@! TO.C,TP2*
X88580000Y-45720000D02*
G75*
G03*
X88580000Y-45720000I-950000J0D01*
G01*
G04 #@! TO.C,TP3*
X116520000Y-44450000D02*
G75*
G03*
X116520000Y-44450000I-950000J0D01*
G01*
G04 #@! TO.C,TP4*
X120330000Y-33655000D02*
G75*
G03*
X120330000Y-33655000I-950000J0D01*
G01*
G04 #@! TO.C,TP5*
X107630000Y-35560000D02*
G75*
G03*
X107630000Y-35560000I-950000J0D01*
G01*
G04 #@! TO.C,TP6*
X139380000Y-36195000D02*
G75*
G03*
X139380000Y-36195000I-950000J0D01*
G01*
G04 #@! TO.C,TP7*
X134300000Y-36195000D02*
G75*
G03*
X134300000Y-36195000I-950000J0D01*
G01*
G04 #@! TO.C,TP8*
X144460000Y-36195000D02*
G75*
G03*
X144460000Y-36195000I-950000J0D01*
G01*
G04 #@! TO.C,TP9*
X139380000Y-50165000D02*
G75*
G03*
X139380000Y-50165000I-950000J0D01*
G01*
G04 #@! TO.C,TP10*
X134300000Y-50165000D02*
G75*
G03*
X134300000Y-50165000I-950000J0D01*
G01*
G04 #@! TO.C,TP11*
X144460000Y-50165000D02*
G75*
G03*
X144460000Y-50165000I-950000J0D01*
G01*
G04 #@! TO.C,REF\u002A\u002A*
G36*
X92451662Y-33320696D02*
G01*
X92491314Y-33321782D01*
X92559109Y-33321782D01*
X92559109Y-33434951D01*
X92399577Y-33434951D01*
X92384682Y-33612732D01*
X92382682Y-33637037D01*
X92378023Y-33697880D01*
X92374731Y-33747389D01*
X92373092Y-33780992D01*
X92373390Y-33794116D01*
X92377724Y-33790343D01*
X92397496Y-33770676D01*
X92431679Y-33735818D01*
X92478541Y-33687576D01*
X92536354Y-33627757D01*
X92603387Y-33558167D01*
X92677912Y-33480615D01*
X92758197Y-33396907D01*
X92842513Y-33308849D01*
X92929130Y-33218250D01*
X93016319Y-33126915D01*
X93102349Y-33036653D01*
X93185492Y-32949269D01*
X93264016Y-32866572D01*
X93336192Y-32790368D01*
X93400291Y-32722463D01*
X93454583Y-32664666D01*
X93551592Y-32561040D01*
X93552034Y-32649315D01*
X93552475Y-32737589D01*
X92951938Y-33369158D01*
X92351401Y-34000726D01*
X92339396Y-34144674D01*
X92291365Y-34720635D01*
X92282876Y-34822791D01*
X92272343Y-34950612D01*
X92262621Y-35069767D01*
X92253898Y-35177914D01*
X92246358Y-35272713D01*
X92240187Y-35351819D01*
X92235573Y-35412892D01*
X92232700Y-35453590D01*
X92231754Y-35471570D01*
X92234251Y-35479808D01*
X92245471Y-35497599D01*
X92266751Y-35524411D01*
X92277021Y-35536129D01*
X92299225Y-35561466D01*
X92344023Y-35609986D01*
X92402281Y-35671192D01*
X92475129Y-35746307D01*
X92563703Y-35836550D01*
X92669134Y-35943145D01*
X92738492Y-36013093D01*
X92835179Y-36110658D01*
X92931526Y-36207941D01*
X93024638Y-36302014D01*
X93111618Y-36389950D01*
X93189569Y-36468820D01*
X93255596Y-36535699D01*
X93306802Y-36587658D01*
X93507514Y-36791620D01*
X93471058Y-36829671D01*
X93462460Y-36838245D01*
X93437095Y-36859297D01*
X93419695Y-36867723D01*
X93406071Y-36860530D01*
X93380743Y-36838944D01*
X93350379Y-36807995D01*
X93331896Y-36788448D01*
X93297427Y-36752752D01*
X93248712Y-36702684D01*
X93187469Y-36640001D01*
X93115420Y-36566457D01*
X93034285Y-36483810D01*
X92945784Y-36393815D01*
X92851637Y-36298228D01*
X92753565Y-36198805D01*
X92211161Y-35649343D01*
X92189066Y-35934746D01*
X92184250Y-35995662D01*
X92177216Y-36077548D01*
X92170872Y-36139569D01*
X92164748Y-36184987D01*
X92158373Y-36217062D01*
X92151277Y-36239052D01*
X92142991Y-36254219D01*
X92131393Y-36275416D01*
X92121850Y-36314386D01*
X92119010Y-36370531D01*
X92119010Y-36452773D01*
X91892674Y-36452773D01*
X91892674Y-36276733D01*
X91047082Y-36276733D01*
X90998203Y-36332262D01*
X90984836Y-36346722D01*
X90912388Y-36404813D01*
X90830532Y-36440576D01*
X90741900Y-36452773D01*
X90663692Y-36446306D01*
X90575233Y-36419047D01*
X90499507Y-36370328D01*
X90484748Y-36356403D01*
X90447864Y-36311328D01*
X90415503Y-36258819D01*
X90392297Y-36207061D01*
X90382879Y-36164239D01*
X90382697Y-36158023D01*
X90381342Y-36135246D01*
X90377800Y-36119513D01*
X90370390Y-36112068D01*
X90357431Y-36114156D01*
X90337243Y-36127020D01*
X90308145Y-36151905D01*
X90268456Y-36190053D01*
X90216496Y-36242710D01*
X90150584Y-36311119D01*
X90069040Y-36396524D01*
X90025604Y-36442112D01*
X89953000Y-36518441D01*
X89884309Y-36590808D01*
X89822223Y-36656366D01*
X89769434Y-36712274D01*
X89728634Y-36755686D01*
X89702515Y-36783758D01*
X89631119Y-36861436D01*
X89542863Y-36773416D01*
X90088690Y-36201287D01*
X90123105Y-36165188D01*
X90245546Y-36036272D01*
X90350651Y-35924754D01*
X90438736Y-35830288D01*
X90510116Y-35752529D01*
X90560588Y-35696174D01*
X90767247Y-35696174D01*
X90768872Y-35709434D01*
X90769156Y-35710819D01*
X90782698Y-35742228D01*
X90809748Y-35756863D01*
X90893129Y-35788063D01*
X90967418Y-35840038D01*
X91025846Y-35908791D01*
X91065890Y-35991315D01*
X91085026Y-36084606D01*
X91091364Y-36163565D01*
X92040838Y-36163565D01*
X92047458Y-36135273D01*
X92048629Y-36128329D01*
X92052268Y-36097281D01*
X92057234Y-36047081D01*
X92063157Y-35981727D01*
X92069669Y-35905219D01*
X92076401Y-35821555D01*
X92098724Y-35536129D01*
X91797826Y-35230565D01*
X91742636Y-35174704D01*
X91675109Y-35106888D01*
X91614529Y-35046643D01*
X91563021Y-34996052D01*
X91522710Y-34957200D01*
X91495722Y-34932170D01*
X91484182Y-34923046D01*
X91476444Y-34927405D01*
X91453395Y-34947241D01*
X91418709Y-34980375D01*
X91375487Y-35023820D01*
X91326832Y-35074587D01*
X91314140Y-35088051D01*
X91257229Y-35148275D01*
X91189414Y-35219864D01*
X91115800Y-35297437D01*
X91041493Y-35375611D01*
X90971599Y-35449005D01*
X90967401Y-35453409D01*
X90902420Y-35521785D01*
X90852836Y-35574732D01*
X90816688Y-35614767D01*
X90792016Y-35644411D01*
X90776858Y-35666181D01*
X90769256Y-35682595D01*
X90767247Y-35696174D01*
X90560588Y-35696174D01*
X90565105Y-35691131D01*
X90604019Y-35645748D01*
X90627173Y-35616035D01*
X90634882Y-35601644D01*
X90634883Y-35601559D01*
X90633825Y-35583624D01*
X90630737Y-35543421D01*
X90625858Y-35483687D01*
X90619432Y-35407158D01*
X90611700Y-35316569D01*
X90602905Y-35214657D01*
X90593287Y-35104159D01*
X90583091Y-34987811D01*
X90572556Y-34868348D01*
X90561926Y-34748507D01*
X90551442Y-34631025D01*
X90541346Y-34518637D01*
X90531881Y-34414081D01*
X90523288Y-34320091D01*
X90515809Y-34239405D01*
X90509687Y-34174759D01*
X90505162Y-34128888D01*
X90502478Y-34104530D01*
X90497067Y-34063732D01*
X90626253Y-34063732D01*
X90627908Y-34094653D01*
X90631549Y-34146653D01*
X90636995Y-34217487D01*
X90644063Y-34304911D01*
X90652570Y-34406681D01*
X90662335Y-34520552D01*
X90673174Y-34644279D01*
X90684907Y-34775618D01*
X90694079Y-34876908D01*
X90705566Y-35002526D01*
X90716322Y-35118762D01*
X90726131Y-35223380D01*
X90734781Y-35314140D01*
X90742057Y-35388804D01*
X90747746Y-35445134D01*
X90751634Y-35480891D01*
X90753506Y-35493837D01*
X90759188Y-35489826D01*
X90780020Y-35470138D01*
X90813872Y-35436322D01*
X90858412Y-35390837D01*
X90911310Y-35336146D01*
X90970236Y-35274710D01*
X91032858Y-35208990D01*
X91096848Y-35141449D01*
X91159874Y-35074547D01*
X91219606Y-35010746D01*
X91273713Y-34952507D01*
X91319865Y-34902292D01*
X91355733Y-34862563D01*
X91378984Y-34835780D01*
X91385778Y-34826477D01*
X91567601Y-34826477D01*
X91843305Y-35101968D01*
X91910726Y-35169224D01*
X91974267Y-35232162D01*
X92023490Y-35280100D01*
X92060196Y-35314594D01*
X92086190Y-35337199D01*
X92103276Y-35349471D01*
X92113256Y-35352966D01*
X92117935Y-35349238D01*
X92119116Y-35339844D01*
X92119873Y-35324749D01*
X92122601Y-35285883D01*
X92127108Y-35226895D01*
X92133179Y-35150473D01*
X92140596Y-35059305D01*
X92149142Y-34956080D01*
X92158602Y-34843483D01*
X92168758Y-34724205D01*
X92177723Y-34619077D01*
X92187066Y-34508351D01*
X92195443Y-34407814D01*
X92202653Y-34319943D01*
X92208496Y-34247215D01*
X92212769Y-34192110D01*
X92215273Y-34157104D01*
X92215805Y-34144674D01*
X92215384Y-34144908D01*
X92203509Y-34156350D01*
X92177130Y-34183198D01*
X92138570Y-34223018D01*
X92090153Y-34273372D01*
X92034203Y-34331828D01*
X91973042Y-34395948D01*
X91908995Y-34463298D01*
X91844385Y-34531443D01*
X91781535Y-34597948D01*
X91722768Y-34660377D01*
X91670409Y-34716295D01*
X91569533Y-34824406D01*
X91567601Y-34826477D01*
X91385778Y-34826477D01*
X91387290Y-34824406D01*
X91379148Y-34813383D01*
X91355478Y-34786999D01*
X91318478Y-34747527D01*
X91270350Y-34697191D01*
X91213296Y-34638217D01*
X91149520Y-34572830D01*
X91081222Y-34503255D01*
X91010605Y-34431716D01*
X90939871Y-34360438D01*
X90871222Y-34291647D01*
X90806861Y-34227566D01*
X90748989Y-34170422D01*
X90699810Y-34122439D01*
X90661524Y-34085841D01*
X90636334Y-34062854D01*
X90626442Y-34055703D01*
X90626253Y-34063732D01*
X90497067Y-34063732D01*
X90495390Y-34051089D01*
X90220297Y-34051089D01*
X90220140Y-33950495D01*
X90320891Y-33950495D01*
X90402624Y-33950495D01*
X90409895Y-33950489D01*
X90450950Y-33949613D01*
X90473277Y-33945867D01*
X90482529Y-33937270D01*
X90484357Y-33921840D01*
X90476306Y-33899159D01*
X90448730Y-33861428D01*
X90402624Y-33812179D01*
X90320891Y-33731172D01*
X90320891Y-33950495D01*
X90220140Y-33950495D01*
X90219968Y-33840471D01*
X90219639Y-33629852D01*
X89767914Y-33170891D01*
X89316189Y-32711931D01*
X89315570Y-32624848D01*
X89314951Y-32537767D01*
X89856769Y-33086952D01*
X89909137Y-33139998D01*
X90017803Y-33249772D01*
X90110709Y-33343114D01*
X90189055Y-33421173D01*
X90254043Y-33485097D01*
X90306872Y-33536035D01*
X90348743Y-33575135D01*
X90380855Y-33603548D01*
X90404410Y-33622420D01*
X90420608Y-33632901D01*
X90430649Y-33636139D01*
X90447579Y-33635158D01*
X90457084Y-33627996D01*
X90458723Y-33608401D01*
X90454782Y-33570124D01*
X90452065Y-33546025D01*
X90448284Y-33505744D01*
X90446760Y-33478961D01*
X90446015Y-33469728D01*
X90438746Y-33459839D01*
X90418668Y-33456562D01*
X90379689Y-33457992D01*
X90369737Y-33458553D01*
X90329898Y-33457921D01*
X90301560Y-33449167D01*
X90281586Y-33434951D01*
X90564852Y-33434951D01*
X90569013Y-33482104D01*
X90570935Y-33503498D01*
X90576924Y-33561909D01*
X90582826Y-33600381D01*
X90589727Y-33622912D01*
X90598712Y-33633498D01*
X90610870Y-33636139D01*
X90621801Y-33637937D01*
X90629050Y-33646530D01*
X90633100Y-33666505D01*
X90634863Y-33702450D01*
X90635248Y-33758952D01*
X90635248Y-33881766D01*
X90675447Y-33921840D01*
X90773565Y-34019654D01*
X90911881Y-34157542D01*
X90911881Y-34051089D01*
X91666337Y-34051089D01*
X91666337Y-34290000D01*
X91047831Y-34290000D01*
X91257592Y-34506906D01*
X91297770Y-34548334D01*
X91353328Y-34605200D01*
X91401570Y-34654082D01*
X91439971Y-34692441D01*
X91466003Y-34717741D01*
X91477140Y-34727442D01*
X91481373Y-34724767D01*
X91501224Y-34706782D01*
X91535451Y-34673481D01*
X91582227Y-34626712D01*
X91639724Y-34568325D01*
X91706112Y-34500169D01*
X91779564Y-34424094D01*
X91858251Y-34341950D01*
X91937341Y-34258943D01*
X92014871Y-34177136D01*
X92077746Y-34110083D01*
X92127502Y-34056007D01*
X92165678Y-34013129D01*
X92193811Y-33979673D01*
X92213440Y-33953861D01*
X92226101Y-33933914D01*
X92233334Y-33918056D01*
X92236675Y-33904509D01*
X92237561Y-33897910D01*
X92241488Y-33861548D01*
X92246459Y-33808018D01*
X92251927Y-33743421D01*
X92257344Y-33673862D01*
X92259181Y-33649635D01*
X92264488Y-33584178D01*
X92269548Y-33527717D01*
X92273863Y-33485618D01*
X92276934Y-33463243D01*
X92282955Y-33434951D01*
X90564852Y-33434951D01*
X90281586Y-33434951D01*
X90273630Y-33429289D01*
X90268820Y-33425104D01*
X90229482Y-33374427D01*
X90213903Y-33321782D01*
X90554698Y-33321782D01*
X91969221Y-33321782D01*
X92181881Y-33321782D01*
X92238908Y-33321782D01*
X92255993Y-33321662D01*
X92281308Y-33319462D01*
X92288616Y-33312334D01*
X92282943Y-33297508D01*
X92281267Y-33294682D01*
X92262448Y-33272944D01*
X92235183Y-33248820D01*
X92207987Y-33229254D01*
X92189371Y-33221188D01*
X92187697Y-33222463D01*
X92183544Y-33239976D01*
X92181881Y-33271485D01*
X92181881Y-33321782D01*
X91969221Y-33321782D01*
X91965526Y-33231095D01*
X91961832Y-33140407D01*
X91886386Y-33125252D01*
X91848551Y-33118379D01*
X91785368Y-33108756D01*
X91726065Y-33101496D01*
X91641188Y-33092893D01*
X91641188Y-33196040D01*
X91062773Y-33196040D01*
X91062773Y-33105122D01*
X90990471Y-33113753D01*
X90879998Y-33132249D01*
X90768816Y-33165691D01*
X90676850Y-33212324D01*
X90602542Y-33272786D01*
X90554698Y-33321782D01*
X90213903Y-33321782D01*
X90212172Y-33315934D01*
X90217474Y-33254575D01*
X90245975Y-33195297D01*
X90248733Y-33191606D01*
X90286822Y-33159851D01*
X90336476Y-33141067D01*
X90390002Y-33136071D01*
X90439707Y-33145678D01*
X90477900Y-33170704D01*
X90490831Y-33183480D01*
X90503428Y-33186576D01*
X90521467Y-33176998D01*
X90551928Y-33153082D01*
X90561274Y-33145731D01*
X90633430Y-33099339D01*
X90718915Y-33058084D01*
X90788830Y-33032575D01*
X91163367Y-33032575D01*
X91163367Y-33095446D01*
X91540594Y-33095446D01*
X91540594Y-33032575D01*
X91163367Y-33032575D01*
X90788830Y-33032575D01*
X90809767Y-33024936D01*
X90898027Y-33002868D01*
X90975736Y-32994852D01*
X90983991Y-32994788D01*
X91029879Y-32990321D01*
X91055079Y-32977795D01*
X91062773Y-32955784D01*
X91063676Y-32948849D01*
X91068615Y-32942885D01*
X91080611Y-32938519D01*
X91102680Y-32935503D01*
X91137836Y-32933590D01*
X91189094Y-32932530D01*
X91259471Y-32932077D01*
X91351980Y-32931980D01*
X91438660Y-32932150D01*
X91512332Y-32932834D01*
X91566265Y-32934215D01*
X91603288Y-32936470D01*
X91626230Y-32939778D01*
X91637920Y-32944320D01*
X91641188Y-32950272D01*
X91651937Y-32964888D01*
X91682055Y-32974215D01*
X91693582Y-32975847D01*
X91732886Y-32981591D01*
X91785188Y-32989378D01*
X91842376Y-32998003D01*
X91873916Y-33002393D01*
X91920074Y-33007148D01*
X91952641Y-33008295D01*
X91966023Y-33005495D01*
X91968308Y-33003671D01*
X91989405Y-32999165D01*
X92027355Y-32996029D01*
X92076048Y-32994852D01*
X92181881Y-32994852D01*
X92181894Y-33032575D01*
X92181894Y-33035718D01*
X92182388Y-33048668D01*
X92188819Y-33070411D01*
X92207123Y-33088851D01*
X92242830Y-33110801D01*
X92274174Y-33130854D01*
X92321893Y-33169356D01*
X92365138Y-33212579D01*
X92398219Y-33254627D01*
X92415442Y-33289604D01*
X92419662Y-33303081D01*
X92427480Y-33312334D01*
X92430116Y-33315454D01*
X92451662Y-33320696D01*
G37*
D12*
X92451662Y-33320696D02*
X92491314Y-33321782D01*
X92559109Y-33321782D01*
X92559109Y-33434951D01*
X92399577Y-33434951D01*
X92384682Y-33612732D01*
X92382682Y-33637037D01*
X92378023Y-33697880D01*
X92374731Y-33747389D01*
X92373092Y-33780992D01*
X92373390Y-33794116D01*
X92377724Y-33790343D01*
X92397496Y-33770676D01*
X92431679Y-33735818D01*
X92478541Y-33687576D01*
X92536354Y-33627757D01*
X92603387Y-33558167D01*
X92677912Y-33480615D01*
X92758197Y-33396907D01*
X92842513Y-33308849D01*
X92929130Y-33218250D01*
X93016319Y-33126915D01*
X93102349Y-33036653D01*
X93185492Y-32949269D01*
X93264016Y-32866572D01*
X93336192Y-32790368D01*
X93400291Y-32722463D01*
X93454583Y-32664666D01*
X93551592Y-32561040D01*
X93552034Y-32649315D01*
X93552475Y-32737589D01*
X92951938Y-33369158D01*
X92351401Y-34000726D01*
X92339396Y-34144674D01*
X92291365Y-34720635D01*
X92282876Y-34822791D01*
X92272343Y-34950612D01*
X92262621Y-35069767D01*
X92253898Y-35177914D01*
X92246358Y-35272713D01*
X92240187Y-35351819D01*
X92235573Y-35412892D01*
X92232700Y-35453590D01*
X92231754Y-35471570D01*
X92234251Y-35479808D01*
X92245471Y-35497599D01*
X92266751Y-35524411D01*
X92277021Y-35536129D01*
X92299225Y-35561466D01*
X92344023Y-35609986D01*
X92402281Y-35671192D01*
X92475129Y-35746307D01*
X92563703Y-35836550D01*
X92669134Y-35943145D01*
X92738492Y-36013093D01*
X92835179Y-36110658D01*
X92931526Y-36207941D01*
X93024638Y-36302014D01*
X93111618Y-36389950D01*
X93189569Y-36468820D01*
X93255596Y-36535699D01*
X93306802Y-36587658D01*
X93507514Y-36791620D01*
X93471058Y-36829671D01*
X93462460Y-36838245D01*
X93437095Y-36859297D01*
X93419695Y-36867723D01*
X93406071Y-36860530D01*
X93380743Y-36838944D01*
X93350379Y-36807995D01*
X93331896Y-36788448D01*
X93297427Y-36752752D01*
X93248712Y-36702684D01*
X93187469Y-36640001D01*
X93115420Y-36566457D01*
X93034285Y-36483810D01*
X92945784Y-36393815D01*
X92851637Y-36298228D01*
X92753565Y-36198805D01*
X92211161Y-35649343D01*
X92189066Y-35934746D01*
X92184250Y-35995662D01*
X92177216Y-36077548D01*
X92170872Y-36139569D01*
X92164748Y-36184987D01*
X92158373Y-36217062D01*
X92151277Y-36239052D01*
X92142991Y-36254219D01*
X92131393Y-36275416D01*
X92121850Y-36314386D01*
X92119010Y-36370531D01*
X92119010Y-36452773D01*
X91892674Y-36452773D01*
X91892674Y-36276733D01*
X91047082Y-36276733D01*
X90998203Y-36332262D01*
X90984836Y-36346722D01*
X90912388Y-36404813D01*
X90830532Y-36440576D01*
X90741900Y-36452773D01*
X90663692Y-36446306D01*
X90575233Y-36419047D01*
X90499507Y-36370328D01*
X90484748Y-36356403D01*
X90447864Y-36311328D01*
X90415503Y-36258819D01*
X90392297Y-36207061D01*
X90382879Y-36164239D01*
X90382697Y-36158023D01*
X90381342Y-36135246D01*
X90377800Y-36119513D01*
X90370390Y-36112068D01*
X90357431Y-36114156D01*
X90337243Y-36127020D01*
X90308145Y-36151905D01*
X90268456Y-36190053D01*
X90216496Y-36242710D01*
X90150584Y-36311119D01*
X90069040Y-36396524D01*
X90025604Y-36442112D01*
X89953000Y-36518441D01*
X89884309Y-36590808D01*
X89822223Y-36656366D01*
X89769434Y-36712274D01*
X89728634Y-36755686D01*
X89702515Y-36783758D01*
X89631119Y-36861436D01*
X89542863Y-36773416D01*
X90088690Y-36201287D01*
X90123105Y-36165188D01*
X90245546Y-36036272D01*
X90350651Y-35924754D01*
X90438736Y-35830288D01*
X90510116Y-35752529D01*
X90560588Y-35696174D01*
X90767247Y-35696174D01*
X90768872Y-35709434D01*
X90769156Y-35710819D01*
X90782698Y-35742228D01*
X90809748Y-35756863D01*
X90893129Y-35788063D01*
X90967418Y-35840038D01*
X91025846Y-35908791D01*
X91065890Y-35991315D01*
X91085026Y-36084606D01*
X91091364Y-36163565D01*
X92040838Y-36163565D01*
X92047458Y-36135273D01*
X92048629Y-36128329D01*
X92052268Y-36097281D01*
X92057234Y-36047081D01*
X92063157Y-35981727D01*
X92069669Y-35905219D01*
X92076401Y-35821555D01*
X92098724Y-35536129D01*
X91797826Y-35230565D01*
X91742636Y-35174704D01*
X91675109Y-35106888D01*
X91614529Y-35046643D01*
X91563021Y-34996052D01*
X91522710Y-34957200D01*
X91495722Y-34932170D01*
X91484182Y-34923046D01*
X91476444Y-34927405D01*
X91453395Y-34947241D01*
X91418709Y-34980375D01*
X91375487Y-35023820D01*
X91326832Y-35074587D01*
X91314140Y-35088051D01*
X91257229Y-35148275D01*
X91189414Y-35219864D01*
X91115800Y-35297437D01*
X91041493Y-35375611D01*
X90971599Y-35449005D01*
X90967401Y-35453409D01*
X90902420Y-35521785D01*
X90852836Y-35574732D01*
X90816688Y-35614767D01*
X90792016Y-35644411D01*
X90776858Y-35666181D01*
X90769256Y-35682595D01*
X90767247Y-35696174D01*
X90560588Y-35696174D01*
X90565105Y-35691131D01*
X90604019Y-35645748D01*
X90627173Y-35616035D01*
X90634882Y-35601644D01*
X90634883Y-35601559D01*
X90633825Y-35583624D01*
X90630737Y-35543421D01*
X90625858Y-35483687D01*
X90619432Y-35407158D01*
X90611700Y-35316569D01*
X90602905Y-35214657D01*
X90593287Y-35104159D01*
X90583091Y-34987811D01*
X90572556Y-34868348D01*
X90561926Y-34748507D01*
X90551442Y-34631025D01*
X90541346Y-34518637D01*
X90531881Y-34414081D01*
X90523288Y-34320091D01*
X90515809Y-34239405D01*
X90509687Y-34174759D01*
X90505162Y-34128888D01*
X90502478Y-34104530D01*
X90497067Y-34063732D01*
X90626253Y-34063732D01*
X90627908Y-34094653D01*
X90631549Y-34146653D01*
X90636995Y-34217487D01*
X90644063Y-34304911D01*
X90652570Y-34406681D01*
X90662335Y-34520552D01*
X90673174Y-34644279D01*
X90684907Y-34775618D01*
X90694079Y-34876908D01*
X90705566Y-35002526D01*
X90716322Y-35118762D01*
X90726131Y-35223380D01*
X90734781Y-35314140D01*
X90742057Y-35388804D01*
X90747746Y-35445134D01*
X90751634Y-35480891D01*
X90753506Y-35493837D01*
X90759188Y-35489826D01*
X90780020Y-35470138D01*
X90813872Y-35436322D01*
X90858412Y-35390837D01*
X90911310Y-35336146D01*
X90970236Y-35274710D01*
X91032858Y-35208990D01*
X91096848Y-35141449D01*
X91159874Y-35074547D01*
X91219606Y-35010746D01*
X91273713Y-34952507D01*
X91319865Y-34902292D01*
X91355733Y-34862563D01*
X91378984Y-34835780D01*
X91385778Y-34826477D01*
X91567601Y-34826477D01*
X91843305Y-35101968D01*
X91910726Y-35169224D01*
X91974267Y-35232162D01*
X92023490Y-35280100D01*
X92060196Y-35314594D01*
X92086190Y-35337199D01*
X92103276Y-35349471D01*
X92113256Y-35352966D01*
X92117935Y-35349238D01*
X92119116Y-35339844D01*
X92119873Y-35324749D01*
X92122601Y-35285883D01*
X92127108Y-35226895D01*
X92133179Y-35150473D01*
X92140596Y-35059305D01*
X92149142Y-34956080D01*
X92158602Y-34843483D01*
X92168758Y-34724205D01*
X92177723Y-34619077D01*
X92187066Y-34508351D01*
X92195443Y-34407814D01*
X92202653Y-34319943D01*
X92208496Y-34247215D01*
X92212769Y-34192110D01*
X92215273Y-34157104D01*
X92215805Y-34144674D01*
X92215384Y-34144908D01*
X92203509Y-34156350D01*
X92177130Y-34183198D01*
X92138570Y-34223018D01*
X92090153Y-34273372D01*
X92034203Y-34331828D01*
X91973042Y-34395948D01*
X91908995Y-34463298D01*
X91844385Y-34531443D01*
X91781535Y-34597948D01*
X91722768Y-34660377D01*
X91670409Y-34716295D01*
X91569533Y-34824406D01*
X91567601Y-34826477D01*
X91385778Y-34826477D01*
X91387290Y-34824406D01*
X91379148Y-34813383D01*
X91355478Y-34786999D01*
X91318478Y-34747527D01*
X91270350Y-34697191D01*
X91213296Y-34638217D01*
X91149520Y-34572830D01*
X91081222Y-34503255D01*
X91010605Y-34431716D01*
X90939871Y-34360438D01*
X90871222Y-34291647D01*
X90806861Y-34227566D01*
X90748989Y-34170422D01*
X90699810Y-34122439D01*
X90661524Y-34085841D01*
X90636334Y-34062854D01*
X90626442Y-34055703D01*
X90626253Y-34063732D01*
X90497067Y-34063732D01*
X90495390Y-34051089D01*
X90220297Y-34051089D01*
X90220140Y-33950495D01*
X90320891Y-33950495D01*
X90402624Y-33950495D01*
X90409895Y-33950489D01*
X90450950Y-33949613D01*
X90473277Y-33945867D01*
X90482529Y-33937270D01*
X90484357Y-33921840D01*
X90476306Y-33899159D01*
X90448730Y-33861428D01*
X90402624Y-33812179D01*
X90320891Y-33731172D01*
X90320891Y-33950495D01*
X90220140Y-33950495D01*
X90219968Y-33840471D01*
X90219639Y-33629852D01*
X89767914Y-33170891D01*
X89316189Y-32711931D01*
X89315570Y-32624848D01*
X89314951Y-32537767D01*
X89856769Y-33086952D01*
X89909137Y-33139998D01*
X90017803Y-33249772D01*
X90110709Y-33343114D01*
X90189055Y-33421173D01*
X90254043Y-33485097D01*
X90306872Y-33536035D01*
X90348743Y-33575135D01*
X90380855Y-33603548D01*
X90404410Y-33622420D01*
X90420608Y-33632901D01*
X90430649Y-33636139D01*
X90447579Y-33635158D01*
X90457084Y-33627996D01*
X90458723Y-33608401D01*
X90454782Y-33570124D01*
X90452065Y-33546025D01*
X90448284Y-33505744D01*
X90446760Y-33478961D01*
X90446015Y-33469728D01*
X90438746Y-33459839D01*
X90418668Y-33456562D01*
X90379689Y-33457992D01*
X90369737Y-33458553D01*
X90329898Y-33457921D01*
X90301560Y-33449167D01*
X90281586Y-33434951D01*
X90564852Y-33434951D01*
X90569013Y-33482104D01*
X90570935Y-33503498D01*
X90576924Y-33561909D01*
X90582826Y-33600381D01*
X90589727Y-33622912D01*
X90598712Y-33633498D01*
X90610870Y-33636139D01*
X90621801Y-33637937D01*
X90629050Y-33646530D01*
X90633100Y-33666505D01*
X90634863Y-33702450D01*
X90635248Y-33758952D01*
X90635248Y-33881766D01*
X90675447Y-33921840D01*
X90773565Y-34019654D01*
X90911881Y-34157542D01*
X90911881Y-34051089D01*
X91666337Y-34051089D01*
X91666337Y-34290000D01*
X91047831Y-34290000D01*
X91257592Y-34506906D01*
X91297770Y-34548334D01*
X91353328Y-34605200D01*
X91401570Y-34654082D01*
X91439971Y-34692441D01*
X91466003Y-34717741D01*
X91477140Y-34727442D01*
X91481373Y-34724767D01*
X91501224Y-34706782D01*
X91535451Y-34673481D01*
X91582227Y-34626712D01*
X91639724Y-34568325D01*
X91706112Y-34500169D01*
X91779564Y-34424094D01*
X91858251Y-34341950D01*
X91937341Y-34258943D01*
X92014871Y-34177136D01*
X92077746Y-34110083D01*
X92127502Y-34056007D01*
X92165678Y-34013129D01*
X92193811Y-33979673D01*
X92213440Y-33953861D01*
X92226101Y-33933914D01*
X92233334Y-33918056D01*
X92236675Y-33904509D01*
X92237561Y-33897910D01*
X92241488Y-33861548D01*
X92246459Y-33808018D01*
X92251927Y-33743421D01*
X92257344Y-33673862D01*
X92259181Y-33649635D01*
X92264488Y-33584178D01*
X92269548Y-33527717D01*
X92273863Y-33485618D01*
X92276934Y-33463243D01*
X92282955Y-33434951D01*
X90564852Y-33434951D01*
X90281586Y-33434951D01*
X90273630Y-33429289D01*
X90268820Y-33425104D01*
X90229482Y-33374427D01*
X90213903Y-33321782D01*
X90554698Y-33321782D01*
X91969221Y-33321782D01*
X92181881Y-33321782D01*
X92238908Y-33321782D01*
X92255993Y-33321662D01*
X92281308Y-33319462D01*
X92288616Y-33312334D01*
X92282943Y-33297508D01*
X92281267Y-33294682D01*
X92262448Y-33272944D01*
X92235183Y-33248820D01*
X92207987Y-33229254D01*
X92189371Y-33221188D01*
X92187697Y-33222463D01*
X92183544Y-33239976D01*
X92181881Y-33271485D01*
X92181881Y-33321782D01*
X91969221Y-33321782D01*
X91965526Y-33231095D01*
X91961832Y-33140407D01*
X91886386Y-33125252D01*
X91848551Y-33118379D01*
X91785368Y-33108756D01*
X91726065Y-33101496D01*
X91641188Y-33092893D01*
X91641188Y-33196040D01*
X91062773Y-33196040D01*
X91062773Y-33105122D01*
X90990471Y-33113753D01*
X90879998Y-33132249D01*
X90768816Y-33165691D01*
X90676850Y-33212324D01*
X90602542Y-33272786D01*
X90554698Y-33321782D01*
X90213903Y-33321782D01*
X90212172Y-33315934D01*
X90217474Y-33254575D01*
X90245975Y-33195297D01*
X90248733Y-33191606D01*
X90286822Y-33159851D01*
X90336476Y-33141067D01*
X90390002Y-33136071D01*
X90439707Y-33145678D01*
X90477900Y-33170704D01*
X90490831Y-33183480D01*
X90503428Y-33186576D01*
X90521467Y-33176998D01*
X90551928Y-33153082D01*
X90561274Y-33145731D01*
X90633430Y-33099339D01*
X90718915Y-33058084D01*
X90788830Y-33032575D01*
X91163367Y-33032575D01*
X91163367Y-33095446D01*
X91540594Y-33095446D01*
X91540594Y-33032575D01*
X91163367Y-33032575D01*
X90788830Y-33032575D01*
X90809767Y-33024936D01*
X90898027Y-33002868D01*
X90975736Y-32994852D01*
X90983991Y-32994788D01*
X91029879Y-32990321D01*
X91055079Y-32977795D01*
X91062773Y-32955784D01*
X91063676Y-32948849D01*
X91068615Y-32942885D01*
X91080611Y-32938519D01*
X91102680Y-32935503D01*
X91137836Y-32933590D01*
X91189094Y-32932530D01*
X91259471Y-32932077D01*
X91351980Y-32931980D01*
X91438660Y-32932150D01*
X91512332Y-32932834D01*
X91566265Y-32934215D01*
X91603288Y-32936470D01*
X91626230Y-32939778D01*
X91637920Y-32944320D01*
X91641188Y-32950272D01*
X91651937Y-32964888D01*
X91682055Y-32974215D01*
X91693582Y-32975847D01*
X91732886Y-32981591D01*
X91785188Y-32989378D01*
X91842376Y-32998003D01*
X91873916Y-33002393D01*
X91920074Y-33007148D01*
X91952641Y-33008295D01*
X91966023Y-33005495D01*
X91968308Y-33003671D01*
X91989405Y-32999165D01*
X92027355Y-32996029D01*
X92076048Y-32994852D01*
X92181881Y-32994852D01*
X92181894Y-33032575D01*
X92181894Y-33035718D01*
X92182388Y-33048668D01*
X92188819Y-33070411D01*
X92207123Y-33088851D01*
X92242830Y-33110801D01*
X92274174Y-33130854D01*
X92321893Y-33169356D01*
X92365138Y-33212579D01*
X92398219Y-33254627D01*
X92415442Y-33289604D01*
X92419662Y-33303081D01*
X92427480Y-33312334D01*
X92430116Y-33315454D01*
X92451662Y-33320696D01*
G36*
X93212971Y-38577822D02*
G01*
X89692178Y-38577822D01*
X89692178Y-37710198D01*
X93212971Y-37710198D01*
X93212971Y-38577822D01*
G37*
X93212971Y-38577822D02*
X89692178Y-38577822D01*
X89692178Y-37710198D01*
X93212971Y-37710198D01*
X93212971Y-38577822D01*
G36*
X105765701Y-41550935D02*
G01*
X105764914Y-41621119D01*
X105762210Y-41670022D01*
X105756606Y-41704178D01*
X105747119Y-41730124D01*
X105732768Y-41754397D01*
X105729237Y-41759433D01*
X105691878Y-41799143D01*
X105649311Y-41829092D01*
X105627452Y-41838810D01*
X105548908Y-41855020D01*
X105471231Y-41844535D01*
X105399645Y-41808707D01*
X105339374Y-41748887D01*
X105334286Y-41740873D01*
X105317730Y-41694342D01*
X105306573Y-41629552D01*
X105301160Y-41554727D01*
X105301768Y-41485513D01*
X105448248Y-41485513D01*
X105449402Y-41581399D01*
X105449866Y-41587569D01*
X105456629Y-41640478D01*
X105468671Y-41674029D01*
X105489005Y-41697016D01*
X105523097Y-41718548D01*
X105556814Y-41719680D01*
X105591543Y-41694857D01*
X105597584Y-41688325D01*
X105609417Y-41668779D01*
X105616404Y-41640386D01*
X105619727Y-41596430D01*
X105620571Y-41530192D01*
X105619125Y-41468150D01*
X105611907Y-41409042D01*
X105597006Y-41371686D01*
X105572636Y-41352152D01*
X105537008Y-41346514D01*
X105523440Y-41347635D01*
X105485430Y-41368194D01*
X105460312Y-41414299D01*
X105448248Y-41485513D01*
X105301768Y-41485513D01*
X105301833Y-41478096D01*
X105308937Y-41407882D01*
X105322815Y-41352312D01*
X105340649Y-41315301D01*
X105390855Y-41257733D01*
X105458885Y-41221962D01*
X105542158Y-41209665D01*
X105564398Y-41210331D01*
X105629891Y-41223947D01*
X105683687Y-41258249D01*
X105733057Y-41317338D01*
X105735995Y-41321722D01*
X105749287Y-41345299D01*
X105757932Y-41371949D01*
X105762904Y-41408159D01*
X105765174Y-41460413D01*
X105765678Y-41530192D01*
X105765714Y-41535200D01*
X105765701Y-41550935D01*
G37*
X105765701Y-41550935D02*
X105764914Y-41621119D01*
X105762210Y-41670022D01*
X105756606Y-41704178D01*
X105747119Y-41730124D01*
X105732768Y-41754397D01*
X105729237Y-41759433D01*
X105691878Y-41799143D01*
X105649311Y-41829092D01*
X105627452Y-41838810D01*
X105548908Y-41855020D01*
X105471231Y-41844535D01*
X105399645Y-41808707D01*
X105339374Y-41748887D01*
X105334286Y-41740873D01*
X105317730Y-41694342D01*
X105306573Y-41629552D01*
X105301160Y-41554727D01*
X105301768Y-41485513D01*
X105448248Y-41485513D01*
X105449402Y-41581399D01*
X105449866Y-41587569D01*
X105456629Y-41640478D01*
X105468671Y-41674029D01*
X105489005Y-41697016D01*
X105523097Y-41718548D01*
X105556814Y-41719680D01*
X105591543Y-41694857D01*
X105597584Y-41688325D01*
X105609417Y-41668779D01*
X105616404Y-41640386D01*
X105619727Y-41596430D01*
X105620571Y-41530192D01*
X105619125Y-41468150D01*
X105611907Y-41409042D01*
X105597006Y-41371686D01*
X105572636Y-41352152D01*
X105537008Y-41346514D01*
X105523440Y-41347635D01*
X105485430Y-41368194D01*
X105460312Y-41414299D01*
X105448248Y-41485513D01*
X105301768Y-41485513D01*
X105301833Y-41478096D01*
X105308937Y-41407882D01*
X105322815Y-41352312D01*
X105340649Y-41315301D01*
X105390855Y-41257733D01*
X105458885Y-41221962D01*
X105542158Y-41209665D01*
X105564398Y-41210331D01*
X105629891Y-41223947D01*
X105683687Y-41258249D01*
X105733057Y-41317338D01*
X105735995Y-41321722D01*
X105749287Y-41345299D01*
X105757932Y-41371949D01*
X105762904Y-41408159D01*
X105765174Y-41460413D01*
X105765678Y-41530192D01*
X105765714Y-41535200D01*
X105765701Y-41550935D01*
G36*
X101153941Y-41249282D02*
G01*
X101185774Y-41261758D01*
X101222743Y-41278602D01*
X101222743Y-41765196D01*
X101176812Y-41811127D01*
X101166320Y-41821427D01*
X101137255Y-41844320D01*
X101107943Y-41851735D01*
X101064326Y-41848321D01*
X101046568Y-41846114D01*
X101000767Y-41841445D01*
X100968743Y-41839585D01*
X100959244Y-41839869D01*
X100920274Y-41842948D01*
X100873160Y-41848321D01*
X100858085Y-41850168D01*
X100820110Y-41850893D01*
X100792325Y-41839429D01*
X100760674Y-41811127D01*
X100714743Y-41765196D01*
X100714743Y-41505055D01*
X100715101Y-41428180D01*
X100716216Y-41354886D01*
X100717952Y-41296850D01*
X100720167Y-41258663D01*
X100722721Y-41244914D01*
X100723256Y-41244951D01*
X100741808Y-41251793D01*
X100773153Y-41266868D01*
X100815608Y-41288822D01*
X100819604Y-41517240D01*
X100823600Y-41745657D01*
X100910686Y-41745657D01*
X100914657Y-41495286D01*
X100915916Y-41427227D01*
X100917718Y-41354482D01*
X100919671Y-41296730D01*
X100921612Y-41258648D01*
X100923377Y-41244914D01*
X100923885Y-41244962D01*
X100941482Y-41250015D01*
X100973834Y-41260849D01*
X101019543Y-41276783D01*
X101019765Y-41496706D01*
X101019988Y-41534909D01*
X101021531Y-41609146D01*
X101024292Y-41671145D01*
X101027977Y-41715308D01*
X101032292Y-41736041D01*
X101047732Y-41747131D01*
X101079241Y-41750556D01*
X101113886Y-41745657D01*
X101117857Y-41495286D01*
X101119278Y-41431663D01*
X101122225Y-41356356D01*
X101126079Y-41297286D01*
X101130542Y-41258718D01*
X101135317Y-41244914D01*
X101153941Y-41249282D01*
G37*
X101153941Y-41249282D02*
X101185774Y-41261758D01*
X101222743Y-41278602D01*
X101222743Y-41765196D01*
X101176812Y-41811127D01*
X101166320Y-41821427D01*
X101137255Y-41844320D01*
X101107943Y-41851735D01*
X101064326Y-41848321D01*
X101046568Y-41846114D01*
X101000767Y-41841445D01*
X100968743Y-41839585D01*
X100959244Y-41839869D01*
X100920274Y-41842948D01*
X100873160Y-41848321D01*
X100858085Y-41850168D01*
X100820110Y-41850893D01*
X100792325Y-41839429D01*
X100760674Y-41811127D01*
X100714743Y-41765196D01*
X100714743Y-41505055D01*
X100715101Y-41428180D01*
X100716216Y-41354886D01*
X100717952Y-41296850D01*
X100720167Y-41258663D01*
X100722721Y-41244914D01*
X100723256Y-41244951D01*
X100741808Y-41251793D01*
X100773153Y-41266868D01*
X100815608Y-41288822D01*
X100819604Y-41517240D01*
X100823600Y-41745657D01*
X100910686Y-41745657D01*
X100914657Y-41495286D01*
X100915916Y-41427227D01*
X100917718Y-41354482D01*
X100919671Y-41296730D01*
X100921612Y-41258648D01*
X100923377Y-41244914D01*
X100923885Y-41244962D01*
X100941482Y-41250015D01*
X100973834Y-41260849D01*
X101019543Y-41276783D01*
X101019765Y-41496706D01*
X101019988Y-41534909D01*
X101021531Y-41609146D01*
X101024292Y-41671145D01*
X101027977Y-41715308D01*
X101032292Y-41736041D01*
X101047732Y-41747131D01*
X101079241Y-41750556D01*
X101113886Y-41745657D01*
X101117857Y-41495286D01*
X101119278Y-41431663D01*
X101122225Y-41356356D01*
X101126079Y-41297286D01*
X101130542Y-41258718D01*
X101135317Y-41244914D01*
X101153941Y-41249282D01*
G36*
X101729537Y-41606313D02*
G01*
X101721345Y-41683462D01*
X101703519Y-41741276D01*
X101673975Y-41785422D01*
X101630625Y-41821568D01*
X101589332Y-41842463D01*
X101519987Y-41854090D01*
X101450736Y-41841377D01*
X101388145Y-41805945D01*
X101338779Y-41749418D01*
X101332818Y-41738995D01*
X101324945Y-41720733D01*
X101319106Y-41697429D01*
X101314999Y-41665085D01*
X101312325Y-41619704D01*
X101310781Y-41557287D01*
X101310734Y-41551748D01*
X101411429Y-41551748D01*
X101411772Y-41604577D01*
X101413942Y-41652362D01*
X101419307Y-41683209D01*
X101429217Y-41703935D01*
X101445021Y-41721356D01*
X101448724Y-41724705D01*
X101496299Y-41749419D01*
X101546635Y-41746890D01*
X101593517Y-41717288D01*
X101607477Y-41701953D01*
X101619160Y-41681622D01*
X101625686Y-41653514D01*
X101628524Y-41610550D01*
X101629143Y-41545647D01*
X101628837Y-41496122D01*
X101626722Y-41447782D01*
X101621390Y-41416587D01*
X101611460Y-41395647D01*
X101595550Y-41378073D01*
X101586204Y-41370159D01*
X101537776Y-41348843D01*
X101487040Y-41352198D01*
X101442987Y-41380107D01*
X101433504Y-41391173D01*
X101421939Y-41412009D01*
X101415252Y-41441106D01*
X101412173Y-41485381D01*
X101411429Y-41551748D01*
X101310734Y-41551748D01*
X101310067Y-41473837D01*
X101309883Y-41365358D01*
X101309829Y-41028601D01*
X101357000Y-41048362D01*
X101369472Y-41053770D01*
X101389324Y-41065985D01*
X101400687Y-41084482D01*
X101406933Y-41116829D01*
X101411429Y-41170593D01*
X101415535Y-41218866D01*
X101420963Y-41250557D01*
X101428739Y-41262383D01*
X101440457Y-41259212D01*
X101470318Y-41248067D01*
X101523684Y-41245304D01*
X101581093Y-41255625D01*
X101630625Y-41277861D01*
X101657876Y-41298443D01*
X101692865Y-41338600D01*
X101715274Y-41390086D01*
X101727190Y-41458568D01*
X101730542Y-41545647D01*
X101730698Y-41549714D01*
X101729537Y-41606313D01*
G37*
X101729537Y-41606313D02*
X101721345Y-41683462D01*
X101703519Y-41741276D01*
X101673975Y-41785422D01*
X101630625Y-41821568D01*
X101589332Y-41842463D01*
X101519987Y-41854090D01*
X101450736Y-41841377D01*
X101388145Y-41805945D01*
X101338779Y-41749418D01*
X101332818Y-41738995D01*
X101324945Y-41720733D01*
X101319106Y-41697429D01*
X101314999Y-41665085D01*
X101312325Y-41619704D01*
X101310781Y-41557287D01*
X101310734Y-41551748D01*
X101411429Y-41551748D01*
X101411772Y-41604577D01*
X101413942Y-41652362D01*
X101419307Y-41683209D01*
X101429217Y-41703935D01*
X101445021Y-41721356D01*
X101448724Y-41724705D01*
X101496299Y-41749419D01*
X101546635Y-41746890D01*
X101593517Y-41717288D01*
X101607477Y-41701953D01*
X101619160Y-41681622D01*
X101625686Y-41653514D01*
X101628524Y-41610550D01*
X101629143Y-41545647D01*
X101628837Y-41496122D01*
X101626722Y-41447782D01*
X101621390Y-41416587D01*
X101611460Y-41395647D01*
X101595550Y-41378073D01*
X101586204Y-41370159D01*
X101537776Y-41348843D01*
X101487040Y-41352198D01*
X101442987Y-41380107D01*
X101433504Y-41391173D01*
X101421939Y-41412009D01*
X101415252Y-41441106D01*
X101412173Y-41485381D01*
X101411429Y-41551748D01*
X101310734Y-41551748D01*
X101310067Y-41473837D01*
X101309883Y-41365358D01*
X101309829Y-41028601D01*
X101357000Y-41048362D01*
X101369472Y-41053770D01*
X101389324Y-41065985D01*
X101400687Y-41084482D01*
X101406933Y-41116829D01*
X101411429Y-41170593D01*
X101415535Y-41218866D01*
X101420963Y-41250557D01*
X101428739Y-41262383D01*
X101440457Y-41259212D01*
X101470318Y-41248067D01*
X101523684Y-41245304D01*
X101581093Y-41255625D01*
X101630625Y-41277861D01*
X101657876Y-41298443D01*
X101692865Y-41338600D01*
X101715274Y-41390086D01*
X101727190Y-41458568D01*
X101730542Y-41545647D01*
X101730698Y-41549714D01*
X101729537Y-41606313D01*
G36*
X99640307Y-41591305D02*
G01*
X99636762Y-41667521D01*
X99627483Y-41723294D01*
X99610375Y-41764613D01*
X99583344Y-41797467D01*
X99544292Y-41827846D01*
X99519445Y-41841660D01*
X99479615Y-41850965D01*
X99423665Y-41850230D01*
X99392385Y-41847283D01*
X99354653Y-41838283D01*
X99324494Y-41818720D01*
X99289408Y-41782267D01*
X99284720Y-41776943D01*
X99253177Y-41735969D01*
X99238128Y-41700283D01*
X99234286Y-41657966D01*
X99234286Y-41595779D01*
X99277742Y-41612182D01*
X99309424Y-41631356D01*
X99336962Y-41676347D01*
X99342711Y-41690752D01*
X99374855Y-41731546D01*
X99418611Y-41752081D01*
X99466254Y-41750235D01*
X99510057Y-41723886D01*
X99525111Y-41707455D01*
X99538763Y-41682667D01*
X99534493Y-41660144D01*
X99509916Y-41636964D01*
X99462651Y-41610202D01*
X99390314Y-41576934D01*
X99241543Y-41511816D01*
X99237595Y-41447308D01*
X99239079Y-41406220D01*
X99336010Y-41406220D01*
X99343368Y-41431657D01*
X99376848Y-41458814D01*
X99437614Y-41489714D01*
X99447669Y-41494190D01*
X99495751Y-41515017D01*
X99531726Y-41529665D01*
X99548444Y-41535200D01*
X99550977Y-41531126D01*
X99551993Y-41506247D01*
X99548369Y-41466257D01*
X99539242Y-41427152D01*
X99510773Y-41377884D01*
X99469678Y-41350122D01*
X99420590Y-41346364D01*
X99368144Y-41369109D01*
X99353609Y-41380481D01*
X99336010Y-41406220D01*
X99239079Y-41406220D01*
X99239338Y-41399064D01*
X99261281Y-41338096D01*
X99288979Y-41304497D01*
X99346405Y-41266966D01*
X99414527Y-41248006D01*
X99484947Y-41249507D01*
X99549267Y-41273355D01*
X99563426Y-41282513D01*
X99595904Y-41310849D01*
X99618116Y-41346695D01*
X99631804Y-41395384D01*
X99638715Y-41462249D01*
X99639628Y-41506247D01*
X99640590Y-41552622D01*
X99640307Y-41591305D01*
G37*
X99640307Y-41591305D02*
X99636762Y-41667521D01*
X99627483Y-41723294D01*
X99610375Y-41764613D01*
X99583344Y-41797467D01*
X99544292Y-41827846D01*
X99519445Y-41841660D01*
X99479615Y-41850965D01*
X99423665Y-41850230D01*
X99392385Y-41847283D01*
X99354653Y-41838283D01*
X99324494Y-41818720D01*
X99289408Y-41782267D01*
X99284720Y-41776943D01*
X99253177Y-41735969D01*
X99238128Y-41700283D01*
X99234286Y-41657966D01*
X99234286Y-41595779D01*
X99277742Y-41612182D01*
X99309424Y-41631356D01*
X99336962Y-41676347D01*
X99342711Y-41690752D01*
X99374855Y-41731546D01*
X99418611Y-41752081D01*
X99466254Y-41750235D01*
X99510057Y-41723886D01*
X99525111Y-41707455D01*
X99538763Y-41682667D01*
X99534493Y-41660144D01*
X99509916Y-41636964D01*
X99462651Y-41610202D01*
X99390314Y-41576934D01*
X99241543Y-41511816D01*
X99237595Y-41447308D01*
X99239079Y-41406220D01*
X99336010Y-41406220D01*
X99343368Y-41431657D01*
X99376848Y-41458814D01*
X99437614Y-41489714D01*
X99447669Y-41494190D01*
X99495751Y-41515017D01*
X99531726Y-41529665D01*
X99548444Y-41535200D01*
X99550977Y-41531126D01*
X99551993Y-41506247D01*
X99548369Y-41466257D01*
X99539242Y-41427152D01*
X99510773Y-41377884D01*
X99469678Y-41350122D01*
X99420590Y-41346364D01*
X99368144Y-41369109D01*
X99353609Y-41380481D01*
X99336010Y-41406220D01*
X99239079Y-41406220D01*
X99239338Y-41399064D01*
X99261281Y-41338096D01*
X99288979Y-41304497D01*
X99346405Y-41266966D01*
X99414527Y-41248006D01*
X99484947Y-41249507D01*
X99549267Y-41273355D01*
X99563426Y-41282513D01*
X99595904Y-41310849D01*
X99618116Y-41346695D01*
X99631804Y-41395384D01*
X99638715Y-41462249D01*
X99639628Y-41506247D01*
X99640590Y-41552622D01*
X99640307Y-41591305D01*
G36*
X104657684Y-41604078D02*
G01*
X104655078Y-41627387D01*
X104635660Y-41710352D01*
X104600573Y-41773448D01*
X104547212Y-41821808D01*
X104544196Y-41823804D01*
X104476362Y-41852185D01*
X104405535Y-41854711D01*
X104337289Y-41833097D01*
X104277196Y-41789062D01*
X104230829Y-41724322D01*
X104230050Y-41722761D01*
X104214643Y-41682558D01*
X104203357Y-41636866D01*
X104197370Y-41593972D01*
X104197861Y-41562160D01*
X104206007Y-41549714D01*
X104213244Y-41550471D01*
X104247851Y-41564235D01*
X104287078Y-41589546D01*
X104320448Y-41618845D01*
X104337483Y-41644572D01*
X104355192Y-41679471D01*
X104391485Y-41711212D01*
X104433630Y-41723886D01*
X104449077Y-41720221D01*
X104479569Y-41701774D01*
X104506128Y-41676166D01*
X104517486Y-41652934D01*
X104517482Y-41652848D01*
X104504596Y-41642179D01*
X104470241Y-41622933D01*
X104419593Y-41597813D01*
X104357829Y-41569524D01*
X104357489Y-41569374D01*
X104290388Y-41539498D01*
X104245411Y-41517973D01*
X104218145Y-41501437D01*
X104204178Y-41486531D01*
X104199097Y-41469893D01*
X104198490Y-41448162D01*
X104202712Y-41407013D01*
X104346000Y-41407013D01*
X104360791Y-41419949D01*
X104397644Y-41439333D01*
X104398725Y-41439881D01*
X104442205Y-41460587D01*
X104481102Y-41477105D01*
X104505778Y-41484093D01*
X104515676Y-41474753D01*
X104517486Y-41442748D01*
X104509966Y-41402915D01*
X104483897Y-41366717D01*
X104446154Y-41347950D01*
X104404077Y-41349845D01*
X104365005Y-41375632D01*
X104349647Y-41393451D01*
X104346000Y-41407013D01*
X104202712Y-41407013D01*
X104203833Y-41396086D01*
X104230251Y-41325335D01*
X104274473Y-41269735D01*
X104331697Y-41231239D01*
X104397120Y-41211797D01*
X104465937Y-41213359D01*
X104533347Y-41237878D01*
X104594544Y-41287302D01*
X104628450Y-41336212D01*
X104652806Y-41406027D01*
X104656767Y-41442748D01*
X104662299Y-41494055D01*
X104657684Y-41604078D01*
G37*
X104657684Y-41604078D02*
X104655078Y-41627387D01*
X104635660Y-41710352D01*
X104600573Y-41773448D01*
X104547212Y-41821808D01*
X104544196Y-41823804D01*
X104476362Y-41852185D01*
X104405535Y-41854711D01*
X104337289Y-41833097D01*
X104277196Y-41789062D01*
X104230829Y-41724322D01*
X104230050Y-41722761D01*
X104214643Y-41682558D01*
X104203357Y-41636866D01*
X104197370Y-41593972D01*
X104197861Y-41562160D01*
X104206007Y-41549714D01*
X104213244Y-41550471D01*
X104247851Y-41564235D01*
X104287078Y-41589546D01*
X104320448Y-41618845D01*
X104337483Y-41644572D01*
X104355192Y-41679471D01*
X104391485Y-41711212D01*
X104433630Y-41723886D01*
X104449077Y-41720221D01*
X104479569Y-41701774D01*
X104506128Y-41676166D01*
X104517486Y-41652934D01*
X104517482Y-41652848D01*
X104504596Y-41642179D01*
X104470241Y-41622933D01*
X104419593Y-41597813D01*
X104357829Y-41569524D01*
X104357489Y-41569374D01*
X104290388Y-41539498D01*
X104245411Y-41517973D01*
X104218145Y-41501437D01*
X104204178Y-41486531D01*
X104199097Y-41469893D01*
X104198490Y-41448162D01*
X104202712Y-41407013D01*
X104346000Y-41407013D01*
X104360791Y-41419949D01*
X104397644Y-41439333D01*
X104398725Y-41439881D01*
X104442205Y-41460587D01*
X104481102Y-41477105D01*
X104505778Y-41484093D01*
X104515676Y-41474753D01*
X104517486Y-41442748D01*
X104509966Y-41402915D01*
X104483897Y-41366717D01*
X104446154Y-41347950D01*
X104404077Y-41349845D01*
X104365005Y-41375632D01*
X104349647Y-41393451D01*
X104346000Y-41407013D01*
X104202712Y-41407013D01*
X104203833Y-41396086D01*
X104230251Y-41325335D01*
X104274473Y-41269735D01*
X104331697Y-41231239D01*
X104397120Y-41211797D01*
X104465937Y-41213359D01*
X104533347Y-41237878D01*
X104594544Y-41287302D01*
X104628450Y-41336212D01*
X104652806Y-41406027D01*
X104656767Y-41442748D01*
X104662299Y-41494055D01*
X104657684Y-41604078D01*
G36*
X102589483Y-41260569D02*
G01*
X102639376Y-41289661D01*
X102661325Y-41312327D01*
X102703504Y-41380082D01*
X102717714Y-41453950D01*
X102717714Y-41504770D01*
X102670999Y-41485128D01*
X102638692Y-41465308D01*
X102613231Y-41424160D01*
X102610616Y-41415675D01*
X102582478Y-41372451D01*
X102540067Y-41349103D01*
X102491370Y-41348100D01*
X102444373Y-41371914D01*
X102437357Y-41378056D01*
X102413893Y-41404745D01*
X102410019Y-41428014D01*
X102427768Y-41450862D01*
X102469179Y-41476287D01*
X102536286Y-41507288D01*
X102540824Y-41509252D01*
X102615322Y-41543990D01*
X102666203Y-41574763D01*
X102697525Y-41605488D01*
X102713343Y-41640082D01*
X102717714Y-41682462D01*
X102711986Y-41729446D01*
X102683062Y-41789585D01*
X102632178Y-41832788D01*
X102595374Y-41845759D01*
X102543434Y-41852856D01*
X102492999Y-41851340D01*
X102456983Y-41840632D01*
X102453158Y-41837966D01*
X102442998Y-41819337D01*
X102450048Y-41786505D01*
X102462297Y-41760735D01*
X102481939Y-41750006D01*
X102519191Y-41750539D01*
X102570908Y-41747462D01*
X102604701Y-41726212D01*
X102616114Y-41686877D01*
X102616104Y-41685747D01*
X102609187Y-41662913D01*
X102585659Y-41641963D01*
X102539914Y-41617815D01*
X102477704Y-41588741D01*
X102436499Y-41572925D01*
X102412712Y-41573944D01*
X102401597Y-41594837D01*
X102398408Y-41638641D01*
X102398400Y-41708393D01*
X102398044Y-41751452D01*
X102396413Y-41804626D01*
X102393761Y-41841022D01*
X102390422Y-41854514D01*
X102389530Y-41854423D01*
X102370237Y-41847110D01*
X102338284Y-41831678D01*
X102294124Y-41808842D01*
X102299371Y-41603078D01*
X102299736Y-41589432D01*
X102303904Y-41493651D01*
X102311268Y-41421462D01*
X102323330Y-41368058D01*
X102341593Y-41328633D01*
X102367560Y-41298380D01*
X102402733Y-41272493D01*
X102403384Y-41272087D01*
X102460256Y-41250968D01*
X102526033Y-41247400D01*
X102589483Y-41260569D01*
G37*
X102589483Y-41260569D02*
X102639376Y-41289661D01*
X102661325Y-41312327D01*
X102703504Y-41380082D01*
X102717714Y-41453950D01*
X102717714Y-41504770D01*
X102670999Y-41485128D01*
X102638692Y-41465308D01*
X102613231Y-41424160D01*
X102610616Y-41415675D01*
X102582478Y-41372451D01*
X102540067Y-41349103D01*
X102491370Y-41348100D01*
X102444373Y-41371914D01*
X102437357Y-41378056D01*
X102413893Y-41404745D01*
X102410019Y-41428014D01*
X102427768Y-41450862D01*
X102469179Y-41476287D01*
X102536286Y-41507288D01*
X102540824Y-41509252D01*
X102615322Y-41543990D01*
X102666203Y-41574763D01*
X102697525Y-41605488D01*
X102713343Y-41640082D01*
X102717714Y-41682462D01*
X102711986Y-41729446D01*
X102683062Y-41789585D01*
X102632178Y-41832788D01*
X102595374Y-41845759D01*
X102543434Y-41852856D01*
X102492999Y-41851340D01*
X102456983Y-41840632D01*
X102453158Y-41837966D01*
X102442998Y-41819337D01*
X102450048Y-41786505D01*
X102462297Y-41760735D01*
X102481939Y-41750006D01*
X102519191Y-41750539D01*
X102570908Y-41747462D01*
X102604701Y-41726212D01*
X102616114Y-41686877D01*
X102616104Y-41685747D01*
X102609187Y-41662913D01*
X102585659Y-41641963D01*
X102539914Y-41617815D01*
X102477704Y-41588741D01*
X102436499Y-41572925D01*
X102412712Y-41573944D01*
X102401597Y-41594837D01*
X102398408Y-41638641D01*
X102398400Y-41708393D01*
X102398044Y-41751452D01*
X102396413Y-41804626D01*
X102393761Y-41841022D01*
X102390422Y-41854514D01*
X102389530Y-41854423D01*
X102370237Y-41847110D01*
X102338284Y-41831678D01*
X102294124Y-41808842D01*
X102299371Y-41603078D01*
X102299736Y-41589432D01*
X102303904Y-41493651D01*
X102311268Y-41421462D01*
X102323330Y-41368058D01*
X102341593Y-41328633D01*
X102367560Y-41298380D01*
X102402733Y-41272493D01*
X102403384Y-41272087D01*
X102460256Y-41250968D01*
X102526033Y-41247400D01*
X102589483Y-41260569D01*
G36*
X102107691Y-41266467D02*
G01*
X102112273Y-41269003D01*
X102149704Y-41298057D01*
X102183170Y-41335410D01*
X102189007Y-41343852D01*
X102200165Y-41363553D01*
X102208136Y-41386935D01*
X102213618Y-41419067D01*
X102217307Y-41465019D01*
X102219899Y-41529859D01*
X102222092Y-41618657D01*
X102222402Y-41633669D01*
X102223400Y-41730999D01*
X102221994Y-41799934D01*
X102218164Y-41840948D01*
X102211889Y-41854514D01*
X102192898Y-41850452D01*
X102160638Y-41838144D01*
X102153041Y-41834545D01*
X102141176Y-41826398D01*
X102132994Y-41813004D01*
X102127643Y-41789608D01*
X102124269Y-41751455D01*
X102122019Y-41693790D01*
X102120040Y-41611857D01*
X102119498Y-41587907D01*
X102117403Y-41512266D01*
X102114683Y-41459328D01*
X102110515Y-41424075D01*
X102104079Y-41401487D01*
X102094550Y-41386544D01*
X102081106Y-41374227D01*
X102041305Y-41352634D01*
X101992341Y-41348476D01*
X101948529Y-41364999D01*
X101917008Y-41399210D01*
X101904914Y-41448114D01*
X101904578Y-41461407D01*
X101897972Y-41485472D01*
X101878470Y-41489144D01*
X101840283Y-41474813D01*
X101831438Y-41470217D01*
X101807534Y-41443186D01*
X101807061Y-41402994D01*
X101829836Y-41347409D01*
X101850727Y-41317117D01*
X101904142Y-41274084D01*
X101970074Y-41249755D01*
X102040574Y-41246443D01*
X102107691Y-41266467D01*
G37*
X102107691Y-41266467D02*
X102112273Y-41269003D01*
X102149704Y-41298057D01*
X102183170Y-41335410D01*
X102189007Y-41343852D01*
X102200165Y-41363553D01*
X102208136Y-41386935D01*
X102213618Y-41419067D01*
X102217307Y-41465019D01*
X102219899Y-41529859D01*
X102222092Y-41618657D01*
X102222402Y-41633669D01*
X102223400Y-41730999D01*
X102221994Y-41799934D01*
X102218164Y-41840948D01*
X102211889Y-41854514D01*
X102192898Y-41850452D01*
X102160638Y-41838144D01*
X102153041Y-41834545D01*
X102141176Y-41826398D01*
X102132994Y-41813004D01*
X102127643Y-41789608D01*
X102124269Y-41751455D01*
X102122019Y-41693790D01*
X102120040Y-41611857D01*
X102119498Y-41587907D01*
X102117403Y-41512266D01*
X102114683Y-41459328D01*
X102110515Y-41424075D01*
X102104079Y-41401487D01*
X102094550Y-41386544D01*
X102081106Y-41374227D01*
X102041305Y-41352634D01*
X101992341Y-41348476D01*
X101948529Y-41364999D01*
X101917008Y-41399210D01*
X101904914Y-41448114D01*
X101904578Y-41461407D01*
X101897972Y-41485472D01*
X101878470Y-41489144D01*
X101840283Y-41474813D01*
X101831438Y-41470217D01*
X101807534Y-41443186D01*
X101807061Y-41402994D01*
X101829836Y-41347409D01*
X101850727Y-41317117D01*
X101904142Y-41274084D01*
X101970074Y-41249755D01*
X102040574Y-41246443D01*
X102107691Y-41266467D01*
G36*
X99982829Y-41251097D02*
G01*
X100042753Y-41273355D01*
X100067673Y-41290080D01*
X100092910Y-41314043D01*
X100110912Y-41344526D01*
X100122858Y-41386023D01*
X100129930Y-41443032D01*
X100133308Y-41520047D01*
X100134171Y-41621565D01*
X100134002Y-41674027D01*
X100133153Y-41745715D01*
X100131711Y-41802925D01*
X100129814Y-41840809D01*
X100127597Y-41854514D01*
X100113172Y-41849981D01*
X100084054Y-41837670D01*
X100083181Y-41837272D01*
X100068060Y-41829356D01*
X100057891Y-41818495D01*
X100051691Y-41799471D01*
X100048478Y-41767069D01*
X100047270Y-41716071D01*
X100047086Y-41641261D01*
X100046714Y-41593804D01*
X100042750Y-41504615D01*
X100033673Y-41439287D01*
X100018524Y-41394393D01*
X99996345Y-41366507D01*
X99966175Y-41352203D01*
X99961990Y-41351206D01*
X99905480Y-41350427D01*
X99861410Y-41375744D01*
X99830972Y-41426502D01*
X99825544Y-41441175D01*
X99813171Y-41473649D01*
X99806905Y-41488572D01*
X99794036Y-41486516D01*
X99765933Y-41475357D01*
X99739721Y-41456927D01*
X99727771Y-41422098D01*
X99731336Y-41397151D01*
X99753235Y-41346547D01*
X99788644Y-41299128D01*
X99830052Y-41266334D01*
X99847400Y-41258752D01*
X99913089Y-41246076D01*
X99982829Y-41251097D01*
G37*
X99982829Y-41251097D02*
X100042753Y-41273355D01*
X100067673Y-41290080D01*
X100092910Y-41314043D01*
X100110912Y-41344526D01*
X100122858Y-41386023D01*
X100129930Y-41443032D01*
X100133308Y-41520047D01*
X100134171Y-41621565D01*
X100134002Y-41674027D01*
X100133153Y-41745715D01*
X100131711Y-41802925D01*
X100129814Y-41840809D01*
X100127597Y-41854514D01*
X100113172Y-41849981D01*
X100084054Y-41837670D01*
X100083181Y-41837272D01*
X100068060Y-41829356D01*
X100057891Y-41818495D01*
X100051691Y-41799471D01*
X100048478Y-41767069D01*
X100047270Y-41716071D01*
X100047086Y-41641261D01*
X100046714Y-41593804D01*
X100042750Y-41504615D01*
X100033673Y-41439287D01*
X100018524Y-41394393D01*
X99996345Y-41366507D01*
X99966175Y-41352203D01*
X99961990Y-41351206D01*
X99905480Y-41350427D01*
X99861410Y-41375744D01*
X99830972Y-41426502D01*
X99825544Y-41441175D01*
X99813171Y-41473649D01*
X99806905Y-41488572D01*
X99794036Y-41486516D01*
X99765933Y-41475357D01*
X99739721Y-41456927D01*
X99727771Y-41422098D01*
X99731336Y-41397151D01*
X99753235Y-41346547D01*
X99788644Y-41299128D01*
X99830052Y-41266334D01*
X99847400Y-41258752D01*
X99913089Y-41246076D01*
X99982829Y-41251097D01*
G36*
X105211252Y-41713000D02*
G01*
X105211651Y-41745339D01*
X105212929Y-41853455D01*
X105213185Y-41936186D01*
X105211634Y-41996426D01*
X105207490Y-42037073D01*
X105199964Y-42061023D01*
X105188271Y-42071171D01*
X105171624Y-42070414D01*
X105149236Y-42061648D01*
X105120321Y-42047769D01*
X105114142Y-42044808D01*
X105088413Y-42030311D01*
X105074976Y-42013065D01*
X105069834Y-41984308D01*
X105068990Y-41935283D01*
X105068952Y-41847257D01*
X104978276Y-41847257D01*
X104922498Y-41844815D01*
X104878640Y-41834908D01*
X104842218Y-41814886D01*
X104839503Y-41812929D01*
X104802546Y-41779869D01*
X104776826Y-41739931D01*
X104760606Y-41687657D01*
X104752148Y-41617588D01*
X104750083Y-41538430D01*
X104894857Y-41538430D01*
X104894882Y-41551697D01*
X104896261Y-41611584D01*
X104900687Y-41650732D01*
X104909461Y-41676153D01*
X104923886Y-41694857D01*
X104924784Y-41695750D01*
X104960237Y-41719952D01*
X104994596Y-41717567D01*
X105033403Y-41688260D01*
X105042895Y-41678244D01*
X105056876Y-41657708D01*
X105064760Y-41630997D01*
X105068245Y-41590499D01*
X105069029Y-41528603D01*
X105068350Y-41491130D01*
X105060983Y-41422980D01*
X105044168Y-41378330D01*
X105016234Y-41353926D01*
X104975509Y-41346514D01*
X104958350Y-41348094D01*
X104928660Y-41363766D01*
X104909031Y-41398691D01*
X104898188Y-41455901D01*
X104894857Y-41538430D01*
X104750083Y-41538430D01*
X104749714Y-41524267D01*
X104750253Y-41456169D01*
X104752707Y-41404587D01*
X104758158Y-41368816D01*
X104767686Y-41342015D01*
X104782371Y-41317338D01*
X104795852Y-41298480D01*
X104844799Y-41247568D01*
X104900256Y-41219918D01*
X104969928Y-41211165D01*
X105049664Y-41219890D01*
X105118595Y-41251185D01*
X105173113Y-41306381D01*
X105177223Y-41312224D01*
X105186808Y-41327753D01*
X105194151Y-41345498D01*
X105199612Y-41369290D01*
X105203550Y-41402958D01*
X105206323Y-41450333D01*
X105208292Y-41515245D01*
X105208528Y-41528603D01*
X105209815Y-41601524D01*
X105211252Y-41713000D01*
G37*
X105211252Y-41713000D02*
X105211651Y-41745339D01*
X105212929Y-41853455D01*
X105213185Y-41936186D01*
X105211634Y-41996426D01*
X105207490Y-42037073D01*
X105199964Y-42061023D01*
X105188271Y-42071171D01*
X105171624Y-42070414D01*
X105149236Y-42061648D01*
X105120321Y-42047769D01*
X105114142Y-42044808D01*
X105088413Y-42030311D01*
X105074976Y-42013065D01*
X105069834Y-41984308D01*
X105068990Y-41935283D01*
X105068952Y-41847257D01*
X104978276Y-41847257D01*
X104922498Y-41844815D01*
X104878640Y-41834908D01*
X104842218Y-41814886D01*
X104839503Y-41812929D01*
X104802546Y-41779869D01*
X104776826Y-41739931D01*
X104760606Y-41687657D01*
X104752148Y-41617588D01*
X104750083Y-41538430D01*
X104894857Y-41538430D01*
X104894882Y-41551697D01*
X104896261Y-41611584D01*
X104900687Y-41650732D01*
X104909461Y-41676153D01*
X104923886Y-41694857D01*
X104924784Y-41695750D01*
X104960237Y-41719952D01*
X104994596Y-41717567D01*
X105033403Y-41688260D01*
X105042895Y-41678244D01*
X105056876Y-41657708D01*
X105064760Y-41630997D01*
X105068245Y-41590499D01*
X105069029Y-41528603D01*
X105068350Y-41491130D01*
X105060983Y-41422980D01*
X105044168Y-41378330D01*
X105016234Y-41353926D01*
X104975509Y-41346514D01*
X104958350Y-41348094D01*
X104928660Y-41363766D01*
X104909031Y-41398691D01*
X104898188Y-41455901D01*
X104894857Y-41538430D01*
X104750083Y-41538430D01*
X104749714Y-41524267D01*
X104750253Y-41456169D01*
X104752707Y-41404587D01*
X104758158Y-41368816D01*
X104767686Y-41342015D01*
X104782371Y-41317338D01*
X104795852Y-41298480D01*
X104844799Y-41247568D01*
X104900256Y-41219918D01*
X104969928Y-41211165D01*
X105049664Y-41219890D01*
X105118595Y-41251185D01*
X105173113Y-41306381D01*
X105177223Y-41312224D01*
X105186808Y-41327753D01*
X105194151Y-41345498D01*
X105199612Y-41369290D01*
X105203550Y-41402958D01*
X105206323Y-41450333D01*
X105208292Y-41515245D01*
X105208528Y-41528603D01*
X105209815Y-41601524D01*
X105211252Y-41713000D01*
G36*
X102613933Y-36542371D02*
G01*
X102689856Y-36542865D01*
X102744491Y-36544135D01*
X102781500Y-36546547D01*
X102804547Y-36550467D01*
X102817296Y-36556262D01*
X102823411Y-36564299D01*
X102826556Y-36574943D01*
X102826646Y-36575325D01*
X102831814Y-36600347D01*
X102841209Y-36648681D01*
X102853867Y-36715260D01*
X102868825Y-36795014D01*
X102885119Y-36882875D01*
X102886448Y-36890064D01*
X102902691Y-36975340D01*
X102917805Y-37050242D01*
X102930808Y-37110219D01*
X102940715Y-37150717D01*
X102946544Y-37167184D01*
X102946575Y-37167210D01*
X102964943Y-37176320D01*
X103002640Y-37191457D01*
X103051543Y-37209358D01*
X103054297Y-37210330D01*
X103116817Y-37233959D01*
X103189543Y-37263595D01*
X103257294Y-37293062D01*
X103368703Y-37343626D01*
X103615399Y-37175160D01*
X103632775Y-37163311D01*
X103707202Y-37112947D01*
X103773614Y-37068612D01*
X103828039Y-37032916D01*
X103866506Y-37008471D01*
X103885042Y-36997889D01*
X103897743Y-37000315D01*
X103926579Y-37019110D01*
X103971143Y-37056330D01*
X104032670Y-37113020D01*
X104112398Y-37190227D01*
X104119532Y-37197255D01*
X104182796Y-37260222D01*
X104238990Y-37317268D01*
X104284677Y-37364817D01*
X104316414Y-37399297D01*
X104330764Y-37417131D01*
X104330810Y-37417217D01*
X104332633Y-37430795D01*
X104325910Y-37452820D01*
X104308946Y-37486304D01*
X104280044Y-37534261D01*
X104237508Y-37599704D01*
X104179644Y-37685645D01*
X104169783Y-37700151D01*
X104119913Y-37773635D01*
X104075905Y-37838687D01*
X104040380Y-37891417D01*
X104015959Y-37927936D01*
X104005264Y-37944356D01*
X104004458Y-37947834D01*
X104009518Y-37973785D01*
X104024677Y-38016159D01*
X104047463Y-38067728D01*
X104078429Y-38135170D01*
X104113004Y-38215195D01*
X104142366Y-38287629D01*
X104149645Y-38306377D01*
X104168710Y-38354246D01*
X104182715Y-38387596D01*
X104189041Y-38400114D01*
X104196025Y-38401050D01*
X104227413Y-38406461D01*
X104278787Y-38415806D01*
X104344802Y-38428069D01*
X104420113Y-38442232D01*
X104499375Y-38457280D01*
X104577243Y-38472195D01*
X104648370Y-38485961D01*
X104707412Y-38497562D01*
X104749022Y-38505980D01*
X104767857Y-38510199D01*
X104770980Y-38511389D01*
X104778591Y-38517805D01*
X104784254Y-38531465D01*
X104788251Y-38555999D01*
X104790866Y-38595038D01*
X104792384Y-38652213D01*
X104793086Y-38731154D01*
X104793257Y-38835492D01*
X104793257Y-39152799D01*
X104717057Y-39167839D01*
X104707840Y-39169642D01*
X104658891Y-39178980D01*
X104591205Y-39191669D01*
X104512478Y-39206273D01*
X104430400Y-39221355D01*
X104398078Y-39227422D01*
X104325855Y-39242181D01*
X104265666Y-39256137D01*
X104223040Y-39267952D01*
X104203510Y-39276287D01*
X104194660Y-39289905D01*
X104178548Y-39325938D01*
X104162065Y-39372572D01*
X104156263Y-39390034D01*
X104134906Y-39447358D01*
X104107359Y-39515201D01*
X104078107Y-39582355D01*
X104062463Y-39617430D01*
X104040174Y-39669822D01*
X104024857Y-39709058D01*
X104019162Y-39728563D01*
X104019478Y-39730036D01*
X104030281Y-39750729D01*
X104054638Y-39790665D01*
X104090081Y-39845972D01*
X104134136Y-39912781D01*
X104184332Y-39987220D01*
X104349501Y-40229623D01*
X104132503Y-40446983D01*
X104111516Y-40467899D01*
X104047342Y-40530505D01*
X103989990Y-40584495D01*
X103942820Y-40626826D01*
X103909192Y-40654457D01*
X103892467Y-40664343D01*
X103874303Y-40656821D01*
X103836265Y-40635227D01*
X103782726Y-40602151D01*
X103717884Y-40560191D01*
X103645940Y-40511943D01*
X103575275Y-40464291D01*
X103511526Y-40422328D01*
X103459513Y-40389165D01*
X103423279Y-40367378D01*
X103406867Y-40359543D01*
X103405905Y-40359614D01*
X103384103Y-40367338D01*
X103345440Y-40385323D01*
X103297612Y-40410013D01*
X103297110Y-40410284D01*
X103233587Y-40442099D01*
X103190060Y-40457642D01*
X103163052Y-40457685D01*
X103149090Y-40443000D01*
X103143180Y-40428544D01*
X103127229Y-40389831D01*
X103102660Y-40330316D01*
X103070779Y-40253165D01*
X103032893Y-40161541D01*
X102990310Y-40058607D01*
X102944337Y-39947526D01*
X102902667Y-39846472D01*
X102860268Y-39742780D01*
X102822756Y-39650119D01*
X102791388Y-39571642D01*
X102767425Y-39510500D01*
X102752123Y-39469843D01*
X102746743Y-39452825D01*
X102757018Y-39437219D01*
X102785563Y-39411162D01*
X102825971Y-39380887D01*
X102922979Y-39301684D01*
X103009793Y-39200475D01*
X103073322Y-39089116D01*
X103113177Y-38970893D01*
X103128965Y-38849095D01*
X103120296Y-38727010D01*
X103086778Y-38607925D01*
X103028021Y-38495129D01*
X102943632Y-38391911D01*
X102899631Y-38351713D01*
X102794211Y-38280638D01*
X102681410Y-38234301D01*
X102564525Y-38211599D01*
X102446853Y-38211428D01*
X102331690Y-38232687D01*
X102222335Y-38274270D01*
X102122083Y-38335076D01*
X102034233Y-38414001D01*
X101962080Y-38509941D01*
X101908922Y-38621795D01*
X101878057Y-38748457D01*
X101872392Y-38809507D01*
X101880185Y-38941776D01*
X101915284Y-39067266D01*
X101976649Y-39183759D01*
X102063243Y-39289039D01*
X102174029Y-39380887D01*
X102212931Y-39409930D01*
X102242104Y-39436272D01*
X102253257Y-39452800D01*
X102248810Y-39467209D01*
X102234378Y-39505815D01*
X102211173Y-39565201D01*
X102180452Y-39642215D01*
X102143474Y-39733703D01*
X102101496Y-39836516D01*
X102055778Y-39947502D01*
X102014178Y-40048072D01*
X101971222Y-40151947D01*
X101932829Y-40244819D01*
X101900305Y-40323525D01*
X101874958Y-40384899D01*
X101858095Y-40425779D01*
X101851025Y-40443000D01*
X101850943Y-40443204D01*
X101836798Y-40457745D01*
X101809659Y-40457579D01*
X101766023Y-40441927D01*
X101702388Y-40410013D01*
X101697379Y-40407326D01*
X101650125Y-40383150D01*
X101612811Y-40366037D01*
X101593133Y-40359543D01*
X101577005Y-40367218D01*
X101540959Y-40388871D01*
X101489092Y-40421928D01*
X101425445Y-40463810D01*
X101354060Y-40511943D01*
X101283724Y-40559131D01*
X101218670Y-40601267D01*
X101164820Y-40634578D01*
X101126374Y-40656469D01*
X101107534Y-40664343D01*
X101104325Y-40663343D01*
X101081954Y-40647584D01*
X101043733Y-40615033D01*
X100993021Y-40568733D01*
X100933181Y-40511726D01*
X100867571Y-40447058D01*
X100650648Y-40229772D01*
X100819601Y-39981253D01*
X100988553Y-39732733D01*
X100937183Y-39621595D01*
X100937031Y-39621266D01*
X100906183Y-39550418D01*
X100874661Y-39471523D01*
X100849266Y-39401600D01*
X100845423Y-39390322D01*
X100826047Y-39337967D01*
X100808574Y-39297283D01*
X100796388Y-39276287D01*
X100791426Y-39273322D01*
X100761634Y-39263375D01*
X100711047Y-39250505D01*
X100645194Y-39236053D01*
X100569600Y-39221355D01*
X100546957Y-39217210D01*
X100465038Y-39202116D01*
X100388600Y-39187899D01*
X100325337Y-39175995D01*
X100282943Y-39167839D01*
X100206743Y-39152799D01*
X100206743Y-38835492D01*
X100206760Y-38796476D01*
X100207082Y-38701292D01*
X100208033Y-38630255D01*
X100209896Y-38579734D01*
X100212955Y-38546098D01*
X100217494Y-38525718D01*
X100223795Y-38514962D01*
X100232143Y-38510199D01*
X100240224Y-38508270D01*
X100273172Y-38501445D01*
X100325736Y-38491022D01*
X100392569Y-38478018D01*
X100468328Y-38463449D01*
X100547665Y-38448333D01*
X100625237Y-38433685D01*
X100695698Y-38420523D01*
X100753702Y-38409863D01*
X100793904Y-38402721D01*
X100810959Y-38400114D01*
X100812112Y-38398541D01*
X100821385Y-38378119D01*
X100837432Y-38339045D01*
X100857635Y-38287629D01*
X100885672Y-38218353D01*
X100920186Y-38138290D01*
X100952538Y-38067728D01*
X100959952Y-38051889D01*
X100980755Y-38002293D01*
X100993219Y-37964038D01*
X100994863Y-37944356D01*
X100994015Y-37942962D01*
X100980548Y-37922420D01*
X100953850Y-37882516D01*
X100916539Y-37827140D01*
X100871234Y-37760177D01*
X100820552Y-37685517D01*
X100763445Y-37600692D01*
X100720607Y-37534800D01*
X100691460Y-37486478D01*
X100674317Y-37452733D01*
X100667495Y-37430572D01*
X100669306Y-37417002D01*
X100669915Y-37415984D01*
X100686297Y-37396210D01*
X100719695Y-37360175D01*
X100766671Y-37311451D01*
X100823786Y-37253612D01*
X100887603Y-37190227D01*
X100953802Y-37125905D01*
X101018648Y-37065447D01*
X101066299Y-37024655D01*
X101097990Y-37002484D01*
X101114958Y-36997889D01*
X101117175Y-36998921D01*
X101140524Y-37012837D01*
X101182912Y-37040030D01*
X101240369Y-37077889D01*
X101308923Y-37123803D01*
X101384601Y-37175160D01*
X101631298Y-37343626D01*
X101742706Y-37293062D01*
X101745943Y-37291597D01*
X101814343Y-37261965D01*
X101886907Y-37232493D01*
X101948457Y-37209358D01*
X101948729Y-37209262D01*
X101997595Y-37191367D01*
X102035212Y-37176253D01*
X102053457Y-37167184D01*
X102053752Y-37166855D01*
X102059946Y-37148282D01*
X102070139Y-37106045D01*
X102083348Y-37044696D01*
X102098590Y-36968789D01*
X102114881Y-36882875D01*
X102115449Y-36879796D01*
X102131713Y-36792128D01*
X102146608Y-36712741D01*
X102159171Y-36646701D01*
X102168438Y-36599079D01*
X102173444Y-36574943D01*
X102173764Y-36573605D01*
X102177060Y-36563273D01*
X102183738Y-36555506D01*
X102197462Y-36549940D01*
X102221895Y-36546207D01*
X102260702Y-36543942D01*
X102317546Y-36542778D01*
X102396090Y-36542348D01*
X102500000Y-36542286D01*
X102513056Y-36542286D01*
X102613933Y-36542371D01*
G37*
X102613933Y-36542371D02*
X102689856Y-36542865D01*
X102744491Y-36544135D01*
X102781500Y-36546547D01*
X102804547Y-36550467D01*
X102817296Y-36556262D01*
X102823411Y-36564299D01*
X102826556Y-36574943D01*
X102826646Y-36575325D01*
X102831814Y-36600347D01*
X102841209Y-36648681D01*
X102853867Y-36715260D01*
X102868825Y-36795014D01*
X102885119Y-36882875D01*
X102886448Y-36890064D01*
X102902691Y-36975340D01*
X102917805Y-37050242D01*
X102930808Y-37110219D01*
X102940715Y-37150717D01*
X102946544Y-37167184D01*
X102946575Y-37167210D01*
X102964943Y-37176320D01*
X103002640Y-37191457D01*
X103051543Y-37209358D01*
X103054297Y-37210330D01*
X103116817Y-37233959D01*
X103189543Y-37263595D01*
X103257294Y-37293062D01*
X103368703Y-37343626D01*
X103615399Y-37175160D01*
X103632775Y-37163311D01*
X103707202Y-37112947D01*
X103773614Y-37068612D01*
X103828039Y-37032916D01*
X103866506Y-37008471D01*
X103885042Y-36997889D01*
X103897743Y-37000315D01*
X103926579Y-37019110D01*
X103971143Y-37056330D01*
X104032670Y-37113020D01*
X104112398Y-37190227D01*
X104119532Y-37197255D01*
X104182796Y-37260222D01*
X104238990Y-37317268D01*
X104284677Y-37364817D01*
X104316414Y-37399297D01*
X104330764Y-37417131D01*
X104330810Y-37417217D01*
X104332633Y-37430795D01*
X104325910Y-37452820D01*
X104308946Y-37486304D01*
X104280044Y-37534261D01*
X104237508Y-37599704D01*
X104179644Y-37685645D01*
X104169783Y-37700151D01*
X104119913Y-37773635D01*
X104075905Y-37838687D01*
X104040380Y-37891417D01*
X104015959Y-37927936D01*
X104005264Y-37944356D01*
X104004458Y-37947834D01*
X104009518Y-37973785D01*
X104024677Y-38016159D01*
X104047463Y-38067728D01*
X104078429Y-38135170D01*
X104113004Y-38215195D01*
X104142366Y-38287629D01*
X104149645Y-38306377D01*
X104168710Y-38354246D01*
X104182715Y-38387596D01*
X104189041Y-38400114D01*
X104196025Y-38401050D01*
X104227413Y-38406461D01*
X104278787Y-38415806D01*
X104344802Y-38428069D01*
X104420113Y-38442232D01*
X104499375Y-38457280D01*
X104577243Y-38472195D01*
X104648370Y-38485961D01*
X104707412Y-38497562D01*
X104749022Y-38505980D01*
X104767857Y-38510199D01*
X104770980Y-38511389D01*
X104778591Y-38517805D01*
X104784254Y-38531465D01*
X104788251Y-38555999D01*
X104790866Y-38595038D01*
X104792384Y-38652213D01*
X104793086Y-38731154D01*
X104793257Y-38835492D01*
X104793257Y-39152799D01*
X104717057Y-39167839D01*
X104707840Y-39169642D01*
X104658891Y-39178980D01*
X104591205Y-39191669D01*
X104512478Y-39206273D01*
X104430400Y-39221355D01*
X104398078Y-39227422D01*
X104325855Y-39242181D01*
X104265666Y-39256137D01*
X104223040Y-39267952D01*
X104203510Y-39276287D01*
X104194660Y-39289905D01*
X104178548Y-39325938D01*
X104162065Y-39372572D01*
X104156263Y-39390034D01*
X104134906Y-39447358D01*
X104107359Y-39515201D01*
X104078107Y-39582355D01*
X104062463Y-39617430D01*
X104040174Y-39669822D01*
X104024857Y-39709058D01*
X104019162Y-39728563D01*
X104019478Y-39730036D01*
X104030281Y-39750729D01*
X104054638Y-39790665D01*
X104090081Y-39845972D01*
X104134136Y-39912781D01*
X104184332Y-39987220D01*
X104349501Y-40229623D01*
X104132503Y-40446983D01*
X104111516Y-40467899D01*
X104047342Y-40530505D01*
X103989990Y-40584495D01*
X103942820Y-40626826D01*
X103909192Y-40654457D01*
X103892467Y-40664343D01*
X103874303Y-40656821D01*
X103836265Y-40635227D01*
X103782726Y-40602151D01*
X103717884Y-40560191D01*
X103645940Y-40511943D01*
X103575275Y-40464291D01*
X103511526Y-40422328D01*
X103459513Y-40389165D01*
X103423279Y-40367378D01*
X103406867Y-40359543D01*
X103405905Y-40359614D01*
X103384103Y-40367338D01*
X103345440Y-40385323D01*
X103297612Y-40410013D01*
X103297110Y-40410284D01*
X103233587Y-40442099D01*
X103190060Y-40457642D01*
X103163052Y-40457685D01*
X103149090Y-40443000D01*
X103143180Y-40428544D01*
X103127229Y-40389831D01*
X103102660Y-40330316D01*
X103070779Y-40253165D01*
X103032893Y-40161541D01*
X102990310Y-40058607D01*
X102944337Y-39947526D01*
X102902667Y-39846472D01*
X102860268Y-39742780D01*
X102822756Y-39650119D01*
X102791388Y-39571642D01*
X102767425Y-39510500D01*
X102752123Y-39469843D01*
X102746743Y-39452825D01*
X102757018Y-39437219D01*
X102785563Y-39411162D01*
X102825971Y-39380887D01*
X102922979Y-39301684D01*
X103009793Y-39200475D01*
X103073322Y-39089116D01*
X103113177Y-38970893D01*
X103128965Y-38849095D01*
X103120296Y-38727010D01*
X103086778Y-38607925D01*
X103028021Y-38495129D01*
X102943632Y-38391911D01*
X102899631Y-38351713D01*
X102794211Y-38280638D01*
X102681410Y-38234301D01*
X102564525Y-38211599D01*
X102446853Y-38211428D01*
X102331690Y-38232687D01*
X102222335Y-38274270D01*
X102122083Y-38335076D01*
X102034233Y-38414001D01*
X101962080Y-38509941D01*
X101908922Y-38621795D01*
X101878057Y-38748457D01*
X101872392Y-38809507D01*
X101880185Y-38941776D01*
X101915284Y-39067266D01*
X101976649Y-39183759D01*
X102063243Y-39289039D01*
X102174029Y-39380887D01*
X102212931Y-39409930D01*
X102242104Y-39436272D01*
X102253257Y-39452800D01*
X102248810Y-39467209D01*
X102234378Y-39505815D01*
X102211173Y-39565201D01*
X102180452Y-39642215D01*
X102143474Y-39733703D01*
X102101496Y-39836516D01*
X102055778Y-39947502D01*
X102014178Y-40048072D01*
X101971222Y-40151947D01*
X101932829Y-40244819D01*
X101900305Y-40323525D01*
X101874958Y-40384899D01*
X101858095Y-40425779D01*
X101851025Y-40443000D01*
X101850943Y-40443204D01*
X101836798Y-40457745D01*
X101809659Y-40457579D01*
X101766023Y-40441927D01*
X101702388Y-40410013D01*
X101697379Y-40407326D01*
X101650125Y-40383150D01*
X101612811Y-40366037D01*
X101593133Y-40359543D01*
X101577005Y-40367218D01*
X101540959Y-40388871D01*
X101489092Y-40421928D01*
X101425445Y-40463810D01*
X101354060Y-40511943D01*
X101283724Y-40559131D01*
X101218670Y-40601267D01*
X101164820Y-40634578D01*
X101126374Y-40656469D01*
X101107534Y-40664343D01*
X101104325Y-40663343D01*
X101081954Y-40647584D01*
X101043733Y-40615033D01*
X100993021Y-40568733D01*
X100933181Y-40511726D01*
X100867571Y-40447058D01*
X100650648Y-40229772D01*
X100819601Y-39981253D01*
X100988553Y-39732733D01*
X100937183Y-39621595D01*
X100937031Y-39621266D01*
X100906183Y-39550418D01*
X100874661Y-39471523D01*
X100849266Y-39401600D01*
X100845423Y-39390322D01*
X100826047Y-39337967D01*
X100808574Y-39297283D01*
X100796388Y-39276287D01*
X100791426Y-39273322D01*
X100761634Y-39263375D01*
X100711047Y-39250505D01*
X100645194Y-39236053D01*
X100569600Y-39221355D01*
X100546957Y-39217210D01*
X100465038Y-39202116D01*
X100388600Y-39187899D01*
X100325337Y-39175995D01*
X100282943Y-39167839D01*
X100206743Y-39152799D01*
X100206743Y-38835492D01*
X100206760Y-38796476D01*
X100207082Y-38701292D01*
X100208033Y-38630255D01*
X100209896Y-38579734D01*
X100212955Y-38546098D01*
X100217494Y-38525718D01*
X100223795Y-38514962D01*
X100232143Y-38510199D01*
X100240224Y-38508270D01*
X100273172Y-38501445D01*
X100325736Y-38491022D01*
X100392569Y-38478018D01*
X100468328Y-38463449D01*
X100547665Y-38448333D01*
X100625237Y-38433685D01*
X100695698Y-38420523D01*
X100753702Y-38409863D01*
X100793904Y-38402721D01*
X100810959Y-38400114D01*
X100812112Y-38398541D01*
X100821385Y-38378119D01*
X100837432Y-38339045D01*
X100857635Y-38287629D01*
X100885672Y-38218353D01*
X100920186Y-38138290D01*
X100952538Y-38067728D01*
X100959952Y-38051889D01*
X100980755Y-38002293D01*
X100993219Y-37964038D01*
X100994863Y-37944356D01*
X100994015Y-37942962D01*
X100980548Y-37922420D01*
X100953850Y-37882516D01*
X100916539Y-37827140D01*
X100871234Y-37760177D01*
X100820552Y-37685517D01*
X100763445Y-37600692D01*
X100720607Y-37534800D01*
X100691460Y-37486478D01*
X100674317Y-37452733D01*
X100667495Y-37430572D01*
X100669306Y-37417002D01*
X100669915Y-37415984D01*
X100686297Y-37396210D01*
X100719695Y-37360175D01*
X100766671Y-37311451D01*
X100823786Y-37253612D01*
X100887603Y-37190227D01*
X100953802Y-37125905D01*
X101018648Y-37065447D01*
X101066299Y-37024655D01*
X101097990Y-37002484D01*
X101114958Y-36997889D01*
X101117175Y-36998921D01*
X101140524Y-37012837D01*
X101182912Y-37040030D01*
X101240369Y-37077889D01*
X101308923Y-37123803D01*
X101384601Y-37175160D01*
X101631298Y-37343626D01*
X101742706Y-37293062D01*
X101745943Y-37291597D01*
X101814343Y-37261965D01*
X101886907Y-37232493D01*
X101948457Y-37209358D01*
X101948729Y-37209262D01*
X101997595Y-37191367D01*
X102035212Y-37176253D01*
X102053457Y-37167184D01*
X102053752Y-37166855D01*
X102059946Y-37148282D01*
X102070139Y-37106045D01*
X102083348Y-37044696D01*
X102098590Y-36968789D01*
X102114881Y-36882875D01*
X102115449Y-36879796D01*
X102131713Y-36792128D01*
X102146608Y-36712741D01*
X102159171Y-36646701D01*
X102168438Y-36599079D01*
X102173444Y-36574943D01*
X102173764Y-36573605D01*
X102177060Y-36563273D01*
X102183738Y-36555506D01*
X102197462Y-36549940D01*
X102221895Y-36546207D01*
X102260702Y-36543942D01*
X102317546Y-36542778D01*
X102396090Y-36542348D01*
X102500000Y-36542286D01*
X102513056Y-36542286D01*
X102613933Y-36542371D01*
G36*
X103931020Y-41217822D02*
G01*
X103998810Y-41249680D01*
X104054366Y-41304770D01*
X104065881Y-41322016D01*
X104075432Y-41341562D01*
X104082206Y-41366198D01*
X104086819Y-41400711D01*
X104089888Y-41449889D01*
X104092029Y-41518519D01*
X104093859Y-41611389D01*
X104098404Y-41869007D01*
X104060225Y-41854491D01*
X104025268Y-41841156D01*
X103999097Y-41828323D01*
X103982013Y-41811780D01*
X103972086Y-41786465D01*
X103967386Y-41747316D01*
X103965982Y-41689268D01*
X103965943Y-41607261D01*
X103965744Y-41541895D01*
X103964559Y-41479173D01*
X103961729Y-41436334D01*
X103956609Y-41408220D01*
X103948553Y-41389675D01*
X103936914Y-41375543D01*
X103908303Y-41355600D01*
X103860239Y-41348083D01*
X103812688Y-41367079D01*
X103809550Y-41369511D01*
X103799769Y-41380748D01*
X103792553Y-41398770D01*
X103787299Y-41428026D01*
X103783402Y-41472962D01*
X103780256Y-41538028D01*
X103777257Y-41627670D01*
X103770000Y-41867697D01*
X103708314Y-41840044D01*
X103646629Y-41812391D01*
X103646629Y-41593246D01*
X103646884Y-41533711D01*
X103649086Y-41450892D01*
X103654661Y-41389227D01*
X103664941Y-41343748D01*
X103681258Y-41309484D01*
X103704943Y-41281466D01*
X103737328Y-41254723D01*
X103783907Y-41227780D01*
X103857287Y-41210191D01*
X103931020Y-41217822D01*
G37*
X103931020Y-41217822D02*
X103998810Y-41249680D01*
X104054366Y-41304770D01*
X104065881Y-41322016D01*
X104075432Y-41341562D01*
X104082206Y-41366198D01*
X104086819Y-41400711D01*
X104089888Y-41449889D01*
X104092029Y-41518519D01*
X104093859Y-41611389D01*
X104098404Y-41869007D01*
X104060225Y-41854491D01*
X104025268Y-41841156D01*
X103999097Y-41828323D01*
X103982013Y-41811780D01*
X103972086Y-41786465D01*
X103967386Y-41747316D01*
X103965982Y-41689268D01*
X103965943Y-41607261D01*
X103965744Y-41541895D01*
X103964559Y-41479173D01*
X103961729Y-41436334D01*
X103956609Y-41408220D01*
X103948553Y-41389675D01*
X103936914Y-41375543D01*
X103908303Y-41355600D01*
X103860239Y-41348083D01*
X103812688Y-41367079D01*
X103809550Y-41369511D01*
X103799769Y-41380748D01*
X103792553Y-41398770D01*
X103787299Y-41428026D01*
X103783402Y-41472962D01*
X103780256Y-41538028D01*
X103777257Y-41627670D01*
X103770000Y-41867697D01*
X103708314Y-41840044D01*
X103646629Y-41812391D01*
X103646629Y-41593246D01*
X103646884Y-41533711D01*
X103649086Y-41450892D01*
X103654661Y-41389227D01*
X103664941Y-41343748D01*
X103681258Y-41309484D01*
X103704943Y-41281466D01*
X103737328Y-41254723D01*
X103783907Y-41227780D01*
X103857287Y-41210191D01*
X103931020Y-41217822D01*
G36*
X103178543Y-41049444D02*
G01*
X103225714Y-41069342D01*
X103225714Y-41466509D01*
X103225519Y-41569498D01*
X103224998Y-41662141D01*
X103224199Y-41740700D01*
X103223172Y-41801439D01*
X103221963Y-41840623D01*
X103220623Y-41854514D01*
X103220099Y-41854468D01*
X103202287Y-41849420D01*
X103169823Y-41838580D01*
X103124114Y-41822646D01*
X103124114Y-41618173D01*
X103123824Y-41537832D01*
X103122474Y-41479562D01*
X103119369Y-41439909D01*
X103113812Y-41413618D01*
X103105107Y-41395436D01*
X103092556Y-41380107D01*
X103083999Y-41371955D01*
X103037728Y-41349375D01*
X102986728Y-41351375D01*
X102939993Y-41378073D01*
X102933189Y-41384698D01*
X102922293Y-41398456D01*
X102914836Y-41416642D01*
X102910169Y-41444177D01*
X102907642Y-41485981D01*
X102906602Y-41546973D01*
X102906400Y-41632073D01*
X102906303Y-41675234D01*
X102905674Y-41746224D01*
X102904556Y-41803076D01*
X102903063Y-41840828D01*
X102901309Y-41854514D01*
X102900785Y-41854468D01*
X102882973Y-41849420D01*
X102850509Y-41838580D01*
X102804800Y-41822646D01*
X102804823Y-41617237D01*
X102804857Y-41598951D01*
X102806778Y-41503626D01*
X102812678Y-41431543D01*
X102824001Y-41377813D01*
X102842187Y-41337549D01*
X102868679Y-41305861D01*
X102904918Y-41277861D01*
X102940263Y-41260333D01*
X102996773Y-41246785D01*
X103052356Y-41246015D01*
X103095086Y-41259195D01*
X103098298Y-41261015D01*
X103108205Y-41260820D01*
X103114975Y-41245572D01*
X103119861Y-41210613D01*
X103124114Y-41151289D01*
X103131371Y-41029547D01*
X103178543Y-41049444D01*
G37*
X103178543Y-41049444D02*
X103225714Y-41069342D01*
X103225714Y-41466509D01*
X103225519Y-41569498D01*
X103224998Y-41662141D01*
X103224199Y-41740700D01*
X103223172Y-41801439D01*
X103221963Y-41840623D01*
X103220623Y-41854514D01*
X103220099Y-41854468D01*
X103202287Y-41849420D01*
X103169823Y-41838580D01*
X103124114Y-41822646D01*
X103124114Y-41618173D01*
X103123824Y-41537832D01*
X103122474Y-41479562D01*
X103119369Y-41439909D01*
X103113812Y-41413618D01*
X103105107Y-41395436D01*
X103092556Y-41380107D01*
X103083999Y-41371955D01*
X103037728Y-41349375D01*
X102986728Y-41351375D01*
X102939993Y-41378073D01*
X102933189Y-41384698D01*
X102922293Y-41398456D01*
X102914836Y-41416642D01*
X102910169Y-41444177D01*
X102907642Y-41485981D01*
X102906602Y-41546973D01*
X102906400Y-41632073D01*
X102906303Y-41675234D01*
X102905674Y-41746224D01*
X102904556Y-41803076D01*
X102903063Y-41840828D01*
X102901309Y-41854514D01*
X102900785Y-41854468D01*
X102882973Y-41849420D01*
X102850509Y-41838580D01*
X102804800Y-41822646D01*
X102804823Y-41617237D01*
X102804857Y-41598951D01*
X102806778Y-41503626D01*
X102812678Y-41431543D01*
X102824001Y-41377813D01*
X102842187Y-41337549D01*
X102868679Y-41305861D01*
X102904918Y-41277861D01*
X102940263Y-41260333D01*
X102996773Y-41246785D01*
X103052356Y-41246015D01*
X103095086Y-41259195D01*
X103098298Y-41261015D01*
X103108205Y-41260820D01*
X103114975Y-41245572D01*
X103119861Y-41210613D01*
X103124114Y-41151289D01*
X103131371Y-41029547D01*
X103178543Y-41049444D01*
G36*
X100467495Y-41246220D02*
G01*
X100498599Y-41254121D01*
X100527559Y-41273817D01*
X100564831Y-41310484D01*
X100588801Y-41336378D01*
X100613770Y-41369997D01*
X100625031Y-41401506D01*
X100627657Y-41441485D01*
X100627657Y-41506917D01*
X100583035Y-41483842D01*
X100547673Y-41455724D01*
X100523451Y-41417848D01*
X100519291Y-41407551D01*
X100487594Y-41367637D01*
X100443554Y-41347624D01*
X100395531Y-41349572D01*
X100351886Y-41375543D01*
X100333420Y-41396635D01*
X100322663Y-41423619D01*
X100334178Y-41447634D01*
X100369981Y-41471791D01*
X100432090Y-41499199D01*
X100441515Y-41502985D01*
X100498058Y-41527759D01*
X100546580Y-41552189D01*
X100577451Y-41571486D01*
X100608371Y-41605953D01*
X100628927Y-41660957D01*
X100626744Y-41719983D01*
X100602424Y-41775845D01*
X100556568Y-41821355D01*
X100519438Y-41840727D01*
X100447711Y-41854292D01*
X100407852Y-41852462D01*
X100370953Y-41842568D01*
X100356797Y-41821806D01*
X100362091Y-41787613D01*
X100363631Y-41783092D01*
X100375842Y-41759116D01*
X100396174Y-41750042D01*
X100434908Y-41750649D01*
X100462257Y-41751474D01*
X100494257Y-41744392D01*
X100516182Y-41723219D01*
X100528670Y-41697152D01*
X100530062Y-41669845D01*
X100529998Y-41669685D01*
X100513807Y-41654930D01*
X100479155Y-41633457D01*
X100434321Y-41609458D01*
X100387582Y-41587125D01*
X100347217Y-41570652D01*
X100321504Y-41564229D01*
X100317679Y-41570518D01*
X100312864Y-41600115D01*
X100309566Y-41648447D01*
X100308343Y-41709372D01*
X100308058Y-41751542D01*
X100306718Y-41804653D01*
X100304528Y-41841025D01*
X100301769Y-41854514D01*
X100287344Y-41849981D01*
X100258226Y-41837670D01*
X100221257Y-41820826D01*
X100221257Y-41604721D01*
X100221493Y-41549327D01*
X100223729Y-41465207D01*
X100229423Y-41402800D01*
X100239903Y-41357358D01*
X100256497Y-41324133D01*
X100280531Y-41298378D01*
X100313333Y-41275344D01*
X100355124Y-41256335D01*
X100432287Y-41244914D01*
X100467495Y-41246220D01*
G37*
X100467495Y-41246220D02*
X100498599Y-41254121D01*
X100527559Y-41273817D01*
X100564831Y-41310484D01*
X100588801Y-41336378D01*
X100613770Y-41369997D01*
X100625031Y-41401506D01*
X100627657Y-41441485D01*
X100627657Y-41506917D01*
X100583035Y-41483842D01*
X100547673Y-41455724D01*
X100523451Y-41417848D01*
X100519291Y-41407551D01*
X100487594Y-41367637D01*
X100443554Y-41347624D01*
X100395531Y-41349572D01*
X100351886Y-41375543D01*
X100333420Y-41396635D01*
X100322663Y-41423619D01*
X100334178Y-41447634D01*
X100369981Y-41471791D01*
X100432090Y-41499199D01*
X100441515Y-41502985D01*
X100498058Y-41527759D01*
X100546580Y-41552189D01*
X100577451Y-41571486D01*
X100608371Y-41605953D01*
X100628927Y-41660957D01*
X100626744Y-41719983D01*
X100602424Y-41775845D01*
X100556568Y-41821355D01*
X100519438Y-41840727D01*
X100447711Y-41854292D01*
X100407852Y-41852462D01*
X100370953Y-41842568D01*
X100356797Y-41821806D01*
X100362091Y-41787613D01*
X100363631Y-41783092D01*
X100375842Y-41759116D01*
X100396174Y-41750042D01*
X100434908Y-41750649D01*
X100462257Y-41751474D01*
X100494257Y-41744392D01*
X100516182Y-41723219D01*
X100528670Y-41697152D01*
X100530062Y-41669845D01*
X100529998Y-41669685D01*
X100513807Y-41654930D01*
X100479155Y-41633457D01*
X100434321Y-41609458D01*
X100387582Y-41587125D01*
X100347217Y-41570652D01*
X100321504Y-41564229D01*
X100317679Y-41570518D01*
X100312864Y-41600115D01*
X100309566Y-41648447D01*
X100308343Y-41709372D01*
X100308058Y-41751542D01*
X100306718Y-41804653D01*
X100304528Y-41841025D01*
X100301769Y-41854514D01*
X100287344Y-41849981D01*
X100258226Y-41837670D01*
X100221257Y-41820826D01*
X100221257Y-41604721D01*
X100221493Y-41549327D01*
X100223729Y-41465207D01*
X100229423Y-41402800D01*
X100239903Y-41357358D01*
X100256497Y-41324133D01*
X100280531Y-41298378D01*
X100313333Y-41275344D01*
X100355124Y-41256335D01*
X100432287Y-41244914D01*
X100467495Y-41246220D01*
G04 #@! TD*
M02*
