G04 #@! TF.GenerationSoftware,KiCad,Pcbnew,6.0.9-8da3e8f707~116~ubuntu20.04.1*
G04 #@! TF.CreationDate,2023-03-26T17:34:06+00:00*
G04 #@! TF.ProjectId,LEC011102,4c454330-3131-4313-9032-2e6b69636164,rev?*
G04 #@! TF.SameCoordinates,Original*
G04 #@! TF.FileFunction,Legend,Top*
G04 #@! TF.FilePolarity,Positive*
%FSLAX46Y46*%
G04 Gerber Fmt 4.6, Leading zero omitted, Abs format (unit mm)*
G04 Created by KiCad (PCBNEW 6.0.9-8da3e8f707~116~ubuntu20.04.1) date 2023-03-26 17:34:06*
%MOMM*%
%LPD*%
G01*
G04 APERTURE LIST*
%ADD10C,0.120000*%
%ADD11C,0.150000*%
%ADD12C,0.010000*%
%ADD13C,0.100000*%
G04 APERTURE END LIST*
D10*
X121730000Y-50800000D02*
X111570000Y-50800000D01*
X121730000Y-55880000D02*
X121730000Y-50800000D01*
X111570000Y-55880000D02*
X121730000Y-55880000D01*
X111570000Y-50800000D02*
X111570000Y-55880000D01*
D11*
G04 #@! TO.C,C1*
X96353333Y-30837142D02*
X96305714Y-30884761D01*
X96162857Y-30932380D01*
X96067619Y-30932380D01*
X95924761Y-30884761D01*
X95829523Y-30789523D01*
X95781904Y-30694285D01*
X95734285Y-30503809D01*
X95734285Y-30360952D01*
X95781904Y-30170476D01*
X95829523Y-30075238D01*
X95924761Y-29980000D01*
X96067619Y-29932380D01*
X96162857Y-29932380D01*
X96305714Y-29980000D01*
X96353333Y-30027619D01*
X97305714Y-30932380D02*
X96734285Y-30932380D01*
X97020000Y-30932380D02*
X97020000Y-29932380D01*
X96924761Y-30075238D01*
X96829523Y-30170476D01*
X96734285Y-30218095D01*
G04 #@! TO.C,C2*
X95083333Y-39727142D02*
X95035714Y-39774761D01*
X94892857Y-39822380D01*
X94797619Y-39822380D01*
X94654761Y-39774761D01*
X94559523Y-39679523D01*
X94511904Y-39584285D01*
X94464285Y-39393809D01*
X94464285Y-39250952D01*
X94511904Y-39060476D01*
X94559523Y-38965238D01*
X94654761Y-38870000D01*
X94797619Y-38822380D01*
X94892857Y-38822380D01*
X95035714Y-38870000D01*
X95083333Y-38917619D01*
X95464285Y-38917619D02*
X95511904Y-38870000D01*
X95607142Y-38822380D01*
X95845238Y-38822380D01*
X95940476Y-38870000D01*
X95988095Y-38917619D01*
X96035714Y-39012857D01*
X96035714Y-39108095D01*
X95988095Y-39250952D01*
X95416666Y-39822380D01*
X96035714Y-39822380D01*
G04 #@! TO.C,C4*
X107783333Y-40997142D02*
X107735714Y-41044761D01*
X107592857Y-41092380D01*
X107497619Y-41092380D01*
X107354761Y-41044761D01*
X107259523Y-40949523D01*
X107211904Y-40854285D01*
X107164285Y-40663809D01*
X107164285Y-40520952D01*
X107211904Y-40330476D01*
X107259523Y-40235238D01*
X107354761Y-40140000D01*
X107497619Y-40092380D01*
X107592857Y-40092380D01*
X107735714Y-40140000D01*
X107783333Y-40187619D01*
X108640476Y-40425714D02*
X108640476Y-41092380D01*
X108402380Y-40044761D02*
X108164285Y-40759047D01*
X108783333Y-40759047D01*
G04 #@! TO.C,C5*
X117197142Y-31916666D02*
X117244761Y-31964285D01*
X117292380Y-32107142D01*
X117292380Y-32202380D01*
X117244761Y-32345238D01*
X117149523Y-32440476D01*
X117054285Y-32488095D01*
X116863809Y-32535714D01*
X116720952Y-32535714D01*
X116530476Y-32488095D01*
X116435238Y-32440476D01*
X116340000Y-32345238D01*
X116292380Y-32202380D01*
X116292380Y-32107142D01*
X116340000Y-31964285D01*
X116387619Y-31916666D01*
X116292380Y-31011904D02*
X116292380Y-31488095D01*
X116768571Y-31535714D01*
X116720952Y-31488095D01*
X116673333Y-31392857D01*
X116673333Y-31154761D01*
X116720952Y-31059523D01*
X116768571Y-31011904D01*
X116863809Y-30964285D01*
X117101904Y-30964285D01*
X117197142Y-31011904D01*
X117244761Y-31059523D01*
X117292380Y-31154761D01*
X117292380Y-31392857D01*
X117244761Y-31488095D01*
X117197142Y-31535714D01*
G04 #@! TO.C,C7*
X107767142Y-34456666D02*
X107814761Y-34504285D01*
X107862380Y-34647142D01*
X107862380Y-34742380D01*
X107814761Y-34885238D01*
X107719523Y-34980476D01*
X107624285Y-35028095D01*
X107433809Y-35075714D01*
X107290952Y-35075714D01*
X107100476Y-35028095D01*
X107005238Y-34980476D01*
X106910000Y-34885238D01*
X106862380Y-34742380D01*
X106862380Y-34647142D01*
X106910000Y-34504285D01*
X106957619Y-34456666D01*
X106862380Y-34123333D02*
X106862380Y-33456666D01*
X107862380Y-33885238D01*
G04 #@! TO.C,D1*
X96562380Y-45188095D02*
X95562380Y-45188095D01*
X95562380Y-44950000D01*
X95610000Y-44807142D01*
X95705238Y-44711904D01*
X95800476Y-44664285D01*
X95990952Y-44616666D01*
X96133809Y-44616666D01*
X96324285Y-44664285D01*
X96419523Y-44711904D01*
X96514761Y-44807142D01*
X96562380Y-44950000D01*
X96562380Y-45188095D01*
X96562380Y-43664285D02*
X96562380Y-44235714D01*
X96562380Y-43950000D02*
X95562380Y-43950000D01*
X95705238Y-44045238D01*
X95800476Y-44140476D01*
X95848095Y-44235714D01*
G04 #@! TO.C,D2*
X121262380Y-43918095D02*
X120262380Y-43918095D01*
X120262380Y-43680000D01*
X120310000Y-43537142D01*
X120405238Y-43441904D01*
X120500476Y-43394285D01*
X120690952Y-43346666D01*
X120833809Y-43346666D01*
X121024285Y-43394285D01*
X121119523Y-43441904D01*
X121214761Y-43537142D01*
X121262380Y-43680000D01*
X121262380Y-43918095D01*
X120357619Y-42965714D02*
X120310000Y-42918095D01*
X120262380Y-42822857D01*
X120262380Y-42584761D01*
X120310000Y-42489523D01*
X120357619Y-42441904D01*
X120452857Y-42394285D01*
X120548095Y-42394285D01*
X120690952Y-42441904D01*
X121262380Y-43013333D01*
X121262380Y-42394285D01*
G04 #@! TO.C,D3*
X122372380Y-36933095D02*
X121372380Y-36933095D01*
X121372380Y-36695000D01*
X121420000Y-36552142D01*
X121515238Y-36456904D01*
X121610476Y-36409285D01*
X121800952Y-36361666D01*
X121943809Y-36361666D01*
X122134285Y-36409285D01*
X122229523Y-36456904D01*
X122324761Y-36552142D01*
X122372380Y-36695000D01*
X122372380Y-36933095D01*
X121372380Y-36028333D02*
X121372380Y-35409285D01*
X121753333Y-35742619D01*
X121753333Y-35599761D01*
X121800952Y-35504523D01*
X121848571Y-35456904D01*
X121943809Y-35409285D01*
X122181904Y-35409285D01*
X122277142Y-35456904D01*
X122324761Y-35504523D01*
X122372380Y-35599761D01*
X122372380Y-35885476D01*
X122324761Y-35980714D01*
X122277142Y-36028333D01*
G04 #@! TO.C,J1*
X93646666Y-50252380D02*
X93646666Y-50966666D01*
X93599047Y-51109523D01*
X93503809Y-51204761D01*
X93360952Y-51252380D01*
X93265714Y-51252380D01*
X94646666Y-51252380D02*
X94075238Y-51252380D01*
X94360952Y-51252380D02*
X94360952Y-50252380D01*
X94265714Y-50395238D01*
X94170476Y-50490476D01*
X94075238Y-50538095D01*
G04 #@! TO.C,J2*
X85812380Y-43513333D02*
X86526666Y-43513333D01*
X86669523Y-43560952D01*
X86764761Y-43656190D01*
X86812380Y-43799047D01*
X86812380Y-43894285D01*
X85907619Y-43084761D02*
X85860000Y-43037142D01*
X85812380Y-42941904D01*
X85812380Y-42703809D01*
X85860000Y-42608571D01*
X85907619Y-42560952D01*
X86002857Y-42513333D01*
X86098095Y-42513333D01*
X86240952Y-42560952D01*
X86812380Y-43132380D01*
X86812380Y-42513333D01*
G04 #@! TO.C,J3*
X138096666Y-35012380D02*
X138096666Y-35726666D01*
X138049047Y-35869523D01*
X137953809Y-35964761D01*
X137810952Y-36012380D01*
X137715714Y-36012380D01*
X138477619Y-35012380D02*
X139096666Y-35012380D01*
X138763333Y-35393333D01*
X138906190Y-35393333D01*
X139001428Y-35440952D01*
X139049047Y-35488571D01*
X139096666Y-35583809D01*
X139096666Y-35821904D01*
X139049047Y-35917142D01*
X139001428Y-35964761D01*
X138906190Y-36012380D01*
X138620476Y-36012380D01*
X138525238Y-35964761D01*
X138477619Y-35917142D01*
G04 #@! TO.C,J4*
X138066666Y-50252380D02*
X138066666Y-50966666D01*
X138019047Y-51109523D01*
X137923809Y-51204761D01*
X137780952Y-51252380D01*
X137685714Y-51252380D01*
X138971428Y-50585714D02*
X138971428Y-51252380D01*
X138733333Y-50204761D02*
X138495238Y-50919047D01*
X139114285Y-50919047D01*
G04 #@! TO.C,K1*
X135151904Y-43632380D02*
X135151904Y-42632380D01*
X135723333Y-43632380D02*
X135294761Y-43060952D01*
X135723333Y-42632380D02*
X135151904Y-43203809D01*
X136675714Y-43632380D02*
X136104285Y-43632380D01*
X136390000Y-43632380D02*
X136390000Y-42632380D01*
X136294761Y-42775238D01*
X136199523Y-42870476D01*
X136104285Y-42918095D01*
G04 #@! TO.C,Q1*
X122459761Y-50077619D02*
X122364523Y-50030000D01*
X122269285Y-49934761D01*
X122126428Y-49791904D01*
X122031190Y-49744285D01*
X121935952Y-49744285D01*
X121983571Y-49982380D02*
X121888333Y-49934761D01*
X121793095Y-49839523D01*
X121745476Y-49649047D01*
X121745476Y-49315714D01*
X121793095Y-49125238D01*
X121888333Y-49030000D01*
X121983571Y-48982380D01*
X122174047Y-48982380D01*
X122269285Y-49030000D01*
X122364523Y-49125238D01*
X122412142Y-49315714D01*
X122412142Y-49649047D01*
X122364523Y-49839523D01*
X122269285Y-49934761D01*
X122174047Y-49982380D01*
X121983571Y-49982380D01*
X123364523Y-49982380D02*
X122793095Y-49982380D01*
X123078809Y-49982380D02*
X123078809Y-48982380D01*
X122983571Y-49125238D01*
X122888333Y-49220476D01*
X122793095Y-49268095D01*
G04 #@! TO.C,R3*
X119213333Y-47602380D02*
X118880000Y-47126190D01*
X118641904Y-47602380D02*
X118641904Y-46602380D01*
X119022857Y-46602380D01*
X119118095Y-46650000D01*
X119165714Y-46697619D01*
X119213333Y-46792857D01*
X119213333Y-46935714D01*
X119165714Y-47030952D01*
X119118095Y-47078571D01*
X119022857Y-47126190D01*
X118641904Y-47126190D01*
X119546666Y-46602380D02*
X120165714Y-46602380D01*
X119832380Y-46983333D01*
X119975238Y-46983333D01*
X120070476Y-47030952D01*
X120118095Y-47078571D01*
X120165714Y-47173809D01*
X120165714Y-47411904D01*
X120118095Y-47507142D01*
X120070476Y-47554761D01*
X119975238Y-47602380D01*
X119689523Y-47602380D01*
X119594285Y-47554761D01*
X119546666Y-47507142D01*
G04 #@! TO.C,R4*
X119832380Y-36996666D02*
X119356190Y-37330000D01*
X119832380Y-37568095D02*
X118832380Y-37568095D01*
X118832380Y-37187142D01*
X118880000Y-37091904D01*
X118927619Y-37044285D01*
X119022857Y-36996666D01*
X119165714Y-36996666D01*
X119260952Y-37044285D01*
X119308571Y-37091904D01*
X119356190Y-37187142D01*
X119356190Y-37568095D01*
X119165714Y-36139523D02*
X119832380Y-36139523D01*
X118784761Y-36377619D02*
X119499047Y-36615714D01*
X119499047Y-35996666D01*
G04 #@! TO.C,U1*
X97822380Y-40131904D02*
X98631904Y-40131904D01*
X98727142Y-40084285D01*
X98774761Y-40036666D01*
X98822380Y-39941428D01*
X98822380Y-39750952D01*
X98774761Y-39655714D01*
X98727142Y-39608095D01*
X98631904Y-39560476D01*
X97822380Y-39560476D01*
X98822380Y-38560476D02*
X98822380Y-39131904D01*
X98822380Y-38846190D02*
X97822380Y-38846190D01*
X97965238Y-38941428D01*
X98060476Y-39036666D01*
X98108095Y-39131904D01*
G04 #@! TO.C,C3*
X104633333Y-50257142D02*
X104585714Y-50304761D01*
X104442857Y-50352380D01*
X104347619Y-50352380D01*
X104204761Y-50304761D01*
X104109523Y-50209523D01*
X104061904Y-50114285D01*
X104014285Y-49923809D01*
X104014285Y-49780952D01*
X104061904Y-49590476D01*
X104109523Y-49495238D01*
X104204761Y-49400000D01*
X104347619Y-49352380D01*
X104442857Y-49352380D01*
X104585714Y-49400000D01*
X104633333Y-49447619D01*
X104966666Y-49352380D02*
X105585714Y-49352380D01*
X105252380Y-49733333D01*
X105395238Y-49733333D01*
X105490476Y-49780952D01*
X105538095Y-49828571D01*
X105585714Y-49923809D01*
X105585714Y-50161904D01*
X105538095Y-50257142D01*
X105490476Y-50304761D01*
X105395238Y-50352380D01*
X105109523Y-50352380D01*
X105014285Y-50304761D01*
X104966666Y-50257142D01*
G04 #@! TO.C,RV1*
X106634761Y-55697380D02*
X106301428Y-55221190D01*
X106063333Y-55697380D02*
X106063333Y-54697380D01*
X106444285Y-54697380D01*
X106539523Y-54745000D01*
X106587142Y-54792619D01*
X106634761Y-54887857D01*
X106634761Y-55030714D01*
X106587142Y-55125952D01*
X106539523Y-55173571D01*
X106444285Y-55221190D01*
X106063333Y-55221190D01*
X106920476Y-54697380D02*
X107253809Y-55697380D01*
X107587142Y-54697380D01*
X108444285Y-55697380D02*
X107872857Y-55697380D01*
X108158571Y-55697380D02*
X108158571Y-54697380D01*
X108063333Y-54840238D01*
X107968095Y-54935476D01*
X107872857Y-54983095D01*
G04 #@! TO.C,R2*
X107767380Y-49696666D02*
X107291190Y-50030000D01*
X107767380Y-50268095D02*
X106767380Y-50268095D01*
X106767380Y-49887142D01*
X106815000Y-49791904D01*
X106862619Y-49744285D01*
X106957857Y-49696666D01*
X107100714Y-49696666D01*
X107195952Y-49744285D01*
X107243571Y-49791904D01*
X107291190Y-49887142D01*
X107291190Y-50268095D01*
X106862619Y-49315714D02*
X106815000Y-49268095D01*
X106767380Y-49172857D01*
X106767380Y-48934761D01*
X106815000Y-48839523D01*
X106862619Y-48791904D01*
X106957857Y-48744285D01*
X107053095Y-48744285D01*
X107195952Y-48791904D01*
X107767380Y-49363333D01*
X107767380Y-48744285D01*
G04 #@! TO.C,U2*
X114173095Y-47302380D02*
X114173095Y-48111904D01*
X114220714Y-48207142D01*
X114268333Y-48254761D01*
X114363571Y-48302380D01*
X114554047Y-48302380D01*
X114649285Y-48254761D01*
X114696904Y-48207142D01*
X114744523Y-48111904D01*
X114744523Y-47302380D01*
X115173095Y-47397619D02*
X115220714Y-47350000D01*
X115315952Y-47302380D01*
X115554047Y-47302380D01*
X115649285Y-47350000D01*
X115696904Y-47397619D01*
X115744523Y-47492857D01*
X115744523Y-47588095D01*
X115696904Y-47730952D01*
X115125476Y-48302380D01*
X115744523Y-48302380D01*
G04 #@! TO.C,R1*
X117292380Y-40806666D02*
X116816190Y-41140000D01*
X117292380Y-41378095D02*
X116292380Y-41378095D01*
X116292380Y-40997142D01*
X116340000Y-40901904D01*
X116387619Y-40854285D01*
X116482857Y-40806666D01*
X116625714Y-40806666D01*
X116720952Y-40854285D01*
X116768571Y-40901904D01*
X116816190Y-40997142D01*
X116816190Y-41378095D01*
X117292380Y-39854285D02*
X117292380Y-40425714D01*
X117292380Y-40140000D02*
X116292380Y-40140000D01*
X116435238Y-40235238D01*
X116530476Y-40330476D01*
X116578095Y-40425714D01*
G04 #@! TO.C,C6*
X111593333Y-49887142D02*
X111545714Y-49934761D01*
X111402857Y-49982380D01*
X111307619Y-49982380D01*
X111164761Y-49934761D01*
X111069523Y-49839523D01*
X111021904Y-49744285D01*
X110974285Y-49553809D01*
X110974285Y-49410952D01*
X111021904Y-49220476D01*
X111069523Y-49125238D01*
X111164761Y-49030000D01*
X111307619Y-48982380D01*
X111402857Y-48982380D01*
X111545714Y-49030000D01*
X111593333Y-49077619D01*
X112450476Y-48982380D02*
X112260000Y-48982380D01*
X112164761Y-49030000D01*
X112117142Y-49077619D01*
X112021904Y-49220476D01*
X111974285Y-49410952D01*
X111974285Y-49791904D01*
X112021904Y-49887142D01*
X112069523Y-49934761D01*
X112164761Y-49982380D01*
X112355238Y-49982380D01*
X112450476Y-49934761D01*
X112498095Y-49887142D01*
X112545714Y-49791904D01*
X112545714Y-49553809D01*
X112498095Y-49458571D01*
X112450476Y-49410952D01*
X112355238Y-49363333D01*
X112164761Y-49363333D01*
X112069523Y-49410952D01*
X112021904Y-49458571D01*
X111974285Y-49553809D01*
G04 #@! TO.C,C8*
X100407142Y-51716666D02*
X100454761Y-51764285D01*
X100502380Y-51907142D01*
X100502380Y-52002380D01*
X100454761Y-52145238D01*
X100359523Y-52240476D01*
X100264285Y-52288095D01*
X100073809Y-52335714D01*
X99930952Y-52335714D01*
X99740476Y-52288095D01*
X99645238Y-52240476D01*
X99550000Y-52145238D01*
X99502380Y-52002380D01*
X99502380Y-51907142D01*
X99550000Y-51764285D01*
X99597619Y-51716666D01*
X99930952Y-51145238D02*
X99883333Y-51240476D01*
X99835714Y-51288095D01*
X99740476Y-51335714D01*
X99692857Y-51335714D01*
X99597619Y-51288095D01*
X99550000Y-51240476D01*
X99502380Y-51145238D01*
X99502380Y-50954761D01*
X99550000Y-50859523D01*
X99597619Y-50811904D01*
X99692857Y-50764285D01*
X99740476Y-50764285D01*
X99835714Y-50811904D01*
X99883333Y-50859523D01*
X99930952Y-50954761D01*
X99930952Y-51145238D01*
X99978571Y-51240476D01*
X100026190Y-51288095D01*
X100121428Y-51335714D01*
X100311904Y-51335714D01*
X100407142Y-51288095D01*
X100454761Y-51240476D01*
X100502380Y-51145238D01*
X100502380Y-50954761D01*
X100454761Y-50859523D01*
X100407142Y-50811904D01*
X100311904Y-50764285D01*
X100121428Y-50764285D01*
X100026190Y-50811904D01*
X99978571Y-50859523D01*
X99930952Y-50954761D01*
D10*
G04 #@! TO.C,C1*
X96753750Y-36531250D02*
X96753750Y-35743750D01*
X96120000Y-31944437D02*
X95055563Y-30880000D01*
X95055563Y-37700000D02*
X89300000Y-37700000D01*
X96120000Y-36635563D02*
X96120000Y-35350000D01*
X96120000Y-31944437D02*
X96120000Y-33230000D01*
X89300000Y-37700000D02*
X89300000Y-35350000D01*
X95055563Y-30880000D02*
X89300000Y-30880000D01*
X89300000Y-30880000D02*
X89300000Y-33230000D01*
X96120000Y-36635563D02*
X95055563Y-37700000D01*
X97147500Y-36137500D02*
X96360000Y-36137500D01*
G04 #@! TO.C,C2*
X92872779Y-39880000D02*
X92547221Y-39880000D01*
X92872779Y-38860000D02*
X92547221Y-38860000D01*
G04 #@! TO.C,C4*
X110327221Y-40130000D02*
X110652779Y-40130000D01*
X110327221Y-41150000D02*
X110652779Y-41150000D01*
G04 #@! TO.C,C5*
X116330000Y-34452779D02*
X116330000Y-34127221D01*
X117350000Y-34452779D02*
X117350000Y-34127221D01*
G04 #@! TO.C,C7*
X109912500Y-38727500D02*
X109912500Y-37940000D01*
X109518750Y-38333750D02*
X110306250Y-38333750D01*
X109414437Y-37700000D02*
X108350000Y-36635563D01*
X115170000Y-36635563D02*
X115170000Y-30880000D01*
X114105563Y-37700000D02*
X112820000Y-37700000D01*
X108350000Y-36635563D02*
X108350000Y-30880000D01*
X114105563Y-37700000D02*
X115170000Y-36635563D01*
X108350000Y-30880000D02*
X110700000Y-30880000D01*
X109414437Y-37700000D02*
X110700000Y-37700000D01*
X115170000Y-30880000D02*
X112820000Y-30880000D01*
G04 #@! TO.C,D1*
X91010000Y-46650000D02*
X90210000Y-46650000D01*
X95210000Y-46650000D02*
X95210000Y-42250000D01*
X93510000Y-46650000D02*
X91910000Y-46650000D01*
X90210000Y-46650000D02*
X90210000Y-42250000D01*
X94710000Y-42250000D02*
X94710000Y-40850000D01*
X95210000Y-42250000D02*
X94710000Y-42250000D01*
X90210000Y-42250000D02*
X91010000Y-42250000D01*
X94410000Y-46650000D02*
X95210000Y-46650000D01*
X93510000Y-42250000D02*
X91910000Y-42250000D01*
G04 #@! TO.C,D2*
X120115000Y-41695000D02*
X118645000Y-41695000D01*
X120115000Y-43980000D02*
X120115000Y-41695000D01*
X118645000Y-41695000D02*
X118645000Y-43980000D01*
G04 #@! TO.C,D3*
X121540000Y-37240000D02*
X121540000Y-42640000D01*
X124840000Y-37240000D02*
X124840000Y-42640000D01*
X124840000Y-37240000D02*
X121540000Y-37240000D01*
G04 #@! TO.C,H1*
X87044903Y-53340000D02*
G75*
G03*
X87044903Y-53340000I-3224903J0D01*
G01*
G36*
X84320000Y-50140000D02*
G01*
X85320000Y-50440000D01*
X86120000Y-51040000D01*
X86620000Y-51740000D01*
X86920000Y-52440000D01*
X87020000Y-52840000D01*
X87020000Y-53340000D01*
X85420000Y-53340000D01*
X85420000Y-53240000D01*
X85320000Y-52840000D01*
X85120000Y-52440000D01*
X84720000Y-52040000D01*
X84320000Y-51840000D01*
X83920000Y-51740000D01*
X83820000Y-51740000D01*
X83820000Y-50115097D01*
X84320000Y-50140000D01*
G37*
D12*
X84320000Y-50140000D02*
X85320000Y-50440000D01*
X86120000Y-51040000D01*
X86620000Y-51740000D01*
X86920000Y-52440000D01*
X87020000Y-52840000D01*
X87020000Y-53340000D01*
X85420000Y-53340000D01*
X85420000Y-53240000D01*
X85320000Y-52840000D01*
X85120000Y-52440000D01*
X84720000Y-52040000D01*
X84320000Y-51840000D01*
X83920000Y-51740000D01*
X83820000Y-51740000D01*
X83820000Y-50115097D01*
X84320000Y-50140000D01*
G36*
X82220000Y-53440000D02*
G01*
X82320000Y-53840000D01*
X82520000Y-54240000D01*
X82920000Y-54640000D01*
X83320000Y-54840000D01*
X83720000Y-54940000D01*
X83820000Y-54940000D01*
X83820000Y-56564903D01*
X83320000Y-56540000D01*
X82320000Y-56240000D01*
X81520000Y-55640000D01*
X81020000Y-54940000D01*
X80720000Y-54240000D01*
X80620000Y-53840000D01*
X80620000Y-53340000D01*
X82220000Y-53340000D01*
X82220000Y-53440000D01*
G37*
X82220000Y-53440000D02*
X82320000Y-53840000D01*
X82520000Y-54240000D01*
X82920000Y-54640000D01*
X83320000Y-54840000D01*
X83720000Y-54940000D01*
X83820000Y-54940000D01*
X83820000Y-56564903D01*
X83320000Y-56540000D01*
X82320000Y-56240000D01*
X81520000Y-55640000D01*
X81020000Y-54940000D01*
X80720000Y-54240000D01*
X80620000Y-53840000D01*
X80620000Y-53340000D01*
X82220000Y-53340000D01*
X82220000Y-53440000D01*
D10*
G04 #@! TO.C,H2*
X128954903Y-33020000D02*
G75*
G03*
X128954903Y-33020000I-3224903J0D01*
G01*
G36*
X124130000Y-33120000D02*
G01*
X124230000Y-33520000D01*
X124430000Y-33920000D01*
X124830000Y-34320000D01*
X125230000Y-34520000D01*
X125630000Y-34620000D01*
X125730000Y-34620000D01*
X125730000Y-36244903D01*
X125230000Y-36220000D01*
X124230000Y-35920000D01*
X123430000Y-35320000D01*
X122930000Y-34620000D01*
X122630000Y-33920000D01*
X122530000Y-33520000D01*
X122530000Y-33020000D01*
X124130000Y-33020000D01*
X124130000Y-33120000D01*
G37*
D12*
X124130000Y-33120000D02*
X124230000Y-33520000D01*
X124430000Y-33920000D01*
X124830000Y-34320000D01*
X125230000Y-34520000D01*
X125630000Y-34620000D01*
X125730000Y-34620000D01*
X125730000Y-36244903D01*
X125230000Y-36220000D01*
X124230000Y-35920000D01*
X123430000Y-35320000D01*
X122930000Y-34620000D01*
X122630000Y-33920000D01*
X122530000Y-33520000D01*
X122530000Y-33020000D01*
X124130000Y-33020000D01*
X124130000Y-33120000D01*
G36*
X126230000Y-29820000D02*
G01*
X127230000Y-30120000D01*
X128030000Y-30720000D01*
X128530000Y-31420000D01*
X128830000Y-32120000D01*
X128930000Y-32520000D01*
X128930000Y-33020000D01*
X127330000Y-33020000D01*
X127330000Y-32920000D01*
X127230000Y-32520000D01*
X127030000Y-32120000D01*
X126630000Y-31720000D01*
X126230000Y-31520000D01*
X125830000Y-31420000D01*
X125730000Y-31420000D01*
X125730000Y-29795097D01*
X126230000Y-29820000D01*
G37*
X126230000Y-29820000D02*
X127230000Y-30120000D01*
X128030000Y-30720000D01*
X128530000Y-31420000D01*
X128830000Y-32120000D01*
X128930000Y-32520000D01*
X128930000Y-33020000D01*
X127330000Y-33020000D01*
X127330000Y-32920000D01*
X127230000Y-32520000D01*
X127030000Y-32120000D01*
X126630000Y-31720000D01*
X126230000Y-31520000D01*
X125830000Y-31420000D01*
X125730000Y-31420000D01*
X125730000Y-29795097D01*
X126230000Y-29820000D01*
D10*
G04 #@! TO.C,H3*
X87044903Y-33020000D02*
G75*
G03*
X87044903Y-33020000I-3224903J0D01*
G01*
G36*
X84320000Y-29820000D02*
G01*
X85320000Y-30120000D01*
X86120000Y-30720000D01*
X86620000Y-31420000D01*
X86920000Y-32120000D01*
X87020000Y-32520000D01*
X87020000Y-33020000D01*
X85420000Y-33020000D01*
X85420000Y-32920000D01*
X85320000Y-32520000D01*
X85120000Y-32120000D01*
X84720000Y-31720000D01*
X84320000Y-31520000D01*
X83920000Y-31420000D01*
X83820000Y-31420000D01*
X83820000Y-29795097D01*
X84320000Y-29820000D01*
G37*
D12*
X84320000Y-29820000D02*
X85320000Y-30120000D01*
X86120000Y-30720000D01*
X86620000Y-31420000D01*
X86920000Y-32120000D01*
X87020000Y-32520000D01*
X87020000Y-33020000D01*
X85420000Y-33020000D01*
X85420000Y-32920000D01*
X85320000Y-32520000D01*
X85120000Y-32120000D01*
X84720000Y-31720000D01*
X84320000Y-31520000D01*
X83920000Y-31420000D01*
X83820000Y-31420000D01*
X83820000Y-29795097D01*
X84320000Y-29820000D01*
G36*
X82220000Y-33120000D02*
G01*
X82320000Y-33520000D01*
X82520000Y-33920000D01*
X82920000Y-34320000D01*
X83320000Y-34520000D01*
X83720000Y-34620000D01*
X83820000Y-34620000D01*
X83820000Y-36244903D01*
X83320000Y-36220000D01*
X82320000Y-35920000D01*
X81520000Y-35320000D01*
X81020000Y-34620000D01*
X80720000Y-33920000D01*
X80620000Y-33520000D01*
X80620000Y-33020000D01*
X82220000Y-33020000D01*
X82220000Y-33120000D01*
G37*
X82220000Y-33120000D02*
X82320000Y-33520000D01*
X82520000Y-33920000D01*
X82920000Y-34320000D01*
X83320000Y-34520000D01*
X83720000Y-34620000D01*
X83820000Y-34620000D01*
X83820000Y-36244903D01*
X83320000Y-36220000D01*
X82320000Y-35920000D01*
X81520000Y-35320000D01*
X81020000Y-34620000D01*
X80720000Y-33920000D01*
X80620000Y-33520000D01*
X80620000Y-33020000D01*
X82220000Y-33020000D01*
X82220000Y-33120000D01*
D10*
G04 #@! TO.C,H4*
X128954903Y-53340000D02*
G75*
G03*
X128954903Y-53340000I-3224903J0D01*
G01*
G36*
X126230000Y-50140000D02*
G01*
X127230000Y-50440000D01*
X128030000Y-51040000D01*
X128530000Y-51740000D01*
X128830000Y-52440000D01*
X128930000Y-52840000D01*
X128930000Y-53340000D01*
X127330000Y-53340000D01*
X127330000Y-53240000D01*
X127230000Y-52840000D01*
X127030000Y-52440000D01*
X126630000Y-52040000D01*
X126230000Y-51840000D01*
X125830000Y-51740000D01*
X125730000Y-51740000D01*
X125730000Y-50115097D01*
X126230000Y-50140000D01*
G37*
D12*
X126230000Y-50140000D02*
X127230000Y-50440000D01*
X128030000Y-51040000D01*
X128530000Y-51740000D01*
X128830000Y-52440000D01*
X128930000Y-52840000D01*
X128930000Y-53340000D01*
X127330000Y-53340000D01*
X127330000Y-53240000D01*
X127230000Y-52840000D01*
X127030000Y-52440000D01*
X126630000Y-52040000D01*
X126230000Y-51840000D01*
X125830000Y-51740000D01*
X125730000Y-51740000D01*
X125730000Y-50115097D01*
X126230000Y-50140000D01*
G36*
X124130000Y-53440000D02*
G01*
X124230000Y-53840000D01*
X124430000Y-54240000D01*
X124830000Y-54640000D01*
X125230000Y-54840000D01*
X125630000Y-54940000D01*
X125730000Y-54940000D01*
X125730000Y-56564903D01*
X125230000Y-56540000D01*
X124230000Y-56240000D01*
X123430000Y-55640000D01*
X122930000Y-54940000D01*
X122630000Y-54240000D01*
X122530000Y-53840000D01*
X122530000Y-53340000D01*
X124130000Y-53340000D01*
X124130000Y-53440000D01*
G37*
X124130000Y-53440000D02*
X124230000Y-53840000D01*
X124430000Y-54240000D01*
X124830000Y-54640000D01*
X125230000Y-54840000D01*
X125630000Y-54940000D01*
X125730000Y-54940000D01*
X125730000Y-56564903D01*
X125230000Y-56540000D01*
X124230000Y-56240000D01*
X123430000Y-55640000D01*
X122930000Y-54940000D01*
X122630000Y-54240000D01*
X122530000Y-53840000D01*
X122530000Y-53340000D01*
X124130000Y-53340000D01*
X124130000Y-53440000D01*
D10*
G04 #@! TO.C,J1*
X99060000Y-55880000D02*
X88900000Y-55880000D01*
X88900000Y-49530000D02*
X88900000Y-57150000D01*
X99060000Y-57150000D02*
X99060000Y-49530000D01*
X88900000Y-57150000D02*
X99060000Y-57150000D01*
X99060000Y-49530000D02*
X88900000Y-49530000D01*
G04 #@! TO.C,J2*
X80010000Y-48260000D02*
X87630000Y-48260000D01*
X80010000Y-38100000D02*
X80010000Y-48260000D01*
X87630000Y-38100000D02*
X80010000Y-38100000D01*
X81280000Y-48260000D02*
X81280000Y-38100000D01*
X87630000Y-48260000D02*
X87630000Y-38100000D01*
G04 #@! TO.C,J3*
X146050000Y-29210000D02*
X130810000Y-29210000D01*
X146050000Y-30480000D02*
X130810000Y-30480000D01*
X130810000Y-29210000D02*
X130810000Y-36830000D01*
X146050000Y-36830000D02*
X130810000Y-36830000D01*
X146050000Y-29210000D02*
X146050000Y-36830000D01*
G04 #@! TO.C,J4*
X130810000Y-55880000D02*
X146050000Y-55880000D01*
X146050000Y-57150000D02*
X146050000Y-49530000D01*
X130810000Y-57150000D02*
X146050000Y-57150000D01*
X130810000Y-49530000D02*
X146050000Y-49530000D01*
X130810000Y-57150000D02*
X130810000Y-49530000D01*
G04 #@! TO.C,K1*
X127600000Y-43590000D02*
X127600000Y-42890000D01*
X126400000Y-43590000D02*
X127600000Y-43590000D01*
X125600000Y-48390000D02*
X125600000Y-37990000D01*
X127200000Y-43590000D02*
X126800000Y-42890000D01*
X127100000Y-48590000D02*
X125400000Y-48590000D01*
X125600000Y-37990000D02*
X146200000Y-37990000D01*
X127000000Y-42890000D02*
X127000000Y-41790000D01*
X146200000Y-37990000D02*
X146200000Y-48390000D01*
X127600000Y-42890000D02*
X126400000Y-42890000D01*
X146200000Y-48390000D02*
X125600000Y-48390000D01*
X127000000Y-43590000D02*
X127000000Y-44690000D01*
X126400000Y-42890000D02*
X126400000Y-43590000D01*
X125400000Y-48590000D02*
X125400000Y-47090000D01*
G04 #@! TO.C,Q1*
X123950000Y-45410000D02*
X121790000Y-45410000D01*
X123950000Y-48570000D02*
X122490000Y-48570000D01*
X123950000Y-48570000D02*
X123950000Y-47640000D01*
X123950000Y-45410000D02*
X123950000Y-46340000D01*
G04 #@! TO.C,R3*
X119542779Y-46230000D02*
X119217221Y-46230000D01*
X119542779Y-45210000D02*
X119217221Y-45210000D01*
G04 #@! TO.C,R4*
X119890000Y-39207221D02*
X119890000Y-39532779D01*
X118870000Y-39207221D02*
X118870000Y-39532779D01*
G04 #@! TO.C,U1*
X99690000Y-38030000D02*
X99690000Y-40860000D01*
X106320000Y-38030000D02*
X106050000Y-38030000D01*
X106320000Y-36530000D02*
X106320000Y-38030000D01*
X106050000Y-38030000D02*
X106050000Y-39130000D01*
X99420000Y-38030000D02*
X99690000Y-38030000D01*
X99420000Y-36530000D02*
X99420000Y-38030000D01*
G04 #@! TO.C,C3*
X99641651Y-48888000D02*
X99641651Y-46590000D01*
X100081651Y-44510000D02*
X100081651Y-41944000D01*
X99881651Y-49043000D02*
X99881651Y-46590000D01*
X100841651Y-49464000D02*
X100841651Y-46590000D01*
X100721651Y-49427000D02*
X100721651Y-46590000D01*
X98801651Y-48106000D02*
X98801651Y-42994000D01*
X99401651Y-44510000D02*
X99401651Y-42394000D01*
X98041651Y-46648000D02*
X98041651Y-44452000D01*
X99921651Y-44510000D02*
X99921651Y-42033000D01*
X101322651Y-49574000D02*
X101322651Y-41526000D01*
X99521651Y-48800000D02*
X99521651Y-46590000D01*
X99441651Y-44510000D02*
X99441651Y-42361000D01*
X98321651Y-47363000D02*
X98321651Y-43737000D01*
X98961651Y-48291000D02*
X98961651Y-42809000D01*
X100481651Y-49340000D02*
X100481651Y-46590000D01*
X101842651Y-49627000D02*
X101842651Y-41473000D01*
X100201651Y-49216000D02*
X100201651Y-46590000D01*
X99801651Y-44510000D02*
X99801651Y-42106000D01*
X100961651Y-44510000D02*
X100961651Y-41603000D01*
X102002651Y-49630000D02*
X102002651Y-41470000D01*
X99241651Y-44510000D02*
X99241651Y-42531000D01*
X101642651Y-49615000D02*
X101642651Y-41485000D01*
X99161651Y-48495000D02*
X99161651Y-42605000D01*
X101121651Y-44510000D02*
X101121651Y-41565000D01*
X100161651Y-49197000D02*
X100161651Y-46590000D01*
X100801651Y-44510000D02*
X100801651Y-41648000D01*
X100321651Y-44510000D02*
X100321651Y-41828000D01*
X101201651Y-44510000D02*
X101201651Y-41548000D01*
X99361651Y-48674000D02*
X99361651Y-46590000D01*
X101121651Y-49535000D02*
X101121651Y-46590000D01*
X98481651Y-47652000D02*
X98481651Y-43448000D01*
X100281651Y-44510000D02*
X100281651Y-41846000D01*
X100881651Y-44510000D02*
X100881651Y-41625000D01*
X101682651Y-49618000D02*
X101682651Y-41482000D01*
X101442651Y-49592000D02*
X101442651Y-41508000D01*
X101362651Y-49580000D02*
X101362651Y-41520000D01*
X98121651Y-46896000D02*
X98121651Y-44204000D01*
X101402651Y-49587000D02*
X101402651Y-41513000D01*
X98161651Y-47003000D02*
X98161651Y-44097000D01*
X98081651Y-46779000D02*
X98081651Y-44321000D01*
X101522651Y-49602000D02*
X101522651Y-41498000D01*
X100241651Y-49236000D02*
X100241651Y-46590000D01*
X98641651Y-47895000D02*
X98641651Y-43205000D01*
X99761651Y-44510000D02*
X99761651Y-42132000D01*
X100921651Y-44510000D02*
X100921651Y-41614000D01*
X98841651Y-48154000D02*
X98841651Y-42946000D01*
X101802651Y-49626000D02*
X101802651Y-41474000D01*
X101882651Y-49629000D02*
X101882651Y-41471000D01*
X101281651Y-49567000D02*
X101281651Y-46590000D01*
X101602651Y-49611000D02*
X101602651Y-41489000D01*
X99321651Y-44510000D02*
X99321651Y-42460000D01*
X100001651Y-44510000D02*
X100001651Y-41988000D01*
X100201651Y-44510000D02*
X100201651Y-41884000D01*
X101081651Y-44510000D02*
X101081651Y-41574000D01*
X99521651Y-44510000D02*
X99521651Y-42300000D01*
X99201651Y-48533000D02*
X99201651Y-42567000D01*
X99001651Y-48334000D02*
X99001651Y-42766000D01*
X100481651Y-44510000D02*
X100481651Y-41760000D01*
X99361651Y-44510000D02*
X99361651Y-42426000D01*
X99601651Y-48859000D02*
X99601651Y-46590000D01*
X100601651Y-49385000D02*
X100601651Y-46590000D01*
X99761651Y-48968000D02*
X99761651Y-46590000D01*
X98761651Y-48055000D02*
X98761651Y-43045000D01*
X100681651Y-49413000D02*
X100681651Y-46590000D01*
X101081651Y-49526000D02*
X101081651Y-46590000D01*
X98401651Y-47514000D02*
X98401651Y-43586000D01*
X100401651Y-44510000D02*
X100401651Y-41793000D01*
X100961651Y-49497000D02*
X100961651Y-46590000D01*
X100521651Y-49355000D02*
X100521651Y-46590000D01*
X100921651Y-49486000D02*
X100921651Y-46590000D01*
X100241651Y-44510000D02*
X100241651Y-41864000D01*
X99601651Y-44510000D02*
X99601651Y-42241000D01*
X99081651Y-48417000D02*
X99081651Y-42683000D01*
X101241651Y-44510000D02*
X101241651Y-41540000D01*
X100721651Y-44510000D02*
X100721651Y-41673000D01*
X100081651Y-49156000D02*
X100081651Y-46590000D01*
X101161651Y-49544000D02*
X101161651Y-46590000D01*
X101041651Y-49517000D02*
X101041651Y-46590000D01*
X99041651Y-48376000D02*
X99041651Y-42724000D01*
X99481651Y-44510000D02*
X99481651Y-42330000D01*
X100441651Y-49324000D02*
X100441651Y-46590000D01*
X99801651Y-48994000D02*
X99801651Y-46590000D01*
X98361651Y-47440000D02*
X98361651Y-43660000D01*
X99561651Y-44510000D02*
X99561651Y-42270000D01*
X100361651Y-44510000D02*
X100361651Y-41810000D01*
X100401651Y-49307000D02*
X100401651Y-46590000D01*
X100321651Y-49272000D02*
X100321651Y-46590000D01*
X99321651Y-48640000D02*
X99321651Y-46590000D01*
X100121651Y-44510000D02*
X100121651Y-41923000D01*
X100881651Y-49475000D02*
X100881651Y-46590000D01*
X99241651Y-48569000D02*
X99241651Y-46590000D01*
X99841651Y-49019000D02*
X99841651Y-46590000D01*
X98241651Y-47195000D02*
X98241651Y-43905000D01*
X98721651Y-48004000D02*
X98721651Y-43096000D01*
X100601651Y-44510000D02*
X100601651Y-41715000D01*
X100761651Y-49439000D02*
X100761651Y-46590000D01*
X101482651Y-49598000D02*
X101482651Y-41502000D01*
X100761651Y-44510000D02*
X100761651Y-41661000D01*
X100361651Y-49290000D02*
X100361651Y-46590000D01*
X98561651Y-47778000D02*
X98561651Y-43322000D01*
X99921651Y-49067000D02*
X99921651Y-46590000D01*
X99481651Y-48770000D02*
X99481651Y-46590000D01*
X99681651Y-44510000D02*
X99681651Y-42185000D01*
X100681651Y-44510000D02*
X100681651Y-41687000D01*
X99721651Y-44510000D02*
X99721651Y-42158000D01*
X99841651Y-44510000D02*
X99841651Y-42081000D01*
X101001651Y-49507000D02*
X101001651Y-46590000D01*
X101001651Y-44510000D02*
X101001651Y-41593000D01*
X99281651Y-48605000D02*
X99281651Y-46590000D01*
X101722651Y-49621000D02*
X101722651Y-41479000D01*
X100041651Y-49134000D02*
X100041651Y-46590000D01*
X101281651Y-44510000D02*
X101281651Y-41533000D01*
X98881651Y-48201000D02*
X98881651Y-42899000D01*
X101201651Y-49552000D02*
X101201651Y-46590000D01*
X101241651Y-49560000D02*
X101241651Y-46590000D01*
X101922651Y-49630000D02*
X101922651Y-41470000D01*
X100521651Y-44510000D02*
X100521651Y-41745000D01*
X106012349Y-48265000D02*
X106012349Y-47465000D01*
X101161651Y-44510000D02*
X101161651Y-41556000D01*
X98921651Y-48247000D02*
X98921651Y-42853000D01*
X98001651Y-46498000D02*
X98001651Y-44602000D01*
X99281651Y-44510000D02*
X99281651Y-42495000D01*
X98441651Y-47584000D02*
X98441651Y-43516000D01*
X98521651Y-47716000D02*
X98521651Y-43384000D01*
X100641651Y-44510000D02*
X100641651Y-41700000D01*
X99401651Y-48706000D02*
X99401651Y-46590000D01*
X97921651Y-46083000D02*
X97921651Y-45017000D01*
X101962651Y-49630000D02*
X101962651Y-41470000D01*
X100161651Y-44510000D02*
X100161651Y-41903000D01*
X99721651Y-48942000D02*
X99721651Y-46590000D01*
X99881651Y-44510000D02*
X99881651Y-42057000D01*
X100121651Y-49177000D02*
X100121651Y-46590000D01*
X99961651Y-44510000D02*
X99961651Y-42010000D01*
X100281651Y-49254000D02*
X100281651Y-46590000D01*
X100561651Y-44510000D02*
X100561651Y-41729000D01*
X100561651Y-49371000D02*
X100561651Y-46590000D01*
X100641651Y-49400000D02*
X100641651Y-46590000D01*
X100001651Y-49112000D02*
X100001651Y-46590000D01*
X101762651Y-49624000D02*
X101762651Y-41476000D01*
X99121651Y-48457000D02*
X99121651Y-42643000D01*
X98601651Y-47837000D02*
X98601651Y-43263000D01*
X99561651Y-48830000D02*
X99561651Y-46590000D01*
X99681651Y-48915000D02*
X99681651Y-46590000D01*
X101041651Y-44510000D02*
X101041651Y-41583000D01*
X99641651Y-44510000D02*
X99641651Y-42212000D01*
X106412349Y-47865000D02*
X105612349Y-47865000D01*
X100041651Y-44510000D02*
X100041651Y-41966000D01*
X100801651Y-49452000D02*
X100801651Y-46590000D01*
X99961651Y-49090000D02*
X99961651Y-46590000D01*
X98681651Y-47950000D02*
X98681651Y-43150000D01*
X98281651Y-47281000D02*
X98281651Y-43819000D01*
X98201651Y-47102000D02*
X98201651Y-43998000D01*
X97961651Y-46318000D02*
X97961651Y-44782000D01*
X99441651Y-48739000D02*
X99441651Y-46590000D01*
X101562651Y-49607000D02*
X101562651Y-41493000D01*
X100841651Y-44510000D02*
X100841651Y-41636000D01*
X100441651Y-44510000D02*
X100441651Y-41776000D01*
X106122651Y-45550000D02*
G75*
G03*
X106122651Y-45550000I-4120000J0D01*
G01*
G04 #@! TO.C,RV1*
X101075000Y-50810000D02*
X101075000Y-55880000D01*
D13*
X109455000Y-55575000D02*
X109456000Y-53406000D01*
D10*
X101075000Y-55880000D02*
X110845000Y-55880000D01*
X101075000Y-50810000D02*
X110845000Y-50810000D01*
X110845000Y-50810000D02*
X110845000Y-55880000D01*
D13*
X110550000Y-54490000D02*
G75*
G03*
X110550000Y-54490000I-1095000J0D01*
G01*
D10*
G04 #@! TO.C,R2*
X108075000Y-48579721D02*
X108075000Y-48905279D01*
X109095000Y-48579721D02*
X109095000Y-48905279D01*
G04 #@! TO.C,U2*
X111760000Y-47010000D02*
X109810000Y-47010000D01*
X111760000Y-41890000D02*
X113710000Y-41890000D01*
X111760000Y-41890000D02*
X109810000Y-41890000D01*
X111760000Y-47010000D02*
X115210000Y-47010000D01*
G04 #@! TO.C,R1*
X117350000Y-43017221D02*
X117350000Y-43342779D01*
X116330000Y-43017221D02*
X116330000Y-43342779D01*
G04 #@! TO.C,C6*
X111597221Y-47750000D02*
X111922779Y-47750000D01*
X111597221Y-48770000D02*
X111922779Y-48770000D01*
G04 #@! TO.C,G\u002A\u002A\u002A*
G36*
X108106806Y-57867808D02*
G01*
X108107999Y-57816184D01*
X108110096Y-57770067D01*
X108113099Y-57732484D01*
X108114419Y-57721500D01*
X108140272Y-57575374D01*
X108177361Y-57434490D01*
X108225483Y-57299256D01*
X108284436Y-57170077D01*
X108354018Y-57047363D01*
X108434027Y-56931520D01*
X108524259Y-56822956D01*
X108598481Y-56746595D01*
X108707421Y-56650166D01*
X108822329Y-56564927D01*
X108943252Y-56490854D01*
X109070237Y-56427925D01*
X109203330Y-56376119D01*
X109342577Y-56335412D01*
X109488026Y-56305783D01*
X109537500Y-56298419D01*
X109571218Y-56295086D01*
X109614575Y-56292659D01*
X109664543Y-56291136D01*
X109718091Y-56290519D01*
X109772191Y-56290806D01*
X109823815Y-56291999D01*
X109869932Y-56294096D01*
X109907515Y-56297099D01*
X109918500Y-56298419D01*
X110064625Y-56324272D01*
X110205509Y-56361361D01*
X110340743Y-56409483D01*
X110469922Y-56468436D01*
X110592636Y-56538018D01*
X110708479Y-56618027D01*
X110817043Y-56708259D01*
X110893404Y-56782481D01*
X110989833Y-56891421D01*
X111075072Y-57006329D01*
X111149145Y-57127252D01*
X111212074Y-57254237D01*
X111263880Y-57387330D01*
X111304587Y-57526577D01*
X111334216Y-57672026D01*
X111341580Y-57721500D01*
X111344913Y-57755218D01*
X111347340Y-57798575D01*
X111348863Y-57848543D01*
X111349480Y-57902091D01*
X111349193Y-57956191D01*
X111348000Y-58007815D01*
X111345903Y-58053932D01*
X111342900Y-58091515D01*
X111341580Y-58102500D01*
X111315610Y-58250009D01*
X111278570Y-58391303D01*
X111230437Y-58526426D01*
X111171189Y-58655425D01*
X111100803Y-58778348D01*
X111019259Y-58895240D01*
X110926533Y-59006149D01*
X110893404Y-59041518D01*
X110790709Y-59139116D01*
X110680304Y-59226788D01*
X110562738Y-59304258D01*
X110438556Y-59371249D01*
X110308306Y-59427486D01*
X110172536Y-59472693D01*
X110031791Y-59506594D01*
X109941115Y-59521980D01*
X109912453Y-59525211D01*
X109874972Y-59528180D01*
X109831642Y-59530775D01*
X109785433Y-59532884D01*
X109739316Y-59534395D01*
X109696262Y-59535195D01*
X109659243Y-59535173D01*
X109631228Y-59534216D01*
X109626400Y-59533854D01*
X109476162Y-59515136D01*
X109332309Y-59485470D01*
X109194672Y-59444789D01*
X109063086Y-59393028D01*
X108937384Y-59330117D01*
X108817398Y-59255991D01*
X108702962Y-59170582D01*
X108683425Y-59154412D01*
X108577692Y-59057444D01*
X108481883Y-58952680D01*
X108396202Y-58840496D01*
X108320854Y-58721273D01*
X108256043Y-58595389D01*
X108201974Y-58463222D01*
X108158853Y-58325152D01*
X108126885Y-58181556D01*
X108114419Y-58102500D01*
X108111086Y-58068781D01*
X108108659Y-58025424D01*
X108107136Y-57975456D01*
X108106860Y-57951432D01*
X108458446Y-57951432D01*
X108468052Y-58071762D01*
X108489205Y-58191074D01*
X108521907Y-58308580D01*
X108566156Y-58423492D01*
X108621954Y-58535021D01*
X108689299Y-58642380D01*
X108714367Y-58677175D01*
X108739140Y-58707912D01*
X108771325Y-58744142D01*
X108808449Y-58783392D01*
X108848036Y-58823184D01*
X108887610Y-58861045D01*
X108924697Y-58894498D01*
X108956820Y-58921068D01*
X108962825Y-58925632D01*
X109068022Y-58996329D01*
X109179356Y-59056502D01*
X109295587Y-59105640D01*
X109415476Y-59143235D01*
X109537784Y-59168775D01*
X109562312Y-59172376D01*
X109610956Y-59177257D01*
X109667921Y-59180137D01*
X109728986Y-59181016D01*
X109789929Y-59179890D01*
X109846531Y-59176758D01*
X109888012Y-59172526D01*
X110013357Y-59149627D01*
X110135336Y-59114592D01*
X110253274Y-59067696D01*
X110366495Y-59009215D01*
X110474325Y-58939423D01*
X110493175Y-58925632D01*
X110523912Y-58900859D01*
X110560142Y-58868674D01*
X110599392Y-58831550D01*
X110639184Y-58791963D01*
X110677045Y-58752389D01*
X110710498Y-58715302D01*
X110737068Y-58683179D01*
X110741632Y-58677175D01*
X110812921Y-58571250D01*
X110872690Y-58460782D01*
X110920901Y-58346556D01*
X110957519Y-58229357D01*
X110982506Y-58109972D01*
X110995825Y-57989186D01*
X110997440Y-57867783D01*
X110987315Y-57746551D01*
X110965411Y-57626273D01*
X110931693Y-57507736D01*
X110886124Y-57391726D01*
X110828667Y-57279027D01*
X110808658Y-57245250D01*
X110771336Y-57188167D01*
X110730654Y-57133919D01*
X110684175Y-57079486D01*
X110629462Y-57021849D01*
X110623706Y-57016055D01*
X110566463Y-56960976D01*
X110512460Y-56914234D01*
X110458478Y-56873234D01*
X110401299Y-56835379D01*
X110394750Y-56831341D01*
X110283151Y-56770182D01*
X110168030Y-56720937D01*
X110050163Y-56683568D01*
X109930328Y-56658040D01*
X109809303Y-56644316D01*
X109687865Y-56642360D01*
X109566793Y-56652136D01*
X109446863Y-56673606D01*
X109328853Y-56706735D01*
X109213542Y-56751487D01*
X109101705Y-56807824D01*
X108994123Y-56875712D01*
X108962825Y-56898301D01*
X108932516Y-56922715D01*
X108896670Y-56954569D01*
X108857728Y-56991421D01*
X108818128Y-57030828D01*
X108780311Y-57070350D01*
X108746717Y-57107542D01*
X108719785Y-57139964D01*
X108714539Y-57146825D01*
X108643312Y-57252212D01*
X108583632Y-57362099D01*
X108535500Y-57475696D01*
X108498915Y-57592216D01*
X108473878Y-57710871D01*
X108460388Y-57830872D01*
X108458446Y-57951432D01*
X108106860Y-57951432D01*
X108106519Y-57921908D01*
X108106806Y-57867808D01*
G37*
D12*
X108106806Y-57867808D02*
X108107999Y-57816184D01*
X108110096Y-57770067D01*
X108113099Y-57732484D01*
X108114419Y-57721500D01*
X108140272Y-57575374D01*
X108177361Y-57434490D01*
X108225483Y-57299256D01*
X108284436Y-57170077D01*
X108354018Y-57047363D01*
X108434027Y-56931520D01*
X108524259Y-56822956D01*
X108598481Y-56746595D01*
X108707421Y-56650166D01*
X108822329Y-56564927D01*
X108943252Y-56490854D01*
X109070237Y-56427925D01*
X109203330Y-56376119D01*
X109342577Y-56335412D01*
X109488026Y-56305783D01*
X109537500Y-56298419D01*
X109571218Y-56295086D01*
X109614575Y-56292659D01*
X109664543Y-56291136D01*
X109718091Y-56290519D01*
X109772191Y-56290806D01*
X109823815Y-56291999D01*
X109869932Y-56294096D01*
X109907515Y-56297099D01*
X109918500Y-56298419D01*
X110064625Y-56324272D01*
X110205509Y-56361361D01*
X110340743Y-56409483D01*
X110469922Y-56468436D01*
X110592636Y-56538018D01*
X110708479Y-56618027D01*
X110817043Y-56708259D01*
X110893404Y-56782481D01*
X110989833Y-56891421D01*
X111075072Y-57006329D01*
X111149145Y-57127252D01*
X111212074Y-57254237D01*
X111263880Y-57387330D01*
X111304587Y-57526577D01*
X111334216Y-57672026D01*
X111341580Y-57721500D01*
X111344913Y-57755218D01*
X111347340Y-57798575D01*
X111348863Y-57848543D01*
X111349480Y-57902091D01*
X111349193Y-57956191D01*
X111348000Y-58007815D01*
X111345903Y-58053932D01*
X111342900Y-58091515D01*
X111341580Y-58102500D01*
X111315610Y-58250009D01*
X111278570Y-58391303D01*
X111230437Y-58526426D01*
X111171189Y-58655425D01*
X111100803Y-58778348D01*
X111019259Y-58895240D01*
X110926533Y-59006149D01*
X110893404Y-59041518D01*
X110790709Y-59139116D01*
X110680304Y-59226788D01*
X110562738Y-59304258D01*
X110438556Y-59371249D01*
X110308306Y-59427486D01*
X110172536Y-59472693D01*
X110031791Y-59506594D01*
X109941115Y-59521980D01*
X109912453Y-59525211D01*
X109874972Y-59528180D01*
X109831642Y-59530775D01*
X109785433Y-59532884D01*
X109739316Y-59534395D01*
X109696262Y-59535195D01*
X109659243Y-59535173D01*
X109631228Y-59534216D01*
X109626400Y-59533854D01*
X109476162Y-59515136D01*
X109332309Y-59485470D01*
X109194672Y-59444789D01*
X109063086Y-59393028D01*
X108937384Y-59330117D01*
X108817398Y-59255991D01*
X108702962Y-59170582D01*
X108683425Y-59154412D01*
X108577692Y-59057444D01*
X108481883Y-58952680D01*
X108396202Y-58840496D01*
X108320854Y-58721273D01*
X108256043Y-58595389D01*
X108201974Y-58463222D01*
X108158853Y-58325152D01*
X108126885Y-58181556D01*
X108114419Y-58102500D01*
X108111086Y-58068781D01*
X108108659Y-58025424D01*
X108107136Y-57975456D01*
X108106860Y-57951432D01*
X108458446Y-57951432D01*
X108468052Y-58071762D01*
X108489205Y-58191074D01*
X108521907Y-58308580D01*
X108566156Y-58423492D01*
X108621954Y-58535021D01*
X108689299Y-58642380D01*
X108714367Y-58677175D01*
X108739140Y-58707912D01*
X108771325Y-58744142D01*
X108808449Y-58783392D01*
X108848036Y-58823184D01*
X108887610Y-58861045D01*
X108924697Y-58894498D01*
X108956820Y-58921068D01*
X108962825Y-58925632D01*
X109068022Y-58996329D01*
X109179356Y-59056502D01*
X109295587Y-59105640D01*
X109415476Y-59143235D01*
X109537784Y-59168775D01*
X109562312Y-59172376D01*
X109610956Y-59177257D01*
X109667921Y-59180137D01*
X109728986Y-59181016D01*
X109789929Y-59179890D01*
X109846531Y-59176758D01*
X109888012Y-59172526D01*
X110013357Y-59149627D01*
X110135336Y-59114592D01*
X110253274Y-59067696D01*
X110366495Y-59009215D01*
X110474325Y-58939423D01*
X110493175Y-58925632D01*
X110523912Y-58900859D01*
X110560142Y-58868674D01*
X110599392Y-58831550D01*
X110639184Y-58791963D01*
X110677045Y-58752389D01*
X110710498Y-58715302D01*
X110737068Y-58683179D01*
X110741632Y-58677175D01*
X110812921Y-58571250D01*
X110872690Y-58460782D01*
X110920901Y-58346556D01*
X110957519Y-58229357D01*
X110982506Y-58109972D01*
X110995825Y-57989186D01*
X110997440Y-57867783D01*
X110987315Y-57746551D01*
X110965411Y-57626273D01*
X110931693Y-57507736D01*
X110886124Y-57391726D01*
X110828667Y-57279027D01*
X110808658Y-57245250D01*
X110771336Y-57188167D01*
X110730654Y-57133919D01*
X110684175Y-57079486D01*
X110629462Y-57021849D01*
X110623706Y-57016055D01*
X110566463Y-56960976D01*
X110512460Y-56914234D01*
X110458478Y-56873234D01*
X110401299Y-56835379D01*
X110394750Y-56831341D01*
X110283151Y-56770182D01*
X110168030Y-56720937D01*
X110050163Y-56683568D01*
X109930328Y-56658040D01*
X109809303Y-56644316D01*
X109687865Y-56642360D01*
X109566793Y-56652136D01*
X109446863Y-56673606D01*
X109328853Y-56706735D01*
X109213542Y-56751487D01*
X109101705Y-56807824D01*
X108994123Y-56875712D01*
X108962825Y-56898301D01*
X108932516Y-56922715D01*
X108896670Y-56954569D01*
X108857728Y-56991421D01*
X108818128Y-57030828D01*
X108780311Y-57070350D01*
X108746717Y-57107542D01*
X108719785Y-57139964D01*
X108714539Y-57146825D01*
X108643312Y-57252212D01*
X108583632Y-57362099D01*
X108535500Y-57475696D01*
X108498915Y-57592216D01*
X108473878Y-57710871D01*
X108460388Y-57830872D01*
X108458446Y-57951432D01*
X108106860Y-57951432D01*
X108106519Y-57921908D01*
X108106806Y-57867808D01*
G36*
X109769933Y-57104836D02*
G01*
X109805030Y-57120596D01*
X109834072Y-57144757D01*
X109854666Y-57175593D01*
X109860968Y-57192688D01*
X109862581Y-57205146D01*
X109863985Y-57229901D01*
X109865174Y-57266552D01*
X109866141Y-57314699D01*
X109866877Y-57373940D01*
X109867376Y-57443874D01*
X109867631Y-57524101D01*
X109867664Y-57565956D01*
X109867700Y-57915237D01*
X110109429Y-58156506D01*
X110159873Y-58207081D01*
X110206480Y-58254257D01*
X110248511Y-58297262D01*
X110285226Y-58335322D01*
X110315886Y-58367663D01*
X110339751Y-58393513D01*
X110356083Y-58412099D01*
X110364141Y-58422646D01*
X110364435Y-58423175D01*
X110375701Y-58457907D01*
X110377731Y-58483500D01*
X110372060Y-58524271D01*
X110356061Y-58559342D01*
X110331322Y-58587393D01*
X110299434Y-58607106D01*
X110261989Y-58617162D01*
X110220575Y-58616243D01*
X110218119Y-58615832D01*
X110195311Y-58609610D01*
X110173949Y-58600387D01*
X110170494Y-58598375D01*
X110161230Y-58590864D01*
X110144204Y-58575311D01*
X110120390Y-58552700D01*
X110090760Y-58524011D01*
X110056290Y-58490227D01*
X110017951Y-58452329D01*
X109976718Y-58411299D01*
X109933564Y-58368120D01*
X109889462Y-58323772D01*
X109845386Y-58279238D01*
X109802309Y-58235499D01*
X109761205Y-58193538D01*
X109723047Y-58154337D01*
X109688808Y-58118876D01*
X109659463Y-58088138D01*
X109635984Y-58063105D01*
X109619345Y-58044758D01*
X109610519Y-58034080D01*
X109609607Y-58032650D01*
X109607197Y-58027501D01*
X109605128Y-58021185D01*
X109603370Y-58012721D01*
X109601890Y-58001132D01*
X109600655Y-57985440D01*
X109599635Y-57964667D01*
X109598797Y-57937834D01*
X109598108Y-57903963D01*
X109597538Y-57862076D01*
X109597053Y-57811196D01*
X109596623Y-57750343D01*
X109596214Y-57678540D01*
X109595886Y-57613550D01*
X109595527Y-57520575D01*
X109595423Y-57439939D01*
X109595578Y-57371285D01*
X109595996Y-57314254D01*
X109596681Y-57268489D01*
X109597638Y-57233630D01*
X109598871Y-57209320D01*
X109600385Y-57195201D01*
X109600935Y-57192757D01*
X109617143Y-57158795D01*
X109642885Y-57130935D01*
X109675779Y-57110890D01*
X109713445Y-57100370D01*
X109731175Y-57099200D01*
X109769933Y-57104836D01*
G37*
X109769933Y-57104836D02*
X109805030Y-57120596D01*
X109834072Y-57144757D01*
X109854666Y-57175593D01*
X109860968Y-57192688D01*
X109862581Y-57205146D01*
X109863985Y-57229901D01*
X109865174Y-57266552D01*
X109866141Y-57314699D01*
X109866877Y-57373940D01*
X109867376Y-57443874D01*
X109867631Y-57524101D01*
X109867664Y-57565956D01*
X109867700Y-57915237D01*
X110109429Y-58156506D01*
X110159873Y-58207081D01*
X110206480Y-58254257D01*
X110248511Y-58297262D01*
X110285226Y-58335322D01*
X110315886Y-58367663D01*
X110339751Y-58393513D01*
X110356083Y-58412099D01*
X110364141Y-58422646D01*
X110364435Y-58423175D01*
X110375701Y-58457907D01*
X110377731Y-58483500D01*
X110372060Y-58524271D01*
X110356061Y-58559342D01*
X110331322Y-58587393D01*
X110299434Y-58607106D01*
X110261989Y-58617162D01*
X110220575Y-58616243D01*
X110218119Y-58615832D01*
X110195311Y-58609610D01*
X110173949Y-58600387D01*
X110170494Y-58598375D01*
X110161230Y-58590864D01*
X110144204Y-58575311D01*
X110120390Y-58552700D01*
X110090760Y-58524011D01*
X110056290Y-58490227D01*
X110017951Y-58452329D01*
X109976718Y-58411299D01*
X109933564Y-58368120D01*
X109889462Y-58323772D01*
X109845386Y-58279238D01*
X109802309Y-58235499D01*
X109761205Y-58193538D01*
X109723047Y-58154337D01*
X109688808Y-58118876D01*
X109659463Y-58088138D01*
X109635984Y-58063105D01*
X109619345Y-58044758D01*
X109610519Y-58034080D01*
X109609607Y-58032650D01*
X109607197Y-58027501D01*
X109605128Y-58021185D01*
X109603370Y-58012721D01*
X109601890Y-58001132D01*
X109600655Y-57985440D01*
X109599635Y-57964667D01*
X109598797Y-57937834D01*
X109598108Y-57903963D01*
X109597538Y-57862076D01*
X109597053Y-57811196D01*
X109596623Y-57750343D01*
X109596214Y-57678540D01*
X109595886Y-57613550D01*
X109595527Y-57520575D01*
X109595423Y-57439939D01*
X109595578Y-57371285D01*
X109595996Y-57314254D01*
X109596681Y-57268489D01*
X109597638Y-57233630D01*
X109598871Y-57209320D01*
X109600385Y-57195201D01*
X109600935Y-57192757D01*
X109617143Y-57158795D01*
X109642885Y-57130935D01*
X109675779Y-57110890D01*
X109713445Y-57100370D01*
X109731175Y-57099200D01*
X109769933Y-57104836D01*
G04 #@! TO.C,kibuzzard-6223B135*
G36*
X141972109Y-26970170D02*
G01*
X145047891Y-26970170D01*
X145705989Y-29163830D01*
X141314011Y-29163830D01*
X141511139Y-28506738D01*
X142650369Y-28506738D01*
X142658306Y-28590875D01*
X142680531Y-28625006D01*
X142721806Y-28643263D01*
X142797212Y-28651200D01*
X142886906Y-28609925D01*
X142891669Y-28606750D01*
X142970829Y-28535313D01*
X143256794Y-28535313D01*
X143264731Y-28601988D01*
X143296481Y-28639294D01*
X143371094Y-28651200D01*
X144253744Y-28651200D01*
X144334706Y-28636913D01*
X144361694Y-28602781D01*
X144369631Y-28536900D01*
X144361694Y-28470225D01*
X144329944Y-28432919D01*
X144255331Y-28421013D01*
X143950531Y-28421013D01*
X143950531Y-27624087D01*
X143948150Y-27569319D01*
X143933863Y-27528044D01*
X143892588Y-27495500D01*
X143814006Y-27485975D01*
X143734631Y-27495500D01*
X143692563Y-27528044D01*
X143678275Y-27568525D01*
X143675894Y-27622500D01*
X143675894Y-28421013D01*
X143372681Y-28421013D01*
X143291719Y-28435300D01*
X143264731Y-28469431D01*
X143256794Y-28535313D01*
X142970829Y-28535313D01*
X143152019Y-28371800D01*
X143209169Y-28278138D01*
X143159162Y-28179713D01*
X143063119Y-28124150D01*
X142951994Y-28173363D01*
X142931356Y-28192413D01*
X142931356Y-27625675D01*
X142928975Y-27567731D01*
X142913894Y-27524075D01*
X142871428Y-27493119D01*
X142791656Y-27482800D01*
X142709900Y-27493516D01*
X142667831Y-27525662D01*
X142652750Y-27567731D01*
X142650369Y-27622500D01*
X142650369Y-28506738D01*
X141511139Y-28506738D01*
X141972109Y-26970170D01*
G37*
G04 #@! TO.C,kibuzzard-6223B0D3*
G36*
X139967891Y-59407943D02*
G01*
X136892109Y-59407943D01*
X136692600Y-58742913D01*
X137489406Y-58742913D01*
X137498931Y-58825463D01*
X137541000Y-58869516D01*
X137629106Y-58884200D01*
X137710862Y-58873484D01*
X137752931Y-58841338D01*
X137768012Y-58799269D01*
X137770394Y-58744500D01*
X137770394Y-58565113D01*
X137970419Y-58565113D01*
X138019631Y-58561938D01*
X138081367Y-58708164D01*
X138122642Y-58803943D01*
X138143456Y-58849275D01*
X138172825Y-58880231D01*
X138223625Y-58895313D01*
X138305381Y-58873088D01*
X138379200Y-58827050D01*
X138403806Y-58771488D01*
X138379994Y-58688938D01*
X138335544Y-58587867D01*
X138299560Y-58504788D01*
X138272044Y-58439700D01*
X138338190Y-58355386D01*
X138377877Y-58256961D01*
X138391106Y-58144425D01*
X138389775Y-58131725D01*
X138467306Y-58131725D01*
X138475244Y-58212687D01*
X138518503Y-58257931D01*
X138607006Y-58273012D01*
X138687969Y-58263487D01*
X138730831Y-58234912D01*
X138745913Y-58195225D01*
X138748294Y-58142837D01*
X138748294Y-58133312D01*
X138754644Y-58096800D01*
X138796713Y-58022981D01*
X138884819Y-57985675D01*
X138964194Y-57999962D01*
X139006263Y-58030919D01*
X139030869Y-58073781D01*
X139041981Y-58114262D01*
X139027098Y-58183716D01*
X138982450Y-58249200D01*
X138916767Y-58309327D01*
X138838781Y-58362706D01*
X138754644Y-58413109D01*
X138670506Y-58464306D01*
X138592520Y-58521059D01*
X138526838Y-58588131D01*
X138482189Y-58663736D01*
X138467306Y-58746088D01*
X138508581Y-58846100D01*
X138607006Y-58888963D01*
X139227719Y-58888963D01*
X139326144Y-58869913D01*
X139360275Y-58828638D01*
X139370594Y-58748469D01*
X139361069Y-58667506D01*
X139323763Y-58621469D01*
X139230894Y-58606388D01*
X138940381Y-58606388D01*
X138940381Y-58598450D01*
X138980069Y-58582575D01*
X139078494Y-58528997D01*
X139189619Y-58441288D01*
X139241213Y-58384138D01*
X139284869Y-58311113D01*
X139314634Y-58227769D01*
X139324556Y-58139662D01*
X139311327Y-58030566D01*
X139271640Y-57929760D01*
X139205494Y-57837244D01*
X139118093Y-57763601D01*
X139014641Y-57719416D01*
X138895138Y-57704687D01*
X138775722Y-57719240D01*
X138672535Y-57762896D01*
X138585575Y-57835656D01*
X138519870Y-57926761D01*
X138480447Y-58025451D01*
X138467306Y-58131725D01*
X138389775Y-58131725D01*
X138380787Y-58046000D01*
X138349831Y-57957100D01*
X138303000Y-57881694D01*
X138245056Y-57823750D01*
X138156333Y-57767306D01*
X138065845Y-57733439D01*
X137973594Y-57722150D01*
X137630694Y-57722150D01*
X137548937Y-57732866D01*
X137506869Y-57765012D01*
X137491787Y-57807081D01*
X137489406Y-57861850D01*
X137489406Y-58742913D01*
X136692600Y-58742913D01*
X136227344Y-57192057D01*
X140632656Y-57192057D01*
X139967891Y-59407943D01*
G37*
G36*
X138065669Y-58038856D02*
G01*
X138111706Y-58144425D01*
X138065669Y-58249200D01*
X137973594Y-58284125D01*
X137770394Y-58284125D01*
X137770394Y-58003137D01*
X137970419Y-58003137D01*
X138065669Y-58038856D01*
G37*
G04 #@! TO.C,kibuzzard-6223B13F*
G36*
X138909425Y-28371800D02*
G01*
X138709400Y-28371800D01*
X138614150Y-28336081D01*
X138568113Y-28230513D01*
X138614150Y-28125738D01*
X138706225Y-28090813D01*
X138909425Y-28090813D01*
X138909425Y-28371800D01*
G37*
G36*
X136892109Y-26966995D02*
G01*
X139967891Y-26966995D01*
X140627894Y-29167005D01*
X136232106Y-29167005D01*
X136429234Y-28509913D01*
X137669587Y-28509913D01*
X137677525Y-28594050D01*
X137699750Y-28628181D01*
X137741025Y-28646438D01*
X137816431Y-28654375D01*
X137906125Y-28613100D01*
X137910887Y-28609925D01*
X138171237Y-28374975D01*
X138228387Y-28281313D01*
X138178381Y-28182888D01*
X138082337Y-28127325D01*
X137971212Y-28176538D01*
X137950575Y-28195588D01*
X137950575Y-27628850D01*
X137949531Y-27603450D01*
X138276012Y-27603450D01*
X138299825Y-27686000D01*
X138344275Y-27787071D01*
X138380258Y-27870150D01*
X138407775Y-27935237D01*
X138341629Y-28019551D01*
X138301942Y-28117976D01*
X138288712Y-28230513D01*
X138299031Y-28328938D01*
X138329987Y-28417838D01*
X138376819Y-28493244D01*
X138434763Y-28551188D01*
X138523486Y-28607632D01*
X138613974Y-28641499D01*
X138706225Y-28652788D01*
X139049125Y-28652788D01*
X139130881Y-28642072D01*
X139172950Y-28609925D01*
X139188031Y-28567856D01*
X139190413Y-28513088D01*
X139190413Y-27632025D01*
X139180888Y-27549475D01*
X139138819Y-27505422D01*
X139050713Y-27490737D01*
X138968956Y-27501453D01*
X138926888Y-27533600D01*
X138911806Y-27575669D01*
X138909425Y-27630437D01*
X138909425Y-27809825D01*
X138709400Y-27809825D01*
X138660188Y-27813000D01*
X138598451Y-27666774D01*
X138557176Y-27570994D01*
X138536363Y-27525662D01*
X138506994Y-27494706D01*
X138456194Y-27479625D01*
X138374437Y-27501850D01*
X138300619Y-27547887D01*
X138276012Y-27603450D01*
X137949531Y-27603450D01*
X137948194Y-27570906D01*
X137933112Y-27527250D01*
X137890647Y-27496294D01*
X137810875Y-27485975D01*
X137729119Y-27496691D01*
X137687050Y-27528837D01*
X137671969Y-27570906D01*
X137669587Y-27625675D01*
X137669587Y-28509913D01*
X136429234Y-28509913D01*
X136892109Y-26966995D01*
G37*
G04 #@! TO.C,kibuzzard-6223B18A*
G36*
X79167831Y-44498419D02*
G01*
X79132113Y-44593669D01*
X79026544Y-44639706D01*
X78921769Y-44593669D01*
X78886844Y-44501594D01*
X78886844Y-44298394D01*
X79167831Y-44298394D01*
X79167831Y-44498419D01*
G37*
G36*
X77763026Y-47281042D02*
G01*
X77763026Y-44751625D01*
X78275656Y-44751625D01*
X78297881Y-44833381D01*
X78343919Y-44907200D01*
X78399481Y-44931806D01*
X78482031Y-44907994D01*
X78583102Y-44863544D01*
X78666181Y-44827560D01*
X78731269Y-44800044D01*
X78815583Y-44866190D01*
X78914008Y-44905877D01*
X79026544Y-44919106D01*
X79124969Y-44908788D01*
X79213869Y-44877831D01*
X79289275Y-44831000D01*
X79347219Y-44773056D01*
X79403663Y-44684333D01*
X79437530Y-44593845D01*
X79448819Y-44501594D01*
X79448819Y-44158694D01*
X79438103Y-44076938D01*
X79405956Y-44034869D01*
X79363888Y-44019788D01*
X79309119Y-44017406D01*
X78428056Y-44017406D01*
X78345506Y-44026931D01*
X78301453Y-44069000D01*
X78286769Y-44157106D01*
X78297484Y-44238863D01*
X78329631Y-44280931D01*
X78371700Y-44296013D01*
X78426469Y-44298394D01*
X78605856Y-44298394D01*
X78605856Y-44498419D01*
X78609031Y-44547631D01*
X78462805Y-44609367D01*
X78367026Y-44650642D01*
X78321694Y-44671456D01*
X78290737Y-44700825D01*
X78275656Y-44751625D01*
X77763026Y-44751625D01*
X77763026Y-43472100D01*
X78286769Y-43472100D01*
X78312962Y-43553063D01*
X78355031Y-43595131D01*
X78382019Y-43606244D01*
X79263081Y-43911044D01*
X79340869Y-43930094D01*
X79398019Y-43903503D01*
X79442469Y-43823731D01*
X79458344Y-43749119D01*
X79441675Y-43695938D01*
X79407544Y-43666569D01*
X79353569Y-43645931D01*
X78820169Y-43471306D01*
X79371031Y-43288744D01*
X79422625Y-43244294D01*
X79448819Y-43168887D01*
X79437706Y-43103006D01*
X79401988Y-43053397D01*
X79345631Y-43022044D01*
X78823344Y-42849006D01*
X79353569Y-42674381D01*
X79431356Y-42638662D01*
X79456756Y-42581512D01*
X79440881Y-42498169D01*
X79397622Y-42418397D01*
X79340869Y-42391806D01*
X79263081Y-42409269D01*
X78382019Y-42715656D01*
X78358206Y-42726769D01*
X78310581Y-42770425D01*
X78286769Y-42853769D01*
X78323281Y-42941081D01*
X78355031Y-42966481D01*
X78382019Y-42980769D01*
X78406276Y-42988960D01*
X78471427Y-43010995D01*
X78577472Y-43046872D01*
X78724411Y-43096593D01*
X78912244Y-43160156D01*
X78364556Y-43345894D01*
X78312962Y-43391138D01*
X78286769Y-43472100D01*
X77763026Y-43472100D01*
X77763026Y-41567894D01*
X78286769Y-41567894D01*
X78297484Y-41649650D01*
X78329631Y-41691719D01*
X78371700Y-41706800D01*
X78426469Y-41709181D01*
X78605856Y-41709181D01*
X78605856Y-41907619D01*
X78617145Y-42000752D01*
X78651012Y-42091769D01*
X78707456Y-42180669D01*
X78765202Y-42239803D01*
X78840012Y-42287031D01*
X78928317Y-42317987D01*
X79026544Y-42328306D01*
X79124969Y-42317987D01*
X79213869Y-42287031D01*
X79289275Y-42239803D01*
X79347219Y-42180669D01*
X79403663Y-42091945D01*
X79437530Y-42001458D01*
X79448819Y-41909206D01*
X79448819Y-41569481D01*
X79438103Y-41487725D01*
X79405956Y-41445656D01*
X79363888Y-41430575D01*
X79309119Y-41428194D01*
X78428056Y-41428194D01*
X78345506Y-41437719D01*
X78301453Y-41479787D01*
X78286769Y-41567894D01*
X77763026Y-41567894D01*
X77763026Y-39078958D01*
X79970974Y-38416574D01*
X79970974Y-47943426D01*
X77763026Y-47281042D01*
G37*
G36*
X79167831Y-41907619D02*
G01*
X79132113Y-42002869D01*
X79026544Y-42048906D01*
X78921769Y-42002869D01*
X78886844Y-41909206D01*
X78886844Y-41709181D01*
X79167831Y-41709181D01*
X79167831Y-41907619D01*
G37*
G04 #@! TO.C,kibuzzard-6223B1FE*
G36*
X98081042Y-59395243D02*
G01*
X89878958Y-59395243D01*
X89681830Y-58738150D01*
X92379006Y-58738150D01*
X92388531Y-58820700D01*
X92430600Y-58865944D01*
X92518706Y-58881025D01*
X92936219Y-58881025D01*
X93031733Y-58869119D01*
X93117194Y-58833400D01*
X93192600Y-58773869D01*
X93251602Y-58696699D01*
X93287850Y-58608063D01*
X93301344Y-58507963D01*
X93290937Y-58418886D01*
X93259716Y-58335807D01*
X93207681Y-58258725D01*
X93252925Y-58167047D01*
X93268006Y-58066637D01*
X93256541Y-57974915D01*
X93222145Y-57892365D01*
X93174741Y-57831687D01*
X93364844Y-57831687D01*
X93372781Y-57898362D01*
X93404531Y-57935669D01*
X93479144Y-57947575D01*
X93783944Y-57947575D01*
X93783944Y-58744500D01*
X93786325Y-58799269D01*
X93800612Y-58840544D01*
X93841887Y-58873088D01*
X93920469Y-58882613D01*
X93999844Y-58873088D01*
X94041913Y-58840544D01*
X94056200Y-58800062D01*
X94058581Y-58746088D01*
X94058581Y-58741325D01*
X94564994Y-58741325D01*
X94567375Y-58796888D01*
X94582456Y-58839750D01*
X94623731Y-58871897D01*
X94703106Y-58882613D01*
X94784863Y-58871897D01*
X94826931Y-58839750D01*
X94842013Y-58798475D01*
X94844394Y-58742913D01*
X94844394Y-58220625D01*
X94888756Y-58278481D01*
X94946699Y-58354681D01*
X95018225Y-58449225D01*
X95103333Y-58562114D01*
X95202022Y-58693347D01*
X95314294Y-58842925D01*
X95353981Y-58873088D01*
X95439706Y-58882613D01*
X95521463Y-58871897D01*
X95563531Y-58839750D01*
X95578613Y-58798475D01*
X95580994Y-58742913D01*
X95580994Y-57861850D01*
X95571469Y-57780887D01*
X95551625Y-57747550D01*
X95510350Y-57728500D01*
X95437325Y-57720562D01*
X95361919Y-57730087D01*
X95316675Y-57767394D01*
X95301594Y-57855500D01*
X95301594Y-58392075D01*
X95257849Y-58334793D01*
X95201758Y-58260312D01*
X95133319Y-58168634D01*
X95052533Y-58059758D01*
X94959399Y-57933684D01*
X94853919Y-57790412D01*
X94817406Y-57749137D01*
X94778513Y-57729294D01*
X94703106Y-57720562D01*
X94625319Y-57730087D01*
X94580075Y-57767394D01*
X94564994Y-57855500D01*
X94564994Y-58741325D01*
X94058581Y-58741325D01*
X94058581Y-57947575D01*
X94361794Y-57947575D01*
X94442756Y-57933287D01*
X94469744Y-57899156D01*
X94477681Y-57833275D01*
X94469744Y-57766600D01*
X94437994Y-57729294D01*
X94363381Y-57717387D01*
X93480731Y-57717387D01*
X93399769Y-57731675D01*
X93372781Y-57765806D01*
X93364844Y-57831687D01*
X93174741Y-57831687D01*
X93164819Y-57818987D01*
X93093910Y-57762543D01*
X93012419Y-57728676D01*
X92920344Y-57717387D01*
X92520294Y-57717387D01*
X92438537Y-57728103D01*
X92396469Y-57760250D01*
X92381387Y-57801525D01*
X92379006Y-57857087D01*
X92379006Y-58738150D01*
X89681830Y-58738150D01*
X89221813Y-57204757D01*
X98738187Y-57204757D01*
X98081042Y-59395243D01*
G37*
G36*
X92960825Y-58014250D02*
G01*
X92987019Y-58069812D01*
X92982256Y-58126962D01*
X92906056Y-58160300D01*
X92808425Y-58182525D01*
X92779056Y-58273806D01*
X92807631Y-58365088D01*
X92893356Y-58387313D01*
X92982256Y-58400013D01*
X93011625Y-58431763D01*
X93020356Y-58492088D01*
X92995353Y-58573050D01*
X92920344Y-58600038D01*
X92659994Y-58600038D01*
X92659994Y-57998375D01*
X92882244Y-57998375D01*
X92960825Y-58014250D01*
G37*
D10*
G04 #@! TO.C,C8*
X99590000Y-54140580D02*
X99590000Y-53859420D01*
X100610000Y-54140580D02*
X100610000Y-53859420D01*
G04 #@! TO.C,kibuzzard-621F68B9*
G36*
X121776302Y-55814293D02*
G01*
X111523698Y-55814293D01*
X111523698Y-55138150D01*
X112764594Y-55138150D01*
X112774119Y-55219113D01*
X112816187Y-55264356D01*
X112904294Y-55279438D01*
X113475794Y-55279438D01*
X113558344Y-55263563D01*
X113585331Y-55228638D01*
X113593269Y-55161169D01*
X113590561Y-55138150D01*
X113696456Y-55138150D01*
X113705981Y-55219113D01*
X113748050Y-55264356D01*
X113836156Y-55279438D01*
X114464806Y-55279438D01*
X114547356Y-55269913D01*
X114591409Y-55227844D01*
X114606094Y-55139738D01*
X114595378Y-55057981D01*
X114563231Y-55015913D01*
X114521162Y-55000831D01*
X114466394Y-54998450D01*
X113977444Y-54998450D01*
X113977444Y-54838113D01*
X114288594Y-54838113D01*
X114371144Y-54828588D01*
X114416387Y-54786519D01*
X114431469Y-54698412D01*
X114430637Y-54692062D01*
X114685469Y-54692062D01*
X114695986Y-54811323D01*
X114727537Y-54921456D01*
X114775361Y-55017500D01*
X114834694Y-55094494D01*
X114903948Y-55156803D01*
X114981537Y-55208794D01*
X115062103Y-55248878D01*
X115140287Y-55275469D01*
X115216884Y-55290352D01*
X115292687Y-55295313D01*
X115369483Y-55288963D01*
X115449056Y-55269913D01*
X115556212Y-55228638D01*
X115610981Y-55195300D01*
X115660987Y-55155613D01*
X115682419Y-55100050D01*
X115647494Y-55011150D01*
X115592328Y-54944475D01*
X115541131Y-54922250D01*
X115464931Y-54954000D01*
X115436356Y-54974638D01*
X115373650Y-55000038D01*
X115280781Y-55012738D01*
X115177991Y-54995275D01*
X115079169Y-54942888D01*
X114998206Y-54842875D01*
X114974394Y-54775208D01*
X114966456Y-54699206D01*
X114966539Y-54698412D01*
X115763381Y-54698412D01*
X115768497Y-54809714D01*
X115783842Y-54912901D01*
X115809419Y-55007975D01*
X115843748Y-55087747D01*
X115886412Y-55155613D01*
X115942372Y-55212564D01*
X116016587Y-55259594D01*
X116106083Y-55291145D01*
X116207881Y-55301663D01*
X116309283Y-55291344D01*
X116397588Y-55260388D01*
X116470414Y-55213556D01*
X116525381Y-55155613D01*
X116579555Y-55064034D01*
X116618250Y-54957572D01*
X116641467Y-54836227D01*
X116649206Y-54700000D01*
X116643915Y-54595049D01*
X116628040Y-54493978D01*
X116626215Y-54487275D01*
X116712706Y-54487275D01*
X116762713Y-54585700D01*
X116858756Y-54641262D01*
X116969881Y-54592050D01*
X116990519Y-54573000D01*
X116990519Y-55139738D01*
X116992900Y-55197681D01*
X117007981Y-55241338D01*
X117050447Y-55272294D01*
X117130219Y-55282613D01*
X117211975Y-55271897D01*
X117254044Y-55239750D01*
X117269125Y-55197681D01*
X117271506Y-55142913D01*
X117271506Y-54487275D01*
X117358819Y-54487275D01*
X117408825Y-54585700D01*
X117504869Y-54641262D01*
X117615994Y-54592050D01*
X117636631Y-54573000D01*
X117636631Y-55139738D01*
X117639013Y-55197681D01*
X117654094Y-55241338D01*
X117696559Y-55272294D01*
X117776331Y-55282613D01*
X117858088Y-55271897D01*
X117900156Y-55239750D01*
X117915238Y-55197681D01*
X117917619Y-55142913D01*
X117917619Y-54487275D01*
X118004931Y-54487275D01*
X118054938Y-54585700D01*
X118150981Y-54641262D01*
X118262106Y-54592050D01*
X118282744Y-54573000D01*
X118282744Y-55139738D01*
X118285125Y-55197681D01*
X118300206Y-55241338D01*
X118342672Y-55272294D01*
X118422444Y-55282613D01*
X118504200Y-55271897D01*
X118546269Y-55239750D01*
X118561350Y-55197681D01*
X118563731Y-55142913D01*
X118563731Y-54698412D01*
X118666919Y-54698412D01*
X118672034Y-54809714D01*
X118687380Y-54912901D01*
X118712956Y-55007975D01*
X118747286Y-55087747D01*
X118789950Y-55155613D01*
X118845909Y-55212564D01*
X118920125Y-55259594D01*
X119009620Y-55291145D01*
X119111419Y-55301663D01*
X119212820Y-55291344D01*
X119301125Y-55260388D01*
X119373952Y-55213556D01*
X119428919Y-55155613D01*
X119438310Y-55139738D01*
X119632119Y-55139738D01*
X119673394Y-55239750D01*
X119771819Y-55282613D01*
X120392531Y-55282613D01*
X120490956Y-55263563D01*
X120525088Y-55222288D01*
X120535406Y-55142119D01*
X120525881Y-55061156D01*
X120488575Y-55015119D01*
X120395706Y-55000038D01*
X120105194Y-55000038D01*
X120105194Y-54992100D01*
X120144881Y-54976225D01*
X120243306Y-54922647D01*
X120354431Y-54834938D01*
X120406025Y-54777788D01*
X120449681Y-54704763D01*
X120479447Y-54621419D01*
X120489369Y-54533312D01*
X120476140Y-54424216D01*
X120436452Y-54323410D01*
X120370306Y-54230894D01*
X120282906Y-54157251D01*
X120179453Y-54113066D01*
X120059950Y-54098337D01*
X119940535Y-54112890D01*
X119837347Y-54156546D01*
X119750388Y-54229306D01*
X119684683Y-54320411D01*
X119645260Y-54419101D01*
X119632119Y-54525375D01*
X119640056Y-54606337D01*
X119683316Y-54651581D01*
X119771819Y-54666662D01*
X119852781Y-54657137D01*
X119895644Y-54628562D01*
X119910725Y-54588875D01*
X119913106Y-54536487D01*
X119913106Y-54526962D01*
X119919456Y-54490450D01*
X119961525Y-54416631D01*
X120049631Y-54379325D01*
X120129006Y-54393612D01*
X120171075Y-54424569D01*
X120195681Y-54467431D01*
X120206794Y-54507912D01*
X120191911Y-54577366D01*
X120147263Y-54642850D01*
X120081580Y-54702977D01*
X120003594Y-54756356D01*
X119919456Y-54806759D01*
X119835319Y-54857956D01*
X119757333Y-54914709D01*
X119691650Y-54981781D01*
X119647002Y-55057386D01*
X119632119Y-55139738D01*
X119438310Y-55139738D01*
X119483092Y-55064034D01*
X119521788Y-54957572D01*
X119545005Y-54836227D01*
X119552744Y-54700000D01*
X119547452Y-54595049D01*
X119531577Y-54493978D01*
X119505119Y-54396787D01*
X119471980Y-54316619D01*
X119429713Y-54247562D01*
X119374150Y-54189222D01*
X119301125Y-54141200D01*
X119212423Y-54109053D01*
X119109831Y-54098337D01*
X119006842Y-54109252D01*
X118916950Y-54141994D01*
X118842933Y-54190809D01*
X118787569Y-54249944D01*
X118743714Y-54326342D01*
X118704225Y-54426950D01*
X118683499Y-54507207D01*
X118671064Y-54597694D01*
X118666919Y-54698412D01*
X118563731Y-54698412D01*
X118563731Y-54258675D01*
X118555794Y-54174537D01*
X118533569Y-54140406D01*
X118492294Y-54122150D01*
X118416888Y-54114212D01*
X118327194Y-54155487D01*
X118322431Y-54158662D01*
X118062081Y-54393612D01*
X118004931Y-54487275D01*
X117917619Y-54487275D01*
X117917619Y-54258675D01*
X117909681Y-54174537D01*
X117887456Y-54140406D01*
X117846181Y-54122150D01*
X117770775Y-54114212D01*
X117681081Y-54155487D01*
X117676319Y-54158662D01*
X117415969Y-54393612D01*
X117358819Y-54487275D01*
X117271506Y-54487275D01*
X117271506Y-54258675D01*
X117263569Y-54174537D01*
X117241344Y-54140406D01*
X117200069Y-54122150D01*
X117124663Y-54114212D01*
X117034969Y-54155487D01*
X117030206Y-54158662D01*
X116769856Y-54393612D01*
X116712706Y-54487275D01*
X116626215Y-54487275D01*
X116601581Y-54396787D01*
X116568442Y-54316619D01*
X116526175Y-54247562D01*
X116470612Y-54189222D01*
X116397588Y-54141200D01*
X116308886Y-54109053D01*
X116206294Y-54098337D01*
X116103305Y-54109252D01*
X116013412Y-54141994D01*
X115939395Y-54190809D01*
X115884031Y-54249944D01*
X115840177Y-54326342D01*
X115800687Y-54426950D01*
X115779962Y-54507207D01*
X115767526Y-54597694D01*
X115763381Y-54698412D01*
X114966539Y-54698412D01*
X114974394Y-54623205D01*
X114998206Y-54555537D01*
X115077581Y-54457112D01*
X115178387Y-54403534D01*
X115280781Y-54385675D01*
X115380794Y-54399169D01*
X115458581Y-54439650D01*
X115539544Y-54474575D01*
X115591931Y-54453144D01*
X115650669Y-54388850D01*
X115684006Y-54300744D01*
X115642731Y-54225337D01*
X115598281Y-54196762D01*
X115560181Y-54174537D01*
X115443500Y-54127706D01*
X115367102Y-54110442D01*
X115291894Y-54104687D01*
X115187295Y-54114212D01*
X115083049Y-54142787D01*
X114979156Y-54190412D01*
X114901170Y-54240220D01*
X114832312Y-54300744D01*
X114773773Y-54375356D01*
X114726744Y-54467431D01*
X114695787Y-54573992D01*
X114685469Y-54692062D01*
X114430637Y-54692062D01*
X114420753Y-54616656D01*
X114388606Y-54574587D01*
X114346537Y-54559506D01*
X114291769Y-54557125D01*
X113977444Y-54557125D01*
X113977444Y-54396787D01*
X114464806Y-54396787D01*
X114547356Y-54387262D01*
X114591409Y-54345194D01*
X114606094Y-54257087D01*
X114595378Y-54175331D01*
X114563231Y-54133262D01*
X114521162Y-54118181D01*
X114466394Y-54115800D01*
X113840919Y-54115800D01*
X113726619Y-54145169D01*
X113696456Y-54255500D01*
X113696456Y-55138150D01*
X113590561Y-55138150D01*
X113585331Y-55093700D01*
X113553581Y-55056394D01*
X113477381Y-55044488D01*
X113045581Y-55044488D01*
X113045581Y-54257087D01*
X113037644Y-54174537D01*
X112994384Y-54130484D01*
X112905881Y-54115800D01*
X112824125Y-54126516D01*
X112782056Y-54158662D01*
X112766975Y-54200731D01*
X112764594Y-54255500D01*
X112764594Y-55138150D01*
X111523698Y-55138150D01*
X111523698Y-53585707D01*
X121776302Y-53585707D01*
X121776302Y-55814293D01*
G37*
G36*
X119180673Y-54399268D02*
G01*
X119231275Y-54459097D01*
X119261636Y-54558812D01*
X119271756Y-54698412D01*
X119271756Y-54707938D01*
X119261537Y-54844066D01*
X119230878Y-54941300D01*
X119179780Y-54999641D01*
X119108244Y-55019088D01*
X119038096Y-54999095D01*
X118987991Y-54939117D01*
X118957927Y-54839154D01*
X118947906Y-54699206D01*
X118958027Y-54559258D01*
X118988388Y-54459295D01*
X119038989Y-54399318D01*
X119109831Y-54379325D01*
X119180673Y-54399268D01*
G37*
G36*
X116277136Y-54399268D02*
G01*
X116327737Y-54459097D01*
X116358098Y-54558812D01*
X116368219Y-54698412D01*
X116368219Y-54707938D01*
X116357999Y-54844066D01*
X116327341Y-54941300D01*
X116276243Y-54999641D01*
X116204706Y-55019088D01*
X116134559Y-54999095D01*
X116084453Y-54939117D01*
X116054390Y-54839154D01*
X116044369Y-54699206D01*
X116054489Y-54559258D01*
X116084850Y-54459295D01*
X116135452Y-54399318D01*
X116206294Y-54379325D01*
X116277136Y-54399268D01*
G37*
G04 #@! TO.C,kibuzzard-6223B147*
G36*
X131812109Y-26959057D02*
G01*
X134887891Y-26959057D01*
X135552656Y-29174943D01*
X131147344Y-29174943D01*
X131347329Y-28508325D01*
X132539581Y-28508325D01*
X132547519Y-28592463D01*
X132569744Y-28626594D01*
X132611019Y-28644850D01*
X132686425Y-28652788D01*
X132776119Y-28611513D01*
X132780881Y-28608338D01*
X132938323Y-28466256D01*
X133161881Y-28466256D01*
X133203156Y-28541663D01*
X133247606Y-28570238D01*
X133285706Y-28592463D01*
X133402388Y-28639294D01*
X133478786Y-28656558D01*
X133553994Y-28662313D01*
X133658592Y-28652788D01*
X133762838Y-28624213D01*
X133866731Y-28576588D01*
X133944717Y-28526780D01*
X134013575Y-28466256D01*
X134072114Y-28391644D01*
X134119144Y-28299569D01*
X134150100Y-28193008D01*
X134160419Y-28074938D01*
X134149902Y-27955677D01*
X134118350Y-27845544D01*
X134070527Y-27749500D01*
X134011194Y-27672506D01*
X133941939Y-27610197D01*
X133864350Y-27558206D01*
X133783784Y-27518122D01*
X133705600Y-27491531D01*
X133629003Y-27476648D01*
X133553200Y-27471687D01*
X133476405Y-27478037D01*
X133396831Y-27497087D01*
X133289675Y-27538362D01*
X133234906Y-27571700D01*
X133184900Y-27611387D01*
X133163469Y-27666950D01*
X133198394Y-27755850D01*
X133253559Y-27822525D01*
X133304756Y-27844750D01*
X133380956Y-27813000D01*
X133409531Y-27792362D01*
X133472238Y-27766962D01*
X133565106Y-27754262D01*
X133667897Y-27771725D01*
X133766719Y-27824112D01*
X133847681Y-27924125D01*
X133871494Y-27991792D01*
X133879431Y-28067794D01*
X133871494Y-28143795D01*
X133847681Y-28211463D01*
X133768306Y-28309888D01*
X133667500Y-28363466D01*
X133565106Y-28381325D01*
X133465094Y-28367831D01*
X133387306Y-28327350D01*
X133306344Y-28292425D01*
X133253956Y-28313856D01*
X133195219Y-28378150D01*
X133161881Y-28466256D01*
X132938323Y-28466256D01*
X133041231Y-28373388D01*
X133098381Y-28279725D01*
X133048375Y-28181300D01*
X132952331Y-28125738D01*
X132841206Y-28174950D01*
X132820569Y-28194000D01*
X132820569Y-27627262D01*
X132818187Y-27569319D01*
X132803106Y-27525662D01*
X132760641Y-27494706D01*
X132680869Y-27484387D01*
X132599112Y-27495103D01*
X132557044Y-27527250D01*
X132541962Y-27569319D01*
X132539581Y-27624087D01*
X132539581Y-28508325D01*
X131347329Y-28508325D01*
X131812109Y-26959057D01*
G37*
G04 #@! TO.C,kibuzzard-621F6901*
G36*
X134987891Y-59411118D02*
G01*
X131912109Y-59411118D01*
X131577345Y-58295237D01*
X132459400Y-58295237D01*
X132469917Y-58414498D01*
X132501469Y-58524631D01*
X132549292Y-58620675D01*
X132608625Y-58697669D01*
X132677880Y-58759978D01*
X132755469Y-58811969D01*
X132836034Y-58852053D01*
X132914219Y-58878644D01*
X132990816Y-58893527D01*
X133066619Y-58898488D01*
X133143414Y-58892138D01*
X133222987Y-58873088D01*
X133330144Y-58831813D01*
X133384912Y-58798475D01*
X133434919Y-58758788D01*
X133456350Y-58703225D01*
X133421425Y-58614325D01*
X133366259Y-58547650D01*
X133315062Y-58525425D01*
X133238862Y-58557175D01*
X133210287Y-58577813D01*
X133147581Y-58603213D01*
X133054712Y-58615913D01*
X132951922Y-58598450D01*
X132853100Y-58546063D01*
X132772137Y-58446050D01*
X132748325Y-58378383D01*
X132740387Y-58302381D01*
X132748325Y-58226380D01*
X132772137Y-58158712D01*
X132796461Y-58128550D01*
X133537313Y-58128550D01*
X133545250Y-58209512D01*
X133588509Y-58254756D01*
X133677013Y-58269837D01*
X133757975Y-58260312D01*
X133800838Y-58231737D01*
X133815919Y-58192050D01*
X133818300Y-58139662D01*
X133818300Y-58130137D01*
X133824650Y-58093625D01*
X133866719Y-58019806D01*
X133954825Y-57982500D01*
X134034200Y-57996787D01*
X134076269Y-58027744D01*
X134100875Y-58070606D01*
X134111988Y-58111087D01*
X134097105Y-58180541D01*
X134052456Y-58246025D01*
X133986773Y-58306152D01*
X133908788Y-58359531D01*
X133824650Y-58409934D01*
X133740513Y-58461131D01*
X133662527Y-58517884D01*
X133596844Y-58584956D01*
X133552195Y-58660561D01*
X133537313Y-58742913D01*
X133578588Y-58842925D01*
X133677013Y-58885788D01*
X134297725Y-58885788D01*
X134396150Y-58866738D01*
X134430281Y-58825463D01*
X134440600Y-58745294D01*
X134431075Y-58664331D01*
X134393769Y-58618294D01*
X134300900Y-58603213D01*
X134010388Y-58603213D01*
X134010388Y-58595275D01*
X134050075Y-58579400D01*
X134148500Y-58525822D01*
X134259625Y-58438113D01*
X134311219Y-58380963D01*
X134354875Y-58307938D01*
X134384641Y-58224594D01*
X134394563Y-58136487D01*
X134381333Y-58027391D01*
X134341646Y-57926585D01*
X134275500Y-57834069D01*
X134188099Y-57760426D01*
X134084647Y-57716241D01*
X133965144Y-57701512D01*
X133845728Y-57716065D01*
X133742541Y-57759721D01*
X133655581Y-57832481D01*
X133589876Y-57923586D01*
X133550453Y-58022276D01*
X133537313Y-58128550D01*
X132796461Y-58128550D01*
X132851512Y-58060287D01*
X132952319Y-58006709D01*
X133054712Y-57988850D01*
X133154725Y-58002344D01*
X133232512Y-58042825D01*
X133313475Y-58077750D01*
X133365862Y-58056319D01*
X133424600Y-57992025D01*
X133457938Y-57903919D01*
X133416662Y-57828512D01*
X133372212Y-57799938D01*
X133334112Y-57777712D01*
X133217431Y-57730881D01*
X133141033Y-57713617D01*
X133065825Y-57707862D01*
X132961226Y-57717387D01*
X132856981Y-57745962D01*
X132753087Y-57793587D01*
X132675102Y-57843395D01*
X132606244Y-57903919D01*
X132547705Y-57978531D01*
X132500675Y-58070606D01*
X132469719Y-58177167D01*
X132459400Y-58295237D01*
X131577345Y-58295237D01*
X131245439Y-57188882D01*
X135654561Y-57188882D01*
X134987891Y-59411118D01*
G37*
G04 #@! TO.C,kibuzzard-6223B0EB*
G36*
X145062443Y-59404768D02*
G01*
X141957557Y-59404768D01*
X141487538Y-57838037D01*
X142470187Y-57838037D01*
X142478125Y-57904712D01*
X142509875Y-57942019D01*
X142584487Y-57953925D01*
X142889287Y-57953925D01*
X142889287Y-58750850D01*
X142891669Y-58805619D01*
X142905956Y-58846894D01*
X142947231Y-58879438D01*
X143025812Y-58888963D01*
X143105187Y-58879438D01*
X143147256Y-58846894D01*
X143161544Y-58806413D01*
X143163925Y-58752438D01*
X143163925Y-58134900D01*
X143646525Y-58134900D01*
X143654463Y-58215862D01*
X143697722Y-58261106D01*
X143786225Y-58276187D01*
X143867188Y-58266662D01*
X143910050Y-58238087D01*
X143925131Y-58198400D01*
X143927513Y-58146012D01*
X143927513Y-58136487D01*
X143933863Y-58099975D01*
X143975931Y-58026156D01*
X144064038Y-57988850D01*
X144143413Y-58003137D01*
X144185481Y-58034094D01*
X144210088Y-58076956D01*
X144221200Y-58117437D01*
X144206317Y-58186891D01*
X144161669Y-58252375D01*
X144095986Y-58312502D01*
X144018000Y-58365881D01*
X143933863Y-58416284D01*
X143849725Y-58467481D01*
X143771739Y-58524234D01*
X143706056Y-58591306D01*
X143661408Y-58666911D01*
X143646525Y-58749263D01*
X143687800Y-58849275D01*
X143786225Y-58892138D01*
X144406938Y-58892138D01*
X144505363Y-58873088D01*
X144539494Y-58831813D01*
X144549813Y-58751644D01*
X144540288Y-58670681D01*
X144502981Y-58624644D01*
X144410113Y-58609563D01*
X144119600Y-58609563D01*
X144119600Y-58601625D01*
X144159288Y-58585750D01*
X144257713Y-58532172D01*
X144368838Y-58444463D01*
X144420431Y-58387313D01*
X144464088Y-58314288D01*
X144493853Y-58230944D01*
X144503775Y-58142837D01*
X144490546Y-58033741D01*
X144450858Y-57932935D01*
X144384713Y-57840419D01*
X144297312Y-57766776D01*
X144193860Y-57722591D01*
X144074356Y-57707862D01*
X143954941Y-57722415D01*
X143851753Y-57766071D01*
X143764794Y-57838831D01*
X143699089Y-57929936D01*
X143659666Y-58028626D01*
X143646525Y-58134900D01*
X143163925Y-58134900D01*
X143163925Y-57953925D01*
X143467137Y-57953925D01*
X143548100Y-57939637D01*
X143575088Y-57905506D01*
X143583025Y-57839625D01*
X143575088Y-57772950D01*
X143543338Y-57735644D01*
X143468725Y-57723737D01*
X142586075Y-57723737D01*
X142505113Y-57738025D01*
X142478125Y-57772156D01*
X142470187Y-57838037D01*
X141487538Y-57838037D01*
X141294697Y-57195232D01*
X145725303Y-57195232D01*
X145062443Y-59404768D01*
G37*
G04 #@! TO.C,kibuzzard-6224C48E*
G36*
X113532642Y-57761287D02*
G01*
X113583244Y-57821116D01*
X113613605Y-57920830D01*
X113623725Y-58060431D01*
X113623725Y-58069956D01*
X113613505Y-58206084D01*
X113582847Y-58303319D01*
X113531749Y-58361659D01*
X113460212Y-58381106D01*
X113390065Y-58361114D01*
X113339959Y-58301136D01*
X113309896Y-58201173D01*
X113299875Y-58061225D01*
X113309995Y-57921277D01*
X113340356Y-57821314D01*
X113390958Y-57761336D01*
X113461800Y-57741344D01*
X113532642Y-57761287D01*
G37*
G36*
X116177417Y-57761287D02*
G01*
X116228019Y-57821116D01*
X116258380Y-57920830D01*
X116268500Y-58060431D01*
X116268500Y-58069956D01*
X116258280Y-58206084D01*
X116227622Y-58303319D01*
X116176524Y-58361659D01*
X116104987Y-58381106D01*
X116034840Y-58361114D01*
X115984734Y-58301136D01*
X115954671Y-58201173D01*
X115944650Y-58061225D01*
X115954770Y-57921277D01*
X115985131Y-57821314D01*
X116035733Y-57761336D01*
X116106575Y-57741344D01*
X116177417Y-57761287D01*
G37*
G36*
X112230958Y-59176311D02*
G01*
X111487038Y-58060431D01*
X113018887Y-58060431D01*
X113024003Y-58171733D01*
X113039349Y-58274920D01*
X113064925Y-58369994D01*
X113099255Y-58449766D01*
X113141919Y-58517631D01*
X113197878Y-58574583D01*
X113272094Y-58621613D01*
X113361589Y-58653164D01*
X113463387Y-58663681D01*
X113564789Y-58653363D01*
X113653094Y-58622406D01*
X113725920Y-58575575D01*
X113780887Y-58517631D01*
X113835061Y-58426052D01*
X113873756Y-58319591D01*
X113883855Y-58266806D01*
X114022187Y-58266806D01*
X114077750Y-58343800D01*
X114175381Y-58390631D01*
X114219236Y-58371581D01*
X114266662Y-58314431D01*
X114287300Y-58295381D01*
X114318256Y-58289031D01*
X114367469Y-58314431D01*
X114445256Y-58364438D01*
X114550031Y-58389044D01*
X114656394Y-58372375D01*
X114733387Y-58335069D01*
X114785775Y-58287444D01*
X114815937Y-58250138D01*
X114838162Y-58213625D01*
X114854037Y-58163619D01*
X114835384Y-58118772D01*
X114779425Y-58069956D01*
X114698462Y-58041381D01*
X114609562Y-58114406D01*
X114604800Y-58120756D01*
X114552412Y-58138219D01*
X114474625Y-58089006D01*
X114413506Y-58056463D01*
X114325400Y-58041381D01*
X114227769Y-58054875D01*
X114144425Y-58095356D01*
X114092037Y-58140600D01*
X114045206Y-58204100D01*
X114022187Y-58266806D01*
X113883855Y-58266806D01*
X113896973Y-58198246D01*
X113904712Y-58062019D01*
X113899421Y-57957067D01*
X113883546Y-57855997D01*
X113881721Y-57849294D01*
X115001675Y-57849294D01*
X115051681Y-57947719D01*
X115147725Y-58003281D01*
X115258850Y-57954069D01*
X115279487Y-57935019D01*
X115279487Y-58501756D01*
X115281869Y-58559700D01*
X115296950Y-58603356D01*
X115339416Y-58634313D01*
X115419187Y-58644631D01*
X115500944Y-58633916D01*
X115543012Y-58601769D01*
X115558094Y-58559700D01*
X115560475Y-58504931D01*
X115560475Y-58060431D01*
X115663662Y-58060431D01*
X115668778Y-58171733D01*
X115684124Y-58274920D01*
X115709700Y-58369994D01*
X115744030Y-58449766D01*
X115786694Y-58517631D01*
X115842653Y-58574583D01*
X115916869Y-58621613D01*
X116006364Y-58653164D01*
X116108162Y-58663681D01*
X116209564Y-58653363D01*
X116297869Y-58622406D01*
X116370695Y-58575575D01*
X116425663Y-58517631D01*
X116435054Y-58501756D01*
X117054313Y-58501756D01*
X117056694Y-58557319D01*
X117070188Y-58598594D01*
X117111859Y-58630741D01*
X117192425Y-58641456D01*
X117273388Y-58631138D01*
X117316250Y-58600181D01*
X117331331Y-58558113D01*
X117333713Y-58503344D01*
X117333713Y-58222356D01*
X117357525Y-58118772D01*
X117428963Y-58084244D01*
X117502781Y-58118772D01*
X117527388Y-58222356D01*
X117527388Y-58500169D01*
X117529769Y-58554938D01*
X117543263Y-58597006D01*
X117584934Y-58630344D01*
X117665500Y-58641456D01*
X117747256Y-58630741D01*
X117789325Y-58598594D01*
X117804406Y-58557319D01*
X117806788Y-58501756D01*
X117806788Y-58223944D01*
X117826631Y-58120756D01*
X117902038Y-58084244D01*
X117975856Y-58118772D01*
X118000463Y-58222356D01*
X118000463Y-58500169D01*
X118002844Y-58554938D01*
X118016338Y-58597006D01*
X118058009Y-58630344D01*
X118138575Y-58641456D01*
X118219934Y-58630741D01*
X118260813Y-58598594D01*
X118275894Y-58556525D01*
X118278275Y-58501756D01*
X118405275Y-58501756D01*
X118407656Y-58557319D01*
X118421150Y-58598594D01*
X118462822Y-58630741D01*
X118543388Y-58641456D01*
X118624747Y-58631138D01*
X118665625Y-58600181D01*
X118680706Y-58558113D01*
X118683088Y-58503344D01*
X118683088Y-58500169D01*
X118810088Y-58500169D01*
X118812469Y-58554938D01*
X118825963Y-58597006D01*
X118867634Y-58629153D01*
X118948200Y-58639869D01*
X119029559Y-58629153D01*
X119070438Y-58597006D01*
X119085519Y-58556525D01*
X119087900Y-58501756D01*
X119087900Y-58220769D01*
X119126794Y-58120756D01*
X119228394Y-58082656D01*
X119328406Y-58119169D01*
X119365713Y-58220769D01*
X119365713Y-58500169D01*
X119375238Y-58581131D01*
X119416513Y-58625184D01*
X119505413Y-58639869D01*
X119587169Y-58629153D01*
X119629238Y-58597006D01*
X119642731Y-58556525D01*
X119645113Y-58501756D01*
X119645113Y-58222356D01*
X119633383Y-58111849D01*
X119598193Y-58013159D01*
X119539544Y-57926287D01*
X119463256Y-57858819D01*
X119375149Y-57818337D01*
X119275225Y-57804844D01*
X119156163Y-57841356D01*
X119113300Y-57874694D01*
X119084725Y-57906444D01*
X119068850Y-57841356D01*
X119027972Y-57813972D01*
X118949788Y-57804844D01*
X118869222Y-57814766D01*
X118827550Y-57844531D01*
X118812469Y-57885012D01*
X118810088Y-57938194D01*
X118810088Y-58500169D01*
X118683088Y-58500169D01*
X118683088Y-57947719D01*
X118681500Y-57901681D01*
X118652925Y-57833419D01*
X118544975Y-57806431D01*
X118463219Y-57816750D01*
X118421150Y-57847706D01*
X118407656Y-57889775D01*
X118405275Y-57944544D01*
X118405275Y-58501756D01*
X118278275Y-58501756D01*
X118278275Y-58223944D01*
X118268750Y-58087860D01*
X118240175Y-57980174D01*
X118192550Y-57900887D01*
X118096506Y-57827664D01*
X117979825Y-57803256D01*
X117868700Y-57834212D01*
X117790119Y-57891362D01*
X117748050Y-57941369D01*
X117685961Y-57864640D01*
X117605528Y-57818602D01*
X117506750Y-57803256D01*
X117409516Y-57831434D01*
X117327363Y-57915969D01*
X117300375Y-57833419D01*
X117184488Y-57804844D01*
X117111859Y-57815559D01*
X117071775Y-57847706D01*
X117056694Y-57888187D01*
X117054313Y-57942956D01*
X117054313Y-58501756D01*
X116435054Y-58501756D01*
X116479836Y-58426052D01*
X116518531Y-58319591D01*
X116541748Y-58198246D01*
X116549488Y-58062019D01*
X116544196Y-57957067D01*
X116528321Y-57855997D01*
X116501863Y-57758806D01*
X116468723Y-57678637D01*
X116426456Y-57609581D01*
X116372027Y-57552431D01*
X118405275Y-57552431D01*
X118407656Y-57607200D01*
X118421944Y-57649269D01*
X118464013Y-57682606D01*
X118544181Y-57692131D01*
X118624350Y-57682606D01*
X118666419Y-57650062D01*
X118680706Y-57608787D01*
X118683088Y-57554019D01*
X118680706Y-57499250D01*
X118665625Y-57457181D01*
X118625144Y-57425034D01*
X118544975Y-57414319D01*
X118463219Y-57425034D01*
X118421150Y-57457181D01*
X118407656Y-57497662D01*
X118405275Y-57552431D01*
X116372027Y-57552431D01*
X116370894Y-57551241D01*
X116297869Y-57503219D01*
X116209167Y-57471072D01*
X116106575Y-57460356D01*
X116003586Y-57471270D01*
X115913694Y-57504012D01*
X115839677Y-57552828D01*
X115784312Y-57611962D01*
X115740458Y-57688361D01*
X115700969Y-57788969D01*
X115680243Y-57869226D01*
X115667808Y-57959713D01*
X115663662Y-58060431D01*
X115560475Y-58060431D01*
X115560475Y-57620694D01*
X115552537Y-57536556D01*
X115530312Y-57502425D01*
X115489037Y-57484169D01*
X115413631Y-57476231D01*
X115323937Y-57517506D01*
X115319175Y-57520681D01*
X115058825Y-57755631D01*
X115001675Y-57849294D01*
X113881721Y-57849294D01*
X113857087Y-57758806D01*
X113823948Y-57678637D01*
X113781681Y-57609581D01*
X113726119Y-57551241D01*
X113653094Y-57503219D01*
X113564392Y-57471072D01*
X113461800Y-57460356D01*
X113358811Y-57471270D01*
X113268919Y-57504012D01*
X113194902Y-57552828D01*
X113139537Y-57611962D01*
X113095683Y-57688361D01*
X113056194Y-57788969D01*
X113035468Y-57869226D01*
X113023033Y-57959713D01*
X113018887Y-58060431D01*
X111487038Y-58060431D01*
X111472751Y-58039000D01*
X112230958Y-56901689D01*
X121191249Y-56901689D01*
X120433042Y-58039000D01*
X121191249Y-59176311D01*
X112230958Y-59176311D01*
G37*
G04 #@! TD*
M02*
