G04 #@! TF.GenerationSoftware,KiCad,Pcbnew,6.0.9-8da3e8f707~116~ubuntu20.04.1*
G04 #@! TF.CreationDate,2023-03-26T17:34:06+00:00*
G04 #@! TF.ProjectId,LEC011102,4c454330-3131-4313-9032-2e6b69636164,rev?*
G04 #@! TF.SameCoordinates,Original*
G04 #@! TF.FileFunction,Soldermask,Top*
G04 #@! TF.FilePolarity,Negative*
%FSLAX46Y46*%
G04 Gerber Fmt 4.6, Leading zero omitted, Abs format (unit mm)*
G04 Created by KiCad (PCBNEW 6.0.9-8da3e8f707~116~ubuntu20.04.1) date 2023-03-26 17:34:06*
%MOMM*%
%LPD*%
G01*
G04 APERTURE LIST*
G04 Aperture macros list*
%AMRoundRect*
0 Rectangle with rounded corners*
0 $1 Rounding radius*
0 $2 $3 $4 $5 $6 $7 $8 $9 X,Y pos of 4 corners*
0 Add a 4 corners polygon primitive as box body*
4,1,4,$2,$3,$4,$5,$6,$7,$8,$9,$2,$3,0*
0 Add four circle primitives for the rounded corners*
1,1,$1+$1,$2,$3*
1,1,$1+$1,$4,$5*
1,1,$1+$1,$6,$7*
1,1,$1+$1,$8,$9*
0 Add four rect primitives between the rounded corners*
20,1,$1+$1,$2,$3,$4,$5,0*
20,1,$1+$1,$4,$5,$6,$7,0*
20,1,$1+$1,$6,$7,$8,$9,0*
20,1,$1+$1,$8,$9,$2,$3,0*%
G04 Aperture macros list end*
%ADD10C,0.010000*%
%ADD11RoundRect,0.300600X1.500400X0.550400X-1.500400X0.550400X-1.500400X-0.550400X1.500400X-0.550400X0*%
%ADD12RoundRect,0.269750X0.218750X0.256250X-0.218750X0.256250X-0.218750X-0.256250X0.218750X-0.256250X0*%
%ADD13RoundRect,0.269750X-0.218750X-0.256250X0.218750X-0.256250X0.218750X0.256250X-0.218750X0.256250X0*%
%ADD14RoundRect,0.269750X0.256250X-0.218750X0.256250X0.218750X-0.256250X0.218750X-0.256250X-0.218750X0*%
%ADD15RoundRect,0.300600X0.550400X-1.500400X0.550400X1.500400X-0.550400X1.500400X-0.550400X-1.500400X0*%
%ADD16RoundRect,0.051000X-0.400000X0.500000X-0.400000X-0.500000X0.400000X-0.500000X0.400000X0.500000X0*%
%ADD17RoundRect,0.269750X-0.256250X0.218750X-0.256250X-0.218750X0.256250X-0.218750X0.256250X0.218750X0*%
%ADD18RoundRect,0.051000X-0.900000X1.250000X-0.900000X-1.250000X0.900000X-1.250000X0.900000X1.250000X0*%
%ADD19C,3.302000*%
%ADD20RoundRect,0.051000X-1.500000X-1.500000X1.500000X-1.500000X1.500000X1.500000X-1.500000X1.500000X0*%
%ADD21C,3.102000*%
%ADD22RoundRect,0.051000X-1.500000X1.500000X-1.500000X-1.500000X1.500000X-1.500000X1.500000X1.500000X0*%
%ADD23RoundRect,0.051000X1.500000X1.500000X-1.500000X1.500000X-1.500000X-1.500000X1.500000X-1.500000X0*%
%ADD24C,1.902000*%
%ADD25RoundRect,0.051000X0.900000X-0.900000X0.900000X0.900000X-0.900000X0.900000X-0.900000X-0.900000X0*%
%ADD26RoundRect,0.051000X-0.450000X-0.400000X0.450000X-0.400000X0.450000X0.400000X-0.450000X0.400000X0*%
%ADD27RoundRect,0.051000X0.600000X-1.100000X0.600000X1.100000X-0.600000X1.100000X-0.600000X-1.100000X0*%
%ADD28RoundRect,0.051000X2.900000X-3.200000X2.900000X3.200000X-2.900000X3.200000X-2.900000X-3.200000X0*%
%ADD29RoundRect,0.051000X0.800000X0.800000X-0.800000X0.800000X-0.800000X-0.800000X0.800000X-0.800000X0*%
%ADD30C,1.702000*%
%ADD31RoundRect,0.051000X-0.720000X-0.720000X0.720000X-0.720000X0.720000X0.720000X-0.720000X0.720000X0*%
%ADD32C,1.542000*%
%ADD33RoundRect,0.201000X0.825000X0.150000X-0.825000X0.150000X-0.825000X-0.150000X0.825000X-0.150000X0*%
%ADD34RoundRect,0.276000X0.250000X-0.225000X0.250000X0.225000X-0.250000X0.225000X-0.250000X-0.225000X0*%
G04 APERTURE END LIST*
G04 #@! TO.C,LOGO1*
G36*
X119268740Y-52995820D02*
G01*
X119047760Y-52995820D01*
X119047760Y-51324500D01*
X119268740Y-51324500D01*
X119268740Y-52995820D01*
G37*
D10*
X119268740Y-52995820D02*
X119047760Y-52995820D01*
X119047760Y-51324500D01*
X119268740Y-51324500D01*
X119268740Y-52995820D01*
G36*
X114968520Y-52259220D02*
G01*
X114209060Y-52259220D01*
X114209060Y-52602120D01*
X113988080Y-52602120D01*
X113988080Y-52035700D01*
X114968520Y-52035700D01*
X114968520Y-52259220D01*
G37*
X114968520Y-52259220D02*
X114209060Y-52259220D01*
X114209060Y-52602120D01*
X113988080Y-52602120D01*
X113988080Y-52035700D01*
X114968520Y-52035700D01*
X114968520Y-52259220D01*
G36*
X112611400Y-52602120D02*
G01*
X112390420Y-52602120D01*
X112390420Y-51327040D01*
X112611400Y-51327040D01*
X112611400Y-52602120D01*
G37*
X112611400Y-52602120D02*
X112390420Y-52602120D01*
X112390420Y-51327040D01*
X112611400Y-51327040D01*
X112611400Y-52602120D01*
G36*
X115082820Y-51537860D02*
G01*
X114209060Y-51537860D01*
X114209060Y-51850280D01*
X113985540Y-51850280D01*
X113985540Y-51316880D01*
X115082820Y-51316880D01*
X115082820Y-51537860D01*
G37*
X115082820Y-51537860D02*
X114209060Y-51537860D01*
X114209060Y-51850280D01*
X113985540Y-51850280D01*
X113985540Y-51316880D01*
X115082820Y-51316880D01*
X115082820Y-51537860D01*
G36*
X121026304Y-51330092D02*
G01*
X121044850Y-51330188D01*
X121158296Y-51330850D01*
X120852148Y-51749183D01*
X120822064Y-51790298D01*
X120792787Y-51830325D01*
X120764458Y-51869069D01*
X120737217Y-51906338D01*
X120711206Y-51941940D01*
X120686566Y-51975680D01*
X120663436Y-52007366D01*
X120641957Y-52036806D01*
X120622271Y-52063806D01*
X120604518Y-52088172D01*
X120588839Y-52109713D01*
X120575374Y-52128236D01*
X120564265Y-52143546D01*
X120555651Y-52155452D01*
X120549674Y-52163760D01*
X120546474Y-52168277D01*
X120545946Y-52169087D01*
X120547407Y-52171269D01*
X120551707Y-52177370D01*
X120558703Y-52187192D01*
X120568256Y-52200541D01*
X120580224Y-52217220D01*
X120594465Y-52237032D01*
X120610838Y-52259783D01*
X120629202Y-52285275D01*
X120649416Y-52313314D01*
X120671337Y-52343701D01*
X120694825Y-52376243D01*
X120719739Y-52410742D01*
X120745938Y-52447003D01*
X120773279Y-52484829D01*
X120801622Y-52524025D01*
X120830825Y-52564395D01*
X120842671Y-52580766D01*
X120872190Y-52621564D01*
X120900913Y-52661274D01*
X120928699Y-52699701D01*
X120955405Y-52736647D01*
X120980889Y-52771916D01*
X121005010Y-52805310D01*
X121027626Y-52836635D01*
X121048595Y-52865692D01*
X121067775Y-52892285D01*
X121085025Y-52916218D01*
X121100202Y-52937293D01*
X121113164Y-52955315D01*
X121123770Y-52970086D01*
X121131878Y-52981411D01*
X121137346Y-52989091D01*
X121140033Y-52992932D01*
X121140296Y-52993347D01*
X121138016Y-52993981D01*
X121130822Y-52994522D01*
X121118878Y-52994969D01*
X121102349Y-52995317D01*
X121081400Y-52995563D01*
X121056196Y-52995703D01*
X121027266Y-52995734D01*
X120913390Y-52995649D01*
X120672090Y-52661780D01*
X120645526Y-52625037D01*
X120619765Y-52589426D01*
X120594965Y-52555163D01*
X120571283Y-52522466D01*
X120548876Y-52491550D01*
X120527902Y-52462632D01*
X120508517Y-52435929D01*
X120490880Y-52411658D01*
X120475147Y-52390034D01*
X120461475Y-52371274D01*
X120450023Y-52355596D01*
X120440948Y-52343215D01*
X120434406Y-52334347D01*
X120430556Y-52329211D01*
X120429520Y-52327933D01*
X120427906Y-52329950D01*
X120423455Y-52335854D01*
X120416324Y-52345427D01*
X120406674Y-52358455D01*
X120394661Y-52374722D01*
X120380447Y-52394010D01*
X120364188Y-52416106D01*
X120346044Y-52440791D01*
X120326173Y-52467851D01*
X120304734Y-52497070D01*
X120281887Y-52528231D01*
X120257789Y-52561119D01*
X120232600Y-52595518D01*
X120206477Y-52631211D01*
X120185680Y-52659644D01*
X120158925Y-52696214D01*
X120132965Y-52731667D01*
X120107961Y-52765786D01*
X120084072Y-52798355D01*
X120061458Y-52829156D01*
X120040279Y-52857973D01*
X120020693Y-52884589D01*
X120002863Y-52908787D01*
X119986946Y-52930350D01*
X119973102Y-52949061D01*
X119961493Y-52964704D01*
X119952276Y-52977061D01*
X119945613Y-52985916D01*
X119941662Y-52991051D01*
X119940570Y-52992335D01*
X119937574Y-52992529D01*
X119930025Y-52992680D01*
X119918450Y-52992789D01*
X119903375Y-52992853D01*
X119885327Y-52992870D01*
X119864833Y-52992839D01*
X119842419Y-52992759D01*
X119825648Y-52992672D01*
X119713267Y-52992010D01*
X120319225Y-52163970D01*
X120361717Y-52105907D01*
X120403457Y-52048878D01*
X120444343Y-51993019D01*
X120484276Y-51938469D01*
X120523154Y-51885363D01*
X120560878Y-51833839D01*
X120597347Y-51784036D01*
X120632459Y-51736089D01*
X120666115Y-51690136D01*
X120698214Y-51646314D01*
X120728655Y-51604761D01*
X120757338Y-51565614D01*
X120784162Y-51529011D01*
X120809027Y-51495087D01*
X120831832Y-51463981D01*
X120852477Y-51435831D01*
X120870860Y-51410772D01*
X120886882Y-51388943D01*
X120900441Y-51370481D01*
X120911437Y-51355522D01*
X120919771Y-51344205D01*
X120925340Y-51336667D01*
X120928045Y-51333044D01*
X120928294Y-51332728D01*
X120930129Y-51331936D01*
X120934193Y-51331292D01*
X120940860Y-51330789D01*
X120950504Y-51330418D01*
X120963497Y-51330171D01*
X120980212Y-51330039D01*
X121001024Y-51330016D01*
X121026304Y-51330092D01*
G37*
X121026304Y-51330092D02*
X121044850Y-51330188D01*
X121158296Y-51330850D01*
X120852148Y-51749183D01*
X120822064Y-51790298D01*
X120792787Y-51830325D01*
X120764458Y-51869069D01*
X120737217Y-51906338D01*
X120711206Y-51941940D01*
X120686566Y-51975680D01*
X120663436Y-52007366D01*
X120641957Y-52036806D01*
X120622271Y-52063806D01*
X120604518Y-52088172D01*
X120588839Y-52109713D01*
X120575374Y-52128236D01*
X120564265Y-52143546D01*
X120555651Y-52155452D01*
X120549674Y-52163760D01*
X120546474Y-52168277D01*
X120545946Y-52169087D01*
X120547407Y-52171269D01*
X120551707Y-52177370D01*
X120558703Y-52187192D01*
X120568256Y-52200541D01*
X120580224Y-52217220D01*
X120594465Y-52237032D01*
X120610838Y-52259783D01*
X120629202Y-52285275D01*
X120649416Y-52313314D01*
X120671337Y-52343701D01*
X120694825Y-52376243D01*
X120719739Y-52410742D01*
X120745938Y-52447003D01*
X120773279Y-52484829D01*
X120801622Y-52524025D01*
X120830825Y-52564395D01*
X120842671Y-52580766D01*
X120872190Y-52621564D01*
X120900913Y-52661274D01*
X120928699Y-52699701D01*
X120955405Y-52736647D01*
X120980889Y-52771916D01*
X121005010Y-52805310D01*
X121027626Y-52836635D01*
X121048595Y-52865692D01*
X121067775Y-52892285D01*
X121085025Y-52916218D01*
X121100202Y-52937293D01*
X121113164Y-52955315D01*
X121123770Y-52970086D01*
X121131878Y-52981411D01*
X121137346Y-52989091D01*
X121140033Y-52992932D01*
X121140296Y-52993347D01*
X121138016Y-52993981D01*
X121130822Y-52994522D01*
X121118878Y-52994969D01*
X121102349Y-52995317D01*
X121081400Y-52995563D01*
X121056196Y-52995703D01*
X121027266Y-52995734D01*
X120913390Y-52995649D01*
X120672090Y-52661780D01*
X120645526Y-52625037D01*
X120619765Y-52589426D01*
X120594965Y-52555163D01*
X120571283Y-52522466D01*
X120548876Y-52491550D01*
X120527902Y-52462632D01*
X120508517Y-52435929D01*
X120490880Y-52411658D01*
X120475147Y-52390034D01*
X120461475Y-52371274D01*
X120450023Y-52355596D01*
X120440948Y-52343215D01*
X120434406Y-52334347D01*
X120430556Y-52329211D01*
X120429520Y-52327933D01*
X120427906Y-52329950D01*
X120423455Y-52335854D01*
X120416324Y-52345427D01*
X120406674Y-52358455D01*
X120394661Y-52374722D01*
X120380447Y-52394010D01*
X120364188Y-52416106D01*
X120346044Y-52440791D01*
X120326173Y-52467851D01*
X120304734Y-52497070D01*
X120281887Y-52528231D01*
X120257789Y-52561119D01*
X120232600Y-52595518D01*
X120206477Y-52631211D01*
X120185680Y-52659644D01*
X120158925Y-52696214D01*
X120132965Y-52731667D01*
X120107961Y-52765786D01*
X120084072Y-52798355D01*
X120061458Y-52829156D01*
X120040279Y-52857973D01*
X120020693Y-52884589D01*
X120002863Y-52908787D01*
X119986946Y-52930350D01*
X119973102Y-52949061D01*
X119961493Y-52964704D01*
X119952276Y-52977061D01*
X119945613Y-52985916D01*
X119941662Y-52991051D01*
X119940570Y-52992335D01*
X119937574Y-52992529D01*
X119930025Y-52992680D01*
X119918450Y-52992789D01*
X119903375Y-52992853D01*
X119885327Y-52992870D01*
X119864833Y-52992839D01*
X119842419Y-52992759D01*
X119825648Y-52992672D01*
X119713267Y-52992010D01*
X120319225Y-52163970D01*
X120361717Y-52105907D01*
X120403457Y-52048878D01*
X120444343Y-51993019D01*
X120484276Y-51938469D01*
X120523154Y-51885363D01*
X120560878Y-51833839D01*
X120597347Y-51784036D01*
X120632459Y-51736089D01*
X120666115Y-51690136D01*
X120698214Y-51646314D01*
X120728655Y-51604761D01*
X120757338Y-51565614D01*
X120784162Y-51529011D01*
X120809027Y-51495087D01*
X120831832Y-51463981D01*
X120852477Y-51435831D01*
X120870860Y-51410772D01*
X120886882Y-51388943D01*
X120900441Y-51370481D01*
X120911437Y-51355522D01*
X120919771Y-51344205D01*
X120925340Y-51336667D01*
X120928045Y-51333044D01*
X120928294Y-51332728D01*
X120930129Y-51331936D01*
X120934193Y-51331292D01*
X120940860Y-51330789D01*
X120950504Y-51330418D01*
X120963497Y-51330171D01*
X120980212Y-51330039D01*
X121001024Y-51330016D01*
X121026304Y-51330092D01*
G36*
X115708402Y-52285255D02*
G01*
X115713120Y-52334642D01*
X115722714Y-52383391D01*
X115736988Y-52431126D01*
X115755743Y-52477472D01*
X115778784Y-52522055D01*
X115805913Y-52564500D01*
X115836933Y-52604432D01*
X115871648Y-52641476D01*
X115909860Y-52675258D01*
X115915940Y-52680066D01*
X115956038Y-52708193D01*
X115999345Y-52732754D01*
X116045214Y-52753491D01*
X116092999Y-52770147D01*
X116142054Y-52782466D01*
X116191733Y-52790191D01*
X116193061Y-52790331D01*
X116214417Y-52791812D01*
X116239012Y-52792277D01*
X116265170Y-52791784D01*
X116291216Y-52790393D01*
X116315475Y-52788161D01*
X116335040Y-52785369D01*
X116385420Y-52773968D01*
X116434171Y-52758011D01*
X116480973Y-52737722D01*
X116525506Y-52713326D01*
X116567447Y-52685050D01*
X116606477Y-52653119D01*
X116642275Y-52617757D01*
X116674521Y-52579189D01*
X116702893Y-52537642D01*
X116713459Y-52519570D01*
X116717764Y-52511866D01*
X116720977Y-52506162D01*
X116722419Y-52503660D01*
X116722428Y-52503648D01*
X116724718Y-52504589D01*
X116730966Y-52507586D01*
X116740622Y-52512356D01*
X116753134Y-52518617D01*
X116767950Y-52526087D01*
X116784518Y-52534484D01*
X116802288Y-52543526D01*
X116820709Y-52552930D01*
X116839227Y-52562414D01*
X116857292Y-52571697D01*
X116874353Y-52580496D01*
X116889857Y-52588530D01*
X116903254Y-52595515D01*
X116913992Y-52601170D01*
X116921519Y-52605212D01*
X116925284Y-52607360D01*
X116925579Y-52607574D01*
X116926342Y-52609476D01*
X116925650Y-52612864D01*
X116923236Y-52618246D01*
X116918829Y-52626130D01*
X116912161Y-52637022D01*
X116902963Y-52651432D01*
X116899532Y-52656730D01*
X116863745Y-52707247D01*
X116824233Y-52754456D01*
X116781253Y-52798181D01*
X116735061Y-52838245D01*
X116685915Y-52874473D01*
X116634071Y-52906690D01*
X116579786Y-52934719D01*
X116523317Y-52958386D01*
X116464922Y-52977513D01*
X116411386Y-52990608D01*
X116390451Y-52994715D01*
X116371307Y-52997937D01*
X116352786Y-53000387D01*
X116333721Y-53002177D01*
X116312944Y-53003419D01*
X116289286Y-53004226D01*
X116265190Y-53004665D01*
X116246965Y-53004860D01*
X116230071Y-53004960D01*
X116215281Y-53004966D01*
X116203367Y-53004880D01*
X116195103Y-53004704D01*
X116191530Y-53004485D01*
X116185642Y-53003741D01*
X116176310Y-53002630D01*
X116165138Y-53001341D01*
X116159780Y-53000735D01*
X116104003Y-52992047D01*
X116048007Y-52978574D01*
X115992401Y-52960545D01*
X115937794Y-52938188D01*
X115884797Y-52911731D01*
X115834019Y-52881401D01*
X115825770Y-52875955D01*
X115795798Y-52855098D01*
X115769044Y-52834653D01*
X115743942Y-52813317D01*
X115718927Y-52789790D01*
X115703718Y-52774501D01*
X115661520Y-52727656D01*
X115623616Y-52678179D01*
X115590086Y-52626236D01*
X115561014Y-52571994D01*
X115536482Y-52515618D01*
X115516574Y-52457274D01*
X115501371Y-52397129D01*
X115493187Y-52351477D01*
X115491980Y-52342261D01*
X115490577Y-52329810D01*
X115489087Y-52315307D01*
X115487618Y-52299937D01*
X115486281Y-52284885D01*
X115485185Y-52271334D01*
X115484438Y-52260470D01*
X115484150Y-52253505D01*
X115486602Y-52253107D01*
X115493621Y-52252738D01*
X115504692Y-52252405D01*
X115519304Y-52252119D01*
X115536941Y-52251886D01*
X115557091Y-52251717D01*
X115579241Y-52251620D01*
X115595519Y-52251600D01*
X115706899Y-52251600D01*
X115708402Y-52285255D01*
G37*
X115708402Y-52285255D02*
X115713120Y-52334642D01*
X115722714Y-52383391D01*
X115736988Y-52431126D01*
X115755743Y-52477472D01*
X115778784Y-52522055D01*
X115805913Y-52564500D01*
X115836933Y-52604432D01*
X115871648Y-52641476D01*
X115909860Y-52675258D01*
X115915940Y-52680066D01*
X115956038Y-52708193D01*
X115999345Y-52732754D01*
X116045214Y-52753491D01*
X116092999Y-52770147D01*
X116142054Y-52782466D01*
X116191733Y-52790191D01*
X116193061Y-52790331D01*
X116214417Y-52791812D01*
X116239012Y-52792277D01*
X116265170Y-52791784D01*
X116291216Y-52790393D01*
X116315475Y-52788161D01*
X116335040Y-52785369D01*
X116385420Y-52773968D01*
X116434171Y-52758011D01*
X116480973Y-52737722D01*
X116525506Y-52713326D01*
X116567447Y-52685050D01*
X116606477Y-52653119D01*
X116642275Y-52617757D01*
X116674521Y-52579189D01*
X116702893Y-52537642D01*
X116713459Y-52519570D01*
X116717764Y-52511866D01*
X116720977Y-52506162D01*
X116722419Y-52503660D01*
X116722428Y-52503648D01*
X116724718Y-52504589D01*
X116730966Y-52507586D01*
X116740622Y-52512356D01*
X116753134Y-52518617D01*
X116767950Y-52526087D01*
X116784518Y-52534484D01*
X116802288Y-52543526D01*
X116820709Y-52552930D01*
X116839227Y-52562414D01*
X116857292Y-52571697D01*
X116874353Y-52580496D01*
X116889857Y-52588530D01*
X116903254Y-52595515D01*
X116913992Y-52601170D01*
X116921519Y-52605212D01*
X116925284Y-52607360D01*
X116925579Y-52607574D01*
X116926342Y-52609476D01*
X116925650Y-52612864D01*
X116923236Y-52618246D01*
X116918829Y-52626130D01*
X116912161Y-52637022D01*
X116902963Y-52651432D01*
X116899532Y-52656730D01*
X116863745Y-52707247D01*
X116824233Y-52754456D01*
X116781253Y-52798181D01*
X116735061Y-52838245D01*
X116685915Y-52874473D01*
X116634071Y-52906690D01*
X116579786Y-52934719D01*
X116523317Y-52958386D01*
X116464922Y-52977513D01*
X116411386Y-52990608D01*
X116390451Y-52994715D01*
X116371307Y-52997937D01*
X116352786Y-53000387D01*
X116333721Y-53002177D01*
X116312944Y-53003419D01*
X116289286Y-53004226D01*
X116265190Y-53004665D01*
X116246965Y-53004860D01*
X116230071Y-53004960D01*
X116215281Y-53004966D01*
X116203367Y-53004880D01*
X116195103Y-53004704D01*
X116191530Y-53004485D01*
X116185642Y-53003741D01*
X116176310Y-53002630D01*
X116165138Y-53001341D01*
X116159780Y-53000735D01*
X116104003Y-52992047D01*
X116048007Y-52978574D01*
X115992401Y-52960545D01*
X115937794Y-52938188D01*
X115884797Y-52911731D01*
X115834019Y-52881401D01*
X115825770Y-52875955D01*
X115795798Y-52855098D01*
X115769044Y-52834653D01*
X115743942Y-52813317D01*
X115718927Y-52789790D01*
X115703718Y-52774501D01*
X115661520Y-52727656D01*
X115623616Y-52678179D01*
X115590086Y-52626236D01*
X115561014Y-52571994D01*
X115536482Y-52515618D01*
X115516574Y-52457274D01*
X115501371Y-52397129D01*
X115493187Y-52351477D01*
X115491980Y-52342261D01*
X115490577Y-52329810D01*
X115489087Y-52315307D01*
X115487618Y-52299937D01*
X115486281Y-52284885D01*
X115485185Y-52271334D01*
X115484438Y-52260470D01*
X115484150Y-52253505D01*
X115486602Y-52253107D01*
X115493621Y-52252738D01*
X115504692Y-52252405D01*
X115519304Y-52252119D01*
X115536941Y-52251886D01*
X115557091Y-52251717D01*
X115579241Y-52251620D01*
X115595519Y-52251600D01*
X115706899Y-52251600D01*
X115708402Y-52285255D01*
G36*
X118600720Y-51545480D02*
G01*
X117231660Y-51545480D01*
X117231660Y-51324500D01*
X118600720Y-51324500D01*
X118600720Y-51545480D01*
G37*
X118600720Y-51545480D02*
X117231660Y-51545480D01*
X117231660Y-51324500D01*
X118600720Y-51324500D01*
X118600720Y-51545480D01*
G36*
X119910968Y-51324500D02*
G01*
X120116269Y-51607044D01*
X120140799Y-51640835D01*
X120164493Y-51673537D01*
X120187180Y-51704909D01*
X120208689Y-51734714D01*
X120228848Y-51762711D01*
X120247487Y-51788663D01*
X120264435Y-51812329D01*
X120279520Y-51833470D01*
X120292571Y-51851848D01*
X120303418Y-51867223D01*
X120311889Y-51879356D01*
X120317814Y-51888009D01*
X120321021Y-51892942D01*
X120321570Y-51894021D01*
X120320129Y-51897001D01*
X120316077Y-51903439D01*
X120309817Y-51912779D01*
X120301755Y-51924461D01*
X120292293Y-51937928D01*
X120281838Y-51952622D01*
X120270793Y-51967984D01*
X120259562Y-51983457D01*
X120248551Y-51998483D01*
X120238162Y-52012504D01*
X120228801Y-52024962D01*
X120220872Y-52035298D01*
X120214779Y-52042955D01*
X120210927Y-52047375D01*
X120209810Y-52048247D01*
X120208071Y-52046223D01*
X120203504Y-52040295D01*
X120196264Y-52030671D01*
X120186502Y-52017561D01*
X120174373Y-52001174D01*
X120160029Y-51981719D01*
X120143625Y-51959405D01*
X120125313Y-51934442D01*
X120105247Y-51907037D01*
X120083579Y-51877402D01*
X120060465Y-51845743D01*
X120036056Y-51812272D01*
X120010506Y-51777196D01*
X119983968Y-51740724D01*
X119956596Y-51703067D01*
X119948190Y-51691493D01*
X119920558Y-51653445D01*
X119893707Y-51616468D01*
X119867789Y-51580772D01*
X119842960Y-51546572D01*
X119819374Y-51514081D01*
X119797186Y-51483511D01*
X119776549Y-51455075D01*
X119757618Y-51428985D01*
X119740548Y-51405456D01*
X119725493Y-51384699D01*
X119712608Y-51366927D01*
X119702047Y-51352354D01*
X119693964Y-51341192D01*
X119688514Y-51333654D01*
X119685851Y-51329952D01*
X119685625Y-51329630D01*
X119684877Y-51328417D01*
X119684715Y-51327412D01*
X119685563Y-51326595D01*
X119687844Y-51325947D01*
X119691981Y-51325449D01*
X119698399Y-51325081D01*
X119707522Y-51324823D01*
X119719772Y-51324655D01*
X119735573Y-51324559D01*
X119755349Y-51324514D01*
X119779525Y-51324500D01*
X119796554Y-51324499D01*
X119910968Y-51324500D01*
G37*
X119910968Y-51324500D02*
X120116269Y-51607044D01*
X120140799Y-51640835D01*
X120164493Y-51673537D01*
X120187180Y-51704909D01*
X120208689Y-51734714D01*
X120228848Y-51762711D01*
X120247487Y-51788663D01*
X120264435Y-51812329D01*
X120279520Y-51833470D01*
X120292571Y-51851848D01*
X120303418Y-51867223D01*
X120311889Y-51879356D01*
X120317814Y-51888009D01*
X120321021Y-51892942D01*
X120321570Y-51894021D01*
X120320129Y-51897001D01*
X120316077Y-51903439D01*
X120309817Y-51912779D01*
X120301755Y-51924461D01*
X120292293Y-51937928D01*
X120281838Y-51952622D01*
X120270793Y-51967984D01*
X120259562Y-51983457D01*
X120248551Y-51998483D01*
X120238162Y-52012504D01*
X120228801Y-52024962D01*
X120220872Y-52035298D01*
X120214779Y-52042955D01*
X120210927Y-52047375D01*
X120209810Y-52048247D01*
X120208071Y-52046223D01*
X120203504Y-52040295D01*
X120196264Y-52030671D01*
X120186502Y-52017561D01*
X120174373Y-52001174D01*
X120160029Y-51981719D01*
X120143625Y-51959405D01*
X120125313Y-51934442D01*
X120105247Y-51907037D01*
X120083579Y-51877402D01*
X120060465Y-51845743D01*
X120036056Y-51812272D01*
X120010506Y-51777196D01*
X119983968Y-51740724D01*
X119956596Y-51703067D01*
X119948190Y-51691493D01*
X119920558Y-51653445D01*
X119893707Y-51616468D01*
X119867789Y-51580772D01*
X119842960Y-51546572D01*
X119819374Y-51514081D01*
X119797186Y-51483511D01*
X119776549Y-51455075D01*
X119757618Y-51428985D01*
X119740548Y-51405456D01*
X119725493Y-51384699D01*
X119712608Y-51366927D01*
X119702047Y-51352354D01*
X119693964Y-51341192D01*
X119688514Y-51333654D01*
X119685851Y-51329952D01*
X119685625Y-51329630D01*
X119684877Y-51328417D01*
X119684715Y-51327412D01*
X119685563Y-51326595D01*
X119687844Y-51325947D01*
X119691981Y-51325449D01*
X119698399Y-51325081D01*
X119707522Y-51324823D01*
X119719772Y-51324655D01*
X119735573Y-51324559D01*
X119755349Y-51324514D01*
X119779525Y-51324500D01*
X119796554Y-51324499D01*
X119910968Y-51324500D01*
G36*
X115082820Y-53003440D02*
G01*
X113990620Y-53003440D01*
X113990620Y-52779920D01*
X115082820Y-52779920D01*
X115082820Y-53003440D01*
G37*
X115082820Y-53003440D02*
X113990620Y-53003440D01*
X113990620Y-52779920D01*
X115082820Y-52779920D01*
X115082820Y-53003440D01*
G36*
X118021600Y-52995820D02*
G01*
X117800620Y-52995820D01*
X117800620Y-51713120D01*
X118021600Y-51713120D01*
X118021600Y-52995820D01*
G37*
X118021600Y-52995820D02*
X117800620Y-52995820D01*
X117800620Y-51713120D01*
X118021600Y-51713120D01*
X118021600Y-52995820D01*
G36*
X116276209Y-51321115D02*
G01*
X116297949Y-51321898D01*
X116316476Y-51323135D01*
X116324880Y-51324013D01*
X116386536Y-51334111D01*
X116446482Y-51348858D01*
X116504502Y-51368120D01*
X116560380Y-51391760D01*
X116613901Y-51419642D01*
X116664850Y-51451632D01*
X116713012Y-51487592D01*
X116758171Y-51527388D01*
X116800111Y-51570884D01*
X116838617Y-51617944D01*
X116873475Y-51668433D01*
X116874753Y-51670462D01*
X116880950Y-51680604D01*
X116885873Y-51689176D01*
X116889032Y-51695284D01*
X116889933Y-51698034D01*
X116889927Y-51698046D01*
X116887616Y-51699794D01*
X116881584Y-51703936D01*
X116872376Y-51710116D01*
X116860541Y-51717976D01*
X116846627Y-51727159D01*
X116831181Y-51737308D01*
X116814750Y-51748066D01*
X116797883Y-51759075D01*
X116781127Y-51769979D01*
X116765029Y-51780419D01*
X116750138Y-51790039D01*
X116737000Y-51798482D01*
X116726165Y-51805390D01*
X116718178Y-51810407D01*
X116713588Y-51813174D01*
X116712794Y-51813584D01*
X116709968Y-51812718D01*
X116705905Y-51808095D01*
X116700305Y-51799339D01*
X116697184Y-51793914D01*
X116680089Y-51766428D01*
X116659427Y-51738002D01*
X116636229Y-51709852D01*
X116611528Y-51683197D01*
X116586356Y-51659254D01*
X116574480Y-51649140D01*
X116533846Y-51619172D01*
X116490247Y-51593127D01*
X116444196Y-51571226D01*
X116396208Y-51553690D01*
X116346797Y-51540740D01*
X116306452Y-51533813D01*
X116284946Y-51531768D01*
X116260221Y-51530722D01*
X116233760Y-51530637D01*
X116207045Y-51531480D01*
X116181557Y-51533214D01*
X116158779Y-51535804D01*
X116147826Y-51537603D01*
X116097286Y-51549608D01*
X116048775Y-51566099D01*
X116002534Y-51586857D01*
X115958804Y-51611666D01*
X115917826Y-51640308D01*
X115879841Y-51672566D01*
X115845090Y-51708223D01*
X115813814Y-51747062D01*
X115786252Y-51788864D01*
X115762648Y-51833413D01*
X115743240Y-51880492D01*
X115733199Y-51911621D01*
X115722556Y-51956052D01*
X115715928Y-52002105D01*
X115713432Y-52040145D01*
X115712028Y-52081420D01*
X115491031Y-52081420D01*
X115492507Y-52036335D01*
X115496951Y-51976765D01*
X115506239Y-51918219D01*
X115520196Y-51860945D01*
X115538643Y-51805192D01*
X115561405Y-51751206D01*
X115588306Y-51699239D01*
X115619168Y-51649537D01*
X115653816Y-51602349D01*
X115692073Y-51557923D01*
X115733762Y-51516510D01*
X115778708Y-51478355D01*
X115826733Y-51443709D01*
X115877661Y-51412820D01*
X115931316Y-51385936D01*
X115964200Y-51372046D01*
X116017077Y-51353465D01*
X116071789Y-51338763D01*
X116129205Y-51327716D01*
X116144540Y-51325434D01*
X116160719Y-51323688D01*
X116180782Y-51322339D01*
X116203544Y-51321399D01*
X116227825Y-51320875D01*
X116252441Y-51320777D01*
X116276209Y-51321115D01*
G37*
X116276209Y-51321115D02*
X116297949Y-51321898D01*
X116316476Y-51323135D01*
X116324880Y-51324013D01*
X116386536Y-51334111D01*
X116446482Y-51348858D01*
X116504502Y-51368120D01*
X116560380Y-51391760D01*
X116613901Y-51419642D01*
X116664850Y-51451632D01*
X116713012Y-51487592D01*
X116758171Y-51527388D01*
X116800111Y-51570884D01*
X116838617Y-51617944D01*
X116873475Y-51668433D01*
X116874753Y-51670462D01*
X116880950Y-51680604D01*
X116885873Y-51689176D01*
X116889032Y-51695284D01*
X116889933Y-51698034D01*
X116889927Y-51698046D01*
X116887616Y-51699794D01*
X116881584Y-51703936D01*
X116872376Y-51710116D01*
X116860541Y-51717976D01*
X116846627Y-51727159D01*
X116831181Y-51737308D01*
X116814750Y-51748066D01*
X116797883Y-51759075D01*
X116781127Y-51769979D01*
X116765029Y-51780419D01*
X116750138Y-51790039D01*
X116737000Y-51798482D01*
X116726165Y-51805390D01*
X116718178Y-51810407D01*
X116713588Y-51813174D01*
X116712794Y-51813584D01*
X116709968Y-51812718D01*
X116705905Y-51808095D01*
X116700305Y-51799339D01*
X116697184Y-51793914D01*
X116680089Y-51766428D01*
X116659427Y-51738002D01*
X116636229Y-51709852D01*
X116611528Y-51683197D01*
X116586356Y-51659254D01*
X116574480Y-51649140D01*
X116533846Y-51619172D01*
X116490247Y-51593127D01*
X116444196Y-51571226D01*
X116396208Y-51553690D01*
X116346797Y-51540740D01*
X116306452Y-51533813D01*
X116284946Y-51531768D01*
X116260221Y-51530722D01*
X116233760Y-51530637D01*
X116207045Y-51531480D01*
X116181557Y-51533214D01*
X116158779Y-51535804D01*
X116147826Y-51537603D01*
X116097286Y-51549608D01*
X116048775Y-51566099D01*
X116002534Y-51586857D01*
X115958804Y-51611666D01*
X115917826Y-51640308D01*
X115879841Y-51672566D01*
X115845090Y-51708223D01*
X115813814Y-51747062D01*
X115786252Y-51788864D01*
X115762648Y-51833413D01*
X115743240Y-51880492D01*
X115733199Y-51911621D01*
X115722556Y-51956052D01*
X115715928Y-52002105D01*
X115713432Y-52040145D01*
X115712028Y-52081420D01*
X115491031Y-52081420D01*
X115492507Y-52036335D01*
X115496951Y-51976765D01*
X115506239Y-51918219D01*
X115520196Y-51860945D01*
X115538643Y-51805192D01*
X115561405Y-51751206D01*
X115588306Y-51699239D01*
X115619168Y-51649537D01*
X115653816Y-51602349D01*
X115692073Y-51557923D01*
X115733762Y-51516510D01*
X115778708Y-51478355D01*
X115826733Y-51443709D01*
X115877661Y-51412820D01*
X115931316Y-51385936D01*
X115964200Y-51372046D01*
X116017077Y-51353465D01*
X116071789Y-51338763D01*
X116129205Y-51327716D01*
X116144540Y-51325434D01*
X116160719Y-51323688D01*
X116180782Y-51322339D01*
X116203544Y-51321399D01*
X116227825Y-51320875D01*
X116252441Y-51320777D01*
X116276209Y-51321115D01*
G36*
X113538500Y-53003440D02*
G01*
X112390420Y-53003440D01*
X112390420Y-52779920D01*
X113538500Y-52779920D01*
X113538500Y-53003440D01*
G37*
X113538500Y-53003440D02*
X112390420Y-53003440D01*
X112390420Y-52779920D01*
X113538500Y-52779920D01*
X113538500Y-53003440D01*
G36*
X119268740Y-52995820D02*
G01*
X119047760Y-52995820D01*
X119047760Y-51324500D01*
X119268740Y-51324500D01*
X119268740Y-52995820D01*
G37*
X119268740Y-52995820D02*
X119047760Y-52995820D01*
X119047760Y-51324500D01*
X119268740Y-51324500D01*
X119268740Y-52995820D01*
G36*
X114968520Y-52259220D02*
G01*
X114209060Y-52259220D01*
X114209060Y-52602120D01*
X113988080Y-52602120D01*
X113988080Y-52035700D01*
X114968520Y-52035700D01*
X114968520Y-52259220D01*
G37*
X114968520Y-52259220D02*
X114209060Y-52259220D01*
X114209060Y-52602120D01*
X113988080Y-52602120D01*
X113988080Y-52035700D01*
X114968520Y-52035700D01*
X114968520Y-52259220D01*
G36*
X112611400Y-52602120D02*
G01*
X112390420Y-52602120D01*
X112390420Y-51327040D01*
X112611400Y-51327040D01*
X112611400Y-52602120D01*
G37*
X112611400Y-52602120D02*
X112390420Y-52602120D01*
X112390420Y-51327040D01*
X112611400Y-51327040D01*
X112611400Y-52602120D01*
G36*
X115082820Y-51537860D02*
G01*
X114209060Y-51537860D01*
X114209060Y-51850280D01*
X113985540Y-51850280D01*
X113985540Y-51316880D01*
X115082820Y-51316880D01*
X115082820Y-51537860D01*
G37*
X115082820Y-51537860D02*
X114209060Y-51537860D01*
X114209060Y-51850280D01*
X113985540Y-51850280D01*
X113985540Y-51316880D01*
X115082820Y-51316880D01*
X115082820Y-51537860D01*
G36*
X121026304Y-51330092D02*
G01*
X121044850Y-51330188D01*
X121158296Y-51330850D01*
X120852148Y-51749183D01*
X120822064Y-51790298D01*
X120792787Y-51830325D01*
X120764458Y-51869069D01*
X120737217Y-51906338D01*
X120711206Y-51941940D01*
X120686566Y-51975680D01*
X120663436Y-52007366D01*
X120641957Y-52036806D01*
X120622271Y-52063806D01*
X120604518Y-52088172D01*
X120588839Y-52109713D01*
X120575374Y-52128236D01*
X120564265Y-52143546D01*
X120555651Y-52155452D01*
X120549674Y-52163760D01*
X120546474Y-52168277D01*
X120545946Y-52169087D01*
X120547407Y-52171269D01*
X120551707Y-52177370D01*
X120558703Y-52187192D01*
X120568256Y-52200541D01*
X120580224Y-52217220D01*
X120594465Y-52237032D01*
X120610838Y-52259783D01*
X120629202Y-52285275D01*
X120649416Y-52313314D01*
X120671337Y-52343701D01*
X120694825Y-52376243D01*
X120719739Y-52410742D01*
X120745938Y-52447003D01*
X120773279Y-52484829D01*
X120801622Y-52524025D01*
X120830825Y-52564395D01*
X120842671Y-52580766D01*
X120872190Y-52621564D01*
X120900913Y-52661274D01*
X120928699Y-52699701D01*
X120955405Y-52736647D01*
X120980889Y-52771916D01*
X121005010Y-52805310D01*
X121027626Y-52836635D01*
X121048595Y-52865692D01*
X121067775Y-52892285D01*
X121085025Y-52916218D01*
X121100202Y-52937293D01*
X121113164Y-52955315D01*
X121123770Y-52970086D01*
X121131878Y-52981411D01*
X121137346Y-52989091D01*
X121140033Y-52992932D01*
X121140296Y-52993347D01*
X121138016Y-52993981D01*
X121130822Y-52994522D01*
X121118878Y-52994969D01*
X121102349Y-52995317D01*
X121081400Y-52995563D01*
X121056196Y-52995703D01*
X121027266Y-52995734D01*
X120913390Y-52995649D01*
X120672090Y-52661780D01*
X120645526Y-52625037D01*
X120619765Y-52589426D01*
X120594965Y-52555163D01*
X120571283Y-52522466D01*
X120548876Y-52491550D01*
X120527902Y-52462632D01*
X120508517Y-52435929D01*
X120490880Y-52411658D01*
X120475147Y-52390034D01*
X120461475Y-52371274D01*
X120450023Y-52355596D01*
X120440948Y-52343215D01*
X120434406Y-52334347D01*
X120430556Y-52329211D01*
X120429520Y-52327933D01*
X120427906Y-52329950D01*
X120423455Y-52335854D01*
X120416324Y-52345427D01*
X120406674Y-52358455D01*
X120394661Y-52374722D01*
X120380447Y-52394010D01*
X120364188Y-52416106D01*
X120346044Y-52440791D01*
X120326173Y-52467851D01*
X120304734Y-52497070D01*
X120281887Y-52528231D01*
X120257789Y-52561119D01*
X120232600Y-52595518D01*
X120206477Y-52631211D01*
X120185680Y-52659644D01*
X120158925Y-52696214D01*
X120132965Y-52731667D01*
X120107961Y-52765786D01*
X120084072Y-52798355D01*
X120061458Y-52829156D01*
X120040279Y-52857973D01*
X120020693Y-52884589D01*
X120002863Y-52908787D01*
X119986946Y-52930350D01*
X119973102Y-52949061D01*
X119961493Y-52964704D01*
X119952276Y-52977061D01*
X119945613Y-52985916D01*
X119941662Y-52991051D01*
X119940570Y-52992335D01*
X119937574Y-52992529D01*
X119930025Y-52992680D01*
X119918450Y-52992789D01*
X119903375Y-52992853D01*
X119885327Y-52992870D01*
X119864833Y-52992839D01*
X119842419Y-52992759D01*
X119825648Y-52992672D01*
X119713267Y-52992010D01*
X120319225Y-52163970D01*
X120361717Y-52105907D01*
X120403457Y-52048878D01*
X120444343Y-51993019D01*
X120484276Y-51938469D01*
X120523154Y-51885363D01*
X120560878Y-51833839D01*
X120597347Y-51784036D01*
X120632459Y-51736089D01*
X120666115Y-51690136D01*
X120698214Y-51646314D01*
X120728655Y-51604761D01*
X120757338Y-51565614D01*
X120784162Y-51529011D01*
X120809027Y-51495087D01*
X120831832Y-51463981D01*
X120852477Y-51435831D01*
X120870860Y-51410772D01*
X120886882Y-51388943D01*
X120900441Y-51370481D01*
X120911437Y-51355522D01*
X120919771Y-51344205D01*
X120925340Y-51336667D01*
X120928045Y-51333044D01*
X120928294Y-51332728D01*
X120930129Y-51331936D01*
X120934193Y-51331292D01*
X120940860Y-51330789D01*
X120950504Y-51330418D01*
X120963497Y-51330171D01*
X120980212Y-51330039D01*
X121001024Y-51330016D01*
X121026304Y-51330092D01*
G37*
X121026304Y-51330092D02*
X121044850Y-51330188D01*
X121158296Y-51330850D01*
X120852148Y-51749183D01*
X120822064Y-51790298D01*
X120792787Y-51830325D01*
X120764458Y-51869069D01*
X120737217Y-51906338D01*
X120711206Y-51941940D01*
X120686566Y-51975680D01*
X120663436Y-52007366D01*
X120641957Y-52036806D01*
X120622271Y-52063806D01*
X120604518Y-52088172D01*
X120588839Y-52109713D01*
X120575374Y-52128236D01*
X120564265Y-52143546D01*
X120555651Y-52155452D01*
X120549674Y-52163760D01*
X120546474Y-52168277D01*
X120545946Y-52169087D01*
X120547407Y-52171269D01*
X120551707Y-52177370D01*
X120558703Y-52187192D01*
X120568256Y-52200541D01*
X120580224Y-52217220D01*
X120594465Y-52237032D01*
X120610838Y-52259783D01*
X120629202Y-52285275D01*
X120649416Y-52313314D01*
X120671337Y-52343701D01*
X120694825Y-52376243D01*
X120719739Y-52410742D01*
X120745938Y-52447003D01*
X120773279Y-52484829D01*
X120801622Y-52524025D01*
X120830825Y-52564395D01*
X120842671Y-52580766D01*
X120872190Y-52621564D01*
X120900913Y-52661274D01*
X120928699Y-52699701D01*
X120955405Y-52736647D01*
X120980889Y-52771916D01*
X121005010Y-52805310D01*
X121027626Y-52836635D01*
X121048595Y-52865692D01*
X121067775Y-52892285D01*
X121085025Y-52916218D01*
X121100202Y-52937293D01*
X121113164Y-52955315D01*
X121123770Y-52970086D01*
X121131878Y-52981411D01*
X121137346Y-52989091D01*
X121140033Y-52992932D01*
X121140296Y-52993347D01*
X121138016Y-52993981D01*
X121130822Y-52994522D01*
X121118878Y-52994969D01*
X121102349Y-52995317D01*
X121081400Y-52995563D01*
X121056196Y-52995703D01*
X121027266Y-52995734D01*
X120913390Y-52995649D01*
X120672090Y-52661780D01*
X120645526Y-52625037D01*
X120619765Y-52589426D01*
X120594965Y-52555163D01*
X120571283Y-52522466D01*
X120548876Y-52491550D01*
X120527902Y-52462632D01*
X120508517Y-52435929D01*
X120490880Y-52411658D01*
X120475147Y-52390034D01*
X120461475Y-52371274D01*
X120450023Y-52355596D01*
X120440948Y-52343215D01*
X120434406Y-52334347D01*
X120430556Y-52329211D01*
X120429520Y-52327933D01*
X120427906Y-52329950D01*
X120423455Y-52335854D01*
X120416324Y-52345427D01*
X120406674Y-52358455D01*
X120394661Y-52374722D01*
X120380447Y-52394010D01*
X120364188Y-52416106D01*
X120346044Y-52440791D01*
X120326173Y-52467851D01*
X120304734Y-52497070D01*
X120281887Y-52528231D01*
X120257789Y-52561119D01*
X120232600Y-52595518D01*
X120206477Y-52631211D01*
X120185680Y-52659644D01*
X120158925Y-52696214D01*
X120132965Y-52731667D01*
X120107961Y-52765786D01*
X120084072Y-52798355D01*
X120061458Y-52829156D01*
X120040279Y-52857973D01*
X120020693Y-52884589D01*
X120002863Y-52908787D01*
X119986946Y-52930350D01*
X119973102Y-52949061D01*
X119961493Y-52964704D01*
X119952276Y-52977061D01*
X119945613Y-52985916D01*
X119941662Y-52991051D01*
X119940570Y-52992335D01*
X119937574Y-52992529D01*
X119930025Y-52992680D01*
X119918450Y-52992789D01*
X119903375Y-52992853D01*
X119885327Y-52992870D01*
X119864833Y-52992839D01*
X119842419Y-52992759D01*
X119825648Y-52992672D01*
X119713267Y-52992010D01*
X120319225Y-52163970D01*
X120361717Y-52105907D01*
X120403457Y-52048878D01*
X120444343Y-51993019D01*
X120484276Y-51938469D01*
X120523154Y-51885363D01*
X120560878Y-51833839D01*
X120597347Y-51784036D01*
X120632459Y-51736089D01*
X120666115Y-51690136D01*
X120698214Y-51646314D01*
X120728655Y-51604761D01*
X120757338Y-51565614D01*
X120784162Y-51529011D01*
X120809027Y-51495087D01*
X120831832Y-51463981D01*
X120852477Y-51435831D01*
X120870860Y-51410772D01*
X120886882Y-51388943D01*
X120900441Y-51370481D01*
X120911437Y-51355522D01*
X120919771Y-51344205D01*
X120925340Y-51336667D01*
X120928045Y-51333044D01*
X120928294Y-51332728D01*
X120930129Y-51331936D01*
X120934193Y-51331292D01*
X120940860Y-51330789D01*
X120950504Y-51330418D01*
X120963497Y-51330171D01*
X120980212Y-51330039D01*
X121001024Y-51330016D01*
X121026304Y-51330092D01*
G36*
X115708402Y-52285255D02*
G01*
X115713120Y-52334642D01*
X115722714Y-52383391D01*
X115736988Y-52431126D01*
X115755743Y-52477472D01*
X115778784Y-52522055D01*
X115805913Y-52564500D01*
X115836933Y-52604432D01*
X115871648Y-52641476D01*
X115909860Y-52675258D01*
X115915940Y-52680066D01*
X115956038Y-52708193D01*
X115999345Y-52732754D01*
X116045214Y-52753491D01*
X116092999Y-52770147D01*
X116142054Y-52782466D01*
X116191733Y-52790191D01*
X116193061Y-52790331D01*
X116214417Y-52791812D01*
X116239012Y-52792277D01*
X116265170Y-52791784D01*
X116291216Y-52790393D01*
X116315475Y-52788161D01*
X116335040Y-52785369D01*
X116385420Y-52773968D01*
X116434171Y-52758011D01*
X116480973Y-52737722D01*
X116525506Y-52713326D01*
X116567447Y-52685050D01*
X116606477Y-52653119D01*
X116642275Y-52617757D01*
X116674521Y-52579189D01*
X116702893Y-52537642D01*
X116713459Y-52519570D01*
X116717764Y-52511866D01*
X116720977Y-52506162D01*
X116722419Y-52503660D01*
X116722428Y-52503648D01*
X116724718Y-52504589D01*
X116730966Y-52507586D01*
X116740622Y-52512356D01*
X116753134Y-52518617D01*
X116767950Y-52526087D01*
X116784518Y-52534484D01*
X116802288Y-52543526D01*
X116820709Y-52552930D01*
X116839227Y-52562414D01*
X116857292Y-52571697D01*
X116874353Y-52580496D01*
X116889857Y-52588530D01*
X116903254Y-52595515D01*
X116913992Y-52601170D01*
X116921519Y-52605212D01*
X116925284Y-52607360D01*
X116925579Y-52607574D01*
X116926342Y-52609476D01*
X116925650Y-52612864D01*
X116923236Y-52618246D01*
X116918829Y-52626130D01*
X116912161Y-52637022D01*
X116902963Y-52651432D01*
X116899532Y-52656730D01*
X116863745Y-52707247D01*
X116824233Y-52754456D01*
X116781253Y-52798181D01*
X116735061Y-52838245D01*
X116685915Y-52874473D01*
X116634071Y-52906690D01*
X116579786Y-52934719D01*
X116523317Y-52958386D01*
X116464922Y-52977513D01*
X116411386Y-52990608D01*
X116390451Y-52994715D01*
X116371307Y-52997937D01*
X116352786Y-53000387D01*
X116333721Y-53002177D01*
X116312944Y-53003419D01*
X116289286Y-53004226D01*
X116265190Y-53004665D01*
X116246965Y-53004860D01*
X116230071Y-53004960D01*
X116215281Y-53004966D01*
X116203367Y-53004880D01*
X116195103Y-53004704D01*
X116191530Y-53004485D01*
X116185642Y-53003741D01*
X116176310Y-53002630D01*
X116165138Y-53001341D01*
X116159780Y-53000735D01*
X116104003Y-52992047D01*
X116048007Y-52978574D01*
X115992401Y-52960545D01*
X115937794Y-52938188D01*
X115884797Y-52911731D01*
X115834019Y-52881401D01*
X115825770Y-52875955D01*
X115795798Y-52855098D01*
X115769044Y-52834653D01*
X115743942Y-52813317D01*
X115718927Y-52789790D01*
X115703718Y-52774501D01*
X115661520Y-52727656D01*
X115623616Y-52678179D01*
X115590086Y-52626236D01*
X115561014Y-52571994D01*
X115536482Y-52515618D01*
X115516574Y-52457274D01*
X115501371Y-52397129D01*
X115493187Y-52351477D01*
X115491980Y-52342261D01*
X115490577Y-52329810D01*
X115489087Y-52315307D01*
X115487618Y-52299937D01*
X115486281Y-52284885D01*
X115485185Y-52271334D01*
X115484438Y-52260470D01*
X115484150Y-52253505D01*
X115486602Y-52253107D01*
X115493621Y-52252738D01*
X115504692Y-52252405D01*
X115519304Y-52252119D01*
X115536941Y-52251886D01*
X115557091Y-52251717D01*
X115579241Y-52251620D01*
X115595519Y-52251600D01*
X115706899Y-52251600D01*
X115708402Y-52285255D01*
G37*
X115708402Y-52285255D02*
X115713120Y-52334642D01*
X115722714Y-52383391D01*
X115736988Y-52431126D01*
X115755743Y-52477472D01*
X115778784Y-52522055D01*
X115805913Y-52564500D01*
X115836933Y-52604432D01*
X115871648Y-52641476D01*
X115909860Y-52675258D01*
X115915940Y-52680066D01*
X115956038Y-52708193D01*
X115999345Y-52732754D01*
X116045214Y-52753491D01*
X116092999Y-52770147D01*
X116142054Y-52782466D01*
X116191733Y-52790191D01*
X116193061Y-52790331D01*
X116214417Y-52791812D01*
X116239012Y-52792277D01*
X116265170Y-52791784D01*
X116291216Y-52790393D01*
X116315475Y-52788161D01*
X116335040Y-52785369D01*
X116385420Y-52773968D01*
X116434171Y-52758011D01*
X116480973Y-52737722D01*
X116525506Y-52713326D01*
X116567447Y-52685050D01*
X116606477Y-52653119D01*
X116642275Y-52617757D01*
X116674521Y-52579189D01*
X116702893Y-52537642D01*
X116713459Y-52519570D01*
X116717764Y-52511866D01*
X116720977Y-52506162D01*
X116722419Y-52503660D01*
X116722428Y-52503648D01*
X116724718Y-52504589D01*
X116730966Y-52507586D01*
X116740622Y-52512356D01*
X116753134Y-52518617D01*
X116767950Y-52526087D01*
X116784518Y-52534484D01*
X116802288Y-52543526D01*
X116820709Y-52552930D01*
X116839227Y-52562414D01*
X116857292Y-52571697D01*
X116874353Y-52580496D01*
X116889857Y-52588530D01*
X116903254Y-52595515D01*
X116913992Y-52601170D01*
X116921519Y-52605212D01*
X116925284Y-52607360D01*
X116925579Y-52607574D01*
X116926342Y-52609476D01*
X116925650Y-52612864D01*
X116923236Y-52618246D01*
X116918829Y-52626130D01*
X116912161Y-52637022D01*
X116902963Y-52651432D01*
X116899532Y-52656730D01*
X116863745Y-52707247D01*
X116824233Y-52754456D01*
X116781253Y-52798181D01*
X116735061Y-52838245D01*
X116685915Y-52874473D01*
X116634071Y-52906690D01*
X116579786Y-52934719D01*
X116523317Y-52958386D01*
X116464922Y-52977513D01*
X116411386Y-52990608D01*
X116390451Y-52994715D01*
X116371307Y-52997937D01*
X116352786Y-53000387D01*
X116333721Y-53002177D01*
X116312944Y-53003419D01*
X116289286Y-53004226D01*
X116265190Y-53004665D01*
X116246965Y-53004860D01*
X116230071Y-53004960D01*
X116215281Y-53004966D01*
X116203367Y-53004880D01*
X116195103Y-53004704D01*
X116191530Y-53004485D01*
X116185642Y-53003741D01*
X116176310Y-53002630D01*
X116165138Y-53001341D01*
X116159780Y-53000735D01*
X116104003Y-52992047D01*
X116048007Y-52978574D01*
X115992401Y-52960545D01*
X115937794Y-52938188D01*
X115884797Y-52911731D01*
X115834019Y-52881401D01*
X115825770Y-52875955D01*
X115795798Y-52855098D01*
X115769044Y-52834653D01*
X115743942Y-52813317D01*
X115718927Y-52789790D01*
X115703718Y-52774501D01*
X115661520Y-52727656D01*
X115623616Y-52678179D01*
X115590086Y-52626236D01*
X115561014Y-52571994D01*
X115536482Y-52515618D01*
X115516574Y-52457274D01*
X115501371Y-52397129D01*
X115493187Y-52351477D01*
X115491980Y-52342261D01*
X115490577Y-52329810D01*
X115489087Y-52315307D01*
X115487618Y-52299937D01*
X115486281Y-52284885D01*
X115485185Y-52271334D01*
X115484438Y-52260470D01*
X115484150Y-52253505D01*
X115486602Y-52253107D01*
X115493621Y-52252738D01*
X115504692Y-52252405D01*
X115519304Y-52252119D01*
X115536941Y-52251886D01*
X115557091Y-52251717D01*
X115579241Y-52251620D01*
X115595519Y-52251600D01*
X115706899Y-52251600D01*
X115708402Y-52285255D01*
G36*
X118600720Y-51545480D02*
G01*
X117231660Y-51545480D01*
X117231660Y-51324500D01*
X118600720Y-51324500D01*
X118600720Y-51545480D01*
G37*
X118600720Y-51545480D02*
X117231660Y-51545480D01*
X117231660Y-51324500D01*
X118600720Y-51324500D01*
X118600720Y-51545480D01*
G36*
X119910968Y-51324500D02*
G01*
X120116269Y-51607044D01*
X120140799Y-51640835D01*
X120164493Y-51673537D01*
X120187180Y-51704909D01*
X120208689Y-51734714D01*
X120228848Y-51762711D01*
X120247487Y-51788663D01*
X120264435Y-51812329D01*
X120279520Y-51833470D01*
X120292571Y-51851848D01*
X120303418Y-51867223D01*
X120311889Y-51879356D01*
X120317814Y-51888009D01*
X120321021Y-51892942D01*
X120321570Y-51894021D01*
X120320129Y-51897001D01*
X120316077Y-51903439D01*
X120309817Y-51912779D01*
X120301755Y-51924461D01*
X120292293Y-51937928D01*
X120281838Y-51952622D01*
X120270793Y-51967984D01*
X120259562Y-51983457D01*
X120248551Y-51998483D01*
X120238162Y-52012504D01*
X120228801Y-52024962D01*
X120220872Y-52035298D01*
X120214779Y-52042955D01*
X120210927Y-52047375D01*
X120209810Y-52048247D01*
X120208071Y-52046223D01*
X120203504Y-52040295D01*
X120196264Y-52030671D01*
X120186502Y-52017561D01*
X120174373Y-52001174D01*
X120160029Y-51981719D01*
X120143625Y-51959405D01*
X120125313Y-51934442D01*
X120105247Y-51907037D01*
X120083579Y-51877402D01*
X120060465Y-51845743D01*
X120036056Y-51812272D01*
X120010506Y-51777196D01*
X119983968Y-51740724D01*
X119956596Y-51703067D01*
X119948190Y-51691493D01*
X119920558Y-51653445D01*
X119893707Y-51616468D01*
X119867789Y-51580772D01*
X119842960Y-51546572D01*
X119819374Y-51514081D01*
X119797186Y-51483511D01*
X119776549Y-51455075D01*
X119757618Y-51428985D01*
X119740548Y-51405456D01*
X119725493Y-51384699D01*
X119712608Y-51366927D01*
X119702047Y-51352354D01*
X119693964Y-51341192D01*
X119688514Y-51333654D01*
X119685851Y-51329952D01*
X119685625Y-51329630D01*
X119684877Y-51328417D01*
X119684715Y-51327412D01*
X119685563Y-51326595D01*
X119687844Y-51325947D01*
X119691981Y-51325449D01*
X119698399Y-51325081D01*
X119707522Y-51324823D01*
X119719772Y-51324655D01*
X119735573Y-51324559D01*
X119755349Y-51324514D01*
X119779525Y-51324500D01*
X119796554Y-51324499D01*
X119910968Y-51324500D01*
G37*
X119910968Y-51324500D02*
X120116269Y-51607044D01*
X120140799Y-51640835D01*
X120164493Y-51673537D01*
X120187180Y-51704909D01*
X120208689Y-51734714D01*
X120228848Y-51762711D01*
X120247487Y-51788663D01*
X120264435Y-51812329D01*
X120279520Y-51833470D01*
X120292571Y-51851848D01*
X120303418Y-51867223D01*
X120311889Y-51879356D01*
X120317814Y-51888009D01*
X120321021Y-51892942D01*
X120321570Y-51894021D01*
X120320129Y-51897001D01*
X120316077Y-51903439D01*
X120309817Y-51912779D01*
X120301755Y-51924461D01*
X120292293Y-51937928D01*
X120281838Y-51952622D01*
X120270793Y-51967984D01*
X120259562Y-51983457D01*
X120248551Y-51998483D01*
X120238162Y-52012504D01*
X120228801Y-52024962D01*
X120220872Y-52035298D01*
X120214779Y-52042955D01*
X120210927Y-52047375D01*
X120209810Y-52048247D01*
X120208071Y-52046223D01*
X120203504Y-52040295D01*
X120196264Y-52030671D01*
X120186502Y-52017561D01*
X120174373Y-52001174D01*
X120160029Y-51981719D01*
X120143625Y-51959405D01*
X120125313Y-51934442D01*
X120105247Y-51907037D01*
X120083579Y-51877402D01*
X120060465Y-51845743D01*
X120036056Y-51812272D01*
X120010506Y-51777196D01*
X119983968Y-51740724D01*
X119956596Y-51703067D01*
X119948190Y-51691493D01*
X119920558Y-51653445D01*
X119893707Y-51616468D01*
X119867789Y-51580772D01*
X119842960Y-51546572D01*
X119819374Y-51514081D01*
X119797186Y-51483511D01*
X119776549Y-51455075D01*
X119757618Y-51428985D01*
X119740548Y-51405456D01*
X119725493Y-51384699D01*
X119712608Y-51366927D01*
X119702047Y-51352354D01*
X119693964Y-51341192D01*
X119688514Y-51333654D01*
X119685851Y-51329952D01*
X119685625Y-51329630D01*
X119684877Y-51328417D01*
X119684715Y-51327412D01*
X119685563Y-51326595D01*
X119687844Y-51325947D01*
X119691981Y-51325449D01*
X119698399Y-51325081D01*
X119707522Y-51324823D01*
X119719772Y-51324655D01*
X119735573Y-51324559D01*
X119755349Y-51324514D01*
X119779525Y-51324500D01*
X119796554Y-51324499D01*
X119910968Y-51324500D01*
G36*
X115082820Y-53003440D02*
G01*
X113990620Y-53003440D01*
X113990620Y-52779920D01*
X115082820Y-52779920D01*
X115082820Y-53003440D01*
G37*
X115082820Y-53003440D02*
X113990620Y-53003440D01*
X113990620Y-52779920D01*
X115082820Y-52779920D01*
X115082820Y-53003440D01*
G36*
X118021600Y-52995820D02*
G01*
X117800620Y-52995820D01*
X117800620Y-51713120D01*
X118021600Y-51713120D01*
X118021600Y-52995820D01*
G37*
X118021600Y-52995820D02*
X117800620Y-52995820D01*
X117800620Y-51713120D01*
X118021600Y-51713120D01*
X118021600Y-52995820D01*
G36*
X116276209Y-51321115D02*
G01*
X116297949Y-51321898D01*
X116316476Y-51323135D01*
X116324880Y-51324013D01*
X116386536Y-51334111D01*
X116446482Y-51348858D01*
X116504502Y-51368120D01*
X116560380Y-51391760D01*
X116613901Y-51419642D01*
X116664850Y-51451632D01*
X116713012Y-51487592D01*
X116758171Y-51527388D01*
X116800111Y-51570884D01*
X116838617Y-51617944D01*
X116873475Y-51668433D01*
X116874753Y-51670462D01*
X116880950Y-51680604D01*
X116885873Y-51689176D01*
X116889032Y-51695284D01*
X116889933Y-51698034D01*
X116889927Y-51698046D01*
X116887616Y-51699794D01*
X116881584Y-51703936D01*
X116872376Y-51710116D01*
X116860541Y-51717976D01*
X116846627Y-51727159D01*
X116831181Y-51737308D01*
X116814750Y-51748066D01*
X116797883Y-51759075D01*
X116781127Y-51769979D01*
X116765029Y-51780419D01*
X116750138Y-51790039D01*
X116737000Y-51798482D01*
X116726165Y-51805390D01*
X116718178Y-51810407D01*
X116713588Y-51813174D01*
X116712794Y-51813584D01*
X116709968Y-51812718D01*
X116705905Y-51808095D01*
X116700305Y-51799339D01*
X116697184Y-51793914D01*
X116680089Y-51766428D01*
X116659427Y-51738002D01*
X116636229Y-51709852D01*
X116611528Y-51683197D01*
X116586356Y-51659254D01*
X116574480Y-51649140D01*
X116533846Y-51619172D01*
X116490247Y-51593127D01*
X116444196Y-51571226D01*
X116396208Y-51553690D01*
X116346797Y-51540740D01*
X116306452Y-51533813D01*
X116284946Y-51531768D01*
X116260221Y-51530722D01*
X116233760Y-51530637D01*
X116207045Y-51531480D01*
X116181557Y-51533214D01*
X116158779Y-51535804D01*
X116147826Y-51537603D01*
X116097286Y-51549608D01*
X116048775Y-51566099D01*
X116002534Y-51586857D01*
X115958804Y-51611666D01*
X115917826Y-51640308D01*
X115879841Y-51672566D01*
X115845090Y-51708223D01*
X115813814Y-51747062D01*
X115786252Y-51788864D01*
X115762648Y-51833413D01*
X115743240Y-51880492D01*
X115733199Y-51911621D01*
X115722556Y-51956052D01*
X115715928Y-52002105D01*
X115713432Y-52040145D01*
X115712028Y-52081420D01*
X115491031Y-52081420D01*
X115492507Y-52036335D01*
X115496951Y-51976765D01*
X115506239Y-51918219D01*
X115520196Y-51860945D01*
X115538643Y-51805192D01*
X115561405Y-51751206D01*
X115588306Y-51699239D01*
X115619168Y-51649537D01*
X115653816Y-51602349D01*
X115692073Y-51557923D01*
X115733762Y-51516510D01*
X115778708Y-51478355D01*
X115826733Y-51443709D01*
X115877661Y-51412820D01*
X115931316Y-51385936D01*
X115964200Y-51372046D01*
X116017077Y-51353465D01*
X116071789Y-51338763D01*
X116129205Y-51327716D01*
X116144540Y-51325434D01*
X116160719Y-51323688D01*
X116180782Y-51322339D01*
X116203544Y-51321399D01*
X116227825Y-51320875D01*
X116252441Y-51320777D01*
X116276209Y-51321115D01*
G37*
X116276209Y-51321115D02*
X116297949Y-51321898D01*
X116316476Y-51323135D01*
X116324880Y-51324013D01*
X116386536Y-51334111D01*
X116446482Y-51348858D01*
X116504502Y-51368120D01*
X116560380Y-51391760D01*
X116613901Y-51419642D01*
X116664850Y-51451632D01*
X116713012Y-51487592D01*
X116758171Y-51527388D01*
X116800111Y-51570884D01*
X116838617Y-51617944D01*
X116873475Y-51668433D01*
X116874753Y-51670462D01*
X116880950Y-51680604D01*
X116885873Y-51689176D01*
X116889032Y-51695284D01*
X116889933Y-51698034D01*
X116889927Y-51698046D01*
X116887616Y-51699794D01*
X116881584Y-51703936D01*
X116872376Y-51710116D01*
X116860541Y-51717976D01*
X116846627Y-51727159D01*
X116831181Y-51737308D01*
X116814750Y-51748066D01*
X116797883Y-51759075D01*
X116781127Y-51769979D01*
X116765029Y-51780419D01*
X116750138Y-51790039D01*
X116737000Y-51798482D01*
X116726165Y-51805390D01*
X116718178Y-51810407D01*
X116713588Y-51813174D01*
X116712794Y-51813584D01*
X116709968Y-51812718D01*
X116705905Y-51808095D01*
X116700305Y-51799339D01*
X116697184Y-51793914D01*
X116680089Y-51766428D01*
X116659427Y-51738002D01*
X116636229Y-51709852D01*
X116611528Y-51683197D01*
X116586356Y-51659254D01*
X116574480Y-51649140D01*
X116533846Y-51619172D01*
X116490247Y-51593127D01*
X116444196Y-51571226D01*
X116396208Y-51553690D01*
X116346797Y-51540740D01*
X116306452Y-51533813D01*
X116284946Y-51531768D01*
X116260221Y-51530722D01*
X116233760Y-51530637D01*
X116207045Y-51531480D01*
X116181557Y-51533214D01*
X116158779Y-51535804D01*
X116147826Y-51537603D01*
X116097286Y-51549608D01*
X116048775Y-51566099D01*
X116002534Y-51586857D01*
X115958804Y-51611666D01*
X115917826Y-51640308D01*
X115879841Y-51672566D01*
X115845090Y-51708223D01*
X115813814Y-51747062D01*
X115786252Y-51788864D01*
X115762648Y-51833413D01*
X115743240Y-51880492D01*
X115733199Y-51911621D01*
X115722556Y-51956052D01*
X115715928Y-52002105D01*
X115713432Y-52040145D01*
X115712028Y-52081420D01*
X115491031Y-52081420D01*
X115492507Y-52036335D01*
X115496951Y-51976765D01*
X115506239Y-51918219D01*
X115520196Y-51860945D01*
X115538643Y-51805192D01*
X115561405Y-51751206D01*
X115588306Y-51699239D01*
X115619168Y-51649537D01*
X115653816Y-51602349D01*
X115692073Y-51557923D01*
X115733762Y-51516510D01*
X115778708Y-51478355D01*
X115826733Y-51443709D01*
X115877661Y-51412820D01*
X115931316Y-51385936D01*
X115964200Y-51372046D01*
X116017077Y-51353465D01*
X116071789Y-51338763D01*
X116129205Y-51327716D01*
X116144540Y-51325434D01*
X116160719Y-51323688D01*
X116180782Y-51322339D01*
X116203544Y-51321399D01*
X116227825Y-51320875D01*
X116252441Y-51320777D01*
X116276209Y-51321115D01*
G36*
X113538500Y-53003440D02*
G01*
X112390420Y-53003440D01*
X112390420Y-52779920D01*
X113538500Y-52779920D01*
X113538500Y-53003440D01*
G37*
X113538500Y-53003440D02*
X112390420Y-53003440D01*
X112390420Y-52779920D01*
X113538500Y-52779920D01*
X113538500Y-53003440D01*
G04 #@! TD*
D11*
G04 #@! TO.C,C1*
X94910000Y-34290000D03*
X90510000Y-34290000D03*
G04 #@! TD*
D12*
G04 #@! TO.C,C2*
X93497500Y-39370000D03*
X91922500Y-39370000D03*
G04 #@! TD*
D13*
G04 #@! TO.C,C4*
X109702500Y-40640000D03*
X111277500Y-40640000D03*
G04 #@! TD*
D14*
G04 #@! TO.C,C5*
X116840000Y-35077500D03*
X116840000Y-33502500D03*
G04 #@! TD*
D15*
G04 #@! TO.C,C7*
X111760000Y-36490000D03*
X111760000Y-32090000D03*
G04 #@! TD*
D16*
G04 #@! TO.C,D1*
X93980000Y-41375000D03*
X91440000Y-41375000D03*
X91440000Y-47525000D03*
X93980000Y-47525000D03*
G04 #@! TD*
D17*
G04 #@! TO.C,D2*
X119380000Y-42392500D03*
X119380000Y-43967500D03*
G04 #@! TD*
D18*
G04 #@! TO.C,D3*
X123190000Y-38640000D03*
X123190000Y-42640000D03*
G04 #@! TD*
D19*
G04 #@! TO.C,H1*
X83820000Y-53340000D03*
G04 #@! TD*
G04 #@! TO.C,H2*
X125730000Y-33020000D03*
G04 #@! TD*
G04 #@! TO.C,H3*
X83820000Y-33020000D03*
G04 #@! TD*
G04 #@! TO.C,H4*
X125730000Y-53340000D03*
G04 #@! TD*
D20*
G04 #@! TO.C,J1*
X91440000Y-53340000D03*
D21*
X96520000Y-53340000D03*
G04 #@! TD*
D22*
G04 #@! TO.C,J2*
X83820000Y-40640000D03*
D21*
X83820000Y-45720000D03*
G04 #@! TD*
D23*
G04 #@! TO.C,J3*
X143510000Y-33020000D03*
D21*
X138430000Y-33020000D03*
X133350000Y-33020000D03*
G04 #@! TD*
D20*
G04 #@! TO.C,J4*
X133350000Y-53340000D03*
D21*
X138430000Y-53340000D03*
X143510000Y-53340000D03*
G04 #@! TD*
D24*
G04 #@! TO.C,K1*
X127000000Y-39370000D03*
X134620000Y-39370000D03*
X139700000Y-39370000D03*
X144780000Y-39370000D03*
X144780000Y-46990000D03*
X139700000Y-46990000D03*
X134620000Y-46990000D03*
D25*
X127000000Y-46990000D03*
G04 #@! TD*
D26*
G04 #@! TO.C,Q1*
X122190000Y-46040000D03*
X122190000Y-47940000D03*
X124190000Y-46990000D03*
G04 #@! TD*
D12*
G04 #@! TO.C,R3*
X120167500Y-45720000D03*
X118592500Y-45720000D03*
G04 #@! TD*
D17*
G04 #@! TO.C,R4*
X119380000Y-38582500D03*
X119380000Y-40157500D03*
G04 #@! TD*
D27*
G04 #@! TO.C,U1*
X100590000Y-39760000D03*
D28*
X102870000Y-33460000D03*
D27*
X105150000Y-39760000D03*
G04 #@! TD*
D29*
G04 #@! TO.C,C3*
X103752651Y-45550000D03*
D30*
X100252651Y-45550000D03*
G04 #@! TD*
D31*
G04 #@! TO.C,RV1*
X108500000Y-53340000D03*
D32*
X105960000Y-53340000D03*
X103420000Y-53340000D03*
G04 #@! TD*
D17*
G04 #@! TO.C,R2*
X108585000Y-47955000D03*
X108585000Y-49530000D03*
G04 #@! TD*
D33*
G04 #@! TO.C,U2*
X114235000Y-46355000D03*
X114235000Y-45085000D03*
X114235000Y-43815000D03*
X114235000Y-42545000D03*
X109285000Y-42545000D03*
X109285000Y-43815000D03*
X109285000Y-45085000D03*
X109285000Y-46355000D03*
G04 #@! TD*
D17*
G04 #@! TO.C,R1*
X116840000Y-42392500D03*
X116840000Y-43967500D03*
G04 #@! TD*
D13*
G04 #@! TO.C,C6*
X110972500Y-48260000D03*
X112547500Y-48260000D03*
G04 #@! TD*
D34*
G04 #@! TO.C,C8*
X100100000Y-54775000D03*
X100100000Y-53225000D03*
G04 #@! TD*
M02*
